M48
;DRILL file {KiCad 4.0.6} date Monday, August 21, 2017 'PMt' 07:11:52 PM
;FORMAT={2:4/ absolute / inch / suppress leading zeros}
FMAT,2
INCH,TZ
T1C0.016
T2C0.039
T3C0.043
T4C0.177
%
G90
G05
M72
T1
X40900Y-25750
X41400Y-30750
X42650Y-29450
X42650Y-32900
X43000Y-36250
X43800Y-25750
X43850Y-38350
X44000Y-40400
X44150Y-41700
X44350Y-41050
X45600Y-28400
X46300Y-28250
X46400Y-41450
X46500Y-26750
X46800Y-27250
X46850Y-40400
X48276Y-28530
X48400Y-32950
X48550Y-29800
X48700Y-28550
X49150Y-29750
X49200Y-28600
X49300Y-27950
X49300Y-41500
X49350Y-32050
X49350Y-33650
X49550Y-41900
X49576Y-38224
X49750Y-29250
X49800Y-27850
X50300Y-32500
X50300Y-34500
X50355Y-29850
X50600Y-30450
X50800Y-32250
X50850Y-38200
X50950Y-37350
X51600Y-31350
X51650Y-27550
X52100Y-38350
X52300Y-29950
X52700Y-28650
X52700Y-29300
X52750Y-27500
X52750Y-30500
X52950Y-35100
X53250Y-30000
X53850Y-36600
X54350Y-34650
X54550Y-28350
X54600Y-41550
X54750Y-38100
X54800Y-35250
X54900Y-41850
X55250Y-31150
X55316Y-33349
X55316Y-34029
X55900Y-35550
X55950Y-38050
X55995Y-33349
X55995Y-34029
X56150Y-32400
X56700Y-31200
X57050Y-35900
X57200Y-30150
X57650Y-37850
X57650Y-38400
X58100Y-36050
X58300Y-34450
X58450Y-31000
X58500Y-37550
X58850Y-32100
X59550Y-38990
X59850Y-40200
X60250Y-41450
X60250Y-41900
X61198Y-37793
X61750Y-39150
X61816Y-38546
X61900Y-40200
X63200Y-39700
T2
X50050Y-22300
X50050Y-23300
X51050Y-22300
X51050Y-23300
X52050Y-22300
X52050Y-23300
X53050Y-22300
X53050Y-23300
X54050Y-22300
X54050Y-23300
X55050Y-22300
X55050Y-23300
X56050Y-22300
X56050Y-23300
X64050Y-31100
X64050Y-32100
X64050Y-33100
X64050Y-34100
X65050Y-31100
X65050Y-32100
X65050Y-33100
X65050Y-34100
T3
X41575Y-28421
X41575Y-33913
T4
X41339Y-22638
X41339Y-40354
X64961Y-22638
X64961Y-40354
T0
M30
