G04 #@! TF.FileFunction,Copper,L4,Bot,Signal*
%FSLAX46Y46*%
G04 Gerber Fmt 4.6, Leading zero omitted, Abs format (unit mm)*
G04 Created by KiCad (PCBNEW 4.0.6) date Monday, August 21, 2017 'PMt' 07:11:47 PM*
%MOMM*%
%LPD*%
G01*
G04 APERTURE LIST*
%ADD10C,0.100000*%
%ADD11C,1.500000*%
%ADD12R,1.700000X1.700000*%
%ADD13O,1.700000X1.700000*%
%ADD14C,5.000000*%
%ADD15C,0.700000*%
%ADD16C,0.250000*%
%ADD17C,0.500000*%
%ADD18C,0.254000*%
G04 APERTURE END LIST*
D10*
D11*
X105600000Y-72190000D03*
X105600000Y-86140000D03*
D12*
X162687000Y-86614000D03*
D13*
X165227000Y-86614000D03*
X162687000Y-84074000D03*
X165227000Y-84074000D03*
X162687000Y-81534000D03*
X165227000Y-81534000D03*
X162687000Y-78994000D03*
X165227000Y-78994000D03*
D12*
X127127000Y-56642000D03*
D13*
X127127000Y-59182000D03*
X129667000Y-56642000D03*
X129667000Y-59182000D03*
X132207000Y-56642000D03*
X132207000Y-59182000D03*
X134747000Y-56642000D03*
X134747000Y-59182000D03*
X137287000Y-56642000D03*
X137287000Y-59182000D03*
X139827000Y-56642000D03*
X139827000Y-59182000D03*
X142367000Y-56642000D03*
X142367000Y-59182000D03*
D14*
X105000000Y-102500000D03*
X105000000Y-57500000D03*
X165000000Y-57500000D03*
X165000000Y-102500000D03*
D15*
X140501500Y-86432500D03*
X142226500Y-86432500D03*
X140501500Y-84707500D03*
X142226500Y-84707500D03*
X136779000Y-92964000D03*
X129413000Y-94869000D03*
X129159000Y-97028000D03*
X125923000Y-97089000D03*
X148082000Y-87503000D03*
X157226000Y-102108000D03*
X152019000Y-102108000D03*
X144907000Y-91186000D03*
X142113000Y-96647000D03*
X146431000Y-96139000D03*
X147574000Y-91567000D03*
X148463000Y-78740000D03*
X155443194Y-95993284D03*
X151257000Y-99034500D03*
X156845000Y-99441000D03*
X139065000Y-96774000D03*
X144018000Y-79248000D03*
X142621000Y-82296000D03*
X133985000Y-77470000D03*
X103886000Y-65405000D03*
X108331000Y-74803000D03*
X117602000Y-71755000D03*
X132842000Y-76073000D03*
X133858000Y-72771000D03*
X127762000Y-82550000D03*
X122936000Y-83693000D03*
X125349000Y-85471000D03*
X111760000Y-102616000D03*
X117856000Y-105283000D03*
X112649000Y-104267000D03*
X125222000Y-105410000D03*
X138684000Y-105537000D03*
X153035000Y-105283000D03*
X135255000Y-76200000D03*
X111252000Y-65405000D03*
X138557000Y-72009000D03*
X131191000Y-69977000D03*
X108331000Y-83566000D03*
X118872000Y-69215000D03*
X115824000Y-72136000D03*
X133858000Y-74422000D03*
X125349000Y-81407000D03*
X111379000Y-97409000D03*
X118999000Y-102616000D03*
X149479000Y-81534000D03*
X134493000Y-89154000D03*
X127902026Y-75819000D03*
X124841000Y-75565000D03*
X123317000Y-75692000D03*
X128524000Y-77343000D03*
X133985000Y-69850000D03*
X125222000Y-70993000D03*
X105156000Y-78105000D03*
X139192000Y-89535000D03*
X141986000Y-90297000D03*
X138049000Y-88011000D03*
X126492000Y-70739000D03*
X112141000Y-105918000D03*
X124968000Y-72644000D03*
X125857000Y-106426000D03*
X129032000Y-81915000D03*
X131064000Y-79629000D03*
X123698000Y-72517000D03*
X139446000Y-106299000D03*
X109220000Y-92075000D03*
X118110000Y-67945000D03*
X122620489Y-72466720D03*
X153035000Y-106426000D03*
X126365000Y-74295000D03*
X160528000Y-100838000D03*
X145288000Y-76581000D03*
X157013722Y-97905653D03*
X140335000Y-79121000D03*
X148590000Y-95377000D03*
X146431000Y-97536000D03*
X132334000Y-97409000D03*
X127762000Y-87630000D03*
D16*
X165227000Y-86614000D02*
X166402001Y-85438999D01*
X166402001Y-85438999D02*
X166402001Y-78429999D01*
X166402001Y-78429999D02*
X165791001Y-77818999D01*
X165791001Y-77818999D02*
X153194001Y-77818999D01*
X153194001Y-77818999D02*
X149479000Y-81534000D01*
X162687000Y-78994000D02*
X163862001Y-80169001D01*
X163862001Y-80169001D02*
X163862001Y-84638001D01*
X140762374Y-89780252D02*
X140724748Y-89780252D01*
X163862001Y-84638001D02*
X163251001Y-85249001D01*
X163251001Y-85249001D02*
X161701591Y-85249001D01*
X140724748Y-89780252D02*
X139700000Y-90805000D01*
X161701591Y-85249001D02*
X157395330Y-89555262D01*
X157395330Y-89555262D02*
X140987364Y-89555262D01*
X140987364Y-89555262D02*
X140762374Y-89780252D01*
X139700000Y-90805000D02*
X136144000Y-90805000D01*
X136144000Y-90805000D02*
X135344243Y-90005243D01*
X135344243Y-90005243D02*
X134493000Y-89154000D01*
X124841000Y-75565000D02*
X127648026Y-75565000D01*
X127648026Y-75565000D02*
X127902026Y-75819000D01*
X125476000Y-74042410D02*
X125476000Y-74930000D01*
X125476000Y-74930000D02*
X124841000Y-75565000D01*
X125476000Y-74042410D02*
X138977001Y-60541409D01*
X138977001Y-60541409D02*
X138977001Y-60031999D01*
X138977001Y-60031999D02*
X139827000Y-59182000D01*
X123317000Y-75692000D02*
X123317000Y-76186974D01*
X123317000Y-76186974D02*
X124473026Y-77343000D01*
X124473026Y-77343000D02*
X128029026Y-77343000D01*
X128029026Y-77343000D02*
X128524000Y-77343000D01*
X123952000Y-75057000D02*
X124460000Y-74549000D01*
X123317000Y-75692000D02*
X123952000Y-75057000D01*
X124460000Y-74549000D02*
X124460000Y-74422000D01*
X124460000Y-74422000D02*
X137287000Y-61595000D01*
X137287000Y-61595000D02*
X137287000Y-60384081D01*
X137287000Y-60384081D02*
X137287000Y-59182000D01*
X133985000Y-69850000D02*
X133985000Y-66806230D01*
X133985000Y-66806230D02*
X139127220Y-61664010D01*
X141623992Y-61664010D02*
X143542001Y-59746001D01*
X139127220Y-61664010D02*
X141623992Y-61664010D01*
X140676999Y-57491999D02*
X139827000Y-56642000D01*
X143542001Y-59746001D02*
X143542001Y-58617999D01*
X143542001Y-58617999D02*
X142741003Y-57817001D01*
X142741003Y-57817001D02*
X141002001Y-57817001D01*
X141002001Y-57817001D02*
X140676999Y-57491999D01*
X120142000Y-71247000D02*
X124968000Y-71247000D01*
X124968000Y-71247000D02*
X125222000Y-70993000D01*
X113633999Y-77755001D02*
X120142000Y-71247000D01*
X105156000Y-78105000D02*
X105505999Y-77755001D01*
X105505999Y-77755001D02*
X113633999Y-77755001D01*
X140081000Y-89330242D02*
X139396758Y-89330242D01*
X139396758Y-89330242D02*
X139192000Y-89535000D01*
X140081000Y-89330242D02*
X140575974Y-89330242D01*
X140575974Y-89330242D02*
X140800964Y-89105252D01*
X140800964Y-89105252D02*
X156453667Y-89105252D01*
X156453667Y-89105252D02*
X161484919Y-84074000D01*
X161484919Y-84074000D02*
X162687000Y-84074000D01*
X159798001Y-87789001D02*
X157581730Y-90005272D01*
X157581730Y-90005272D02*
X142277728Y-90005272D01*
X142277728Y-90005272D02*
X141986000Y-90297000D01*
X165227000Y-84074000D02*
X164051999Y-85249001D01*
X164051999Y-85249001D02*
X164051999Y-87534003D01*
X164051999Y-87534003D02*
X163797001Y-87789001D01*
X163797001Y-87789001D02*
X159798001Y-87789001D01*
X138049000Y-88011000D02*
X138693242Y-88655242D01*
X138693242Y-88655242D02*
X155565758Y-88655242D01*
X155565758Y-88655242D02*
X160597010Y-83623990D01*
X162687000Y-81534000D02*
X160597010Y-83623990D01*
X125533990Y-71697010D02*
X126492000Y-70739000D01*
X110109000Y-86627026D02*
X110109000Y-81916410D01*
X110109000Y-81916410D02*
X120328400Y-71697010D01*
X120328400Y-71697010D02*
X125533990Y-71697010D01*
X110109000Y-86627026D02*
X110109000Y-103886000D01*
X110109000Y-103886000D02*
X112141000Y-105918000D01*
D17*
X120777000Y-76708000D02*
X120904000Y-76708000D01*
X120904000Y-76708000D02*
X124968000Y-72644000D01*
X120777000Y-105578002D02*
X120777000Y-76708000D01*
X125857000Y-106426000D02*
X121624998Y-106426000D01*
X121624998Y-106426000D02*
X120777000Y-105578002D01*
D16*
X131064000Y-79629000D02*
X129032000Y-81661000D01*
X129032000Y-81661000D02*
X129032000Y-81915000D01*
D17*
X123348001Y-73005628D02*
X123348001Y-72866999D01*
X123348001Y-72866999D02*
X123698000Y-72517000D01*
X123348001Y-73005628D02*
X120076990Y-76276639D01*
X120076990Y-76276639D02*
X120076990Y-105867955D01*
X136971010Y-108773990D02*
X139446000Y-106299000D01*
X120076990Y-105867955D02*
X122983025Y-108773990D01*
X122983025Y-108773990D02*
X136971010Y-108773990D01*
D16*
X118110000Y-67945000D02*
X109220000Y-76835000D01*
X109220000Y-76835000D02*
X105426998Y-76835000D01*
X105426998Y-76835000D02*
X104480999Y-77780999D01*
X104480999Y-77780999D02*
X104480999Y-87335999D01*
X104480999Y-87335999D02*
X109220000Y-92075000D01*
D17*
X119376980Y-100841020D02*
X119376980Y-75710229D01*
X119376980Y-75710229D02*
X122620489Y-72466720D01*
X123952000Y-109474000D02*
X122693072Y-109474000D01*
X122693072Y-109474000D02*
X119376980Y-106157908D01*
X119376980Y-106157908D02*
X119376980Y-104177982D01*
X119376980Y-104177982D02*
X118198999Y-103000001D01*
X118198999Y-103000001D02*
X118198999Y-102019001D01*
X118198999Y-102019001D02*
X119376980Y-100841020D01*
X149987000Y-109474000D02*
X123952000Y-109474000D01*
X152685001Y-106775999D02*
X149987000Y-109474000D01*
X153035000Y-106426000D02*
X152685001Y-106775999D01*
D16*
X126984997Y-73169823D02*
X126984997Y-73675003D01*
X126984997Y-73675003D02*
X126365000Y-74295000D01*
X138940820Y-61214000D02*
X140335000Y-61214000D01*
X126984997Y-73169823D02*
X138940820Y-61214000D01*
X140335000Y-61214000D02*
X142367000Y-59182000D01*
D18*
G36*
X133223000Y-91485980D02*
X133223000Y-96981181D01*
X133169529Y-96851771D01*
X132892686Y-96574445D01*
X132530788Y-96424172D01*
X132138931Y-96423830D01*
X131776771Y-96573471D01*
X131499445Y-96850314D01*
X131349172Y-97212212D01*
X131348830Y-97604069D01*
X131498471Y-97966229D01*
X131775314Y-98243555D01*
X132137212Y-98393828D01*
X132529069Y-98394170D01*
X132891229Y-98244529D01*
X133168555Y-97967686D01*
X133223000Y-97836568D01*
X133223000Y-103332020D01*
X132655517Y-104013000D01*
X125154483Y-104013000D01*
X124587000Y-103332020D01*
X124587000Y-91485980D01*
X125154483Y-90805000D01*
X132655517Y-90805000D01*
X133223000Y-91485980D01*
X133223000Y-91485980D01*
G37*
X133223000Y-91485980D02*
X133223000Y-96981181D01*
X133169529Y-96851771D01*
X132892686Y-96574445D01*
X132530788Y-96424172D01*
X132138931Y-96423830D01*
X131776771Y-96573471D01*
X131499445Y-96850314D01*
X131349172Y-97212212D01*
X131348830Y-97604069D01*
X131498471Y-97966229D01*
X131775314Y-98243555D01*
X132137212Y-98393828D01*
X132529069Y-98394170D01*
X132891229Y-98244529D01*
X133168555Y-97967686D01*
X133223000Y-97836568D01*
X133223000Y-103332020D01*
X132655517Y-104013000D01*
X125154483Y-104013000D01*
X124587000Y-103332020D01*
X124587000Y-91485980D01*
X125154483Y-90805000D01*
X132655517Y-90805000D01*
X133223000Y-91485980D01*
G36*
X141150471Y-90854229D02*
X141427314Y-91131555D01*
X141789212Y-91281828D01*
X142181069Y-91282170D01*
X142543229Y-91132529D01*
X142820555Y-90855686D01*
X142841602Y-90805000D01*
X145101517Y-90805000D01*
X145669000Y-91485980D01*
X145669000Y-96904885D01*
X145596445Y-96977314D01*
X145446172Y-97339212D01*
X145445830Y-97731069D01*
X145595471Y-98093229D01*
X145669000Y-98166886D01*
X145669000Y-103332020D01*
X145101517Y-104013000D01*
X137600483Y-104013000D01*
X137033000Y-103332020D01*
X137033000Y-91565000D01*
X139700000Y-91565000D01*
X139990839Y-91507148D01*
X140237401Y-91342401D01*
X140774802Y-90805000D01*
X141130130Y-90805000D01*
X141150471Y-90854229D01*
X141150471Y-90854229D01*
G37*
X141150471Y-90854229D02*
X141427314Y-91131555D01*
X141789212Y-91281828D01*
X142181069Y-91282170D01*
X142543229Y-91132529D01*
X142820555Y-90855686D01*
X142841602Y-90805000D01*
X145101517Y-90805000D01*
X145669000Y-91485980D01*
X145669000Y-96904885D01*
X145596445Y-96977314D01*
X145446172Y-97339212D01*
X145445830Y-97731069D01*
X145595471Y-98093229D01*
X145669000Y-98166886D01*
X145669000Y-103332020D01*
X145101517Y-104013000D01*
X137600483Y-104013000D01*
X137033000Y-103332020D01*
X137033000Y-91565000D01*
X139700000Y-91565000D01*
X139990839Y-91507148D01*
X140237401Y-91342401D01*
X140774802Y-90805000D01*
X141130130Y-90805000D01*
X141150471Y-90854229D01*
G36*
X159512000Y-90343981D02*
X159512000Y-103198394D01*
X158697394Y-104013000D01*
X149652981Y-104013000D01*
X148844000Y-103319587D01*
X148844000Y-98100722D01*
X156028552Y-98100722D01*
X156178193Y-98462882D01*
X156455036Y-98740208D01*
X156816934Y-98890481D01*
X157208791Y-98890823D01*
X157570951Y-98741182D01*
X157848277Y-98464339D01*
X157998550Y-98102441D01*
X157998892Y-97710584D01*
X157849251Y-97348424D01*
X157572408Y-97071098D01*
X157210510Y-96920825D01*
X156818653Y-96920483D01*
X156456493Y-97070124D01*
X156179167Y-97346967D01*
X156028894Y-97708865D01*
X156028552Y-98100722D01*
X148844000Y-98100722D01*
X148844000Y-96337820D01*
X149147229Y-96212529D01*
X149424555Y-95935686D01*
X149574828Y-95573788D01*
X149575170Y-95181931D01*
X149425529Y-94819771D01*
X149148686Y-94542445D01*
X148844000Y-94415928D01*
X148844000Y-90765272D01*
X157581730Y-90765272D01*
X157872569Y-90707420D01*
X158119131Y-90542673D01*
X158960841Y-89700963D01*
X159512000Y-90343981D01*
X159512000Y-90343981D01*
G37*
X159512000Y-90343981D02*
X159512000Y-103198394D01*
X158697394Y-104013000D01*
X149652981Y-104013000D01*
X148844000Y-103319587D01*
X148844000Y-98100722D01*
X156028552Y-98100722D01*
X156178193Y-98462882D01*
X156455036Y-98740208D01*
X156816934Y-98890481D01*
X157208791Y-98890823D01*
X157570951Y-98741182D01*
X157848277Y-98464339D01*
X157998550Y-98102441D01*
X157998892Y-97710584D01*
X157849251Y-97348424D01*
X157572408Y-97071098D01*
X157210510Y-96920825D01*
X156818653Y-96920483D01*
X156456493Y-97070124D01*
X156179167Y-97346967D01*
X156028894Y-97708865D01*
X156028552Y-98100722D01*
X148844000Y-98100722D01*
X148844000Y-96337820D01*
X149147229Y-96212529D01*
X149424555Y-95935686D01*
X149574828Y-95573788D01*
X149575170Y-95181931D01*
X149425529Y-94819771D01*
X149148686Y-94542445D01*
X148844000Y-94415928D01*
X148844000Y-90765272D01*
X157581730Y-90765272D01*
X157872569Y-90707420D01*
X158119131Y-90542673D01*
X158960841Y-89700963D01*
X159512000Y-90343981D01*
G36*
X145288000Y-82602606D02*
X145288000Y-87577394D01*
X144970152Y-87895242D01*
X139034101Y-87895242D01*
X139034170Y-87815931D01*
X138884529Y-87453771D01*
X138607686Y-87176445D01*
X138245788Y-87026172D01*
X138005568Y-87025962D01*
X137922000Y-86942394D01*
X137922000Y-86627569D01*
X139516330Y-86627569D01*
X139665971Y-86989729D01*
X139942814Y-87267055D01*
X140304712Y-87417328D01*
X140696569Y-87417670D01*
X141058729Y-87268029D01*
X141336055Y-86991186D01*
X141486328Y-86629288D01*
X141486670Y-86237431D01*
X141337029Y-85875271D01*
X141060186Y-85597945D01*
X140698288Y-85447672D01*
X140306431Y-85447330D01*
X139944271Y-85596971D01*
X139666945Y-85873814D01*
X139516672Y-86235712D01*
X139516330Y-86627569D01*
X137922000Y-86627569D01*
X137922000Y-82602606D01*
X139117606Y-81407000D01*
X144092394Y-81407000D01*
X145288000Y-82602606D01*
X145288000Y-82602606D01*
G37*
X145288000Y-82602606D02*
X145288000Y-87577394D01*
X144970152Y-87895242D01*
X139034101Y-87895242D01*
X139034170Y-87815931D01*
X138884529Y-87453771D01*
X138607686Y-87176445D01*
X138245788Y-87026172D01*
X138005568Y-87025962D01*
X137922000Y-86942394D01*
X137922000Y-86627569D01*
X139516330Y-86627569D01*
X139665971Y-86989729D01*
X139942814Y-87267055D01*
X140304712Y-87417328D01*
X140696569Y-87417670D01*
X141058729Y-87268029D01*
X141336055Y-86991186D01*
X141486328Y-86629288D01*
X141486670Y-86237431D01*
X141337029Y-85875271D01*
X141060186Y-85597945D01*
X140698288Y-85447672D01*
X140306431Y-85447330D01*
X139944271Y-85596971D01*
X139666945Y-85873814D01*
X139516672Y-86235712D01*
X139516330Y-86627569D01*
X137922000Y-86627569D01*
X137922000Y-82602606D01*
X139117606Y-81407000D01*
X144092394Y-81407000D01*
X145288000Y-82602606D01*
M02*
