G04 #@! TF.FileFunction,Soldermask,Top*
%FSLAX46Y46*%
G04 Gerber Fmt 4.6, Leading zero omitted, Abs format (unit mm)*
G04 Created by KiCad (PCBNEW 4.0.6) date Monday, August 21, 2017 'PMt' 07:11:47 PM*
%MOMM*%
%LPD*%
G01*
G04 APERTURE LIST*
%ADD10C,0.100000*%
%ADD11R,1.750000X0.450000*%
%ADD12R,0.750000X0.800000*%
%ADD13R,0.800000X0.750000*%
%ADD14R,0.797560X0.797560*%
%ADD15R,1.400000X1.200000*%
%ADD16R,1.400000X2.000000*%
%ADD17R,0.750000X4.550000*%
%ADD18C,1.500000*%
%ADD19R,2.600000X2.000000*%
%ADD20R,1.800000X0.700000*%
%ADD21R,1.700000X1.700000*%
%ADD22O,1.700000X1.700000*%
%ADD23R,0.500000X0.900000*%
%ADD24R,0.900000X0.500000*%
%ADD25R,0.450000X0.350000*%
%ADD26R,2.700000X3.400000*%
%ADD27R,0.250000X0.700000*%
%ADD28R,0.700000X0.250000*%
%ADD29R,1.725000X1.725000*%
%ADD30R,1.060000X0.650000*%
%ADD31R,0.650000X1.060000*%
%ADD32R,0.600000X1.550000*%
%ADD33R,0.900000X1.000000*%
%ADD34R,0.350000X0.400000*%
%ADD35R,1.600000X0.800000*%
G04 APERTURE END LIST*
D10*
D11*
X120860000Y-65752000D03*
X120860000Y-66402000D03*
X120860000Y-67052000D03*
X120860000Y-67702000D03*
X120860000Y-68352000D03*
X120860000Y-69002000D03*
X120860000Y-69652000D03*
X120860000Y-70302000D03*
X120860000Y-70952000D03*
X120860000Y-71602000D03*
X120860000Y-72252000D03*
X120860000Y-72902000D03*
X120860000Y-73552000D03*
X120860000Y-74202000D03*
X128060000Y-74202000D03*
X128060000Y-73552000D03*
X128060000Y-72902000D03*
X128060000Y-72252000D03*
X128060000Y-71602000D03*
X128060000Y-70952000D03*
X128060000Y-70302000D03*
X128060000Y-69652000D03*
X128060000Y-69002000D03*
X128060000Y-68352000D03*
X128060000Y-67702000D03*
X128060000Y-67052000D03*
X128060000Y-66402000D03*
X128060000Y-65752000D03*
D12*
X159385000Y-100814000D03*
X159385000Y-99314000D03*
X157861000Y-100814000D03*
X157861000Y-99314000D03*
X136779000Y-90309000D03*
X136779000Y-91809000D03*
D13*
X143395000Y-90043000D03*
X144895000Y-90043000D03*
D12*
X146812000Y-88646000D03*
X146812000Y-87146000D03*
D13*
X146201000Y-78105000D03*
X147701000Y-78105000D03*
X155980000Y-96901000D03*
X157480000Y-96901000D03*
X146201000Y-76581000D03*
X147701000Y-76581000D03*
X125361000Y-82550000D03*
X126861000Y-82550000D03*
X154583000Y-98425000D03*
X156083000Y-98425000D03*
X138787000Y-81661000D03*
X137287000Y-81661000D03*
X140335000Y-81661000D03*
X141835000Y-81661000D03*
D12*
X144018000Y-81788000D03*
X144018000Y-80288000D03*
X157480000Y-92595000D03*
X157480000Y-94095000D03*
X122555000Y-86487000D03*
X122555000Y-84987000D03*
D13*
X140347000Y-80137000D03*
X141847000Y-80137000D03*
D12*
X127762000Y-86348000D03*
X127762000Y-84848000D03*
X117856000Y-102640000D03*
X117856000Y-104140000D03*
D13*
X148844000Y-92710000D03*
X147344000Y-92710000D03*
X148820000Y-94234000D03*
X147320000Y-94234000D03*
D12*
X118872000Y-71731000D03*
X118872000Y-70231000D03*
D13*
X139077000Y-92837000D03*
X140577000Y-92837000D03*
D12*
X145415000Y-97270000D03*
X145415000Y-95770000D03*
D13*
X125996000Y-92837000D03*
X127496000Y-92837000D03*
D12*
X143891000Y-96381000D03*
X143891000Y-94881000D03*
X132207000Y-96369000D03*
X132207000Y-94869000D03*
X130683000Y-96369000D03*
X130683000Y-94869000D03*
D14*
X106680000Y-65405000D03*
X105181400Y-65405000D03*
X115189000Y-104267000D03*
X113690400Y-104267000D03*
X128270000Y-104775000D03*
X126771400Y-104775000D03*
X141859000Y-104648000D03*
X140360400Y-104648000D03*
X155435300Y-104775000D03*
X153936700Y-104775000D03*
D15*
X144272000Y-101219000D03*
D16*
X138172000Y-101219000D03*
D17*
X125725000Y-101346000D03*
X130175000Y-101346000D03*
D18*
X105600000Y-72190000D03*
X105600000Y-86140000D03*
D19*
X101600000Y-85940000D03*
X101600000Y-72390000D03*
D20*
X106700000Y-83540000D03*
X106700000Y-82290000D03*
X106700000Y-81040000D03*
X106700000Y-79790000D03*
X106700000Y-78540000D03*
X106700000Y-77290000D03*
X106700000Y-76040000D03*
X106700000Y-74790000D03*
D21*
X162687000Y-86614000D03*
D22*
X165227000Y-86614000D03*
X162687000Y-84074000D03*
X165227000Y-84074000D03*
X162687000Y-81534000D03*
X165227000Y-81534000D03*
X162687000Y-78994000D03*
X165227000Y-78994000D03*
D21*
X127127000Y-56642000D03*
D22*
X127127000Y-59182000D03*
X129667000Y-56642000D03*
X129667000Y-59182000D03*
X132207000Y-56642000D03*
X132207000Y-59182000D03*
X134747000Y-56642000D03*
X134747000Y-59182000D03*
X137287000Y-56642000D03*
X137287000Y-59182000D03*
X139827000Y-56642000D03*
X139827000Y-59182000D03*
X142367000Y-56642000D03*
X142367000Y-59182000D03*
D23*
X135231000Y-90297000D03*
X133731000Y-90297000D03*
X143383000Y-91694000D03*
X141883000Y-91694000D03*
X148209000Y-88900000D03*
X149709000Y-88900000D03*
X109970000Y-65405000D03*
X108470000Y-65405000D03*
X137402000Y-71882000D03*
X135902000Y-71882000D03*
D24*
X155956000Y-92595000D03*
X155956000Y-94095000D03*
D23*
X113689000Y-105918000D03*
X115189000Y-105918000D03*
X126770000Y-106426000D03*
X128270000Y-106426000D03*
D24*
X112014000Y-99671000D03*
X112014000Y-98171000D03*
D23*
X140359000Y-106299000D03*
X141859000Y-106299000D03*
X153936000Y-106426000D03*
X155436000Y-106426000D03*
D24*
X132588000Y-69354000D03*
X132588000Y-70854000D03*
D23*
X115848000Y-73279000D03*
X117348000Y-73279000D03*
X131953000Y-76073000D03*
X130453000Y-76073000D03*
X132969000Y-72771000D03*
X131469000Y-72771000D03*
X132969000Y-74422000D03*
X131469000Y-74422000D03*
X139192000Y-94361000D03*
X140692000Y-94361000D03*
X126111000Y-94488000D03*
X127611000Y-94488000D03*
D25*
X156337000Y-102758000D03*
X156337000Y-102108000D03*
X156337000Y-101458000D03*
X156337000Y-100808000D03*
X156337000Y-100158000D03*
X152787000Y-100158000D03*
X152787000Y-100808000D03*
X152787000Y-101458000D03*
X152787000Y-102108000D03*
X152787000Y-102758000D03*
D26*
X154562000Y-101458000D03*
D27*
X139614000Y-87970000D03*
X140114000Y-87970000D03*
X140614000Y-87970000D03*
X141114000Y-87970000D03*
X141614000Y-87970000D03*
X142114000Y-87970000D03*
X142614000Y-87970000D03*
X143114000Y-87970000D03*
D28*
X143764000Y-87320000D03*
X143764000Y-86820000D03*
X143764000Y-86320000D03*
X143764000Y-85820000D03*
X143764000Y-85320000D03*
X143764000Y-84820000D03*
X143764000Y-84320000D03*
X143764000Y-83820000D03*
D27*
X143114000Y-83170000D03*
X142614000Y-83170000D03*
X142114000Y-83170000D03*
X141614000Y-83170000D03*
X141114000Y-83170000D03*
X140614000Y-83170000D03*
X140114000Y-83170000D03*
X139614000Y-83170000D03*
D28*
X138964000Y-83820000D03*
X138964000Y-84320000D03*
X138964000Y-84820000D03*
X138964000Y-85320000D03*
X138964000Y-85820000D03*
X138964000Y-86320000D03*
X138964000Y-86820000D03*
X138964000Y-87320000D03*
D29*
X142226500Y-84707500D03*
X140501500Y-84707500D03*
X142226500Y-86432500D03*
X140501500Y-86432500D03*
D30*
X145923000Y-79761000D03*
X145923000Y-80711000D03*
X145923000Y-81661000D03*
X148123000Y-81661000D03*
X148123000Y-79761000D03*
D31*
X126238000Y-84287000D03*
X125288000Y-84287000D03*
X124338000Y-84287000D03*
X124338000Y-86487000D03*
X126238000Y-86487000D03*
D32*
X150368000Y-96553000D03*
X151638000Y-96553000D03*
X152908000Y-96553000D03*
X154178000Y-96553000D03*
X154178000Y-91153000D03*
X152908000Y-91153000D03*
X151638000Y-91153000D03*
X150368000Y-91153000D03*
D33*
X113051000Y-100989000D03*
X113051000Y-102489000D03*
X115951000Y-102489000D03*
X115951000Y-100989000D03*
D30*
X140040000Y-95763000D03*
X140040000Y-96713000D03*
X140040000Y-97663000D03*
X142240000Y-97663000D03*
X142240000Y-95763000D03*
X126959000Y-96139000D03*
X126959000Y-97089000D03*
X126959000Y-98039000D03*
X129159000Y-98039000D03*
X129159000Y-96139000D03*
D34*
X151907000Y-98247000D03*
X151257000Y-98247000D03*
X150607000Y-98247000D03*
X150607000Y-99822000D03*
X151257000Y-99822000D03*
X151907000Y-99822000D03*
D35*
X151257000Y-99034500D03*
M02*
