G04 #@! TF.FileFunction,Soldermask,Top*
%FSLAX46Y46*%
G04 Gerber Fmt 4.6, Leading zero omitted, Abs format (unit mm)*
G04 Created by KiCad (PCBNEW 4.0.6) date Monday, August 21, 2017 'PMt' 07:03:13 PM*
%MOMM*%
%LPD*%
G01*
G04 APERTURE LIST*
%ADD10C,0.100000*%
%ADD11R,2.100000X2.100000*%
%ADD12O,2.100000X2.100000*%
%ADD13C,1.900000*%
%ADD14R,2.400000X3.000000*%
%ADD15R,1.100000X2.200000*%
%ADD16R,0.900000X1.300000*%
%ADD17R,2.000000X0.950000*%
%ADD18R,0.950000X2.000000*%
%ADD19R,2.127200X2.127200*%
%ADD20O,2.127200X2.127200*%
%ADD21R,1.700000X1.950000*%
%ADD22R,1.200000X1.150000*%
%ADD23R,1.150000X1.200000*%
%ADD24R,1.197560X1.197560*%
%ADD25R,1.950000X1.000000*%
%ADD26R,2.200000X1.600000*%
%ADD27O,2.398980X2.398980*%
%ADD28R,2.398980X2.398980*%
%ADD29R,1.300000X0.900000*%
%ADD30R,1.000000X1.950000*%
%ADD31R,2.150000X0.850000*%
%ADD32R,1.460000X1.050000*%
%ADD33R,2.650000X1.300000*%
%ADD34R,3.200000X1.300000*%
%ADD35R,1.050000X1.460000*%
G04 APERTURE END LIST*
D10*
D11*
X106807000Y-121158000D03*
D12*
X109347000Y-121158000D03*
X106807000Y-118618000D03*
X109347000Y-118618000D03*
X106807000Y-116078000D03*
X109347000Y-116078000D03*
D13*
X133741000Y-123952000D03*
X147691000Y-123952000D03*
D14*
X147491000Y-127952000D03*
X133941000Y-127952000D03*
D15*
X145091000Y-122852000D03*
X143841000Y-122852000D03*
X142591000Y-122852000D03*
X141341000Y-122852000D03*
X140091000Y-122852000D03*
X138841000Y-122852000D03*
X137591000Y-122852000D03*
X136341000Y-122852000D03*
D16*
X151741000Y-77470000D03*
X150241000Y-77470000D03*
D17*
X163517000Y-91682000D03*
X163517000Y-92482000D03*
X163517000Y-93282000D03*
X163517000Y-94082000D03*
X163517000Y-94882000D03*
X163517000Y-95682000D03*
X163517000Y-96482000D03*
X163517000Y-97282000D03*
D18*
X164967000Y-98732000D03*
X165767000Y-98732000D03*
X166567000Y-98732000D03*
X167367000Y-98732000D03*
X168167000Y-98732000D03*
X168967000Y-98732000D03*
X169767000Y-98732000D03*
X170567000Y-98732000D03*
D17*
X172017000Y-97282000D03*
X172017000Y-96482000D03*
X172017000Y-95682000D03*
X172017000Y-94882000D03*
X172017000Y-94082000D03*
X172017000Y-93282000D03*
X172017000Y-92482000D03*
X172017000Y-91682000D03*
D18*
X170567000Y-90232000D03*
X169767000Y-90232000D03*
X168967000Y-90232000D03*
X168167000Y-90232000D03*
X167367000Y-90232000D03*
X166567000Y-90232000D03*
X165767000Y-90232000D03*
X164967000Y-90232000D03*
D16*
X169787000Y-80518000D03*
X168287000Y-80518000D03*
D11*
X155702000Y-123698000D03*
D12*
X155702000Y-126238000D03*
X158242000Y-123698000D03*
X158242000Y-126238000D03*
X160782000Y-123698000D03*
X160782000Y-126238000D03*
X163322000Y-123698000D03*
X163322000Y-126238000D03*
X165862000Y-123698000D03*
X165862000Y-126238000D03*
X168402000Y-123698000D03*
X168402000Y-126238000D03*
X170942000Y-123698000D03*
X170942000Y-126238000D03*
X173482000Y-123698000D03*
X173482000Y-126238000D03*
X176022000Y-123698000D03*
X176022000Y-126238000D03*
X178562000Y-123698000D03*
X178562000Y-126238000D03*
D11*
X155702000Y-58293000D03*
D12*
X155702000Y-60833000D03*
X158242000Y-58293000D03*
X158242000Y-60833000D03*
X160782000Y-58293000D03*
X160782000Y-60833000D03*
X163322000Y-58293000D03*
X163322000Y-60833000D03*
X165862000Y-58293000D03*
X165862000Y-60833000D03*
X168402000Y-58293000D03*
X168402000Y-60833000D03*
X170942000Y-58293000D03*
X170942000Y-60833000D03*
X173482000Y-58293000D03*
X173482000Y-60833000D03*
X176022000Y-58293000D03*
X176022000Y-60833000D03*
X178562000Y-58293000D03*
X178562000Y-60833000D03*
D19*
X189357000Y-96393000D03*
D20*
X186817000Y-96393000D03*
X189357000Y-93853000D03*
X186817000Y-93853000D03*
X189357000Y-91313000D03*
X186817000Y-91313000D03*
D21*
X185837000Y-81318000D03*
X185837000Y-73368000D03*
X190337000Y-81318000D03*
X190337000Y-73368000D03*
D22*
X176137000Y-95758000D03*
X174637000Y-95758000D03*
D23*
X160782000Y-95873000D03*
X160782000Y-94373000D03*
D22*
X176137000Y-93853000D03*
X174637000Y-93853000D03*
D23*
X161417000Y-104545000D03*
X161417000Y-106045000D03*
X170307000Y-106045000D03*
X170307000Y-104545000D03*
X164084000Y-76823000D03*
X164084000Y-75323000D03*
D24*
X189242700Y-67818000D03*
X190741300Y-67818000D03*
D11*
X118872000Y-58293000D03*
D12*
X118872000Y-60833000D03*
X121412000Y-58293000D03*
X121412000Y-60833000D03*
X123952000Y-58293000D03*
X123952000Y-60833000D03*
X126492000Y-58293000D03*
X126492000Y-60833000D03*
X129032000Y-58293000D03*
X129032000Y-60833000D03*
X131572000Y-58293000D03*
X131572000Y-60833000D03*
X134112000Y-58293000D03*
X134112000Y-60833000D03*
X136652000Y-58293000D03*
X136652000Y-60833000D03*
D16*
X161429000Y-89154000D03*
X162929000Y-89154000D03*
X185432000Y-67818000D03*
X186932000Y-67818000D03*
X185432000Y-64389000D03*
X186932000Y-64389000D03*
X170700000Y-72390000D03*
X172200000Y-72390000D03*
D25*
X166337000Y-74168000D03*
X166337000Y-75438000D03*
X166337000Y-76708000D03*
X166337000Y-77978000D03*
X171737000Y-77978000D03*
X171737000Y-76708000D03*
X171737000Y-75438000D03*
X171737000Y-74168000D03*
D26*
X163862000Y-106483000D03*
X167862000Y-106483000D03*
X167862000Y-104083000D03*
X163862000Y-104083000D03*
D23*
X137922000Y-76454000D03*
X137922000Y-74954000D03*
X151892000Y-104382000D03*
X151892000Y-102882000D03*
D22*
X149594000Y-89916000D03*
X148094000Y-89916000D03*
D23*
X151511000Y-110883000D03*
X151511000Y-112383000D03*
X141605000Y-110260000D03*
X141605000Y-111760000D03*
D24*
X189242700Y-64389000D03*
X190741300Y-64389000D03*
X133985000Y-76708000D03*
X133985000Y-78206600D03*
D11*
X186817000Y-117983000D03*
D12*
X189357000Y-117983000D03*
X186817000Y-115443000D03*
X189357000Y-115443000D03*
X186817000Y-112903000D03*
X189357000Y-112903000D03*
X186817000Y-110363000D03*
X189357000Y-110363000D03*
D27*
X107061000Y-70739000D03*
D28*
X107061000Y-68199000D03*
D27*
X107061000Y-64008000D03*
D28*
X107061000Y-61468000D03*
D11*
X130175000Y-101727000D03*
D12*
X132715000Y-101727000D03*
X130175000Y-99187000D03*
X132715000Y-99187000D03*
X130175000Y-96647000D03*
X132715000Y-96647000D03*
X130175000Y-94107000D03*
X132715000Y-94107000D03*
X130175000Y-91567000D03*
X132715000Y-91567000D03*
X130175000Y-89027000D03*
X132715000Y-89027000D03*
D27*
X107696000Y-96520000D03*
D28*
X107696000Y-93980000D03*
D27*
X107696000Y-87376000D03*
D28*
X107696000Y-84836000D03*
D11*
X106807000Y-109474000D03*
D12*
X109347000Y-109474000D03*
X106807000Y-106934000D03*
X109347000Y-106934000D03*
X106807000Y-104394000D03*
X109347000Y-104394000D03*
D29*
X189357000Y-123166000D03*
X189357000Y-121666000D03*
D16*
X116598000Y-72644000D03*
X118098000Y-72644000D03*
X116598000Y-66040000D03*
X118098000Y-66040000D03*
D29*
X137033000Y-81129000D03*
X137033000Y-79629000D03*
X153797000Y-83185000D03*
X153797000Y-81685000D03*
X158115000Y-83173000D03*
X158115000Y-81673000D03*
X155956000Y-81685000D03*
X155956000Y-83185000D03*
X133985000Y-73545000D03*
X133985000Y-75045000D03*
X140716000Y-102882000D03*
X140716000Y-104382000D03*
D16*
X144006000Y-90932000D03*
X142506000Y-90932000D03*
X144006000Y-93472000D03*
X142506000Y-93472000D03*
X138708000Y-113284000D03*
X140208000Y-113284000D03*
D30*
X115379500Y-97315000D03*
X116649500Y-97315000D03*
X117919500Y-97315000D03*
X119189500Y-97315000D03*
X119189500Y-91915000D03*
X117919500Y-91915000D03*
X116649500Y-91915000D03*
X115379500Y-91915000D03*
X115379500Y-89250500D03*
X116649500Y-89250500D03*
X117919500Y-89250500D03*
X119189500Y-89250500D03*
X119189500Y-83850500D03*
X117919500Y-83850500D03*
X116649500Y-83850500D03*
X115379500Y-83850500D03*
D31*
X140078908Y-70440448D03*
X140078908Y-71090448D03*
X140078908Y-71740448D03*
X140078908Y-72390448D03*
X140078908Y-73040448D03*
X140078908Y-73690448D03*
X140078908Y-74340448D03*
X140078908Y-74990448D03*
X140078908Y-75640448D03*
X140078908Y-76290448D03*
X140078908Y-76940448D03*
X140078908Y-77590448D03*
X140078908Y-78240448D03*
X140078908Y-78890448D03*
X147278908Y-78890448D03*
X147278908Y-78240448D03*
X147278908Y-77590448D03*
X147278908Y-76940448D03*
X147278908Y-76290448D03*
X147278908Y-75640448D03*
X147278908Y-74990448D03*
X147278908Y-74340448D03*
X147278908Y-73690448D03*
X147278908Y-73040448D03*
X147278908Y-72390448D03*
X147278908Y-71740448D03*
X147278908Y-71090448D03*
X147278908Y-70440448D03*
D32*
X146644000Y-91572000D03*
X146644000Y-92522000D03*
X146644000Y-93472000D03*
X148844000Y-93472000D03*
X148844000Y-91572000D03*
D33*
X144002000Y-100340000D03*
X144002000Y-101590000D03*
X144002000Y-102890000D03*
X144002000Y-104140000D03*
X149352000Y-104140000D03*
X149352000Y-102890000D03*
D34*
X149077000Y-101590000D03*
D33*
X149352000Y-100340000D03*
D25*
X143731000Y-110617000D03*
X143731000Y-111887000D03*
X143731000Y-113157000D03*
X143731000Y-114427000D03*
X149131000Y-114427000D03*
X149131000Y-113157000D03*
X149131000Y-111887000D03*
X149131000Y-110617000D03*
D13*
X114056000Y-124079000D03*
X128006000Y-124079000D03*
D14*
X127806000Y-128079000D03*
X114256000Y-128079000D03*
D15*
X125406000Y-122979000D03*
X124156000Y-122979000D03*
X122906000Y-122979000D03*
X121656000Y-122979000D03*
X120406000Y-122979000D03*
X119156000Y-122979000D03*
X117906000Y-122979000D03*
X116656000Y-122979000D03*
D11*
X107188000Y-76644500D03*
D12*
X107188000Y-79184500D03*
D35*
X112969000Y-71458000D03*
X113919000Y-71458000D03*
X114869000Y-71458000D03*
X114869000Y-69258000D03*
X112969000Y-69258000D03*
X113919000Y-69258000D03*
X112842000Y-64727000D03*
X113792000Y-64727000D03*
X114742000Y-64727000D03*
X114742000Y-62527000D03*
X112842000Y-62527000D03*
X113792000Y-62527000D03*
D24*
X111125000Y-78740000D03*
X111125000Y-80238600D03*
D29*
X111125000Y-75335000D03*
X111125000Y-76835000D03*
M02*
