M48
;DRILL file {KiCad 4.0.6} date Monday, August 21, 2017 'PMt' 07:03:58 PM
;FORMAT={2:4/ absolute / inch / suppress leading zeros}
FMAT,2
INCH,TZ
T1C0.016
T2C0.020
T3C0.039
T4C0.040
T5C0.043
T6C0.043
T7C0.124
%
G90
G05
M72
T1
X43750Y-32100
X45500Y-48050
X46650Y-49100
X47150Y-28600
X47250Y-47600
X47350Y-37850
X47450Y-34800
X47450Y-49566
X47850Y-26800
X48000Y-32350
X48300Y-32850
X48600Y-35300
X49300Y-34600
X49900Y-48000
X50400Y-29300
X51150Y-28100
X52300Y-26050
X52750Y-31250
X52800Y-26000
X53200Y-47950
X53850Y-25997
X53850Y-29500
X53850Y-30100
X53950Y-27850
X53950Y-32400
X54200Y-44600
X54350Y-26300
X54450Y-28100
X54900Y-47600
X55150Y-49650
X55200Y-44000
X55250Y-40050
X55400Y-41600
X55700Y-36700
X55750Y-28750
X55750Y-30850
X55800Y-40000
X55862Y-31338
X56150Y-30800
X56200Y-34700
X56200Y-35200
X56400Y-30500
X56600Y-36350
X56800Y-42650
X57200Y-36400
X57200Y-47600
X57300Y-29850
X57650Y-31750
X57750Y-37300
X57750Y-45650
X57800Y-35400
X57800Y-39950
X57900Y-39504
X58158Y-36649
X58300Y-33700
X59400Y-35400
X59650Y-43200
X59650Y-44750
X60150Y-30500
X60300Y-41100
X60305Y-40505
X60550Y-33150
X61400Y-33150
X62250Y-33150
X62800Y-37200
X62800Y-37700
X63050Y-41200
X63100Y-35100
X63750Y-36650
X64050Y-29700
X64050Y-30200
X64650Y-34500
X65034Y-31200
X65050Y-37450
X65300Y-28700
X65300Y-36950
X65550Y-38200
X65800Y-37700
X66200Y-38200
X66350Y-36200
X66350Y-36600
X66358Y-37016
X66500Y-34750
X66800Y-28450
X67050Y-38200
X67081Y-37489
X67300Y-40450
X67550Y-38950
X67550Y-39450
X67550Y-41950
X68300Y-28700
X68300Y-35200
X68550Y-36450
X68654Y-35200
X69050Y-28700
X69050Y-34750
X69050Y-36450
X69050Y-38200
X69301Y-28951
X69800Y-36950
X69800Y-37700
X72300Y-26700
X72600Y-25450
X72800Y-43450
X74800Y-30450
X75500Y-45800
X75800Y-25350
X75800Y-26700
T2
X44850Y-32850
X44850Y-36000
X45700Y-24850
X45750Y-27500
X46400Y-34050
X46400Y-37300
T3
X42050Y-41100
X42050Y-42100
X42050Y-43100
X42050Y-45700
X42050Y-46700
X42050Y-47700
X42200Y-30175
X42200Y-31175
X43050Y-41100
X43050Y-42100
X43050Y-43100
X43050Y-45700
X43050Y-46700
X43050Y-47700
X46800Y-22950
X46800Y-23950
X47800Y-22950
X47800Y-23950
X48800Y-22950
X48800Y-23950
X49800Y-22950
X49800Y-23950
X50800Y-22950
X50800Y-23950
X51250Y-35050
X51250Y-36050
X51250Y-37050
X51250Y-38050
X51250Y-39050
X51250Y-40050
X51800Y-22950
X51800Y-23950
X52250Y-35050
X52250Y-36050
X52250Y-37050
X52250Y-38050
X52250Y-39050
X52250Y-40050
X52800Y-22950
X52800Y-23950
X53800Y-22950
X53800Y-23950
X61300Y-22950
X61300Y-23950
X61300Y-48700
X61300Y-49700
X62300Y-22950
X62300Y-23950
X62300Y-48700
X62300Y-49700
X63300Y-22950
X63300Y-23950
X63300Y-48700
X63300Y-49700
X64300Y-22950
X64300Y-23950
X64300Y-48700
X64300Y-49700
X65300Y-22950
X65300Y-23950
X65300Y-48700
X65300Y-49700
X66300Y-22950
X66300Y-23950
X66300Y-48700
X66300Y-49700
X67300Y-22950
X67300Y-23950
X67300Y-48700
X67300Y-49700
X68300Y-22950
X68300Y-23950
X68300Y-48700
X68300Y-49700
X69300Y-22950
X69300Y-23950
X69300Y-48700
X69300Y-49700
X70300Y-22950
X70300Y-23950
X70300Y-48700
X70300Y-49700
X73550Y-43450
X73550Y-44450
X73550Y-45450
X73550Y-46450
X74550Y-43450
X74550Y-44450
X74550Y-45450
X74550Y-46450
T4
X73550Y-35950
X73550Y-36950
X73550Y-37950
X74550Y-35950
X74550Y-36950
X74550Y-37950
T5
X42150Y-24200
X42150Y-25200
X42150Y-26850
X42150Y-27850
X42400Y-33400
X42400Y-34400
X42400Y-37000
X42400Y-38000
T6
X44904Y-48850
X50396Y-48850
X52654Y-48800
X58146Y-48800
T7
X41732Y-21378
X41732Y-51063
X75591Y-21378
X75591Y-51063
T0
M30
