G04 #@! TF.FileFunction,Copper,L2,Inr,Plane*
%FSLAX46Y46*%
G04 Gerber Fmt 4.6, Leading zero omitted, Abs format (unit mm)*
G04 Created by KiCad (PCBNEW 4.0.6) date Monday, August 21, 2017 'PMt' 07:03:13 PM*
%MOMM*%
%LPD*%
G01*
G04 APERTURE LIST*
%ADD10C,0.100000*%
%ADD11R,1.700000X1.700000*%
%ADD12O,1.700000X1.700000*%
%ADD13C,1.500000*%
%ADD14R,1.727200X1.727200*%
%ADD15O,1.727200X1.727200*%
%ADD16O,1.998980X1.998980*%
%ADD17R,1.998980X1.998980*%
%ADD18C,4.000000*%
%ADD19C,0.700000*%
%ADD20C,1.000000*%
%ADD21C,0.254000*%
G04 APERTURE END LIST*
D10*
D11*
X106807000Y-121158000D03*
D12*
X109347000Y-121158000D03*
X106807000Y-118618000D03*
X109347000Y-118618000D03*
X106807000Y-116078000D03*
X109347000Y-116078000D03*
D13*
X133741000Y-123952000D03*
X147691000Y-123952000D03*
D11*
X155702000Y-123698000D03*
D12*
X155702000Y-126238000D03*
X158242000Y-123698000D03*
X158242000Y-126238000D03*
X160782000Y-123698000D03*
X160782000Y-126238000D03*
X163322000Y-123698000D03*
X163322000Y-126238000D03*
X165862000Y-123698000D03*
X165862000Y-126238000D03*
X168402000Y-123698000D03*
X168402000Y-126238000D03*
X170942000Y-123698000D03*
X170942000Y-126238000D03*
X173482000Y-123698000D03*
X173482000Y-126238000D03*
X176022000Y-123698000D03*
X176022000Y-126238000D03*
X178562000Y-123698000D03*
X178562000Y-126238000D03*
D11*
X155702000Y-58293000D03*
D12*
X155702000Y-60833000D03*
X158242000Y-58293000D03*
X158242000Y-60833000D03*
X160782000Y-58293000D03*
X160782000Y-60833000D03*
X163322000Y-58293000D03*
X163322000Y-60833000D03*
X165862000Y-58293000D03*
X165862000Y-60833000D03*
X168402000Y-58293000D03*
X168402000Y-60833000D03*
X170942000Y-58293000D03*
X170942000Y-60833000D03*
X173482000Y-58293000D03*
X173482000Y-60833000D03*
X176022000Y-58293000D03*
X176022000Y-60833000D03*
X178562000Y-58293000D03*
X178562000Y-60833000D03*
D14*
X189357000Y-96393000D03*
D15*
X186817000Y-96393000D03*
X189357000Y-93853000D03*
X186817000Y-93853000D03*
X189357000Y-91313000D03*
X186817000Y-91313000D03*
D11*
X118872000Y-58293000D03*
D12*
X118872000Y-60833000D03*
X121412000Y-58293000D03*
X121412000Y-60833000D03*
X123952000Y-58293000D03*
X123952000Y-60833000D03*
X126492000Y-58293000D03*
X126492000Y-60833000D03*
X129032000Y-58293000D03*
X129032000Y-60833000D03*
X131572000Y-58293000D03*
X131572000Y-60833000D03*
X134112000Y-58293000D03*
X134112000Y-60833000D03*
X136652000Y-58293000D03*
X136652000Y-60833000D03*
D11*
X186817000Y-117983000D03*
D12*
X189357000Y-117983000D03*
X186817000Y-115443000D03*
X189357000Y-115443000D03*
X186817000Y-112903000D03*
X189357000Y-112903000D03*
X186817000Y-110363000D03*
X189357000Y-110363000D03*
D16*
X107061000Y-70739000D03*
D17*
X107061000Y-68199000D03*
D16*
X107061000Y-64008000D03*
D17*
X107061000Y-61468000D03*
D11*
X130175000Y-101727000D03*
D12*
X132715000Y-101727000D03*
X130175000Y-99187000D03*
X132715000Y-99187000D03*
X130175000Y-96647000D03*
X132715000Y-96647000D03*
X130175000Y-94107000D03*
X132715000Y-94107000D03*
X130175000Y-91567000D03*
X132715000Y-91567000D03*
X130175000Y-89027000D03*
X132715000Y-89027000D03*
D16*
X107696000Y-96520000D03*
D17*
X107696000Y-93980000D03*
D16*
X107696000Y-87376000D03*
D17*
X107696000Y-84836000D03*
D11*
X106807000Y-109474000D03*
D12*
X109347000Y-109474000D03*
X106807000Y-106934000D03*
X109347000Y-106934000D03*
X106807000Y-104394000D03*
X109347000Y-104394000D03*
D13*
X114056000Y-124079000D03*
X128006000Y-124079000D03*
D11*
X107188000Y-76644500D03*
D12*
X107188000Y-79184500D03*
D18*
X192000000Y-54300000D03*
X192000000Y-129700000D03*
X106000000Y-129700000D03*
X106000000Y-54300000D03*
D19*
X111125000Y-81534000D03*
X140208000Y-111760000D03*
X151511000Y-113665000D03*
D20*
X113919000Y-91440000D03*
X113919000Y-83439000D03*
X116205000Y-69850000D03*
X116078000Y-63119000D03*
D19*
X153174000Y-102882000D03*
X115570000Y-122047000D03*
X135128000Y-121793000D03*
X158115000Y-84201000D03*
X155956000Y-84201000D03*
X153797000Y-84201000D03*
X145288000Y-92456000D03*
X146812000Y-89916000D03*
X141732000Y-101600000D03*
X133985000Y-79375000D03*
X136779000Y-76454000D03*
X192532000Y-64389000D03*
X170387001Y-95222463D03*
X159512000Y-95758000D03*
X177292000Y-95758000D03*
X177292000Y-93853000D03*
X192532000Y-67818000D03*
X189992000Y-77343000D03*
X160147000Y-104648000D03*
X171577000Y-106553000D03*
X169672000Y-72263000D03*
X162687000Y-75438000D03*
X151511000Y-109728000D03*
X153162000Y-104394000D03*
X126746000Y-121920000D03*
X137033000Y-82296000D03*
X160274000Y-89154000D03*
X152781000Y-77470000D03*
X150876000Y-89916000D03*
X142748000Y-89408000D03*
X140716000Y-105664000D03*
X137668000Y-113284000D03*
X145288000Y-120904000D03*
X136779000Y-74930000D03*
X162687000Y-76708000D03*
X159512000Y-94488000D03*
X175387000Y-97028000D03*
X175387000Y-92583000D03*
X183642000Y-67818000D03*
X174117000Y-92583000D03*
X171577000Y-100203000D03*
X174382003Y-89408000D03*
X168148000Y-97028000D03*
X170307000Y-97028000D03*
X168529000Y-91948000D03*
X191770000Y-116332000D03*
X168529000Y-92964000D03*
X168550198Y-94020400D03*
X184912000Y-110363000D03*
X170942000Y-102743000D03*
X165186999Y-79248000D03*
X165227000Y-95123000D03*
X146685000Y-94742000D03*
X147066000Y-100340000D03*
X141889702Y-79598298D03*
X143764000Y-92329000D03*
X167132000Y-95758000D03*
X165862000Y-72898000D03*
X165862000Y-93853000D03*
X146685000Y-115951000D03*
X141605000Y-78359000D03*
X146812000Y-101473000D03*
X166497000Y-97028000D03*
X142621000Y-78232000D03*
X147720923Y-93088883D03*
X168910000Y-88265000D03*
X176023397Y-73534397D03*
X175387000Y-72898000D03*
X171577000Y-98933000D03*
X173482000Y-72898000D03*
X173482000Y-89408000D03*
X120523000Y-125897000D03*
X140081000Y-126111000D03*
X136779000Y-66033030D03*
X164211000Y-87630000D03*
X132842000Y-66167000D03*
X148082000Y-85598000D03*
X139446000Y-120904000D03*
X120015000Y-120904000D03*
X146431000Y-80645000D03*
X143256000Y-77470000D03*
X118491000Y-124714000D03*
X138049000Y-66802000D03*
X161925000Y-93091000D03*
D20*
X117856000Y-94742000D03*
X117856000Y-86487000D03*
D19*
X134112000Y-66040000D03*
X145542000Y-75819000D03*
X137033000Y-70739000D03*
X140335000Y-101727000D03*
X120269000Y-96139000D03*
X123444000Y-89662000D03*
X122682000Y-83439000D03*
X125222000Y-87884000D03*
X138303000Y-71374000D03*
X141478000Y-93218000D03*
X120523000Y-88392000D03*
X121920000Y-82169000D03*
X142748000Y-88138000D03*
X144272000Y-108331000D03*
X141605000Y-73025000D03*
X119761000Y-72644000D03*
X128016000Y-74422000D03*
X121539000Y-68072000D03*
X129921000Y-71374000D03*
X184404000Y-64643000D03*
X175387000Y-88265000D03*
D21*
G36*
X197290000Y-133290000D02*
X100710000Y-133290000D01*
X100710000Y-130221834D01*
X103364543Y-130221834D01*
X103764853Y-131190658D01*
X104505443Y-131932542D01*
X105473567Y-132334542D01*
X106521834Y-132335457D01*
X107490658Y-131935147D01*
X108232542Y-131194557D01*
X108634542Y-130226433D01*
X108634546Y-130221834D01*
X189364543Y-130221834D01*
X189764853Y-131190658D01*
X190505443Y-131932542D01*
X191473567Y-132334542D01*
X192521834Y-132335457D01*
X193490658Y-131935147D01*
X194232542Y-131194557D01*
X194634542Y-130226433D01*
X194635457Y-129178166D01*
X194235147Y-128209342D01*
X193494557Y-127467458D01*
X192526433Y-127065458D01*
X191478166Y-127064543D01*
X190509342Y-127464853D01*
X189767458Y-128205443D01*
X189365458Y-129173567D01*
X189364543Y-130221834D01*
X108634546Y-130221834D01*
X108635457Y-129178166D01*
X108235147Y-128209342D01*
X107494557Y-127467458D01*
X106526433Y-127065458D01*
X105478166Y-127064543D01*
X104509342Y-127464853D01*
X103767458Y-128205443D01*
X103365458Y-129173567D01*
X103364543Y-130221834D01*
X100710000Y-130221834D01*
X100710000Y-126092069D01*
X119537830Y-126092069D01*
X119687471Y-126454229D01*
X119964314Y-126731555D01*
X120326212Y-126881828D01*
X120718069Y-126882170D01*
X121080229Y-126732529D01*
X121357555Y-126455686D01*
X121419681Y-126306069D01*
X139095830Y-126306069D01*
X139245471Y-126668229D01*
X139522314Y-126945555D01*
X139884212Y-127095828D01*
X140276069Y-127096170D01*
X140638229Y-126946529D01*
X140915555Y-126669686D01*
X141065828Y-126307788D01*
X141066170Y-125915931D01*
X140916529Y-125553771D01*
X140639686Y-125276445D01*
X140277788Y-125126172D01*
X139885931Y-125125830D01*
X139523771Y-125275471D01*
X139246445Y-125552314D01*
X139096172Y-125914212D01*
X139095830Y-126306069D01*
X121419681Y-126306069D01*
X121507828Y-126093788D01*
X121508170Y-125701931D01*
X121358529Y-125339771D01*
X121081686Y-125062445D01*
X120719788Y-124912172D01*
X120327931Y-124911830D01*
X119965771Y-125061471D01*
X119688445Y-125338314D01*
X119538172Y-125700212D01*
X119537830Y-126092069D01*
X100710000Y-126092069D01*
X100710000Y-124353285D01*
X112670760Y-124353285D01*
X112881169Y-124862515D01*
X113270436Y-125252461D01*
X113779298Y-125463759D01*
X114330285Y-125464240D01*
X114839515Y-125253831D01*
X115184878Y-124909069D01*
X117505830Y-124909069D01*
X117655471Y-125271229D01*
X117932314Y-125548555D01*
X118294212Y-125698828D01*
X118686069Y-125699170D01*
X119048229Y-125549529D01*
X119325555Y-125272686D01*
X119475828Y-124910788D01*
X119476170Y-124518931D01*
X119407727Y-124353285D01*
X126620760Y-124353285D01*
X126831169Y-124862515D01*
X127220436Y-125252461D01*
X127729298Y-125463759D01*
X128280285Y-125464240D01*
X128789515Y-125253831D01*
X129179461Y-124864564D01*
X129390759Y-124355702D01*
X129390871Y-124226285D01*
X132355760Y-124226285D01*
X132566169Y-124735515D01*
X132955436Y-125125461D01*
X133464298Y-125336759D01*
X134015285Y-125337240D01*
X134524515Y-125126831D01*
X134914461Y-124737564D01*
X135125759Y-124228702D01*
X135125761Y-124226285D01*
X146305760Y-124226285D01*
X146516169Y-124735515D01*
X146905436Y-125125461D01*
X147414298Y-125336759D01*
X147965285Y-125337240D01*
X148474515Y-125126831D01*
X148864461Y-124737564D01*
X149075759Y-124228702D01*
X149076240Y-123677715D01*
X148865831Y-123168485D01*
X148545905Y-122848000D01*
X154204560Y-122848000D01*
X154204560Y-124548000D01*
X154248838Y-124783317D01*
X154387910Y-124999441D01*
X154600110Y-125144431D01*
X154656454Y-125155841D01*
X154651946Y-125158853D01*
X154330039Y-125640622D01*
X154217000Y-126208907D01*
X154217000Y-126267093D01*
X154330039Y-126835378D01*
X154651946Y-127317147D01*
X155133715Y-127639054D01*
X155702000Y-127752093D01*
X156270285Y-127639054D01*
X156752054Y-127317147D01*
X156972000Y-126987974D01*
X157191946Y-127317147D01*
X157673715Y-127639054D01*
X158242000Y-127752093D01*
X158810285Y-127639054D01*
X159292054Y-127317147D01*
X159512000Y-126987974D01*
X159731946Y-127317147D01*
X160213715Y-127639054D01*
X160782000Y-127752093D01*
X161350285Y-127639054D01*
X161832054Y-127317147D01*
X162052000Y-126987974D01*
X162271946Y-127317147D01*
X162753715Y-127639054D01*
X163322000Y-127752093D01*
X163890285Y-127639054D01*
X164372054Y-127317147D01*
X164592000Y-126987974D01*
X164811946Y-127317147D01*
X165293715Y-127639054D01*
X165862000Y-127752093D01*
X166430285Y-127639054D01*
X166912054Y-127317147D01*
X167132000Y-126987974D01*
X167351946Y-127317147D01*
X167833715Y-127639054D01*
X168402000Y-127752093D01*
X168970285Y-127639054D01*
X169452054Y-127317147D01*
X169672000Y-126987974D01*
X169891946Y-127317147D01*
X170373715Y-127639054D01*
X170942000Y-127752093D01*
X171510285Y-127639054D01*
X171992054Y-127317147D01*
X172212000Y-126987974D01*
X172431946Y-127317147D01*
X172913715Y-127639054D01*
X173482000Y-127752093D01*
X174050285Y-127639054D01*
X174532054Y-127317147D01*
X174752000Y-126987974D01*
X174971946Y-127317147D01*
X175453715Y-127639054D01*
X176022000Y-127752093D01*
X176590285Y-127639054D01*
X177072054Y-127317147D01*
X177292000Y-126987974D01*
X177511946Y-127317147D01*
X177993715Y-127639054D01*
X178562000Y-127752093D01*
X179130285Y-127639054D01*
X179612054Y-127317147D01*
X179933961Y-126835378D01*
X180047000Y-126267093D01*
X180047000Y-126208907D01*
X179933961Y-125640622D01*
X179612054Y-125158853D01*
X179326422Y-124968000D01*
X179612054Y-124777147D01*
X179933961Y-124295378D01*
X180047000Y-123727093D01*
X180047000Y-123668907D01*
X179933961Y-123100622D01*
X179612054Y-122618853D01*
X179130285Y-122296946D01*
X178562000Y-122183907D01*
X177993715Y-122296946D01*
X177511946Y-122618853D01*
X177292000Y-122948026D01*
X177072054Y-122618853D01*
X176590285Y-122296946D01*
X176022000Y-122183907D01*
X175453715Y-122296946D01*
X174971946Y-122618853D01*
X174752000Y-122948026D01*
X174532054Y-122618853D01*
X174050285Y-122296946D01*
X173482000Y-122183907D01*
X172913715Y-122296946D01*
X172431946Y-122618853D01*
X172212000Y-122948026D01*
X171992054Y-122618853D01*
X171510285Y-122296946D01*
X170942000Y-122183907D01*
X170373715Y-122296946D01*
X169891946Y-122618853D01*
X169672000Y-122948026D01*
X169452054Y-122618853D01*
X168970285Y-122296946D01*
X168402000Y-122183907D01*
X167833715Y-122296946D01*
X167351946Y-122618853D01*
X167132000Y-122948026D01*
X166912054Y-122618853D01*
X166430285Y-122296946D01*
X165862000Y-122183907D01*
X165293715Y-122296946D01*
X164811946Y-122618853D01*
X164592000Y-122948026D01*
X164372054Y-122618853D01*
X163890285Y-122296946D01*
X163322000Y-122183907D01*
X162753715Y-122296946D01*
X162271946Y-122618853D01*
X162052000Y-122948026D01*
X161832054Y-122618853D01*
X161350285Y-122296946D01*
X160782000Y-122183907D01*
X160213715Y-122296946D01*
X159731946Y-122618853D01*
X159512000Y-122948026D01*
X159292054Y-122618853D01*
X158810285Y-122296946D01*
X158242000Y-122183907D01*
X157673715Y-122296946D01*
X157191946Y-122618853D01*
X157164150Y-122660452D01*
X157155162Y-122612683D01*
X157016090Y-122396559D01*
X156803890Y-122251569D01*
X156552000Y-122200560D01*
X154852000Y-122200560D01*
X154616683Y-122244838D01*
X154400559Y-122383910D01*
X154255569Y-122596110D01*
X154204560Y-122848000D01*
X148545905Y-122848000D01*
X148476564Y-122778539D01*
X147967702Y-122567241D01*
X147416715Y-122566760D01*
X146907485Y-122777169D01*
X146517539Y-123166436D01*
X146306241Y-123675298D01*
X146305760Y-124226285D01*
X135125761Y-124226285D01*
X135126240Y-123677715D01*
X134915831Y-123168485D01*
X134526564Y-122778539D01*
X134017702Y-122567241D01*
X133466715Y-122566760D01*
X132957485Y-122777169D01*
X132567539Y-123166436D01*
X132356241Y-123675298D01*
X132355760Y-124226285D01*
X129390871Y-124226285D01*
X129391240Y-123804715D01*
X129180831Y-123295485D01*
X128791564Y-122905539D01*
X128282702Y-122694241D01*
X127731715Y-122693760D01*
X127222485Y-122904169D01*
X126832539Y-123293436D01*
X126621241Y-123802298D01*
X126620760Y-124353285D01*
X119407727Y-124353285D01*
X119326529Y-124156771D01*
X119049686Y-123879445D01*
X118687788Y-123729172D01*
X118295931Y-123728830D01*
X117933771Y-123878471D01*
X117656445Y-124155314D01*
X117506172Y-124517212D01*
X117505830Y-124909069D01*
X115184878Y-124909069D01*
X115229461Y-124864564D01*
X115440759Y-124355702D01*
X115441240Y-123804715D01*
X115230831Y-123295485D01*
X114841564Y-122905539D01*
X114332702Y-122694241D01*
X113781715Y-122693760D01*
X113272485Y-122904169D01*
X112882539Y-123293436D01*
X112671241Y-123802298D01*
X112670760Y-124353285D01*
X100710000Y-124353285D01*
X100710000Y-118618000D01*
X105292907Y-118618000D01*
X105405946Y-119186285D01*
X105727853Y-119668054D01*
X105769452Y-119695850D01*
X105721683Y-119704838D01*
X105505559Y-119843910D01*
X105360569Y-120056110D01*
X105309560Y-120308000D01*
X105309560Y-122008000D01*
X105353838Y-122243317D01*
X105492910Y-122459441D01*
X105705110Y-122604431D01*
X105957000Y-122655440D01*
X107657000Y-122655440D01*
X107892317Y-122611162D01*
X108108441Y-122472090D01*
X108253431Y-122259890D01*
X108264841Y-122203546D01*
X108267853Y-122208054D01*
X108749622Y-122529961D01*
X109317907Y-122643000D01*
X109376093Y-122643000D01*
X109944378Y-122529961D01*
X110426147Y-122208054D01*
X110488277Y-122115069D01*
X125760830Y-122115069D01*
X125910471Y-122477229D01*
X126187314Y-122754555D01*
X126549212Y-122904828D01*
X126941069Y-122905170D01*
X127303229Y-122755529D01*
X127580555Y-122478686D01*
X127730828Y-122116788D01*
X127731170Y-121724931D01*
X127581529Y-121362771D01*
X127318287Y-121099069D01*
X138460830Y-121099069D01*
X138610471Y-121461229D01*
X138887314Y-121738555D01*
X139249212Y-121888828D01*
X139641069Y-121889170D01*
X140003229Y-121739529D01*
X140280555Y-121462686D01*
X140430828Y-121100788D01*
X140430829Y-121099069D01*
X144302830Y-121099069D01*
X144452471Y-121461229D01*
X144729314Y-121738555D01*
X145091212Y-121888828D01*
X145483069Y-121889170D01*
X145845229Y-121739529D01*
X146122555Y-121462686D01*
X146272828Y-121100788D01*
X146273170Y-120708931D01*
X146123529Y-120346771D01*
X145846686Y-120069445D01*
X145484788Y-119919172D01*
X145092931Y-119918830D01*
X144730771Y-120068471D01*
X144453445Y-120345314D01*
X144303172Y-120707212D01*
X144302830Y-121099069D01*
X140430829Y-121099069D01*
X140431170Y-120708931D01*
X140281529Y-120346771D01*
X140004686Y-120069445D01*
X139642788Y-119919172D01*
X139250931Y-119918830D01*
X138888771Y-120068471D01*
X138611445Y-120345314D01*
X138461172Y-120707212D01*
X138460830Y-121099069D01*
X127318287Y-121099069D01*
X127304686Y-121085445D01*
X126942788Y-120935172D01*
X126550931Y-120934830D01*
X126188771Y-121084471D01*
X125911445Y-121361314D01*
X125761172Y-121723212D01*
X125760830Y-122115069D01*
X110488277Y-122115069D01*
X110748054Y-121726285D01*
X110861093Y-121158000D01*
X110849371Y-121099069D01*
X119029830Y-121099069D01*
X119179471Y-121461229D01*
X119456314Y-121738555D01*
X119818212Y-121888828D01*
X120210069Y-121889170D01*
X120572229Y-121739529D01*
X120849555Y-121462686D01*
X120999828Y-121100788D01*
X121000170Y-120708931D01*
X120850529Y-120346771D01*
X120573686Y-120069445D01*
X120211788Y-119919172D01*
X119819931Y-119918830D01*
X119457771Y-120068471D01*
X119180445Y-120345314D01*
X119030172Y-120707212D01*
X119029830Y-121099069D01*
X110849371Y-121099069D01*
X110748054Y-120589715D01*
X110426147Y-120107946D01*
X110096974Y-119888000D01*
X110426147Y-119668054D01*
X110748054Y-119186285D01*
X110861093Y-118618000D01*
X110748054Y-118049715D01*
X110426147Y-117567946D01*
X110096974Y-117348000D01*
X110426147Y-117128054D01*
X110748054Y-116646285D01*
X110847553Y-116146069D01*
X145699830Y-116146069D01*
X145849471Y-116508229D01*
X146126314Y-116785555D01*
X146488212Y-116935828D01*
X146880069Y-116936170D01*
X147242229Y-116786529D01*
X147519555Y-116509686D01*
X147669828Y-116147788D01*
X147670170Y-115755931D01*
X147520529Y-115393771D01*
X147243686Y-115116445D01*
X146881788Y-114966172D01*
X146489931Y-114965830D01*
X146127771Y-115115471D01*
X145850445Y-115392314D01*
X145700172Y-115754212D01*
X145699830Y-116146069D01*
X110847553Y-116146069D01*
X110861093Y-116078000D01*
X110748054Y-115509715D01*
X110426147Y-115027946D01*
X109944378Y-114706039D01*
X109376093Y-114593000D01*
X109317907Y-114593000D01*
X108749622Y-114706039D01*
X108267853Y-115027946D01*
X108078655Y-115311101D01*
X108078645Y-115311076D01*
X107688358Y-114882817D01*
X107163892Y-114636514D01*
X106934000Y-114757181D01*
X106934000Y-115951000D01*
X106954000Y-115951000D01*
X106954000Y-116205000D01*
X106934000Y-116205000D01*
X106934000Y-116225000D01*
X106680000Y-116225000D01*
X106680000Y-116205000D01*
X105486845Y-116205000D01*
X105365524Y-116434890D01*
X105535355Y-116844924D01*
X105925642Y-117273183D01*
X106068553Y-117340298D01*
X105727853Y-117567946D01*
X105405946Y-118049715D01*
X105292907Y-118618000D01*
X100710000Y-118618000D01*
X100710000Y-115721110D01*
X105365524Y-115721110D01*
X105486845Y-115951000D01*
X106680000Y-115951000D01*
X106680000Y-114757181D01*
X106450108Y-114636514D01*
X105925642Y-114882817D01*
X105535355Y-115311076D01*
X105365524Y-115721110D01*
X100710000Y-115721110D01*
X100710000Y-113479069D01*
X136682830Y-113479069D01*
X136832471Y-113841229D01*
X137109314Y-114118555D01*
X137471212Y-114268828D01*
X137863069Y-114269170D01*
X138225229Y-114119529D01*
X138502555Y-113842686D01*
X138652828Y-113480788D01*
X138653170Y-113088931D01*
X138503529Y-112726771D01*
X138226686Y-112449445D01*
X137864788Y-112299172D01*
X137472931Y-112298830D01*
X137110771Y-112448471D01*
X136833445Y-112725314D01*
X136683172Y-113087212D01*
X136682830Y-113479069D01*
X100710000Y-113479069D01*
X100710000Y-106934000D01*
X105292907Y-106934000D01*
X105405946Y-107502285D01*
X105727853Y-107984054D01*
X105769452Y-108011850D01*
X105721683Y-108020838D01*
X105505559Y-108159910D01*
X105360569Y-108372110D01*
X105309560Y-108624000D01*
X105309560Y-110324000D01*
X105353838Y-110559317D01*
X105492910Y-110775441D01*
X105705110Y-110920431D01*
X105957000Y-110971440D01*
X107657000Y-110971440D01*
X107892317Y-110927162D01*
X108108441Y-110788090D01*
X108253431Y-110575890D01*
X108264841Y-110519546D01*
X108267853Y-110524054D01*
X108749622Y-110845961D01*
X109317907Y-110959000D01*
X109376093Y-110959000D01*
X109944378Y-110845961D01*
X110426147Y-110524054D01*
X110748054Y-110042285D01*
X110771767Y-109923069D01*
X150525830Y-109923069D01*
X150675471Y-110285229D01*
X150952314Y-110562555D01*
X151314212Y-110712828D01*
X151706069Y-110713170D01*
X152068229Y-110563529D01*
X152073698Y-110558069D01*
X183926830Y-110558069D01*
X184076471Y-110920229D01*
X184353314Y-111197555D01*
X184715212Y-111347828D01*
X185107069Y-111348170D01*
X185469229Y-111198529D01*
X185544383Y-111123506D01*
X185737853Y-111413054D01*
X186067026Y-111633000D01*
X185737853Y-111852946D01*
X185415946Y-112334715D01*
X185302907Y-112903000D01*
X185415946Y-113471285D01*
X185737853Y-113953054D01*
X186067026Y-114173000D01*
X185737853Y-114392946D01*
X185415946Y-114874715D01*
X185302907Y-115443000D01*
X185415946Y-116011285D01*
X185737853Y-116493054D01*
X185779452Y-116520850D01*
X185731683Y-116529838D01*
X185515559Y-116668910D01*
X185370569Y-116881110D01*
X185319560Y-117133000D01*
X185319560Y-118833000D01*
X185363838Y-119068317D01*
X185502910Y-119284441D01*
X185715110Y-119429431D01*
X185967000Y-119480440D01*
X187667000Y-119480440D01*
X187902317Y-119436162D01*
X188118441Y-119297090D01*
X188263431Y-119084890D01*
X188274841Y-119028546D01*
X188277853Y-119033054D01*
X188759622Y-119354961D01*
X189327907Y-119468000D01*
X189386093Y-119468000D01*
X189954378Y-119354961D01*
X190436147Y-119033054D01*
X190758054Y-118551285D01*
X190871093Y-117983000D01*
X190758054Y-117414715D01*
X190436147Y-116932946D01*
X190106974Y-116713000D01*
X190385239Y-116527069D01*
X190784830Y-116527069D01*
X190934471Y-116889229D01*
X191211314Y-117166555D01*
X191573212Y-117316828D01*
X191965069Y-117317170D01*
X192327229Y-117167529D01*
X192604555Y-116890686D01*
X192754828Y-116528788D01*
X192755170Y-116136931D01*
X192605529Y-115774771D01*
X192328686Y-115497445D01*
X191966788Y-115347172D01*
X191574931Y-115346830D01*
X191212771Y-115496471D01*
X190935445Y-115773314D01*
X190785172Y-116135212D01*
X190784830Y-116527069D01*
X190385239Y-116527069D01*
X190436147Y-116493054D01*
X190758054Y-116011285D01*
X190871093Y-115443000D01*
X190758054Y-114874715D01*
X190436147Y-114392946D01*
X190106974Y-114173000D01*
X190436147Y-113953054D01*
X190758054Y-113471285D01*
X190871093Y-112903000D01*
X190758054Y-112334715D01*
X190436147Y-111852946D01*
X190106974Y-111633000D01*
X190436147Y-111413054D01*
X190758054Y-110931285D01*
X190871093Y-110363000D01*
X190758054Y-109794715D01*
X190436147Y-109312946D01*
X189954378Y-108991039D01*
X189386093Y-108878000D01*
X189327907Y-108878000D01*
X188759622Y-108991039D01*
X188277853Y-109312946D01*
X188087000Y-109598578D01*
X187896147Y-109312946D01*
X187414378Y-108991039D01*
X186846093Y-108878000D01*
X186787907Y-108878000D01*
X186219622Y-108991039D01*
X185737853Y-109312946D01*
X185544473Y-109602361D01*
X185470686Y-109528445D01*
X185108788Y-109378172D01*
X184716931Y-109377830D01*
X184354771Y-109527471D01*
X184077445Y-109804314D01*
X183927172Y-110166212D01*
X183926830Y-110558069D01*
X152073698Y-110558069D01*
X152345555Y-110286686D01*
X152495828Y-109924788D01*
X152496170Y-109532931D01*
X152346529Y-109170771D01*
X152069686Y-108893445D01*
X151707788Y-108743172D01*
X151315931Y-108742830D01*
X150953771Y-108892471D01*
X150676445Y-109169314D01*
X150526172Y-109531212D01*
X150525830Y-109923069D01*
X110771767Y-109923069D01*
X110861093Y-109474000D01*
X110748054Y-108905715D01*
X110494384Y-108526069D01*
X143286830Y-108526069D01*
X143436471Y-108888229D01*
X143713314Y-109165555D01*
X144075212Y-109315828D01*
X144467069Y-109316170D01*
X144829229Y-109166529D01*
X145106555Y-108889686D01*
X145256828Y-108527788D01*
X145257170Y-108135931D01*
X145107529Y-107773771D01*
X144830686Y-107496445D01*
X144468788Y-107346172D01*
X144076931Y-107345830D01*
X143714771Y-107495471D01*
X143437445Y-107772314D01*
X143287172Y-108134212D01*
X143286830Y-108526069D01*
X110494384Y-108526069D01*
X110426147Y-108423946D01*
X110096974Y-108204000D01*
X110426147Y-107984054D01*
X110748054Y-107502285D01*
X110861093Y-106934000D01*
X110748054Y-106365715D01*
X110426147Y-105883946D01*
X110388916Y-105859069D01*
X139730830Y-105859069D01*
X139880471Y-106221229D01*
X140157314Y-106498555D01*
X140519212Y-106648828D01*
X140911069Y-106649170D01*
X141273229Y-106499529D01*
X141550555Y-106222686D01*
X141700828Y-105860788D01*
X141701170Y-105468931D01*
X141551529Y-105106771D01*
X141274686Y-104829445D01*
X140912788Y-104679172D01*
X140520931Y-104678830D01*
X140158771Y-104828471D01*
X139881445Y-105105314D01*
X139731172Y-105467212D01*
X139730830Y-105859069D01*
X110388916Y-105859069D01*
X110096974Y-105664000D01*
X110426147Y-105444054D01*
X110748054Y-104962285D01*
X110822291Y-104589069D01*
X152176830Y-104589069D01*
X152326471Y-104951229D01*
X152603314Y-105228555D01*
X152965212Y-105378828D01*
X153357069Y-105379170D01*
X153719229Y-105229529D01*
X153996555Y-104952686D01*
X154146828Y-104590788D01*
X154147170Y-104198931D01*
X153997529Y-103836771D01*
X153720686Y-103559445D01*
X153358788Y-103409172D01*
X152966931Y-103408830D01*
X152604771Y-103558471D01*
X152327445Y-103835314D01*
X152177172Y-104197212D01*
X152176830Y-104589069D01*
X110822291Y-104589069D01*
X110861093Y-104394000D01*
X110748054Y-103825715D01*
X110426147Y-103343946D01*
X109944378Y-103022039D01*
X109376093Y-102909000D01*
X109317907Y-102909000D01*
X108749622Y-103022039D01*
X108267853Y-103343946D01*
X108078655Y-103627101D01*
X108078645Y-103627076D01*
X107688358Y-103198817D01*
X107163892Y-102952514D01*
X106934000Y-103073181D01*
X106934000Y-104267000D01*
X106954000Y-104267000D01*
X106954000Y-104521000D01*
X106934000Y-104521000D01*
X106934000Y-104541000D01*
X106680000Y-104541000D01*
X106680000Y-104521000D01*
X105486845Y-104521000D01*
X105365524Y-104750890D01*
X105535355Y-105160924D01*
X105925642Y-105589183D01*
X106068553Y-105656298D01*
X105727853Y-105883946D01*
X105405946Y-106365715D01*
X105292907Y-106934000D01*
X100710000Y-106934000D01*
X100710000Y-104037110D01*
X105365524Y-104037110D01*
X105486845Y-104267000D01*
X106680000Y-104267000D01*
X106680000Y-103073181D01*
X106450108Y-102952514D01*
X105925642Y-103198817D01*
X105535355Y-103627076D01*
X105365524Y-104037110D01*
X100710000Y-104037110D01*
X100710000Y-92980510D01*
X106049070Y-92980510D01*
X106049070Y-94979490D01*
X106093348Y-95214807D01*
X106232420Y-95430931D01*
X106398473Y-95544390D01*
X106185928Y-95862486D01*
X106061510Y-96487978D01*
X106061510Y-96552022D01*
X106185928Y-97177514D01*
X106540241Y-97707781D01*
X107070508Y-98062094D01*
X107696000Y-98186512D01*
X108321492Y-98062094D01*
X108851759Y-97707781D01*
X109206072Y-97177514D01*
X109330490Y-96552022D01*
X109330490Y-96487978D01*
X109299876Y-96334069D01*
X119283830Y-96334069D01*
X119433471Y-96696229D01*
X119710314Y-96973555D01*
X120072212Y-97123828D01*
X120464069Y-97124170D01*
X120826229Y-96974529D01*
X121103555Y-96697686D01*
X121253828Y-96335788D01*
X121254170Y-95943931D01*
X121104529Y-95581771D01*
X120827686Y-95304445D01*
X120465788Y-95154172D01*
X120073931Y-95153830D01*
X119711771Y-95303471D01*
X119434445Y-95580314D01*
X119284172Y-95942212D01*
X119283830Y-96334069D01*
X109299876Y-96334069D01*
X109206072Y-95862486D01*
X108992547Y-95542923D01*
X109146931Y-95443580D01*
X109291921Y-95231380D01*
X109342930Y-94979490D01*
X109342930Y-94966775D01*
X116720803Y-94966775D01*
X116893233Y-95384086D01*
X117212235Y-95703645D01*
X117629244Y-95876803D01*
X118080775Y-95877197D01*
X118498086Y-95704767D01*
X118817645Y-95385765D01*
X118990803Y-94968756D01*
X118991197Y-94517225D01*
X118818767Y-94099914D01*
X118499765Y-93780355D01*
X118082756Y-93607197D01*
X117631225Y-93606803D01*
X117213914Y-93779233D01*
X116894355Y-94098235D01*
X116721197Y-94515244D01*
X116720803Y-94966775D01*
X109342930Y-94966775D01*
X109342930Y-92980510D01*
X109298652Y-92745193D01*
X109159580Y-92529069D01*
X108947380Y-92384079D01*
X108695490Y-92333070D01*
X106696510Y-92333070D01*
X106461193Y-92377348D01*
X106245069Y-92516420D01*
X106100079Y-92728620D01*
X106049070Y-92980510D01*
X100710000Y-92980510D01*
X100710000Y-89857069D01*
X122458830Y-89857069D01*
X122608471Y-90219229D01*
X122885314Y-90496555D01*
X123247212Y-90646828D01*
X123639069Y-90647170D01*
X124001229Y-90497529D01*
X124278555Y-90220686D01*
X124428828Y-89858788D01*
X124429170Y-89466931D01*
X124279529Y-89104771D01*
X124201894Y-89027000D01*
X128660907Y-89027000D01*
X128773946Y-89595285D01*
X129095853Y-90077054D01*
X129425026Y-90297000D01*
X129095853Y-90516946D01*
X128773946Y-90998715D01*
X128660907Y-91567000D01*
X128773946Y-92135285D01*
X129095853Y-92617054D01*
X129425026Y-92837000D01*
X129095853Y-93056946D01*
X128773946Y-93538715D01*
X128660907Y-94107000D01*
X128773946Y-94675285D01*
X129095853Y-95157054D01*
X129425026Y-95377000D01*
X129095853Y-95596946D01*
X128773946Y-96078715D01*
X128660907Y-96647000D01*
X128773946Y-97215285D01*
X129095853Y-97697054D01*
X129425026Y-97917000D01*
X129095853Y-98136946D01*
X128773946Y-98618715D01*
X128660907Y-99187000D01*
X128773946Y-99755285D01*
X129095853Y-100237054D01*
X129137452Y-100264850D01*
X129089683Y-100273838D01*
X128873559Y-100412910D01*
X128728569Y-100625110D01*
X128677560Y-100877000D01*
X128677560Y-102577000D01*
X128721838Y-102812317D01*
X128860910Y-103028441D01*
X129073110Y-103173431D01*
X129325000Y-103224440D01*
X131025000Y-103224440D01*
X131260317Y-103180162D01*
X131476441Y-103041090D01*
X131621431Y-102828890D01*
X131632841Y-102772546D01*
X131635853Y-102777054D01*
X132117622Y-103098961D01*
X132685907Y-103212000D01*
X132744093Y-103212000D01*
X133312378Y-103098961D01*
X133553170Y-102938069D01*
X169956830Y-102938069D01*
X170106471Y-103300229D01*
X170383314Y-103577555D01*
X170745212Y-103727828D01*
X171137069Y-103728170D01*
X171499229Y-103578529D01*
X171776555Y-103301686D01*
X171926828Y-102939788D01*
X171927170Y-102547931D01*
X171777529Y-102185771D01*
X171500686Y-101908445D01*
X171138788Y-101758172D01*
X170746931Y-101757830D01*
X170384771Y-101907471D01*
X170107445Y-102184314D01*
X169957172Y-102546212D01*
X169956830Y-102938069D01*
X133553170Y-102938069D01*
X133794147Y-102777054D01*
X134116054Y-102295285D01*
X134190291Y-101922069D01*
X139349830Y-101922069D01*
X139499471Y-102284229D01*
X139776314Y-102561555D01*
X140138212Y-102711828D01*
X140530069Y-102712170D01*
X140892229Y-102562529D01*
X141169555Y-102285686D01*
X141319828Y-101923788D01*
X141320051Y-101668069D01*
X145826830Y-101668069D01*
X145976471Y-102030229D01*
X146253314Y-102307555D01*
X146615212Y-102457828D01*
X147007069Y-102458170D01*
X147369229Y-102308529D01*
X147646555Y-102031686D01*
X147796828Y-101669788D01*
X147797170Y-101277931D01*
X147716420Y-101082500D01*
X147900555Y-100898686D01*
X148050828Y-100536788D01*
X148051170Y-100144931D01*
X147901529Y-99782771D01*
X147624686Y-99505445D01*
X147262788Y-99355172D01*
X146870931Y-99354830D01*
X146508771Y-99504471D01*
X146231445Y-99781314D01*
X146081172Y-100143212D01*
X146080830Y-100535069D01*
X146161580Y-100730500D01*
X145977445Y-100914314D01*
X145827172Y-101276212D01*
X145826830Y-101668069D01*
X141320051Y-101668069D01*
X141320170Y-101531931D01*
X141170529Y-101169771D01*
X140893686Y-100892445D01*
X140531788Y-100742172D01*
X140139931Y-100741830D01*
X139777771Y-100891471D01*
X139500445Y-101168314D01*
X139350172Y-101530212D01*
X139349830Y-101922069D01*
X134190291Y-101922069D01*
X134229093Y-101727000D01*
X134116054Y-101158715D01*
X133794147Y-100676946D01*
X133464974Y-100457000D01*
X133794147Y-100237054D01*
X134116054Y-99755285D01*
X134229093Y-99187000D01*
X134217371Y-99128069D01*
X170591830Y-99128069D01*
X170741471Y-99490229D01*
X170819000Y-99567893D01*
X170742445Y-99644314D01*
X170592172Y-100006212D01*
X170591830Y-100398069D01*
X170741471Y-100760229D01*
X171018314Y-101037555D01*
X171380212Y-101187828D01*
X171772069Y-101188170D01*
X172134229Y-101038529D01*
X172411555Y-100761686D01*
X172561828Y-100399788D01*
X172562170Y-100007931D01*
X172412529Y-99645771D01*
X172335000Y-99568107D01*
X172411555Y-99491686D01*
X172561828Y-99129788D01*
X172562170Y-98737931D01*
X172412529Y-98375771D01*
X172135686Y-98098445D01*
X171773788Y-97948172D01*
X171381931Y-97947830D01*
X171019771Y-98097471D01*
X170742445Y-98374314D01*
X170592172Y-98736212D01*
X170591830Y-99128069D01*
X134217371Y-99128069D01*
X134116054Y-98618715D01*
X133794147Y-98136946D01*
X133464974Y-97917000D01*
X133794147Y-97697054D01*
X134110852Y-97223069D01*
X165511830Y-97223069D01*
X165661471Y-97585229D01*
X165938314Y-97862555D01*
X166300212Y-98012828D01*
X166692069Y-98013170D01*
X167054229Y-97863529D01*
X167322725Y-97595501D01*
X167589314Y-97862555D01*
X167951212Y-98012828D01*
X168343069Y-98013170D01*
X168705229Y-97863529D01*
X168982555Y-97586686D01*
X169132828Y-97224788D01*
X169132829Y-97223069D01*
X169321830Y-97223069D01*
X169471471Y-97585229D01*
X169748314Y-97862555D01*
X170110212Y-98012828D01*
X170502069Y-98013170D01*
X170864229Y-97863529D01*
X171141555Y-97586686D01*
X171291828Y-97224788D01*
X171291829Y-97223069D01*
X174401830Y-97223069D01*
X174551471Y-97585229D01*
X174828314Y-97862555D01*
X175190212Y-98012828D01*
X175582069Y-98013170D01*
X175944229Y-97863529D01*
X176221555Y-97586686D01*
X176371828Y-97224788D01*
X176372170Y-96832931D01*
X176222529Y-96470771D01*
X175945686Y-96193445D01*
X175583788Y-96043172D01*
X175191931Y-96042830D01*
X174829771Y-96192471D01*
X174552445Y-96469314D01*
X174402172Y-96831212D01*
X174401830Y-97223069D01*
X171291829Y-97223069D01*
X171292170Y-96832931D01*
X171142529Y-96470771D01*
X170865686Y-96193445D01*
X170503788Y-96043172D01*
X170111931Y-96042830D01*
X169749771Y-96192471D01*
X169472445Y-96469314D01*
X169322172Y-96831212D01*
X169321830Y-97223069D01*
X169132829Y-97223069D01*
X169133170Y-96832931D01*
X168983529Y-96470771D01*
X168706686Y-96193445D01*
X168344788Y-96043172D01*
X168080224Y-96042941D01*
X168116828Y-95954788D01*
X168117170Y-95562931D01*
X167967529Y-95200771D01*
X167690686Y-94923445D01*
X167328788Y-94773172D01*
X166936931Y-94772830D01*
X166574771Y-94922471D01*
X166297445Y-95199314D01*
X166147172Y-95561212D01*
X166146830Y-95953069D01*
X166201128Y-96084481D01*
X165939771Y-96192471D01*
X165662445Y-96469314D01*
X165512172Y-96831212D01*
X165511830Y-97223069D01*
X134110852Y-97223069D01*
X134116054Y-97215285D01*
X134229093Y-96647000D01*
X134116054Y-96078715D01*
X133794147Y-95596946D01*
X133464974Y-95377000D01*
X133794147Y-95157054D01*
X133941135Y-94937069D01*
X145699830Y-94937069D01*
X145849471Y-95299229D01*
X146126314Y-95576555D01*
X146488212Y-95726828D01*
X146880069Y-95727170D01*
X147242229Y-95577529D01*
X147519555Y-95300686D01*
X147669828Y-94938788D01*
X147670051Y-94683069D01*
X158526830Y-94683069D01*
X158676471Y-95045229D01*
X158953314Y-95322555D01*
X159315212Y-95472828D01*
X159707069Y-95473170D01*
X160069229Y-95323529D01*
X160074698Y-95318069D01*
X164241830Y-95318069D01*
X164391471Y-95680229D01*
X164668314Y-95957555D01*
X165030212Y-96107828D01*
X165422069Y-96108170D01*
X165784229Y-95958529D01*
X166061555Y-95681686D01*
X166211828Y-95319788D01*
X166212170Y-94927931D01*
X166157872Y-94796519D01*
X166419229Y-94688529D01*
X166696555Y-94411686D01*
X166846828Y-94049788D01*
X166847170Y-93657931D01*
X166697529Y-93295771D01*
X166420686Y-93018445D01*
X166058788Y-92868172D01*
X165666931Y-92867830D01*
X165304771Y-93017471D01*
X165027445Y-93294314D01*
X164877172Y-93656212D01*
X164876830Y-94048069D01*
X164931128Y-94179481D01*
X164669771Y-94287471D01*
X164392445Y-94564314D01*
X164242172Y-94926212D01*
X164241830Y-95318069D01*
X160074698Y-95318069D01*
X160346555Y-95046686D01*
X160496828Y-94684788D01*
X160497170Y-94292931D01*
X160347529Y-93930771D01*
X160070686Y-93653445D01*
X159708788Y-93503172D01*
X159316931Y-93502830D01*
X158954771Y-93652471D01*
X158677445Y-93929314D01*
X158527172Y-94291212D01*
X158526830Y-94683069D01*
X147670051Y-94683069D01*
X147670170Y-94546931D01*
X147520529Y-94184771D01*
X147328618Y-93992525D01*
X147524135Y-94073711D01*
X147915992Y-94074053D01*
X148278152Y-93924412D01*
X148555478Y-93647569D01*
X148705585Y-93286069D01*
X160939830Y-93286069D01*
X161089471Y-93648229D01*
X161366314Y-93925555D01*
X161728212Y-94075828D01*
X162120069Y-94076170D01*
X162482229Y-93926529D01*
X162759555Y-93649686D01*
X162909828Y-93287788D01*
X162910170Y-92895931D01*
X162760529Y-92533771D01*
X162483686Y-92256445D01*
X162210646Y-92143069D01*
X167543830Y-92143069D01*
X167673264Y-92456324D01*
X167544172Y-92767212D01*
X167543830Y-93159069D01*
X167692204Y-93518162D01*
X167565370Y-93823612D01*
X167565028Y-94215469D01*
X167714669Y-94577629D01*
X167991512Y-94854955D01*
X168353410Y-95005228D01*
X168745267Y-95005570D01*
X169107427Y-94855929D01*
X169384753Y-94579086D01*
X169535026Y-94217188D01*
X169535368Y-93825331D01*
X169534670Y-93823641D01*
X185318400Y-93823641D01*
X185318400Y-93882359D01*
X185432474Y-94455848D01*
X185757330Y-94942029D01*
X186028172Y-95123000D01*
X185757330Y-95303971D01*
X185432474Y-95790152D01*
X185318400Y-96363641D01*
X185318400Y-96422359D01*
X185432474Y-96995848D01*
X185757330Y-97482029D01*
X186243511Y-97806885D01*
X186817000Y-97920959D01*
X187390489Y-97806885D01*
X187876670Y-97482029D01*
X187885805Y-97468358D01*
X187890238Y-97491917D01*
X188029310Y-97708041D01*
X188241510Y-97853031D01*
X188493400Y-97904040D01*
X190220600Y-97904040D01*
X190455917Y-97859762D01*
X190672041Y-97720690D01*
X190817031Y-97508490D01*
X190868040Y-97256600D01*
X190868040Y-95529400D01*
X190823762Y-95294083D01*
X190684690Y-95077959D01*
X190472490Y-94932969D01*
X190428655Y-94924092D01*
X190741526Y-94455848D01*
X190855600Y-93882359D01*
X190855600Y-93823641D01*
X190741526Y-93250152D01*
X190416670Y-92763971D01*
X190145828Y-92583000D01*
X190416670Y-92402029D01*
X190741526Y-91915848D01*
X190855600Y-91342359D01*
X190855600Y-91283641D01*
X190741526Y-90710152D01*
X190416670Y-90223971D01*
X189930489Y-89899115D01*
X189357000Y-89785041D01*
X188783511Y-89899115D01*
X188297330Y-90223971D01*
X188081336Y-90547228D01*
X188023821Y-90424510D01*
X187591947Y-90030312D01*
X187176026Y-89858042D01*
X186944000Y-89979183D01*
X186944000Y-91186000D01*
X186964000Y-91186000D01*
X186964000Y-91440000D01*
X186944000Y-91440000D01*
X186944000Y-91460000D01*
X186690000Y-91460000D01*
X186690000Y-91440000D01*
X185482531Y-91440000D01*
X185362032Y-91672027D01*
X185610179Y-92201490D01*
X186028161Y-92583008D01*
X185757330Y-92763971D01*
X185432474Y-93250152D01*
X185318400Y-93823641D01*
X169534670Y-93823641D01*
X169386994Y-93466238D01*
X169513828Y-93160788D01*
X169514162Y-92778069D01*
X173131830Y-92778069D01*
X173281471Y-93140229D01*
X173558314Y-93417555D01*
X173920212Y-93567828D01*
X174312069Y-93568170D01*
X174674229Y-93418529D01*
X174751893Y-93341000D01*
X174828314Y-93417555D01*
X175190212Y-93567828D01*
X175582069Y-93568170D01*
X175944229Y-93418529D01*
X176221555Y-93141686D01*
X176371828Y-92779788D01*
X176372170Y-92387931D01*
X176222529Y-92025771D01*
X175945686Y-91748445D01*
X175583788Y-91598172D01*
X175191931Y-91597830D01*
X174829771Y-91747471D01*
X174752107Y-91825000D01*
X174675686Y-91748445D01*
X174313788Y-91598172D01*
X173921931Y-91597830D01*
X173559771Y-91747471D01*
X173282445Y-92024314D01*
X173132172Y-92386212D01*
X173131830Y-92778069D01*
X169514162Y-92778069D01*
X169514170Y-92768931D01*
X169384736Y-92455676D01*
X169513828Y-92144788D01*
X169514170Y-91752931D01*
X169364529Y-91390771D01*
X169087686Y-91113445D01*
X168725788Y-90963172D01*
X168333931Y-90962830D01*
X167971771Y-91112471D01*
X167694445Y-91389314D01*
X167544172Y-91751212D01*
X167543830Y-92143069D01*
X162210646Y-92143069D01*
X162121788Y-92106172D01*
X161729931Y-92105830D01*
X161367771Y-92255471D01*
X161090445Y-92532314D01*
X160940172Y-92894212D01*
X160939830Y-93286069D01*
X148705585Y-93286069D01*
X148705751Y-93285671D01*
X148706093Y-92893814D01*
X148556452Y-92531654D01*
X148279609Y-92254328D01*
X147917711Y-92104055D01*
X147525854Y-92103713D01*
X147163694Y-92253354D01*
X146886368Y-92530197D01*
X146736095Y-92892095D01*
X146735753Y-93283952D01*
X146885394Y-93646112D01*
X147077305Y-93838358D01*
X146881788Y-93757172D01*
X146489931Y-93756830D01*
X146127771Y-93906471D01*
X145850445Y-94183314D01*
X145700172Y-94545212D01*
X145699830Y-94937069D01*
X133941135Y-94937069D01*
X134116054Y-94675285D01*
X134229093Y-94107000D01*
X134116054Y-93538715D01*
X134032101Y-93413069D01*
X140492830Y-93413069D01*
X140642471Y-93775229D01*
X140919314Y-94052555D01*
X141281212Y-94202828D01*
X141673069Y-94203170D01*
X142035229Y-94053529D01*
X142312555Y-93776686D01*
X142462828Y-93414788D01*
X142463170Y-93022931D01*
X142313529Y-92660771D01*
X142177066Y-92524069D01*
X142778830Y-92524069D01*
X142928471Y-92886229D01*
X143205314Y-93163555D01*
X143567212Y-93313828D01*
X143959069Y-93314170D01*
X144321229Y-93164529D01*
X144598555Y-92887686D01*
X144748828Y-92525788D01*
X144749170Y-92133931D01*
X144599529Y-91771771D01*
X144322686Y-91494445D01*
X143960788Y-91344172D01*
X143568931Y-91343830D01*
X143206771Y-91493471D01*
X142929445Y-91770314D01*
X142779172Y-92132212D01*
X142778830Y-92524069D01*
X142177066Y-92524069D01*
X142036686Y-92383445D01*
X141674788Y-92233172D01*
X141282931Y-92232830D01*
X140920771Y-92382471D01*
X140643445Y-92659314D01*
X140493172Y-93021212D01*
X140492830Y-93413069D01*
X134032101Y-93413069D01*
X133794147Y-93056946D01*
X133464974Y-92837000D01*
X133794147Y-92617054D01*
X134116054Y-92135285D01*
X134229093Y-91567000D01*
X134116054Y-90998715D01*
X134086159Y-90953973D01*
X185362032Y-90953973D01*
X185482531Y-91186000D01*
X186690000Y-91186000D01*
X186690000Y-89979183D01*
X186457974Y-89858042D01*
X186042053Y-90030312D01*
X185610179Y-90424510D01*
X185362032Y-90953973D01*
X134086159Y-90953973D01*
X133794147Y-90516946D01*
X133464974Y-90297000D01*
X133794147Y-90077054D01*
X134116054Y-89595285D01*
X134229093Y-89027000D01*
X134116054Y-88458715D01*
X134032101Y-88333069D01*
X141762830Y-88333069D01*
X141912471Y-88695229D01*
X141990000Y-88772893D01*
X141913445Y-88849314D01*
X141763172Y-89211212D01*
X141762830Y-89603069D01*
X141912471Y-89965229D01*
X142189314Y-90242555D01*
X142551212Y-90392828D01*
X142943069Y-90393170D01*
X143305229Y-90243529D01*
X143437920Y-90111069D01*
X149890830Y-90111069D01*
X150040471Y-90473229D01*
X150317314Y-90750555D01*
X150679212Y-90900828D01*
X151071069Y-90901170D01*
X151433229Y-90751529D01*
X151710555Y-90474686D01*
X151860828Y-90112788D01*
X151861170Y-89720931D01*
X151711529Y-89358771D01*
X151701844Y-89349069D01*
X159288830Y-89349069D01*
X159438471Y-89711229D01*
X159715314Y-89988555D01*
X160077212Y-90138828D01*
X160469069Y-90139170D01*
X160831229Y-89989529D01*
X161108555Y-89712686D01*
X161154071Y-89603069D01*
X172496830Y-89603069D01*
X172646471Y-89965229D01*
X172923314Y-90242555D01*
X173285212Y-90392828D01*
X173677069Y-90393170D01*
X173932182Y-90287760D01*
X174185215Y-90392828D01*
X174577072Y-90393170D01*
X174939232Y-90243529D01*
X175216558Y-89966686D01*
X175366831Y-89604788D01*
X175367141Y-89249982D01*
X175582069Y-89250170D01*
X175944229Y-89100529D01*
X176221555Y-88823686D01*
X176371828Y-88461788D01*
X176372170Y-88069931D01*
X176222529Y-87707771D01*
X175945686Y-87430445D01*
X175583788Y-87280172D01*
X175191931Y-87279830D01*
X174829771Y-87429471D01*
X174552445Y-87706314D01*
X174402172Y-88068212D01*
X174401862Y-88423018D01*
X174186934Y-88422830D01*
X173931821Y-88528240D01*
X173678788Y-88423172D01*
X173286931Y-88422830D01*
X172924771Y-88572471D01*
X172647445Y-88849314D01*
X172497172Y-89211212D01*
X172496830Y-89603069D01*
X161154071Y-89603069D01*
X161258828Y-89350788D01*
X161259170Y-88958931D01*
X161109529Y-88596771D01*
X160832686Y-88319445D01*
X160470788Y-88169172D01*
X160078931Y-88168830D01*
X159716771Y-88318471D01*
X159439445Y-88595314D01*
X159289172Y-88957212D01*
X159288830Y-89349069D01*
X151701844Y-89349069D01*
X151434686Y-89081445D01*
X151072788Y-88931172D01*
X150680931Y-88930830D01*
X150318771Y-89080471D01*
X150041445Y-89357314D01*
X149891172Y-89719212D01*
X149890830Y-90111069D01*
X143437920Y-90111069D01*
X143582555Y-89966686D01*
X143732828Y-89604788D01*
X143733170Y-89212931D01*
X143583529Y-88850771D01*
X143506000Y-88773107D01*
X143582555Y-88696686D01*
X143732828Y-88334788D01*
X143733170Y-87942931D01*
X143684471Y-87825069D01*
X163225830Y-87825069D01*
X163375471Y-88187229D01*
X163652314Y-88464555D01*
X164014212Y-88614828D01*
X164406069Y-88615170D01*
X164768229Y-88465529D01*
X164773698Y-88460069D01*
X167924830Y-88460069D01*
X168074471Y-88822229D01*
X168351314Y-89099555D01*
X168713212Y-89249828D01*
X169105069Y-89250170D01*
X169467229Y-89100529D01*
X169744555Y-88823686D01*
X169894828Y-88461788D01*
X169895170Y-88069931D01*
X169745529Y-87707771D01*
X169468686Y-87430445D01*
X169106788Y-87280172D01*
X168714931Y-87279830D01*
X168352771Y-87429471D01*
X168075445Y-87706314D01*
X167925172Y-88068212D01*
X167924830Y-88460069D01*
X164773698Y-88460069D01*
X165045555Y-88188686D01*
X165195828Y-87826788D01*
X165196170Y-87434931D01*
X165046529Y-87072771D01*
X164769686Y-86795445D01*
X164407788Y-86645172D01*
X164015931Y-86644830D01*
X163653771Y-86794471D01*
X163376445Y-87071314D01*
X163226172Y-87433212D01*
X163225830Y-87825069D01*
X143684471Y-87825069D01*
X143583529Y-87580771D01*
X143306686Y-87303445D01*
X142944788Y-87153172D01*
X142552931Y-87152830D01*
X142190771Y-87302471D01*
X141913445Y-87579314D01*
X141763172Y-87941212D01*
X141762830Y-88333069D01*
X134032101Y-88333069D01*
X133794147Y-87976946D01*
X133312378Y-87655039D01*
X132744093Y-87542000D01*
X132685907Y-87542000D01*
X132117622Y-87655039D01*
X131635853Y-87976946D01*
X131445000Y-88262578D01*
X131254147Y-87976946D01*
X130772378Y-87655039D01*
X130204093Y-87542000D01*
X130145907Y-87542000D01*
X129577622Y-87655039D01*
X129095853Y-87976946D01*
X128773946Y-88458715D01*
X128660907Y-89027000D01*
X124201894Y-89027000D01*
X124002686Y-88827445D01*
X123640788Y-88677172D01*
X123248931Y-88676830D01*
X122886771Y-88826471D01*
X122609445Y-89103314D01*
X122459172Y-89465212D01*
X122458830Y-89857069D01*
X100710000Y-89857069D01*
X100710000Y-83836510D01*
X106049070Y-83836510D01*
X106049070Y-85835490D01*
X106093348Y-86070807D01*
X106232420Y-86286931D01*
X106398473Y-86400390D01*
X106185928Y-86718486D01*
X106061510Y-87343978D01*
X106061510Y-87408022D01*
X106185928Y-88033514D01*
X106540241Y-88563781D01*
X107070508Y-88918094D01*
X107696000Y-89042512D01*
X108321492Y-88918094D01*
X108816906Y-88587069D01*
X119537830Y-88587069D01*
X119687471Y-88949229D01*
X119964314Y-89226555D01*
X120326212Y-89376828D01*
X120718069Y-89377170D01*
X121080229Y-89227529D01*
X121357555Y-88950686D01*
X121507828Y-88588788D01*
X121508170Y-88196931D01*
X121459471Y-88079069D01*
X124236830Y-88079069D01*
X124386471Y-88441229D01*
X124663314Y-88718555D01*
X125025212Y-88868828D01*
X125417069Y-88869170D01*
X125779229Y-88719529D01*
X126056555Y-88442686D01*
X126206828Y-88080788D01*
X126207170Y-87688931D01*
X126057529Y-87326771D01*
X125780686Y-87049445D01*
X125418788Y-86899172D01*
X125026931Y-86898830D01*
X124664771Y-87048471D01*
X124387445Y-87325314D01*
X124237172Y-87687212D01*
X124236830Y-88079069D01*
X121459471Y-88079069D01*
X121358529Y-87834771D01*
X121081686Y-87557445D01*
X120719788Y-87407172D01*
X120327931Y-87406830D01*
X119965771Y-87556471D01*
X119688445Y-87833314D01*
X119538172Y-88195212D01*
X119537830Y-88587069D01*
X108816906Y-88587069D01*
X108851759Y-88563781D01*
X109206072Y-88033514D01*
X109330490Y-87408022D01*
X109330490Y-87343978D01*
X109206072Y-86718486D01*
X109201588Y-86711775D01*
X116720803Y-86711775D01*
X116893233Y-87129086D01*
X117212235Y-87448645D01*
X117629244Y-87621803D01*
X118080775Y-87622197D01*
X118498086Y-87449767D01*
X118817645Y-87130765D01*
X118990803Y-86713756D01*
X118991197Y-86262225D01*
X118818767Y-85844914D01*
X118767013Y-85793069D01*
X147096830Y-85793069D01*
X147246471Y-86155229D01*
X147523314Y-86432555D01*
X147885212Y-86582828D01*
X148277069Y-86583170D01*
X148639229Y-86433529D01*
X148916555Y-86156686D01*
X149066828Y-85794788D01*
X149067170Y-85402931D01*
X148917529Y-85040771D01*
X148640686Y-84763445D01*
X148278788Y-84613172D01*
X147886931Y-84612830D01*
X147524771Y-84762471D01*
X147247445Y-85039314D01*
X147097172Y-85401212D01*
X147096830Y-85793069D01*
X118767013Y-85793069D01*
X118499765Y-85525355D01*
X118082756Y-85352197D01*
X117631225Y-85351803D01*
X117213914Y-85524233D01*
X116894355Y-85843235D01*
X116721197Y-86260244D01*
X116720803Y-86711775D01*
X109201588Y-86711775D01*
X108992547Y-86398923D01*
X109146931Y-86299580D01*
X109291921Y-86087380D01*
X109342930Y-85835490D01*
X109342930Y-83836510D01*
X109298652Y-83601193D01*
X109159580Y-83385069D01*
X108947380Y-83240079D01*
X108695490Y-83189070D01*
X106696510Y-83189070D01*
X106461193Y-83233348D01*
X106245069Y-83372420D01*
X106100079Y-83584620D01*
X106049070Y-83836510D01*
X100710000Y-83836510D01*
X100710000Y-82364069D01*
X120934830Y-82364069D01*
X121084471Y-82726229D01*
X121361314Y-83003555D01*
X121723212Y-83153828D01*
X121733868Y-83153837D01*
X121697172Y-83242212D01*
X121696830Y-83634069D01*
X121846471Y-83996229D01*
X122123314Y-84273555D01*
X122485212Y-84423828D01*
X122877069Y-84424170D01*
X123239229Y-84274529D01*
X123516555Y-83997686D01*
X123666828Y-83635788D01*
X123667170Y-83243931D01*
X123517529Y-82881771D01*
X123240686Y-82604445D01*
X122967646Y-82491069D01*
X136047830Y-82491069D01*
X136197471Y-82853229D01*
X136474314Y-83130555D01*
X136836212Y-83280828D01*
X137228069Y-83281170D01*
X137590229Y-83131529D01*
X137867555Y-82854686D01*
X138017828Y-82492788D01*
X138018170Y-82100931D01*
X137868529Y-81738771D01*
X137591686Y-81461445D01*
X137229788Y-81311172D01*
X136837931Y-81310830D01*
X136475771Y-81460471D01*
X136198445Y-81737314D01*
X136048172Y-82099212D01*
X136047830Y-82491069D01*
X122967646Y-82491069D01*
X122878788Y-82454172D01*
X122868132Y-82454163D01*
X122904828Y-82365788D01*
X122905170Y-81973931D01*
X122755529Y-81611771D01*
X122478686Y-81334445D01*
X122116788Y-81184172D01*
X121724931Y-81183830D01*
X121362771Y-81333471D01*
X121085445Y-81610314D01*
X120935172Y-81972212D01*
X120934830Y-82364069D01*
X100710000Y-82364069D01*
X100710000Y-80840069D01*
X145445830Y-80840069D01*
X145595471Y-81202229D01*
X145872314Y-81479555D01*
X146234212Y-81629828D01*
X146626069Y-81630170D01*
X146988229Y-81480529D01*
X147265555Y-81203686D01*
X147415828Y-80841788D01*
X147416170Y-80449931D01*
X147266529Y-80087771D01*
X146989686Y-79810445D01*
X146627788Y-79660172D01*
X146235931Y-79659830D01*
X145873771Y-79809471D01*
X145596445Y-80086314D01*
X145446172Y-80448212D01*
X145445830Y-80840069D01*
X100710000Y-80840069D01*
X100710000Y-79541390D01*
X105746524Y-79541390D01*
X105916355Y-79951424D01*
X106306642Y-80379683D01*
X106831108Y-80625986D01*
X107061000Y-80505319D01*
X107061000Y-79311500D01*
X107315000Y-79311500D01*
X107315000Y-80505319D01*
X107544892Y-80625986D01*
X108069358Y-80379683D01*
X108459645Y-79951424D01*
X108629476Y-79541390D01*
X108508155Y-79311500D01*
X107315000Y-79311500D01*
X107061000Y-79311500D01*
X105867845Y-79311500D01*
X105746524Y-79541390D01*
X100710000Y-79541390D01*
X100710000Y-75794500D01*
X105690560Y-75794500D01*
X105690560Y-77494500D01*
X105734838Y-77729817D01*
X105873910Y-77945941D01*
X106086110Y-78090931D01*
X106194107Y-78112801D01*
X105916355Y-78417576D01*
X105746524Y-78827610D01*
X105867845Y-79057500D01*
X107061000Y-79057500D01*
X107061000Y-79037500D01*
X107315000Y-79037500D01*
X107315000Y-79057500D01*
X108508155Y-79057500D01*
X108629476Y-78827610D01*
X108516179Y-78554069D01*
X140619830Y-78554069D01*
X140769471Y-78916229D01*
X141007408Y-79154581D01*
X140904874Y-79401510D01*
X140904532Y-79793367D01*
X141054173Y-80155527D01*
X141331016Y-80432853D01*
X141692914Y-80583126D01*
X142084771Y-80583468D01*
X142446931Y-80433827D01*
X142724257Y-80156984D01*
X142874530Y-79795086D01*
X142874837Y-79443069D01*
X164201829Y-79443069D01*
X164351470Y-79805229D01*
X164628313Y-80082555D01*
X164990211Y-80232828D01*
X165382068Y-80233170D01*
X165744228Y-80083529D01*
X166021554Y-79806686D01*
X166171827Y-79444788D01*
X166172169Y-79052931D01*
X166022528Y-78690771D01*
X165745685Y-78413445D01*
X165383787Y-78263172D01*
X164991930Y-78262830D01*
X164629770Y-78412471D01*
X164352444Y-78689314D01*
X164202171Y-79051212D01*
X164201829Y-79443069D01*
X142874837Y-79443069D01*
X142874872Y-79403229D01*
X142797988Y-79217154D01*
X142816069Y-79217170D01*
X143178229Y-79067529D01*
X143455555Y-78790686D01*
X143605828Y-78428788D01*
X143605861Y-78391212D01*
X143813229Y-78305529D01*
X144090555Y-78028686D01*
X144240828Y-77666788D01*
X144240829Y-77665069D01*
X151795830Y-77665069D01*
X151945471Y-78027229D01*
X152222314Y-78304555D01*
X152584212Y-78454828D01*
X152976069Y-78455170D01*
X153338229Y-78305529D01*
X153615555Y-78028686D01*
X153765828Y-77666788D01*
X153766170Y-77274931D01*
X153616529Y-76912771D01*
X153606844Y-76903069D01*
X161701830Y-76903069D01*
X161851471Y-77265229D01*
X162128314Y-77542555D01*
X162490212Y-77692828D01*
X162882069Y-77693170D01*
X163244229Y-77543529D01*
X163521555Y-77266686D01*
X163671828Y-76904788D01*
X163672170Y-76512931D01*
X163522529Y-76150771D01*
X163245686Y-75873445D01*
X162883788Y-75723172D01*
X162491931Y-75722830D01*
X162129771Y-75872471D01*
X161852445Y-76149314D01*
X161702172Y-76511212D01*
X161701830Y-76903069D01*
X153606844Y-76903069D01*
X153339686Y-76635445D01*
X152977788Y-76485172D01*
X152585931Y-76484830D01*
X152223771Y-76634471D01*
X151946445Y-76911314D01*
X151796172Y-77273212D01*
X151795830Y-77665069D01*
X144240829Y-77665069D01*
X144241170Y-77274931D01*
X144091529Y-76912771D01*
X143814686Y-76635445D01*
X143452788Y-76485172D01*
X143060931Y-76484830D01*
X142698771Y-76634471D01*
X142421445Y-76911314D01*
X142271172Y-77273212D01*
X142271139Y-77310788D01*
X142063771Y-77396471D01*
X142002585Y-77457550D01*
X141801788Y-77374172D01*
X141409931Y-77373830D01*
X141047771Y-77523471D01*
X140770445Y-77800314D01*
X140620172Y-78162212D01*
X140619830Y-78554069D01*
X108516179Y-78554069D01*
X108459645Y-78417576D01*
X108183499Y-78114563D01*
X108273317Y-78097662D01*
X108489441Y-77958590D01*
X108634431Y-77746390D01*
X108685440Y-77494500D01*
X108685440Y-76014069D01*
X144556830Y-76014069D01*
X144706471Y-76376229D01*
X144983314Y-76653555D01*
X145345212Y-76803828D01*
X145737069Y-76804170D01*
X146099229Y-76654529D01*
X146376555Y-76377686D01*
X146526828Y-76015788D01*
X146527170Y-75623931D01*
X146377529Y-75261771D01*
X146100686Y-74984445D01*
X145738788Y-74834172D01*
X145346931Y-74833830D01*
X144984771Y-74983471D01*
X144707445Y-75260314D01*
X144557172Y-75622212D01*
X144556830Y-76014069D01*
X108685440Y-76014069D01*
X108685440Y-75794500D01*
X108641162Y-75559183D01*
X108502090Y-75343059D01*
X108289890Y-75198069D01*
X108038000Y-75147060D01*
X106338000Y-75147060D01*
X106102683Y-75191338D01*
X105886559Y-75330410D01*
X105741569Y-75542610D01*
X105690560Y-75794500D01*
X100710000Y-75794500D01*
X100710000Y-74617069D01*
X127030830Y-74617069D01*
X127180471Y-74979229D01*
X127457314Y-75256555D01*
X127819212Y-75406828D01*
X128211069Y-75407170D01*
X128573229Y-75257529D01*
X128705920Y-75125069D01*
X135793830Y-75125069D01*
X135943471Y-75487229D01*
X136220314Y-75764555D01*
X136582212Y-75914828D01*
X136974069Y-75915170D01*
X137336229Y-75765529D01*
X137613555Y-75488686D01*
X137763828Y-75126788D01*
X137764170Y-74734931D01*
X137614529Y-74372771D01*
X137337686Y-74095445D01*
X136975788Y-73945172D01*
X136583931Y-73944830D01*
X136221771Y-74094471D01*
X135944445Y-74371314D01*
X135794172Y-74733212D01*
X135793830Y-75125069D01*
X128705920Y-75125069D01*
X128850555Y-74980686D01*
X129000828Y-74618788D01*
X129001170Y-74226931D01*
X128851529Y-73864771D01*
X128574686Y-73587445D01*
X128212788Y-73437172D01*
X127820931Y-73436830D01*
X127458771Y-73586471D01*
X127181445Y-73863314D01*
X127031172Y-74225212D01*
X127030830Y-74617069D01*
X100710000Y-74617069D01*
X100710000Y-72839069D01*
X118775830Y-72839069D01*
X118925471Y-73201229D01*
X119202314Y-73478555D01*
X119564212Y-73628828D01*
X119956069Y-73629170D01*
X120318229Y-73479529D01*
X120578141Y-73220069D01*
X140619830Y-73220069D01*
X140769471Y-73582229D01*
X141046314Y-73859555D01*
X141408212Y-74009828D01*
X141800069Y-74010170D01*
X142162229Y-73860529D01*
X142439555Y-73583686D01*
X142589828Y-73221788D01*
X142589940Y-73093069D01*
X164876830Y-73093069D01*
X165026471Y-73455229D01*
X165303314Y-73732555D01*
X165665212Y-73882828D01*
X166057069Y-73883170D01*
X166419229Y-73733529D01*
X166696555Y-73456686D01*
X166846828Y-73094788D01*
X166846829Y-73093069D01*
X172496830Y-73093069D01*
X172646471Y-73455229D01*
X172923314Y-73732555D01*
X173285212Y-73882828D01*
X173677069Y-73883170D01*
X174039229Y-73733529D01*
X174316555Y-73456686D01*
X174434605Y-73172390D01*
X174551471Y-73455229D01*
X174828314Y-73732555D01*
X175083242Y-73838410D01*
X175187868Y-74091626D01*
X175464711Y-74368952D01*
X175826609Y-74519225D01*
X176218466Y-74519567D01*
X176580626Y-74369926D01*
X176857952Y-74093083D01*
X177008225Y-73731185D01*
X177008567Y-73339328D01*
X176858926Y-72977168D01*
X176582083Y-72699842D01*
X176327155Y-72593987D01*
X176222529Y-72340771D01*
X175945686Y-72063445D01*
X175583788Y-71913172D01*
X175191931Y-71912830D01*
X174829771Y-72062471D01*
X174552445Y-72339314D01*
X174434395Y-72623610D01*
X174317529Y-72340771D01*
X174040686Y-72063445D01*
X173678788Y-71913172D01*
X173286931Y-71912830D01*
X172924771Y-72062471D01*
X172647445Y-72339314D01*
X172497172Y-72701212D01*
X172496830Y-73093069D01*
X166846829Y-73093069D01*
X166847170Y-72702931D01*
X166697529Y-72340771D01*
X166420686Y-72063445D01*
X166058788Y-71913172D01*
X165666931Y-71912830D01*
X165304771Y-72062471D01*
X165027445Y-72339314D01*
X164877172Y-72701212D01*
X164876830Y-73093069D01*
X142589940Y-73093069D01*
X142590170Y-72829931D01*
X142440529Y-72467771D01*
X142163686Y-72190445D01*
X141801788Y-72040172D01*
X141409931Y-72039830D01*
X141047771Y-72189471D01*
X140770445Y-72466314D01*
X140620172Y-72828212D01*
X140619830Y-73220069D01*
X120578141Y-73220069D01*
X120595555Y-73202686D01*
X120745828Y-72840788D01*
X120746170Y-72448931D01*
X120596529Y-72086771D01*
X120319686Y-71809445D01*
X119957788Y-71659172D01*
X119565931Y-71658830D01*
X119203771Y-71808471D01*
X118926445Y-72085314D01*
X118776172Y-72447212D01*
X118775830Y-72839069D01*
X100710000Y-72839069D01*
X100710000Y-67199510D01*
X105414070Y-67199510D01*
X105414070Y-69198490D01*
X105458348Y-69433807D01*
X105597420Y-69649931D01*
X105763473Y-69763390D01*
X105550928Y-70081486D01*
X105426510Y-70706978D01*
X105426510Y-70771022D01*
X105550928Y-71396514D01*
X105905241Y-71926781D01*
X106435508Y-72281094D01*
X107061000Y-72405512D01*
X107686492Y-72281094D01*
X108216759Y-71926781D01*
X108455774Y-71569069D01*
X128935830Y-71569069D01*
X129085471Y-71931229D01*
X129362314Y-72208555D01*
X129724212Y-72358828D01*
X130116069Y-72359170D01*
X130478229Y-72209529D01*
X130755555Y-71932686D01*
X130905828Y-71570788D01*
X130906170Y-71178931D01*
X130804996Y-70934069D01*
X136047830Y-70934069D01*
X136197471Y-71296229D01*
X136474314Y-71573555D01*
X136836212Y-71723828D01*
X137228069Y-71724170D01*
X137359481Y-71669872D01*
X137467471Y-71931229D01*
X137744314Y-72208555D01*
X138106212Y-72358828D01*
X138498069Y-72359170D01*
X138860229Y-72209529D01*
X139137555Y-71932686D01*
X139287828Y-71570788D01*
X139288170Y-71178931D01*
X139138529Y-70816771D01*
X138861686Y-70539445D01*
X138499788Y-70389172D01*
X138107931Y-70388830D01*
X137976519Y-70443128D01*
X137868529Y-70181771D01*
X137591686Y-69904445D01*
X137229788Y-69754172D01*
X136837931Y-69753830D01*
X136475771Y-69903471D01*
X136198445Y-70180314D01*
X136048172Y-70542212D01*
X136047830Y-70934069D01*
X130804996Y-70934069D01*
X130756529Y-70816771D01*
X130479686Y-70539445D01*
X130117788Y-70389172D01*
X129725931Y-70388830D01*
X129363771Y-70538471D01*
X129086445Y-70815314D01*
X128936172Y-71177212D01*
X128935830Y-71569069D01*
X108455774Y-71569069D01*
X108571072Y-71396514D01*
X108695490Y-70771022D01*
X108695490Y-70706978D01*
X108571072Y-70081486D01*
X108357547Y-69761923D01*
X108511931Y-69662580D01*
X108656921Y-69450380D01*
X108707930Y-69198490D01*
X108707930Y-68267069D01*
X120553830Y-68267069D01*
X120703471Y-68629229D01*
X120980314Y-68906555D01*
X121342212Y-69056828D01*
X121734069Y-69057170D01*
X122096229Y-68907529D01*
X122373555Y-68630686D01*
X122523828Y-68268788D01*
X122524051Y-68013069D01*
X182656830Y-68013069D01*
X182806471Y-68375229D01*
X183083314Y-68652555D01*
X183445212Y-68802828D01*
X183837069Y-68803170D01*
X184199229Y-68653529D01*
X184476555Y-68376686D01*
X184626828Y-68014788D01*
X184627170Y-67622931D01*
X184477529Y-67260771D01*
X184200686Y-66983445D01*
X183838788Y-66833172D01*
X183446931Y-66832830D01*
X183084771Y-66982471D01*
X182807445Y-67259314D01*
X182657172Y-67621212D01*
X182656830Y-68013069D01*
X122524051Y-68013069D01*
X122524170Y-67876931D01*
X122374529Y-67514771D01*
X122097686Y-67237445D01*
X121735788Y-67087172D01*
X121343931Y-67086830D01*
X120981771Y-67236471D01*
X120704445Y-67513314D01*
X120554172Y-67875212D01*
X120553830Y-68267069D01*
X108707930Y-68267069D01*
X108707930Y-67199510D01*
X108663652Y-66964193D01*
X108524580Y-66748069D01*
X108312380Y-66603079D01*
X108060490Y-66552070D01*
X106061510Y-66552070D01*
X105826193Y-66596348D01*
X105610069Y-66735420D01*
X105465079Y-66947620D01*
X105414070Y-67199510D01*
X100710000Y-67199510D01*
X100710000Y-66362069D01*
X131856830Y-66362069D01*
X132006471Y-66724229D01*
X132283314Y-67001555D01*
X132645212Y-67151828D01*
X133037069Y-67152170D01*
X133399229Y-67002529D01*
X133540393Y-66861611D01*
X133553314Y-66874555D01*
X133915212Y-67024828D01*
X134307069Y-67025170D01*
X134669229Y-66875529D01*
X134946555Y-66598686D01*
X135096828Y-66236788D01*
X135096835Y-66228099D01*
X135793830Y-66228099D01*
X135943471Y-66590259D01*
X136220314Y-66867585D01*
X136582212Y-67017858D01*
X136974069Y-67018200D01*
X137063844Y-66981106D01*
X137063830Y-66997069D01*
X137213471Y-67359229D01*
X137490314Y-67636555D01*
X137852212Y-67786828D01*
X138244069Y-67787170D01*
X138606229Y-67637529D01*
X138883555Y-67360686D01*
X139033828Y-66998788D01*
X139034170Y-66606931D01*
X138884529Y-66244771D01*
X138607686Y-65967445D01*
X138245788Y-65817172D01*
X137853931Y-65816830D01*
X137764156Y-65853924D01*
X137764170Y-65837961D01*
X137614529Y-65475801D01*
X137337686Y-65198475D01*
X136975788Y-65048202D01*
X136583931Y-65047860D01*
X136221771Y-65197501D01*
X135944445Y-65474344D01*
X135794172Y-65836242D01*
X135793830Y-66228099D01*
X135096835Y-66228099D01*
X135097170Y-65844931D01*
X134947529Y-65482771D01*
X134670686Y-65205445D01*
X134308788Y-65055172D01*
X133916931Y-65054830D01*
X133554771Y-65204471D01*
X133413607Y-65345389D01*
X133400686Y-65332445D01*
X133038788Y-65182172D01*
X132646931Y-65181830D01*
X132284771Y-65331471D01*
X132007445Y-65608314D01*
X131857172Y-65970212D01*
X131856830Y-66362069D01*
X100710000Y-66362069D01*
X100710000Y-60468510D01*
X105414070Y-60468510D01*
X105414070Y-62467490D01*
X105458348Y-62702807D01*
X105597420Y-62918931D01*
X105763473Y-63032390D01*
X105550928Y-63350486D01*
X105426510Y-63975978D01*
X105426510Y-64040022D01*
X105550928Y-64665514D01*
X105905241Y-65195781D01*
X106435508Y-65550094D01*
X107061000Y-65674512D01*
X107686492Y-65550094D01*
X108216759Y-65195781D01*
X108455774Y-64838069D01*
X183418830Y-64838069D01*
X183568471Y-65200229D01*
X183845314Y-65477555D01*
X184207212Y-65627828D01*
X184599069Y-65628170D01*
X184961229Y-65478529D01*
X185238555Y-65201686D01*
X185388828Y-64839788D01*
X185389170Y-64447931D01*
X185239529Y-64085771D01*
X184962686Y-63808445D01*
X184600788Y-63658172D01*
X184208931Y-63657830D01*
X183846771Y-63807471D01*
X183569445Y-64084314D01*
X183419172Y-64446212D01*
X183418830Y-64838069D01*
X108455774Y-64838069D01*
X108571072Y-64665514D01*
X108695490Y-64040022D01*
X108695490Y-63975978D01*
X108571072Y-63350486D01*
X108357547Y-63030923D01*
X108511931Y-62931580D01*
X108656921Y-62719380D01*
X108707930Y-62467490D01*
X108707930Y-60468510D01*
X108663652Y-60233193D01*
X108524580Y-60017069D01*
X108312380Y-59872079D01*
X108060490Y-59821070D01*
X106061510Y-59821070D01*
X105826193Y-59865348D01*
X105610069Y-60004420D01*
X105465079Y-60216620D01*
X105414070Y-60468510D01*
X100710000Y-60468510D01*
X100710000Y-57443000D01*
X117374560Y-57443000D01*
X117374560Y-59143000D01*
X117418838Y-59378317D01*
X117557910Y-59594441D01*
X117770110Y-59739431D01*
X117826454Y-59750841D01*
X117821946Y-59753853D01*
X117500039Y-60235622D01*
X117387000Y-60803907D01*
X117387000Y-60862093D01*
X117500039Y-61430378D01*
X117821946Y-61912147D01*
X118303715Y-62234054D01*
X118872000Y-62347093D01*
X119440285Y-62234054D01*
X119922054Y-61912147D01*
X120142000Y-61582974D01*
X120361946Y-61912147D01*
X120843715Y-62234054D01*
X121412000Y-62347093D01*
X121980285Y-62234054D01*
X122462054Y-61912147D01*
X122682000Y-61582974D01*
X122901946Y-61912147D01*
X123383715Y-62234054D01*
X123952000Y-62347093D01*
X124520285Y-62234054D01*
X125002054Y-61912147D01*
X125222000Y-61582974D01*
X125441946Y-61912147D01*
X125923715Y-62234054D01*
X126492000Y-62347093D01*
X127060285Y-62234054D01*
X127542054Y-61912147D01*
X127762000Y-61582974D01*
X127981946Y-61912147D01*
X128463715Y-62234054D01*
X129032000Y-62347093D01*
X129600285Y-62234054D01*
X130082054Y-61912147D01*
X130302000Y-61582974D01*
X130521946Y-61912147D01*
X131003715Y-62234054D01*
X131572000Y-62347093D01*
X132140285Y-62234054D01*
X132622054Y-61912147D01*
X132842000Y-61582974D01*
X133061946Y-61912147D01*
X133543715Y-62234054D01*
X134112000Y-62347093D01*
X134680285Y-62234054D01*
X135162054Y-61912147D01*
X135382000Y-61582974D01*
X135601946Y-61912147D01*
X136083715Y-62234054D01*
X136652000Y-62347093D01*
X137220285Y-62234054D01*
X137702054Y-61912147D01*
X138023961Y-61430378D01*
X138137000Y-60862093D01*
X138137000Y-60803907D01*
X138023961Y-60235622D01*
X137702054Y-59753853D01*
X137416422Y-59563000D01*
X137702054Y-59372147D01*
X138023961Y-58890378D01*
X138137000Y-58322093D01*
X138137000Y-58263907D01*
X138023961Y-57695622D01*
X137855165Y-57443000D01*
X154204560Y-57443000D01*
X154204560Y-59143000D01*
X154248838Y-59378317D01*
X154387910Y-59594441D01*
X154600110Y-59739431D01*
X154656454Y-59750841D01*
X154651946Y-59753853D01*
X154330039Y-60235622D01*
X154217000Y-60803907D01*
X154217000Y-60862093D01*
X154330039Y-61430378D01*
X154651946Y-61912147D01*
X155133715Y-62234054D01*
X155702000Y-62347093D01*
X156270285Y-62234054D01*
X156752054Y-61912147D01*
X156972000Y-61582974D01*
X157191946Y-61912147D01*
X157673715Y-62234054D01*
X158242000Y-62347093D01*
X158810285Y-62234054D01*
X159292054Y-61912147D01*
X159512000Y-61582974D01*
X159731946Y-61912147D01*
X160213715Y-62234054D01*
X160782000Y-62347093D01*
X161350285Y-62234054D01*
X161832054Y-61912147D01*
X162052000Y-61582974D01*
X162271946Y-61912147D01*
X162753715Y-62234054D01*
X163322000Y-62347093D01*
X163890285Y-62234054D01*
X164372054Y-61912147D01*
X164592000Y-61582974D01*
X164811946Y-61912147D01*
X165293715Y-62234054D01*
X165862000Y-62347093D01*
X166430285Y-62234054D01*
X166912054Y-61912147D01*
X167132000Y-61582974D01*
X167351946Y-61912147D01*
X167833715Y-62234054D01*
X168402000Y-62347093D01*
X168970285Y-62234054D01*
X169452054Y-61912147D01*
X169672000Y-61582974D01*
X169891946Y-61912147D01*
X170373715Y-62234054D01*
X170942000Y-62347093D01*
X171510285Y-62234054D01*
X171992054Y-61912147D01*
X172212000Y-61582974D01*
X172431946Y-61912147D01*
X172913715Y-62234054D01*
X173482000Y-62347093D01*
X174050285Y-62234054D01*
X174532054Y-61912147D01*
X174752000Y-61582974D01*
X174971946Y-61912147D01*
X175453715Y-62234054D01*
X176022000Y-62347093D01*
X176590285Y-62234054D01*
X177072054Y-61912147D01*
X177292000Y-61582974D01*
X177511946Y-61912147D01*
X177993715Y-62234054D01*
X178562000Y-62347093D01*
X179130285Y-62234054D01*
X179612054Y-61912147D01*
X179933961Y-61430378D01*
X180047000Y-60862093D01*
X180047000Y-60803907D01*
X179933961Y-60235622D01*
X179612054Y-59753853D01*
X179326422Y-59563000D01*
X179612054Y-59372147D01*
X179933961Y-58890378D01*
X180047000Y-58322093D01*
X180047000Y-58263907D01*
X179933961Y-57695622D01*
X179612054Y-57213853D01*
X179130285Y-56891946D01*
X178562000Y-56778907D01*
X177993715Y-56891946D01*
X177511946Y-57213853D01*
X177292000Y-57543026D01*
X177072054Y-57213853D01*
X176590285Y-56891946D01*
X176022000Y-56778907D01*
X175453715Y-56891946D01*
X174971946Y-57213853D01*
X174752000Y-57543026D01*
X174532054Y-57213853D01*
X174050285Y-56891946D01*
X173482000Y-56778907D01*
X172913715Y-56891946D01*
X172431946Y-57213853D01*
X172212000Y-57543026D01*
X171992054Y-57213853D01*
X171510285Y-56891946D01*
X170942000Y-56778907D01*
X170373715Y-56891946D01*
X169891946Y-57213853D01*
X169672000Y-57543026D01*
X169452054Y-57213853D01*
X168970285Y-56891946D01*
X168402000Y-56778907D01*
X167833715Y-56891946D01*
X167351946Y-57213853D01*
X167132000Y-57543026D01*
X166912054Y-57213853D01*
X166430285Y-56891946D01*
X165862000Y-56778907D01*
X165293715Y-56891946D01*
X164811946Y-57213853D01*
X164592000Y-57543026D01*
X164372054Y-57213853D01*
X163890285Y-56891946D01*
X163322000Y-56778907D01*
X162753715Y-56891946D01*
X162271946Y-57213853D01*
X162052000Y-57543026D01*
X161832054Y-57213853D01*
X161350285Y-56891946D01*
X160782000Y-56778907D01*
X160213715Y-56891946D01*
X159731946Y-57213853D01*
X159504298Y-57554553D01*
X159437183Y-57411642D01*
X159008924Y-57021355D01*
X158598890Y-56851524D01*
X158369000Y-56972845D01*
X158369000Y-58166000D01*
X158389000Y-58166000D01*
X158389000Y-58420000D01*
X158369000Y-58420000D01*
X158369000Y-58440000D01*
X158115000Y-58440000D01*
X158115000Y-58420000D01*
X158095000Y-58420000D01*
X158095000Y-58166000D01*
X158115000Y-58166000D01*
X158115000Y-56972845D01*
X157885110Y-56851524D01*
X157475076Y-57021355D01*
X157172063Y-57297501D01*
X157155162Y-57207683D01*
X157016090Y-56991559D01*
X156803890Y-56846569D01*
X156552000Y-56795560D01*
X154852000Y-56795560D01*
X154616683Y-56839838D01*
X154400559Y-56978910D01*
X154255569Y-57191110D01*
X154204560Y-57443000D01*
X137855165Y-57443000D01*
X137702054Y-57213853D01*
X137220285Y-56891946D01*
X136652000Y-56778907D01*
X136083715Y-56891946D01*
X135601946Y-57213853D01*
X135382000Y-57543026D01*
X135162054Y-57213853D01*
X134680285Y-56891946D01*
X134112000Y-56778907D01*
X133543715Y-56891946D01*
X133061946Y-57213853D01*
X132842000Y-57543026D01*
X132622054Y-57213853D01*
X132140285Y-56891946D01*
X131572000Y-56778907D01*
X131003715Y-56891946D01*
X130521946Y-57213853D01*
X130302000Y-57543026D01*
X130082054Y-57213853D01*
X129600285Y-56891946D01*
X129032000Y-56778907D01*
X128463715Y-56891946D01*
X127981946Y-57213853D01*
X127762000Y-57543026D01*
X127542054Y-57213853D01*
X127060285Y-56891946D01*
X126492000Y-56778907D01*
X125923715Y-56891946D01*
X125441946Y-57213853D01*
X125222000Y-57543026D01*
X125002054Y-57213853D01*
X124520285Y-56891946D01*
X123952000Y-56778907D01*
X123383715Y-56891946D01*
X122901946Y-57213853D01*
X122682000Y-57543026D01*
X122462054Y-57213853D01*
X121980285Y-56891946D01*
X121412000Y-56778907D01*
X120843715Y-56891946D01*
X120361946Y-57213853D01*
X120334150Y-57255452D01*
X120325162Y-57207683D01*
X120186090Y-56991559D01*
X119973890Y-56846569D01*
X119722000Y-56795560D01*
X118022000Y-56795560D01*
X117786683Y-56839838D01*
X117570559Y-56978910D01*
X117425569Y-57191110D01*
X117374560Y-57443000D01*
X100710000Y-57443000D01*
X100710000Y-54821834D01*
X103364543Y-54821834D01*
X103764853Y-55790658D01*
X104505443Y-56532542D01*
X105473567Y-56934542D01*
X106521834Y-56935457D01*
X107490658Y-56535147D01*
X108232542Y-55794557D01*
X108634542Y-54826433D01*
X108634546Y-54821834D01*
X189364543Y-54821834D01*
X189764853Y-55790658D01*
X190505443Y-56532542D01*
X191473567Y-56934542D01*
X192521834Y-56935457D01*
X193490658Y-56535147D01*
X194232542Y-55794557D01*
X194634542Y-54826433D01*
X194635457Y-53778166D01*
X194235147Y-52809342D01*
X193494557Y-52067458D01*
X192526433Y-51665458D01*
X191478166Y-51664543D01*
X190509342Y-52064853D01*
X189767458Y-52805443D01*
X189365458Y-53773567D01*
X189364543Y-54821834D01*
X108634546Y-54821834D01*
X108635457Y-53778166D01*
X108235147Y-52809342D01*
X107494557Y-52067458D01*
X106526433Y-51665458D01*
X105478166Y-51664543D01*
X104509342Y-52064853D01*
X103767458Y-52805443D01*
X103365458Y-53773567D01*
X103364543Y-54821834D01*
X100710000Y-54821834D01*
X100710000Y-50710000D01*
X197290000Y-50710000D01*
X197290000Y-133290000D01*
X197290000Y-133290000D01*
G37*
X197290000Y-133290000D02*
X100710000Y-133290000D01*
X100710000Y-130221834D01*
X103364543Y-130221834D01*
X103764853Y-131190658D01*
X104505443Y-131932542D01*
X105473567Y-132334542D01*
X106521834Y-132335457D01*
X107490658Y-131935147D01*
X108232542Y-131194557D01*
X108634542Y-130226433D01*
X108634546Y-130221834D01*
X189364543Y-130221834D01*
X189764853Y-131190658D01*
X190505443Y-131932542D01*
X191473567Y-132334542D01*
X192521834Y-132335457D01*
X193490658Y-131935147D01*
X194232542Y-131194557D01*
X194634542Y-130226433D01*
X194635457Y-129178166D01*
X194235147Y-128209342D01*
X193494557Y-127467458D01*
X192526433Y-127065458D01*
X191478166Y-127064543D01*
X190509342Y-127464853D01*
X189767458Y-128205443D01*
X189365458Y-129173567D01*
X189364543Y-130221834D01*
X108634546Y-130221834D01*
X108635457Y-129178166D01*
X108235147Y-128209342D01*
X107494557Y-127467458D01*
X106526433Y-127065458D01*
X105478166Y-127064543D01*
X104509342Y-127464853D01*
X103767458Y-128205443D01*
X103365458Y-129173567D01*
X103364543Y-130221834D01*
X100710000Y-130221834D01*
X100710000Y-126092069D01*
X119537830Y-126092069D01*
X119687471Y-126454229D01*
X119964314Y-126731555D01*
X120326212Y-126881828D01*
X120718069Y-126882170D01*
X121080229Y-126732529D01*
X121357555Y-126455686D01*
X121419681Y-126306069D01*
X139095830Y-126306069D01*
X139245471Y-126668229D01*
X139522314Y-126945555D01*
X139884212Y-127095828D01*
X140276069Y-127096170D01*
X140638229Y-126946529D01*
X140915555Y-126669686D01*
X141065828Y-126307788D01*
X141066170Y-125915931D01*
X140916529Y-125553771D01*
X140639686Y-125276445D01*
X140277788Y-125126172D01*
X139885931Y-125125830D01*
X139523771Y-125275471D01*
X139246445Y-125552314D01*
X139096172Y-125914212D01*
X139095830Y-126306069D01*
X121419681Y-126306069D01*
X121507828Y-126093788D01*
X121508170Y-125701931D01*
X121358529Y-125339771D01*
X121081686Y-125062445D01*
X120719788Y-124912172D01*
X120327931Y-124911830D01*
X119965771Y-125061471D01*
X119688445Y-125338314D01*
X119538172Y-125700212D01*
X119537830Y-126092069D01*
X100710000Y-126092069D01*
X100710000Y-124353285D01*
X112670760Y-124353285D01*
X112881169Y-124862515D01*
X113270436Y-125252461D01*
X113779298Y-125463759D01*
X114330285Y-125464240D01*
X114839515Y-125253831D01*
X115184878Y-124909069D01*
X117505830Y-124909069D01*
X117655471Y-125271229D01*
X117932314Y-125548555D01*
X118294212Y-125698828D01*
X118686069Y-125699170D01*
X119048229Y-125549529D01*
X119325555Y-125272686D01*
X119475828Y-124910788D01*
X119476170Y-124518931D01*
X119407727Y-124353285D01*
X126620760Y-124353285D01*
X126831169Y-124862515D01*
X127220436Y-125252461D01*
X127729298Y-125463759D01*
X128280285Y-125464240D01*
X128789515Y-125253831D01*
X129179461Y-124864564D01*
X129390759Y-124355702D01*
X129390871Y-124226285D01*
X132355760Y-124226285D01*
X132566169Y-124735515D01*
X132955436Y-125125461D01*
X133464298Y-125336759D01*
X134015285Y-125337240D01*
X134524515Y-125126831D01*
X134914461Y-124737564D01*
X135125759Y-124228702D01*
X135125761Y-124226285D01*
X146305760Y-124226285D01*
X146516169Y-124735515D01*
X146905436Y-125125461D01*
X147414298Y-125336759D01*
X147965285Y-125337240D01*
X148474515Y-125126831D01*
X148864461Y-124737564D01*
X149075759Y-124228702D01*
X149076240Y-123677715D01*
X148865831Y-123168485D01*
X148545905Y-122848000D01*
X154204560Y-122848000D01*
X154204560Y-124548000D01*
X154248838Y-124783317D01*
X154387910Y-124999441D01*
X154600110Y-125144431D01*
X154656454Y-125155841D01*
X154651946Y-125158853D01*
X154330039Y-125640622D01*
X154217000Y-126208907D01*
X154217000Y-126267093D01*
X154330039Y-126835378D01*
X154651946Y-127317147D01*
X155133715Y-127639054D01*
X155702000Y-127752093D01*
X156270285Y-127639054D01*
X156752054Y-127317147D01*
X156972000Y-126987974D01*
X157191946Y-127317147D01*
X157673715Y-127639054D01*
X158242000Y-127752093D01*
X158810285Y-127639054D01*
X159292054Y-127317147D01*
X159512000Y-126987974D01*
X159731946Y-127317147D01*
X160213715Y-127639054D01*
X160782000Y-127752093D01*
X161350285Y-127639054D01*
X161832054Y-127317147D01*
X162052000Y-126987974D01*
X162271946Y-127317147D01*
X162753715Y-127639054D01*
X163322000Y-127752093D01*
X163890285Y-127639054D01*
X164372054Y-127317147D01*
X164592000Y-126987974D01*
X164811946Y-127317147D01*
X165293715Y-127639054D01*
X165862000Y-127752093D01*
X166430285Y-127639054D01*
X166912054Y-127317147D01*
X167132000Y-126987974D01*
X167351946Y-127317147D01*
X167833715Y-127639054D01*
X168402000Y-127752093D01*
X168970285Y-127639054D01*
X169452054Y-127317147D01*
X169672000Y-126987974D01*
X169891946Y-127317147D01*
X170373715Y-127639054D01*
X170942000Y-127752093D01*
X171510285Y-127639054D01*
X171992054Y-127317147D01*
X172212000Y-126987974D01*
X172431946Y-127317147D01*
X172913715Y-127639054D01*
X173482000Y-127752093D01*
X174050285Y-127639054D01*
X174532054Y-127317147D01*
X174752000Y-126987974D01*
X174971946Y-127317147D01*
X175453715Y-127639054D01*
X176022000Y-127752093D01*
X176590285Y-127639054D01*
X177072054Y-127317147D01*
X177292000Y-126987974D01*
X177511946Y-127317147D01*
X177993715Y-127639054D01*
X178562000Y-127752093D01*
X179130285Y-127639054D01*
X179612054Y-127317147D01*
X179933961Y-126835378D01*
X180047000Y-126267093D01*
X180047000Y-126208907D01*
X179933961Y-125640622D01*
X179612054Y-125158853D01*
X179326422Y-124968000D01*
X179612054Y-124777147D01*
X179933961Y-124295378D01*
X180047000Y-123727093D01*
X180047000Y-123668907D01*
X179933961Y-123100622D01*
X179612054Y-122618853D01*
X179130285Y-122296946D01*
X178562000Y-122183907D01*
X177993715Y-122296946D01*
X177511946Y-122618853D01*
X177292000Y-122948026D01*
X177072054Y-122618853D01*
X176590285Y-122296946D01*
X176022000Y-122183907D01*
X175453715Y-122296946D01*
X174971946Y-122618853D01*
X174752000Y-122948026D01*
X174532054Y-122618853D01*
X174050285Y-122296946D01*
X173482000Y-122183907D01*
X172913715Y-122296946D01*
X172431946Y-122618853D01*
X172212000Y-122948026D01*
X171992054Y-122618853D01*
X171510285Y-122296946D01*
X170942000Y-122183907D01*
X170373715Y-122296946D01*
X169891946Y-122618853D01*
X169672000Y-122948026D01*
X169452054Y-122618853D01*
X168970285Y-122296946D01*
X168402000Y-122183907D01*
X167833715Y-122296946D01*
X167351946Y-122618853D01*
X167132000Y-122948026D01*
X166912054Y-122618853D01*
X166430285Y-122296946D01*
X165862000Y-122183907D01*
X165293715Y-122296946D01*
X164811946Y-122618853D01*
X164592000Y-122948026D01*
X164372054Y-122618853D01*
X163890285Y-122296946D01*
X163322000Y-122183907D01*
X162753715Y-122296946D01*
X162271946Y-122618853D01*
X162052000Y-122948026D01*
X161832054Y-122618853D01*
X161350285Y-122296946D01*
X160782000Y-122183907D01*
X160213715Y-122296946D01*
X159731946Y-122618853D01*
X159512000Y-122948026D01*
X159292054Y-122618853D01*
X158810285Y-122296946D01*
X158242000Y-122183907D01*
X157673715Y-122296946D01*
X157191946Y-122618853D01*
X157164150Y-122660452D01*
X157155162Y-122612683D01*
X157016090Y-122396559D01*
X156803890Y-122251569D01*
X156552000Y-122200560D01*
X154852000Y-122200560D01*
X154616683Y-122244838D01*
X154400559Y-122383910D01*
X154255569Y-122596110D01*
X154204560Y-122848000D01*
X148545905Y-122848000D01*
X148476564Y-122778539D01*
X147967702Y-122567241D01*
X147416715Y-122566760D01*
X146907485Y-122777169D01*
X146517539Y-123166436D01*
X146306241Y-123675298D01*
X146305760Y-124226285D01*
X135125761Y-124226285D01*
X135126240Y-123677715D01*
X134915831Y-123168485D01*
X134526564Y-122778539D01*
X134017702Y-122567241D01*
X133466715Y-122566760D01*
X132957485Y-122777169D01*
X132567539Y-123166436D01*
X132356241Y-123675298D01*
X132355760Y-124226285D01*
X129390871Y-124226285D01*
X129391240Y-123804715D01*
X129180831Y-123295485D01*
X128791564Y-122905539D01*
X128282702Y-122694241D01*
X127731715Y-122693760D01*
X127222485Y-122904169D01*
X126832539Y-123293436D01*
X126621241Y-123802298D01*
X126620760Y-124353285D01*
X119407727Y-124353285D01*
X119326529Y-124156771D01*
X119049686Y-123879445D01*
X118687788Y-123729172D01*
X118295931Y-123728830D01*
X117933771Y-123878471D01*
X117656445Y-124155314D01*
X117506172Y-124517212D01*
X117505830Y-124909069D01*
X115184878Y-124909069D01*
X115229461Y-124864564D01*
X115440759Y-124355702D01*
X115441240Y-123804715D01*
X115230831Y-123295485D01*
X114841564Y-122905539D01*
X114332702Y-122694241D01*
X113781715Y-122693760D01*
X113272485Y-122904169D01*
X112882539Y-123293436D01*
X112671241Y-123802298D01*
X112670760Y-124353285D01*
X100710000Y-124353285D01*
X100710000Y-118618000D01*
X105292907Y-118618000D01*
X105405946Y-119186285D01*
X105727853Y-119668054D01*
X105769452Y-119695850D01*
X105721683Y-119704838D01*
X105505559Y-119843910D01*
X105360569Y-120056110D01*
X105309560Y-120308000D01*
X105309560Y-122008000D01*
X105353838Y-122243317D01*
X105492910Y-122459441D01*
X105705110Y-122604431D01*
X105957000Y-122655440D01*
X107657000Y-122655440D01*
X107892317Y-122611162D01*
X108108441Y-122472090D01*
X108253431Y-122259890D01*
X108264841Y-122203546D01*
X108267853Y-122208054D01*
X108749622Y-122529961D01*
X109317907Y-122643000D01*
X109376093Y-122643000D01*
X109944378Y-122529961D01*
X110426147Y-122208054D01*
X110488277Y-122115069D01*
X125760830Y-122115069D01*
X125910471Y-122477229D01*
X126187314Y-122754555D01*
X126549212Y-122904828D01*
X126941069Y-122905170D01*
X127303229Y-122755529D01*
X127580555Y-122478686D01*
X127730828Y-122116788D01*
X127731170Y-121724931D01*
X127581529Y-121362771D01*
X127318287Y-121099069D01*
X138460830Y-121099069D01*
X138610471Y-121461229D01*
X138887314Y-121738555D01*
X139249212Y-121888828D01*
X139641069Y-121889170D01*
X140003229Y-121739529D01*
X140280555Y-121462686D01*
X140430828Y-121100788D01*
X140430829Y-121099069D01*
X144302830Y-121099069D01*
X144452471Y-121461229D01*
X144729314Y-121738555D01*
X145091212Y-121888828D01*
X145483069Y-121889170D01*
X145845229Y-121739529D01*
X146122555Y-121462686D01*
X146272828Y-121100788D01*
X146273170Y-120708931D01*
X146123529Y-120346771D01*
X145846686Y-120069445D01*
X145484788Y-119919172D01*
X145092931Y-119918830D01*
X144730771Y-120068471D01*
X144453445Y-120345314D01*
X144303172Y-120707212D01*
X144302830Y-121099069D01*
X140430829Y-121099069D01*
X140431170Y-120708931D01*
X140281529Y-120346771D01*
X140004686Y-120069445D01*
X139642788Y-119919172D01*
X139250931Y-119918830D01*
X138888771Y-120068471D01*
X138611445Y-120345314D01*
X138461172Y-120707212D01*
X138460830Y-121099069D01*
X127318287Y-121099069D01*
X127304686Y-121085445D01*
X126942788Y-120935172D01*
X126550931Y-120934830D01*
X126188771Y-121084471D01*
X125911445Y-121361314D01*
X125761172Y-121723212D01*
X125760830Y-122115069D01*
X110488277Y-122115069D01*
X110748054Y-121726285D01*
X110861093Y-121158000D01*
X110849371Y-121099069D01*
X119029830Y-121099069D01*
X119179471Y-121461229D01*
X119456314Y-121738555D01*
X119818212Y-121888828D01*
X120210069Y-121889170D01*
X120572229Y-121739529D01*
X120849555Y-121462686D01*
X120999828Y-121100788D01*
X121000170Y-120708931D01*
X120850529Y-120346771D01*
X120573686Y-120069445D01*
X120211788Y-119919172D01*
X119819931Y-119918830D01*
X119457771Y-120068471D01*
X119180445Y-120345314D01*
X119030172Y-120707212D01*
X119029830Y-121099069D01*
X110849371Y-121099069D01*
X110748054Y-120589715D01*
X110426147Y-120107946D01*
X110096974Y-119888000D01*
X110426147Y-119668054D01*
X110748054Y-119186285D01*
X110861093Y-118618000D01*
X110748054Y-118049715D01*
X110426147Y-117567946D01*
X110096974Y-117348000D01*
X110426147Y-117128054D01*
X110748054Y-116646285D01*
X110847553Y-116146069D01*
X145699830Y-116146069D01*
X145849471Y-116508229D01*
X146126314Y-116785555D01*
X146488212Y-116935828D01*
X146880069Y-116936170D01*
X147242229Y-116786529D01*
X147519555Y-116509686D01*
X147669828Y-116147788D01*
X147670170Y-115755931D01*
X147520529Y-115393771D01*
X147243686Y-115116445D01*
X146881788Y-114966172D01*
X146489931Y-114965830D01*
X146127771Y-115115471D01*
X145850445Y-115392314D01*
X145700172Y-115754212D01*
X145699830Y-116146069D01*
X110847553Y-116146069D01*
X110861093Y-116078000D01*
X110748054Y-115509715D01*
X110426147Y-115027946D01*
X109944378Y-114706039D01*
X109376093Y-114593000D01*
X109317907Y-114593000D01*
X108749622Y-114706039D01*
X108267853Y-115027946D01*
X108078655Y-115311101D01*
X108078645Y-115311076D01*
X107688358Y-114882817D01*
X107163892Y-114636514D01*
X106934000Y-114757181D01*
X106934000Y-115951000D01*
X106954000Y-115951000D01*
X106954000Y-116205000D01*
X106934000Y-116205000D01*
X106934000Y-116225000D01*
X106680000Y-116225000D01*
X106680000Y-116205000D01*
X105486845Y-116205000D01*
X105365524Y-116434890D01*
X105535355Y-116844924D01*
X105925642Y-117273183D01*
X106068553Y-117340298D01*
X105727853Y-117567946D01*
X105405946Y-118049715D01*
X105292907Y-118618000D01*
X100710000Y-118618000D01*
X100710000Y-115721110D01*
X105365524Y-115721110D01*
X105486845Y-115951000D01*
X106680000Y-115951000D01*
X106680000Y-114757181D01*
X106450108Y-114636514D01*
X105925642Y-114882817D01*
X105535355Y-115311076D01*
X105365524Y-115721110D01*
X100710000Y-115721110D01*
X100710000Y-113479069D01*
X136682830Y-113479069D01*
X136832471Y-113841229D01*
X137109314Y-114118555D01*
X137471212Y-114268828D01*
X137863069Y-114269170D01*
X138225229Y-114119529D01*
X138502555Y-113842686D01*
X138652828Y-113480788D01*
X138653170Y-113088931D01*
X138503529Y-112726771D01*
X138226686Y-112449445D01*
X137864788Y-112299172D01*
X137472931Y-112298830D01*
X137110771Y-112448471D01*
X136833445Y-112725314D01*
X136683172Y-113087212D01*
X136682830Y-113479069D01*
X100710000Y-113479069D01*
X100710000Y-106934000D01*
X105292907Y-106934000D01*
X105405946Y-107502285D01*
X105727853Y-107984054D01*
X105769452Y-108011850D01*
X105721683Y-108020838D01*
X105505559Y-108159910D01*
X105360569Y-108372110D01*
X105309560Y-108624000D01*
X105309560Y-110324000D01*
X105353838Y-110559317D01*
X105492910Y-110775441D01*
X105705110Y-110920431D01*
X105957000Y-110971440D01*
X107657000Y-110971440D01*
X107892317Y-110927162D01*
X108108441Y-110788090D01*
X108253431Y-110575890D01*
X108264841Y-110519546D01*
X108267853Y-110524054D01*
X108749622Y-110845961D01*
X109317907Y-110959000D01*
X109376093Y-110959000D01*
X109944378Y-110845961D01*
X110426147Y-110524054D01*
X110748054Y-110042285D01*
X110771767Y-109923069D01*
X150525830Y-109923069D01*
X150675471Y-110285229D01*
X150952314Y-110562555D01*
X151314212Y-110712828D01*
X151706069Y-110713170D01*
X152068229Y-110563529D01*
X152073698Y-110558069D01*
X183926830Y-110558069D01*
X184076471Y-110920229D01*
X184353314Y-111197555D01*
X184715212Y-111347828D01*
X185107069Y-111348170D01*
X185469229Y-111198529D01*
X185544383Y-111123506D01*
X185737853Y-111413054D01*
X186067026Y-111633000D01*
X185737853Y-111852946D01*
X185415946Y-112334715D01*
X185302907Y-112903000D01*
X185415946Y-113471285D01*
X185737853Y-113953054D01*
X186067026Y-114173000D01*
X185737853Y-114392946D01*
X185415946Y-114874715D01*
X185302907Y-115443000D01*
X185415946Y-116011285D01*
X185737853Y-116493054D01*
X185779452Y-116520850D01*
X185731683Y-116529838D01*
X185515559Y-116668910D01*
X185370569Y-116881110D01*
X185319560Y-117133000D01*
X185319560Y-118833000D01*
X185363838Y-119068317D01*
X185502910Y-119284441D01*
X185715110Y-119429431D01*
X185967000Y-119480440D01*
X187667000Y-119480440D01*
X187902317Y-119436162D01*
X188118441Y-119297090D01*
X188263431Y-119084890D01*
X188274841Y-119028546D01*
X188277853Y-119033054D01*
X188759622Y-119354961D01*
X189327907Y-119468000D01*
X189386093Y-119468000D01*
X189954378Y-119354961D01*
X190436147Y-119033054D01*
X190758054Y-118551285D01*
X190871093Y-117983000D01*
X190758054Y-117414715D01*
X190436147Y-116932946D01*
X190106974Y-116713000D01*
X190385239Y-116527069D01*
X190784830Y-116527069D01*
X190934471Y-116889229D01*
X191211314Y-117166555D01*
X191573212Y-117316828D01*
X191965069Y-117317170D01*
X192327229Y-117167529D01*
X192604555Y-116890686D01*
X192754828Y-116528788D01*
X192755170Y-116136931D01*
X192605529Y-115774771D01*
X192328686Y-115497445D01*
X191966788Y-115347172D01*
X191574931Y-115346830D01*
X191212771Y-115496471D01*
X190935445Y-115773314D01*
X190785172Y-116135212D01*
X190784830Y-116527069D01*
X190385239Y-116527069D01*
X190436147Y-116493054D01*
X190758054Y-116011285D01*
X190871093Y-115443000D01*
X190758054Y-114874715D01*
X190436147Y-114392946D01*
X190106974Y-114173000D01*
X190436147Y-113953054D01*
X190758054Y-113471285D01*
X190871093Y-112903000D01*
X190758054Y-112334715D01*
X190436147Y-111852946D01*
X190106974Y-111633000D01*
X190436147Y-111413054D01*
X190758054Y-110931285D01*
X190871093Y-110363000D01*
X190758054Y-109794715D01*
X190436147Y-109312946D01*
X189954378Y-108991039D01*
X189386093Y-108878000D01*
X189327907Y-108878000D01*
X188759622Y-108991039D01*
X188277853Y-109312946D01*
X188087000Y-109598578D01*
X187896147Y-109312946D01*
X187414378Y-108991039D01*
X186846093Y-108878000D01*
X186787907Y-108878000D01*
X186219622Y-108991039D01*
X185737853Y-109312946D01*
X185544473Y-109602361D01*
X185470686Y-109528445D01*
X185108788Y-109378172D01*
X184716931Y-109377830D01*
X184354771Y-109527471D01*
X184077445Y-109804314D01*
X183927172Y-110166212D01*
X183926830Y-110558069D01*
X152073698Y-110558069D01*
X152345555Y-110286686D01*
X152495828Y-109924788D01*
X152496170Y-109532931D01*
X152346529Y-109170771D01*
X152069686Y-108893445D01*
X151707788Y-108743172D01*
X151315931Y-108742830D01*
X150953771Y-108892471D01*
X150676445Y-109169314D01*
X150526172Y-109531212D01*
X150525830Y-109923069D01*
X110771767Y-109923069D01*
X110861093Y-109474000D01*
X110748054Y-108905715D01*
X110494384Y-108526069D01*
X143286830Y-108526069D01*
X143436471Y-108888229D01*
X143713314Y-109165555D01*
X144075212Y-109315828D01*
X144467069Y-109316170D01*
X144829229Y-109166529D01*
X145106555Y-108889686D01*
X145256828Y-108527788D01*
X145257170Y-108135931D01*
X145107529Y-107773771D01*
X144830686Y-107496445D01*
X144468788Y-107346172D01*
X144076931Y-107345830D01*
X143714771Y-107495471D01*
X143437445Y-107772314D01*
X143287172Y-108134212D01*
X143286830Y-108526069D01*
X110494384Y-108526069D01*
X110426147Y-108423946D01*
X110096974Y-108204000D01*
X110426147Y-107984054D01*
X110748054Y-107502285D01*
X110861093Y-106934000D01*
X110748054Y-106365715D01*
X110426147Y-105883946D01*
X110388916Y-105859069D01*
X139730830Y-105859069D01*
X139880471Y-106221229D01*
X140157314Y-106498555D01*
X140519212Y-106648828D01*
X140911069Y-106649170D01*
X141273229Y-106499529D01*
X141550555Y-106222686D01*
X141700828Y-105860788D01*
X141701170Y-105468931D01*
X141551529Y-105106771D01*
X141274686Y-104829445D01*
X140912788Y-104679172D01*
X140520931Y-104678830D01*
X140158771Y-104828471D01*
X139881445Y-105105314D01*
X139731172Y-105467212D01*
X139730830Y-105859069D01*
X110388916Y-105859069D01*
X110096974Y-105664000D01*
X110426147Y-105444054D01*
X110748054Y-104962285D01*
X110822291Y-104589069D01*
X152176830Y-104589069D01*
X152326471Y-104951229D01*
X152603314Y-105228555D01*
X152965212Y-105378828D01*
X153357069Y-105379170D01*
X153719229Y-105229529D01*
X153996555Y-104952686D01*
X154146828Y-104590788D01*
X154147170Y-104198931D01*
X153997529Y-103836771D01*
X153720686Y-103559445D01*
X153358788Y-103409172D01*
X152966931Y-103408830D01*
X152604771Y-103558471D01*
X152327445Y-103835314D01*
X152177172Y-104197212D01*
X152176830Y-104589069D01*
X110822291Y-104589069D01*
X110861093Y-104394000D01*
X110748054Y-103825715D01*
X110426147Y-103343946D01*
X109944378Y-103022039D01*
X109376093Y-102909000D01*
X109317907Y-102909000D01*
X108749622Y-103022039D01*
X108267853Y-103343946D01*
X108078655Y-103627101D01*
X108078645Y-103627076D01*
X107688358Y-103198817D01*
X107163892Y-102952514D01*
X106934000Y-103073181D01*
X106934000Y-104267000D01*
X106954000Y-104267000D01*
X106954000Y-104521000D01*
X106934000Y-104521000D01*
X106934000Y-104541000D01*
X106680000Y-104541000D01*
X106680000Y-104521000D01*
X105486845Y-104521000D01*
X105365524Y-104750890D01*
X105535355Y-105160924D01*
X105925642Y-105589183D01*
X106068553Y-105656298D01*
X105727853Y-105883946D01*
X105405946Y-106365715D01*
X105292907Y-106934000D01*
X100710000Y-106934000D01*
X100710000Y-104037110D01*
X105365524Y-104037110D01*
X105486845Y-104267000D01*
X106680000Y-104267000D01*
X106680000Y-103073181D01*
X106450108Y-102952514D01*
X105925642Y-103198817D01*
X105535355Y-103627076D01*
X105365524Y-104037110D01*
X100710000Y-104037110D01*
X100710000Y-92980510D01*
X106049070Y-92980510D01*
X106049070Y-94979490D01*
X106093348Y-95214807D01*
X106232420Y-95430931D01*
X106398473Y-95544390D01*
X106185928Y-95862486D01*
X106061510Y-96487978D01*
X106061510Y-96552022D01*
X106185928Y-97177514D01*
X106540241Y-97707781D01*
X107070508Y-98062094D01*
X107696000Y-98186512D01*
X108321492Y-98062094D01*
X108851759Y-97707781D01*
X109206072Y-97177514D01*
X109330490Y-96552022D01*
X109330490Y-96487978D01*
X109299876Y-96334069D01*
X119283830Y-96334069D01*
X119433471Y-96696229D01*
X119710314Y-96973555D01*
X120072212Y-97123828D01*
X120464069Y-97124170D01*
X120826229Y-96974529D01*
X121103555Y-96697686D01*
X121253828Y-96335788D01*
X121254170Y-95943931D01*
X121104529Y-95581771D01*
X120827686Y-95304445D01*
X120465788Y-95154172D01*
X120073931Y-95153830D01*
X119711771Y-95303471D01*
X119434445Y-95580314D01*
X119284172Y-95942212D01*
X119283830Y-96334069D01*
X109299876Y-96334069D01*
X109206072Y-95862486D01*
X108992547Y-95542923D01*
X109146931Y-95443580D01*
X109291921Y-95231380D01*
X109342930Y-94979490D01*
X109342930Y-94966775D01*
X116720803Y-94966775D01*
X116893233Y-95384086D01*
X117212235Y-95703645D01*
X117629244Y-95876803D01*
X118080775Y-95877197D01*
X118498086Y-95704767D01*
X118817645Y-95385765D01*
X118990803Y-94968756D01*
X118991197Y-94517225D01*
X118818767Y-94099914D01*
X118499765Y-93780355D01*
X118082756Y-93607197D01*
X117631225Y-93606803D01*
X117213914Y-93779233D01*
X116894355Y-94098235D01*
X116721197Y-94515244D01*
X116720803Y-94966775D01*
X109342930Y-94966775D01*
X109342930Y-92980510D01*
X109298652Y-92745193D01*
X109159580Y-92529069D01*
X108947380Y-92384079D01*
X108695490Y-92333070D01*
X106696510Y-92333070D01*
X106461193Y-92377348D01*
X106245069Y-92516420D01*
X106100079Y-92728620D01*
X106049070Y-92980510D01*
X100710000Y-92980510D01*
X100710000Y-89857069D01*
X122458830Y-89857069D01*
X122608471Y-90219229D01*
X122885314Y-90496555D01*
X123247212Y-90646828D01*
X123639069Y-90647170D01*
X124001229Y-90497529D01*
X124278555Y-90220686D01*
X124428828Y-89858788D01*
X124429170Y-89466931D01*
X124279529Y-89104771D01*
X124201894Y-89027000D01*
X128660907Y-89027000D01*
X128773946Y-89595285D01*
X129095853Y-90077054D01*
X129425026Y-90297000D01*
X129095853Y-90516946D01*
X128773946Y-90998715D01*
X128660907Y-91567000D01*
X128773946Y-92135285D01*
X129095853Y-92617054D01*
X129425026Y-92837000D01*
X129095853Y-93056946D01*
X128773946Y-93538715D01*
X128660907Y-94107000D01*
X128773946Y-94675285D01*
X129095853Y-95157054D01*
X129425026Y-95377000D01*
X129095853Y-95596946D01*
X128773946Y-96078715D01*
X128660907Y-96647000D01*
X128773946Y-97215285D01*
X129095853Y-97697054D01*
X129425026Y-97917000D01*
X129095853Y-98136946D01*
X128773946Y-98618715D01*
X128660907Y-99187000D01*
X128773946Y-99755285D01*
X129095853Y-100237054D01*
X129137452Y-100264850D01*
X129089683Y-100273838D01*
X128873559Y-100412910D01*
X128728569Y-100625110D01*
X128677560Y-100877000D01*
X128677560Y-102577000D01*
X128721838Y-102812317D01*
X128860910Y-103028441D01*
X129073110Y-103173431D01*
X129325000Y-103224440D01*
X131025000Y-103224440D01*
X131260317Y-103180162D01*
X131476441Y-103041090D01*
X131621431Y-102828890D01*
X131632841Y-102772546D01*
X131635853Y-102777054D01*
X132117622Y-103098961D01*
X132685907Y-103212000D01*
X132744093Y-103212000D01*
X133312378Y-103098961D01*
X133553170Y-102938069D01*
X169956830Y-102938069D01*
X170106471Y-103300229D01*
X170383314Y-103577555D01*
X170745212Y-103727828D01*
X171137069Y-103728170D01*
X171499229Y-103578529D01*
X171776555Y-103301686D01*
X171926828Y-102939788D01*
X171927170Y-102547931D01*
X171777529Y-102185771D01*
X171500686Y-101908445D01*
X171138788Y-101758172D01*
X170746931Y-101757830D01*
X170384771Y-101907471D01*
X170107445Y-102184314D01*
X169957172Y-102546212D01*
X169956830Y-102938069D01*
X133553170Y-102938069D01*
X133794147Y-102777054D01*
X134116054Y-102295285D01*
X134190291Y-101922069D01*
X139349830Y-101922069D01*
X139499471Y-102284229D01*
X139776314Y-102561555D01*
X140138212Y-102711828D01*
X140530069Y-102712170D01*
X140892229Y-102562529D01*
X141169555Y-102285686D01*
X141319828Y-101923788D01*
X141320051Y-101668069D01*
X145826830Y-101668069D01*
X145976471Y-102030229D01*
X146253314Y-102307555D01*
X146615212Y-102457828D01*
X147007069Y-102458170D01*
X147369229Y-102308529D01*
X147646555Y-102031686D01*
X147796828Y-101669788D01*
X147797170Y-101277931D01*
X147716420Y-101082500D01*
X147900555Y-100898686D01*
X148050828Y-100536788D01*
X148051170Y-100144931D01*
X147901529Y-99782771D01*
X147624686Y-99505445D01*
X147262788Y-99355172D01*
X146870931Y-99354830D01*
X146508771Y-99504471D01*
X146231445Y-99781314D01*
X146081172Y-100143212D01*
X146080830Y-100535069D01*
X146161580Y-100730500D01*
X145977445Y-100914314D01*
X145827172Y-101276212D01*
X145826830Y-101668069D01*
X141320051Y-101668069D01*
X141320170Y-101531931D01*
X141170529Y-101169771D01*
X140893686Y-100892445D01*
X140531788Y-100742172D01*
X140139931Y-100741830D01*
X139777771Y-100891471D01*
X139500445Y-101168314D01*
X139350172Y-101530212D01*
X139349830Y-101922069D01*
X134190291Y-101922069D01*
X134229093Y-101727000D01*
X134116054Y-101158715D01*
X133794147Y-100676946D01*
X133464974Y-100457000D01*
X133794147Y-100237054D01*
X134116054Y-99755285D01*
X134229093Y-99187000D01*
X134217371Y-99128069D01*
X170591830Y-99128069D01*
X170741471Y-99490229D01*
X170819000Y-99567893D01*
X170742445Y-99644314D01*
X170592172Y-100006212D01*
X170591830Y-100398069D01*
X170741471Y-100760229D01*
X171018314Y-101037555D01*
X171380212Y-101187828D01*
X171772069Y-101188170D01*
X172134229Y-101038529D01*
X172411555Y-100761686D01*
X172561828Y-100399788D01*
X172562170Y-100007931D01*
X172412529Y-99645771D01*
X172335000Y-99568107D01*
X172411555Y-99491686D01*
X172561828Y-99129788D01*
X172562170Y-98737931D01*
X172412529Y-98375771D01*
X172135686Y-98098445D01*
X171773788Y-97948172D01*
X171381931Y-97947830D01*
X171019771Y-98097471D01*
X170742445Y-98374314D01*
X170592172Y-98736212D01*
X170591830Y-99128069D01*
X134217371Y-99128069D01*
X134116054Y-98618715D01*
X133794147Y-98136946D01*
X133464974Y-97917000D01*
X133794147Y-97697054D01*
X134110852Y-97223069D01*
X165511830Y-97223069D01*
X165661471Y-97585229D01*
X165938314Y-97862555D01*
X166300212Y-98012828D01*
X166692069Y-98013170D01*
X167054229Y-97863529D01*
X167322725Y-97595501D01*
X167589314Y-97862555D01*
X167951212Y-98012828D01*
X168343069Y-98013170D01*
X168705229Y-97863529D01*
X168982555Y-97586686D01*
X169132828Y-97224788D01*
X169132829Y-97223069D01*
X169321830Y-97223069D01*
X169471471Y-97585229D01*
X169748314Y-97862555D01*
X170110212Y-98012828D01*
X170502069Y-98013170D01*
X170864229Y-97863529D01*
X171141555Y-97586686D01*
X171291828Y-97224788D01*
X171291829Y-97223069D01*
X174401830Y-97223069D01*
X174551471Y-97585229D01*
X174828314Y-97862555D01*
X175190212Y-98012828D01*
X175582069Y-98013170D01*
X175944229Y-97863529D01*
X176221555Y-97586686D01*
X176371828Y-97224788D01*
X176372170Y-96832931D01*
X176222529Y-96470771D01*
X175945686Y-96193445D01*
X175583788Y-96043172D01*
X175191931Y-96042830D01*
X174829771Y-96192471D01*
X174552445Y-96469314D01*
X174402172Y-96831212D01*
X174401830Y-97223069D01*
X171291829Y-97223069D01*
X171292170Y-96832931D01*
X171142529Y-96470771D01*
X170865686Y-96193445D01*
X170503788Y-96043172D01*
X170111931Y-96042830D01*
X169749771Y-96192471D01*
X169472445Y-96469314D01*
X169322172Y-96831212D01*
X169321830Y-97223069D01*
X169132829Y-97223069D01*
X169133170Y-96832931D01*
X168983529Y-96470771D01*
X168706686Y-96193445D01*
X168344788Y-96043172D01*
X168080224Y-96042941D01*
X168116828Y-95954788D01*
X168117170Y-95562931D01*
X167967529Y-95200771D01*
X167690686Y-94923445D01*
X167328788Y-94773172D01*
X166936931Y-94772830D01*
X166574771Y-94922471D01*
X166297445Y-95199314D01*
X166147172Y-95561212D01*
X166146830Y-95953069D01*
X166201128Y-96084481D01*
X165939771Y-96192471D01*
X165662445Y-96469314D01*
X165512172Y-96831212D01*
X165511830Y-97223069D01*
X134110852Y-97223069D01*
X134116054Y-97215285D01*
X134229093Y-96647000D01*
X134116054Y-96078715D01*
X133794147Y-95596946D01*
X133464974Y-95377000D01*
X133794147Y-95157054D01*
X133941135Y-94937069D01*
X145699830Y-94937069D01*
X145849471Y-95299229D01*
X146126314Y-95576555D01*
X146488212Y-95726828D01*
X146880069Y-95727170D01*
X147242229Y-95577529D01*
X147519555Y-95300686D01*
X147669828Y-94938788D01*
X147670051Y-94683069D01*
X158526830Y-94683069D01*
X158676471Y-95045229D01*
X158953314Y-95322555D01*
X159315212Y-95472828D01*
X159707069Y-95473170D01*
X160069229Y-95323529D01*
X160074698Y-95318069D01*
X164241830Y-95318069D01*
X164391471Y-95680229D01*
X164668314Y-95957555D01*
X165030212Y-96107828D01*
X165422069Y-96108170D01*
X165784229Y-95958529D01*
X166061555Y-95681686D01*
X166211828Y-95319788D01*
X166212170Y-94927931D01*
X166157872Y-94796519D01*
X166419229Y-94688529D01*
X166696555Y-94411686D01*
X166846828Y-94049788D01*
X166847170Y-93657931D01*
X166697529Y-93295771D01*
X166420686Y-93018445D01*
X166058788Y-92868172D01*
X165666931Y-92867830D01*
X165304771Y-93017471D01*
X165027445Y-93294314D01*
X164877172Y-93656212D01*
X164876830Y-94048069D01*
X164931128Y-94179481D01*
X164669771Y-94287471D01*
X164392445Y-94564314D01*
X164242172Y-94926212D01*
X164241830Y-95318069D01*
X160074698Y-95318069D01*
X160346555Y-95046686D01*
X160496828Y-94684788D01*
X160497170Y-94292931D01*
X160347529Y-93930771D01*
X160070686Y-93653445D01*
X159708788Y-93503172D01*
X159316931Y-93502830D01*
X158954771Y-93652471D01*
X158677445Y-93929314D01*
X158527172Y-94291212D01*
X158526830Y-94683069D01*
X147670051Y-94683069D01*
X147670170Y-94546931D01*
X147520529Y-94184771D01*
X147328618Y-93992525D01*
X147524135Y-94073711D01*
X147915992Y-94074053D01*
X148278152Y-93924412D01*
X148555478Y-93647569D01*
X148705585Y-93286069D01*
X160939830Y-93286069D01*
X161089471Y-93648229D01*
X161366314Y-93925555D01*
X161728212Y-94075828D01*
X162120069Y-94076170D01*
X162482229Y-93926529D01*
X162759555Y-93649686D01*
X162909828Y-93287788D01*
X162910170Y-92895931D01*
X162760529Y-92533771D01*
X162483686Y-92256445D01*
X162210646Y-92143069D01*
X167543830Y-92143069D01*
X167673264Y-92456324D01*
X167544172Y-92767212D01*
X167543830Y-93159069D01*
X167692204Y-93518162D01*
X167565370Y-93823612D01*
X167565028Y-94215469D01*
X167714669Y-94577629D01*
X167991512Y-94854955D01*
X168353410Y-95005228D01*
X168745267Y-95005570D01*
X169107427Y-94855929D01*
X169384753Y-94579086D01*
X169535026Y-94217188D01*
X169535368Y-93825331D01*
X169534670Y-93823641D01*
X185318400Y-93823641D01*
X185318400Y-93882359D01*
X185432474Y-94455848D01*
X185757330Y-94942029D01*
X186028172Y-95123000D01*
X185757330Y-95303971D01*
X185432474Y-95790152D01*
X185318400Y-96363641D01*
X185318400Y-96422359D01*
X185432474Y-96995848D01*
X185757330Y-97482029D01*
X186243511Y-97806885D01*
X186817000Y-97920959D01*
X187390489Y-97806885D01*
X187876670Y-97482029D01*
X187885805Y-97468358D01*
X187890238Y-97491917D01*
X188029310Y-97708041D01*
X188241510Y-97853031D01*
X188493400Y-97904040D01*
X190220600Y-97904040D01*
X190455917Y-97859762D01*
X190672041Y-97720690D01*
X190817031Y-97508490D01*
X190868040Y-97256600D01*
X190868040Y-95529400D01*
X190823762Y-95294083D01*
X190684690Y-95077959D01*
X190472490Y-94932969D01*
X190428655Y-94924092D01*
X190741526Y-94455848D01*
X190855600Y-93882359D01*
X190855600Y-93823641D01*
X190741526Y-93250152D01*
X190416670Y-92763971D01*
X190145828Y-92583000D01*
X190416670Y-92402029D01*
X190741526Y-91915848D01*
X190855600Y-91342359D01*
X190855600Y-91283641D01*
X190741526Y-90710152D01*
X190416670Y-90223971D01*
X189930489Y-89899115D01*
X189357000Y-89785041D01*
X188783511Y-89899115D01*
X188297330Y-90223971D01*
X188081336Y-90547228D01*
X188023821Y-90424510D01*
X187591947Y-90030312D01*
X187176026Y-89858042D01*
X186944000Y-89979183D01*
X186944000Y-91186000D01*
X186964000Y-91186000D01*
X186964000Y-91440000D01*
X186944000Y-91440000D01*
X186944000Y-91460000D01*
X186690000Y-91460000D01*
X186690000Y-91440000D01*
X185482531Y-91440000D01*
X185362032Y-91672027D01*
X185610179Y-92201490D01*
X186028161Y-92583008D01*
X185757330Y-92763971D01*
X185432474Y-93250152D01*
X185318400Y-93823641D01*
X169534670Y-93823641D01*
X169386994Y-93466238D01*
X169513828Y-93160788D01*
X169514162Y-92778069D01*
X173131830Y-92778069D01*
X173281471Y-93140229D01*
X173558314Y-93417555D01*
X173920212Y-93567828D01*
X174312069Y-93568170D01*
X174674229Y-93418529D01*
X174751893Y-93341000D01*
X174828314Y-93417555D01*
X175190212Y-93567828D01*
X175582069Y-93568170D01*
X175944229Y-93418529D01*
X176221555Y-93141686D01*
X176371828Y-92779788D01*
X176372170Y-92387931D01*
X176222529Y-92025771D01*
X175945686Y-91748445D01*
X175583788Y-91598172D01*
X175191931Y-91597830D01*
X174829771Y-91747471D01*
X174752107Y-91825000D01*
X174675686Y-91748445D01*
X174313788Y-91598172D01*
X173921931Y-91597830D01*
X173559771Y-91747471D01*
X173282445Y-92024314D01*
X173132172Y-92386212D01*
X173131830Y-92778069D01*
X169514162Y-92778069D01*
X169514170Y-92768931D01*
X169384736Y-92455676D01*
X169513828Y-92144788D01*
X169514170Y-91752931D01*
X169364529Y-91390771D01*
X169087686Y-91113445D01*
X168725788Y-90963172D01*
X168333931Y-90962830D01*
X167971771Y-91112471D01*
X167694445Y-91389314D01*
X167544172Y-91751212D01*
X167543830Y-92143069D01*
X162210646Y-92143069D01*
X162121788Y-92106172D01*
X161729931Y-92105830D01*
X161367771Y-92255471D01*
X161090445Y-92532314D01*
X160940172Y-92894212D01*
X160939830Y-93286069D01*
X148705585Y-93286069D01*
X148705751Y-93285671D01*
X148706093Y-92893814D01*
X148556452Y-92531654D01*
X148279609Y-92254328D01*
X147917711Y-92104055D01*
X147525854Y-92103713D01*
X147163694Y-92253354D01*
X146886368Y-92530197D01*
X146736095Y-92892095D01*
X146735753Y-93283952D01*
X146885394Y-93646112D01*
X147077305Y-93838358D01*
X146881788Y-93757172D01*
X146489931Y-93756830D01*
X146127771Y-93906471D01*
X145850445Y-94183314D01*
X145700172Y-94545212D01*
X145699830Y-94937069D01*
X133941135Y-94937069D01*
X134116054Y-94675285D01*
X134229093Y-94107000D01*
X134116054Y-93538715D01*
X134032101Y-93413069D01*
X140492830Y-93413069D01*
X140642471Y-93775229D01*
X140919314Y-94052555D01*
X141281212Y-94202828D01*
X141673069Y-94203170D01*
X142035229Y-94053529D01*
X142312555Y-93776686D01*
X142462828Y-93414788D01*
X142463170Y-93022931D01*
X142313529Y-92660771D01*
X142177066Y-92524069D01*
X142778830Y-92524069D01*
X142928471Y-92886229D01*
X143205314Y-93163555D01*
X143567212Y-93313828D01*
X143959069Y-93314170D01*
X144321229Y-93164529D01*
X144598555Y-92887686D01*
X144748828Y-92525788D01*
X144749170Y-92133931D01*
X144599529Y-91771771D01*
X144322686Y-91494445D01*
X143960788Y-91344172D01*
X143568931Y-91343830D01*
X143206771Y-91493471D01*
X142929445Y-91770314D01*
X142779172Y-92132212D01*
X142778830Y-92524069D01*
X142177066Y-92524069D01*
X142036686Y-92383445D01*
X141674788Y-92233172D01*
X141282931Y-92232830D01*
X140920771Y-92382471D01*
X140643445Y-92659314D01*
X140493172Y-93021212D01*
X140492830Y-93413069D01*
X134032101Y-93413069D01*
X133794147Y-93056946D01*
X133464974Y-92837000D01*
X133794147Y-92617054D01*
X134116054Y-92135285D01*
X134229093Y-91567000D01*
X134116054Y-90998715D01*
X134086159Y-90953973D01*
X185362032Y-90953973D01*
X185482531Y-91186000D01*
X186690000Y-91186000D01*
X186690000Y-89979183D01*
X186457974Y-89858042D01*
X186042053Y-90030312D01*
X185610179Y-90424510D01*
X185362032Y-90953973D01*
X134086159Y-90953973D01*
X133794147Y-90516946D01*
X133464974Y-90297000D01*
X133794147Y-90077054D01*
X134116054Y-89595285D01*
X134229093Y-89027000D01*
X134116054Y-88458715D01*
X134032101Y-88333069D01*
X141762830Y-88333069D01*
X141912471Y-88695229D01*
X141990000Y-88772893D01*
X141913445Y-88849314D01*
X141763172Y-89211212D01*
X141762830Y-89603069D01*
X141912471Y-89965229D01*
X142189314Y-90242555D01*
X142551212Y-90392828D01*
X142943069Y-90393170D01*
X143305229Y-90243529D01*
X143437920Y-90111069D01*
X149890830Y-90111069D01*
X150040471Y-90473229D01*
X150317314Y-90750555D01*
X150679212Y-90900828D01*
X151071069Y-90901170D01*
X151433229Y-90751529D01*
X151710555Y-90474686D01*
X151860828Y-90112788D01*
X151861170Y-89720931D01*
X151711529Y-89358771D01*
X151701844Y-89349069D01*
X159288830Y-89349069D01*
X159438471Y-89711229D01*
X159715314Y-89988555D01*
X160077212Y-90138828D01*
X160469069Y-90139170D01*
X160831229Y-89989529D01*
X161108555Y-89712686D01*
X161154071Y-89603069D01*
X172496830Y-89603069D01*
X172646471Y-89965229D01*
X172923314Y-90242555D01*
X173285212Y-90392828D01*
X173677069Y-90393170D01*
X173932182Y-90287760D01*
X174185215Y-90392828D01*
X174577072Y-90393170D01*
X174939232Y-90243529D01*
X175216558Y-89966686D01*
X175366831Y-89604788D01*
X175367141Y-89249982D01*
X175582069Y-89250170D01*
X175944229Y-89100529D01*
X176221555Y-88823686D01*
X176371828Y-88461788D01*
X176372170Y-88069931D01*
X176222529Y-87707771D01*
X175945686Y-87430445D01*
X175583788Y-87280172D01*
X175191931Y-87279830D01*
X174829771Y-87429471D01*
X174552445Y-87706314D01*
X174402172Y-88068212D01*
X174401862Y-88423018D01*
X174186934Y-88422830D01*
X173931821Y-88528240D01*
X173678788Y-88423172D01*
X173286931Y-88422830D01*
X172924771Y-88572471D01*
X172647445Y-88849314D01*
X172497172Y-89211212D01*
X172496830Y-89603069D01*
X161154071Y-89603069D01*
X161258828Y-89350788D01*
X161259170Y-88958931D01*
X161109529Y-88596771D01*
X160832686Y-88319445D01*
X160470788Y-88169172D01*
X160078931Y-88168830D01*
X159716771Y-88318471D01*
X159439445Y-88595314D01*
X159289172Y-88957212D01*
X159288830Y-89349069D01*
X151701844Y-89349069D01*
X151434686Y-89081445D01*
X151072788Y-88931172D01*
X150680931Y-88930830D01*
X150318771Y-89080471D01*
X150041445Y-89357314D01*
X149891172Y-89719212D01*
X149890830Y-90111069D01*
X143437920Y-90111069D01*
X143582555Y-89966686D01*
X143732828Y-89604788D01*
X143733170Y-89212931D01*
X143583529Y-88850771D01*
X143506000Y-88773107D01*
X143582555Y-88696686D01*
X143732828Y-88334788D01*
X143733170Y-87942931D01*
X143684471Y-87825069D01*
X163225830Y-87825069D01*
X163375471Y-88187229D01*
X163652314Y-88464555D01*
X164014212Y-88614828D01*
X164406069Y-88615170D01*
X164768229Y-88465529D01*
X164773698Y-88460069D01*
X167924830Y-88460069D01*
X168074471Y-88822229D01*
X168351314Y-89099555D01*
X168713212Y-89249828D01*
X169105069Y-89250170D01*
X169467229Y-89100529D01*
X169744555Y-88823686D01*
X169894828Y-88461788D01*
X169895170Y-88069931D01*
X169745529Y-87707771D01*
X169468686Y-87430445D01*
X169106788Y-87280172D01*
X168714931Y-87279830D01*
X168352771Y-87429471D01*
X168075445Y-87706314D01*
X167925172Y-88068212D01*
X167924830Y-88460069D01*
X164773698Y-88460069D01*
X165045555Y-88188686D01*
X165195828Y-87826788D01*
X165196170Y-87434931D01*
X165046529Y-87072771D01*
X164769686Y-86795445D01*
X164407788Y-86645172D01*
X164015931Y-86644830D01*
X163653771Y-86794471D01*
X163376445Y-87071314D01*
X163226172Y-87433212D01*
X163225830Y-87825069D01*
X143684471Y-87825069D01*
X143583529Y-87580771D01*
X143306686Y-87303445D01*
X142944788Y-87153172D01*
X142552931Y-87152830D01*
X142190771Y-87302471D01*
X141913445Y-87579314D01*
X141763172Y-87941212D01*
X141762830Y-88333069D01*
X134032101Y-88333069D01*
X133794147Y-87976946D01*
X133312378Y-87655039D01*
X132744093Y-87542000D01*
X132685907Y-87542000D01*
X132117622Y-87655039D01*
X131635853Y-87976946D01*
X131445000Y-88262578D01*
X131254147Y-87976946D01*
X130772378Y-87655039D01*
X130204093Y-87542000D01*
X130145907Y-87542000D01*
X129577622Y-87655039D01*
X129095853Y-87976946D01*
X128773946Y-88458715D01*
X128660907Y-89027000D01*
X124201894Y-89027000D01*
X124002686Y-88827445D01*
X123640788Y-88677172D01*
X123248931Y-88676830D01*
X122886771Y-88826471D01*
X122609445Y-89103314D01*
X122459172Y-89465212D01*
X122458830Y-89857069D01*
X100710000Y-89857069D01*
X100710000Y-83836510D01*
X106049070Y-83836510D01*
X106049070Y-85835490D01*
X106093348Y-86070807D01*
X106232420Y-86286931D01*
X106398473Y-86400390D01*
X106185928Y-86718486D01*
X106061510Y-87343978D01*
X106061510Y-87408022D01*
X106185928Y-88033514D01*
X106540241Y-88563781D01*
X107070508Y-88918094D01*
X107696000Y-89042512D01*
X108321492Y-88918094D01*
X108816906Y-88587069D01*
X119537830Y-88587069D01*
X119687471Y-88949229D01*
X119964314Y-89226555D01*
X120326212Y-89376828D01*
X120718069Y-89377170D01*
X121080229Y-89227529D01*
X121357555Y-88950686D01*
X121507828Y-88588788D01*
X121508170Y-88196931D01*
X121459471Y-88079069D01*
X124236830Y-88079069D01*
X124386471Y-88441229D01*
X124663314Y-88718555D01*
X125025212Y-88868828D01*
X125417069Y-88869170D01*
X125779229Y-88719529D01*
X126056555Y-88442686D01*
X126206828Y-88080788D01*
X126207170Y-87688931D01*
X126057529Y-87326771D01*
X125780686Y-87049445D01*
X125418788Y-86899172D01*
X125026931Y-86898830D01*
X124664771Y-87048471D01*
X124387445Y-87325314D01*
X124237172Y-87687212D01*
X124236830Y-88079069D01*
X121459471Y-88079069D01*
X121358529Y-87834771D01*
X121081686Y-87557445D01*
X120719788Y-87407172D01*
X120327931Y-87406830D01*
X119965771Y-87556471D01*
X119688445Y-87833314D01*
X119538172Y-88195212D01*
X119537830Y-88587069D01*
X108816906Y-88587069D01*
X108851759Y-88563781D01*
X109206072Y-88033514D01*
X109330490Y-87408022D01*
X109330490Y-87343978D01*
X109206072Y-86718486D01*
X109201588Y-86711775D01*
X116720803Y-86711775D01*
X116893233Y-87129086D01*
X117212235Y-87448645D01*
X117629244Y-87621803D01*
X118080775Y-87622197D01*
X118498086Y-87449767D01*
X118817645Y-87130765D01*
X118990803Y-86713756D01*
X118991197Y-86262225D01*
X118818767Y-85844914D01*
X118767013Y-85793069D01*
X147096830Y-85793069D01*
X147246471Y-86155229D01*
X147523314Y-86432555D01*
X147885212Y-86582828D01*
X148277069Y-86583170D01*
X148639229Y-86433529D01*
X148916555Y-86156686D01*
X149066828Y-85794788D01*
X149067170Y-85402931D01*
X148917529Y-85040771D01*
X148640686Y-84763445D01*
X148278788Y-84613172D01*
X147886931Y-84612830D01*
X147524771Y-84762471D01*
X147247445Y-85039314D01*
X147097172Y-85401212D01*
X147096830Y-85793069D01*
X118767013Y-85793069D01*
X118499765Y-85525355D01*
X118082756Y-85352197D01*
X117631225Y-85351803D01*
X117213914Y-85524233D01*
X116894355Y-85843235D01*
X116721197Y-86260244D01*
X116720803Y-86711775D01*
X109201588Y-86711775D01*
X108992547Y-86398923D01*
X109146931Y-86299580D01*
X109291921Y-86087380D01*
X109342930Y-85835490D01*
X109342930Y-83836510D01*
X109298652Y-83601193D01*
X109159580Y-83385069D01*
X108947380Y-83240079D01*
X108695490Y-83189070D01*
X106696510Y-83189070D01*
X106461193Y-83233348D01*
X106245069Y-83372420D01*
X106100079Y-83584620D01*
X106049070Y-83836510D01*
X100710000Y-83836510D01*
X100710000Y-82364069D01*
X120934830Y-82364069D01*
X121084471Y-82726229D01*
X121361314Y-83003555D01*
X121723212Y-83153828D01*
X121733868Y-83153837D01*
X121697172Y-83242212D01*
X121696830Y-83634069D01*
X121846471Y-83996229D01*
X122123314Y-84273555D01*
X122485212Y-84423828D01*
X122877069Y-84424170D01*
X123239229Y-84274529D01*
X123516555Y-83997686D01*
X123666828Y-83635788D01*
X123667170Y-83243931D01*
X123517529Y-82881771D01*
X123240686Y-82604445D01*
X122967646Y-82491069D01*
X136047830Y-82491069D01*
X136197471Y-82853229D01*
X136474314Y-83130555D01*
X136836212Y-83280828D01*
X137228069Y-83281170D01*
X137590229Y-83131529D01*
X137867555Y-82854686D01*
X138017828Y-82492788D01*
X138018170Y-82100931D01*
X137868529Y-81738771D01*
X137591686Y-81461445D01*
X137229788Y-81311172D01*
X136837931Y-81310830D01*
X136475771Y-81460471D01*
X136198445Y-81737314D01*
X136048172Y-82099212D01*
X136047830Y-82491069D01*
X122967646Y-82491069D01*
X122878788Y-82454172D01*
X122868132Y-82454163D01*
X122904828Y-82365788D01*
X122905170Y-81973931D01*
X122755529Y-81611771D01*
X122478686Y-81334445D01*
X122116788Y-81184172D01*
X121724931Y-81183830D01*
X121362771Y-81333471D01*
X121085445Y-81610314D01*
X120935172Y-81972212D01*
X120934830Y-82364069D01*
X100710000Y-82364069D01*
X100710000Y-80840069D01*
X145445830Y-80840069D01*
X145595471Y-81202229D01*
X145872314Y-81479555D01*
X146234212Y-81629828D01*
X146626069Y-81630170D01*
X146988229Y-81480529D01*
X147265555Y-81203686D01*
X147415828Y-80841788D01*
X147416170Y-80449931D01*
X147266529Y-80087771D01*
X146989686Y-79810445D01*
X146627788Y-79660172D01*
X146235931Y-79659830D01*
X145873771Y-79809471D01*
X145596445Y-80086314D01*
X145446172Y-80448212D01*
X145445830Y-80840069D01*
X100710000Y-80840069D01*
X100710000Y-79541390D01*
X105746524Y-79541390D01*
X105916355Y-79951424D01*
X106306642Y-80379683D01*
X106831108Y-80625986D01*
X107061000Y-80505319D01*
X107061000Y-79311500D01*
X107315000Y-79311500D01*
X107315000Y-80505319D01*
X107544892Y-80625986D01*
X108069358Y-80379683D01*
X108459645Y-79951424D01*
X108629476Y-79541390D01*
X108508155Y-79311500D01*
X107315000Y-79311500D01*
X107061000Y-79311500D01*
X105867845Y-79311500D01*
X105746524Y-79541390D01*
X100710000Y-79541390D01*
X100710000Y-75794500D01*
X105690560Y-75794500D01*
X105690560Y-77494500D01*
X105734838Y-77729817D01*
X105873910Y-77945941D01*
X106086110Y-78090931D01*
X106194107Y-78112801D01*
X105916355Y-78417576D01*
X105746524Y-78827610D01*
X105867845Y-79057500D01*
X107061000Y-79057500D01*
X107061000Y-79037500D01*
X107315000Y-79037500D01*
X107315000Y-79057500D01*
X108508155Y-79057500D01*
X108629476Y-78827610D01*
X108516179Y-78554069D01*
X140619830Y-78554069D01*
X140769471Y-78916229D01*
X141007408Y-79154581D01*
X140904874Y-79401510D01*
X140904532Y-79793367D01*
X141054173Y-80155527D01*
X141331016Y-80432853D01*
X141692914Y-80583126D01*
X142084771Y-80583468D01*
X142446931Y-80433827D01*
X142724257Y-80156984D01*
X142874530Y-79795086D01*
X142874837Y-79443069D01*
X164201829Y-79443069D01*
X164351470Y-79805229D01*
X164628313Y-80082555D01*
X164990211Y-80232828D01*
X165382068Y-80233170D01*
X165744228Y-80083529D01*
X166021554Y-79806686D01*
X166171827Y-79444788D01*
X166172169Y-79052931D01*
X166022528Y-78690771D01*
X165745685Y-78413445D01*
X165383787Y-78263172D01*
X164991930Y-78262830D01*
X164629770Y-78412471D01*
X164352444Y-78689314D01*
X164202171Y-79051212D01*
X164201829Y-79443069D01*
X142874837Y-79443069D01*
X142874872Y-79403229D01*
X142797988Y-79217154D01*
X142816069Y-79217170D01*
X143178229Y-79067529D01*
X143455555Y-78790686D01*
X143605828Y-78428788D01*
X143605861Y-78391212D01*
X143813229Y-78305529D01*
X144090555Y-78028686D01*
X144240828Y-77666788D01*
X144240829Y-77665069D01*
X151795830Y-77665069D01*
X151945471Y-78027229D01*
X152222314Y-78304555D01*
X152584212Y-78454828D01*
X152976069Y-78455170D01*
X153338229Y-78305529D01*
X153615555Y-78028686D01*
X153765828Y-77666788D01*
X153766170Y-77274931D01*
X153616529Y-76912771D01*
X153606844Y-76903069D01*
X161701830Y-76903069D01*
X161851471Y-77265229D01*
X162128314Y-77542555D01*
X162490212Y-77692828D01*
X162882069Y-77693170D01*
X163244229Y-77543529D01*
X163521555Y-77266686D01*
X163671828Y-76904788D01*
X163672170Y-76512931D01*
X163522529Y-76150771D01*
X163245686Y-75873445D01*
X162883788Y-75723172D01*
X162491931Y-75722830D01*
X162129771Y-75872471D01*
X161852445Y-76149314D01*
X161702172Y-76511212D01*
X161701830Y-76903069D01*
X153606844Y-76903069D01*
X153339686Y-76635445D01*
X152977788Y-76485172D01*
X152585931Y-76484830D01*
X152223771Y-76634471D01*
X151946445Y-76911314D01*
X151796172Y-77273212D01*
X151795830Y-77665069D01*
X144240829Y-77665069D01*
X144241170Y-77274931D01*
X144091529Y-76912771D01*
X143814686Y-76635445D01*
X143452788Y-76485172D01*
X143060931Y-76484830D01*
X142698771Y-76634471D01*
X142421445Y-76911314D01*
X142271172Y-77273212D01*
X142271139Y-77310788D01*
X142063771Y-77396471D01*
X142002585Y-77457550D01*
X141801788Y-77374172D01*
X141409931Y-77373830D01*
X141047771Y-77523471D01*
X140770445Y-77800314D01*
X140620172Y-78162212D01*
X140619830Y-78554069D01*
X108516179Y-78554069D01*
X108459645Y-78417576D01*
X108183499Y-78114563D01*
X108273317Y-78097662D01*
X108489441Y-77958590D01*
X108634431Y-77746390D01*
X108685440Y-77494500D01*
X108685440Y-76014069D01*
X144556830Y-76014069D01*
X144706471Y-76376229D01*
X144983314Y-76653555D01*
X145345212Y-76803828D01*
X145737069Y-76804170D01*
X146099229Y-76654529D01*
X146376555Y-76377686D01*
X146526828Y-76015788D01*
X146527170Y-75623931D01*
X146377529Y-75261771D01*
X146100686Y-74984445D01*
X145738788Y-74834172D01*
X145346931Y-74833830D01*
X144984771Y-74983471D01*
X144707445Y-75260314D01*
X144557172Y-75622212D01*
X144556830Y-76014069D01*
X108685440Y-76014069D01*
X108685440Y-75794500D01*
X108641162Y-75559183D01*
X108502090Y-75343059D01*
X108289890Y-75198069D01*
X108038000Y-75147060D01*
X106338000Y-75147060D01*
X106102683Y-75191338D01*
X105886559Y-75330410D01*
X105741569Y-75542610D01*
X105690560Y-75794500D01*
X100710000Y-75794500D01*
X100710000Y-74617069D01*
X127030830Y-74617069D01*
X127180471Y-74979229D01*
X127457314Y-75256555D01*
X127819212Y-75406828D01*
X128211069Y-75407170D01*
X128573229Y-75257529D01*
X128705920Y-75125069D01*
X135793830Y-75125069D01*
X135943471Y-75487229D01*
X136220314Y-75764555D01*
X136582212Y-75914828D01*
X136974069Y-75915170D01*
X137336229Y-75765529D01*
X137613555Y-75488686D01*
X137763828Y-75126788D01*
X137764170Y-74734931D01*
X137614529Y-74372771D01*
X137337686Y-74095445D01*
X136975788Y-73945172D01*
X136583931Y-73944830D01*
X136221771Y-74094471D01*
X135944445Y-74371314D01*
X135794172Y-74733212D01*
X135793830Y-75125069D01*
X128705920Y-75125069D01*
X128850555Y-74980686D01*
X129000828Y-74618788D01*
X129001170Y-74226931D01*
X128851529Y-73864771D01*
X128574686Y-73587445D01*
X128212788Y-73437172D01*
X127820931Y-73436830D01*
X127458771Y-73586471D01*
X127181445Y-73863314D01*
X127031172Y-74225212D01*
X127030830Y-74617069D01*
X100710000Y-74617069D01*
X100710000Y-72839069D01*
X118775830Y-72839069D01*
X118925471Y-73201229D01*
X119202314Y-73478555D01*
X119564212Y-73628828D01*
X119956069Y-73629170D01*
X120318229Y-73479529D01*
X120578141Y-73220069D01*
X140619830Y-73220069D01*
X140769471Y-73582229D01*
X141046314Y-73859555D01*
X141408212Y-74009828D01*
X141800069Y-74010170D01*
X142162229Y-73860529D01*
X142439555Y-73583686D01*
X142589828Y-73221788D01*
X142589940Y-73093069D01*
X164876830Y-73093069D01*
X165026471Y-73455229D01*
X165303314Y-73732555D01*
X165665212Y-73882828D01*
X166057069Y-73883170D01*
X166419229Y-73733529D01*
X166696555Y-73456686D01*
X166846828Y-73094788D01*
X166846829Y-73093069D01*
X172496830Y-73093069D01*
X172646471Y-73455229D01*
X172923314Y-73732555D01*
X173285212Y-73882828D01*
X173677069Y-73883170D01*
X174039229Y-73733529D01*
X174316555Y-73456686D01*
X174434605Y-73172390D01*
X174551471Y-73455229D01*
X174828314Y-73732555D01*
X175083242Y-73838410D01*
X175187868Y-74091626D01*
X175464711Y-74368952D01*
X175826609Y-74519225D01*
X176218466Y-74519567D01*
X176580626Y-74369926D01*
X176857952Y-74093083D01*
X177008225Y-73731185D01*
X177008567Y-73339328D01*
X176858926Y-72977168D01*
X176582083Y-72699842D01*
X176327155Y-72593987D01*
X176222529Y-72340771D01*
X175945686Y-72063445D01*
X175583788Y-71913172D01*
X175191931Y-71912830D01*
X174829771Y-72062471D01*
X174552445Y-72339314D01*
X174434395Y-72623610D01*
X174317529Y-72340771D01*
X174040686Y-72063445D01*
X173678788Y-71913172D01*
X173286931Y-71912830D01*
X172924771Y-72062471D01*
X172647445Y-72339314D01*
X172497172Y-72701212D01*
X172496830Y-73093069D01*
X166846829Y-73093069D01*
X166847170Y-72702931D01*
X166697529Y-72340771D01*
X166420686Y-72063445D01*
X166058788Y-71913172D01*
X165666931Y-71912830D01*
X165304771Y-72062471D01*
X165027445Y-72339314D01*
X164877172Y-72701212D01*
X164876830Y-73093069D01*
X142589940Y-73093069D01*
X142590170Y-72829931D01*
X142440529Y-72467771D01*
X142163686Y-72190445D01*
X141801788Y-72040172D01*
X141409931Y-72039830D01*
X141047771Y-72189471D01*
X140770445Y-72466314D01*
X140620172Y-72828212D01*
X140619830Y-73220069D01*
X120578141Y-73220069D01*
X120595555Y-73202686D01*
X120745828Y-72840788D01*
X120746170Y-72448931D01*
X120596529Y-72086771D01*
X120319686Y-71809445D01*
X119957788Y-71659172D01*
X119565931Y-71658830D01*
X119203771Y-71808471D01*
X118926445Y-72085314D01*
X118776172Y-72447212D01*
X118775830Y-72839069D01*
X100710000Y-72839069D01*
X100710000Y-67199510D01*
X105414070Y-67199510D01*
X105414070Y-69198490D01*
X105458348Y-69433807D01*
X105597420Y-69649931D01*
X105763473Y-69763390D01*
X105550928Y-70081486D01*
X105426510Y-70706978D01*
X105426510Y-70771022D01*
X105550928Y-71396514D01*
X105905241Y-71926781D01*
X106435508Y-72281094D01*
X107061000Y-72405512D01*
X107686492Y-72281094D01*
X108216759Y-71926781D01*
X108455774Y-71569069D01*
X128935830Y-71569069D01*
X129085471Y-71931229D01*
X129362314Y-72208555D01*
X129724212Y-72358828D01*
X130116069Y-72359170D01*
X130478229Y-72209529D01*
X130755555Y-71932686D01*
X130905828Y-71570788D01*
X130906170Y-71178931D01*
X130804996Y-70934069D01*
X136047830Y-70934069D01*
X136197471Y-71296229D01*
X136474314Y-71573555D01*
X136836212Y-71723828D01*
X137228069Y-71724170D01*
X137359481Y-71669872D01*
X137467471Y-71931229D01*
X137744314Y-72208555D01*
X138106212Y-72358828D01*
X138498069Y-72359170D01*
X138860229Y-72209529D01*
X139137555Y-71932686D01*
X139287828Y-71570788D01*
X139288170Y-71178931D01*
X139138529Y-70816771D01*
X138861686Y-70539445D01*
X138499788Y-70389172D01*
X138107931Y-70388830D01*
X137976519Y-70443128D01*
X137868529Y-70181771D01*
X137591686Y-69904445D01*
X137229788Y-69754172D01*
X136837931Y-69753830D01*
X136475771Y-69903471D01*
X136198445Y-70180314D01*
X136048172Y-70542212D01*
X136047830Y-70934069D01*
X130804996Y-70934069D01*
X130756529Y-70816771D01*
X130479686Y-70539445D01*
X130117788Y-70389172D01*
X129725931Y-70388830D01*
X129363771Y-70538471D01*
X129086445Y-70815314D01*
X128936172Y-71177212D01*
X128935830Y-71569069D01*
X108455774Y-71569069D01*
X108571072Y-71396514D01*
X108695490Y-70771022D01*
X108695490Y-70706978D01*
X108571072Y-70081486D01*
X108357547Y-69761923D01*
X108511931Y-69662580D01*
X108656921Y-69450380D01*
X108707930Y-69198490D01*
X108707930Y-68267069D01*
X120553830Y-68267069D01*
X120703471Y-68629229D01*
X120980314Y-68906555D01*
X121342212Y-69056828D01*
X121734069Y-69057170D01*
X122096229Y-68907529D01*
X122373555Y-68630686D01*
X122523828Y-68268788D01*
X122524051Y-68013069D01*
X182656830Y-68013069D01*
X182806471Y-68375229D01*
X183083314Y-68652555D01*
X183445212Y-68802828D01*
X183837069Y-68803170D01*
X184199229Y-68653529D01*
X184476555Y-68376686D01*
X184626828Y-68014788D01*
X184627170Y-67622931D01*
X184477529Y-67260771D01*
X184200686Y-66983445D01*
X183838788Y-66833172D01*
X183446931Y-66832830D01*
X183084771Y-66982471D01*
X182807445Y-67259314D01*
X182657172Y-67621212D01*
X182656830Y-68013069D01*
X122524051Y-68013069D01*
X122524170Y-67876931D01*
X122374529Y-67514771D01*
X122097686Y-67237445D01*
X121735788Y-67087172D01*
X121343931Y-67086830D01*
X120981771Y-67236471D01*
X120704445Y-67513314D01*
X120554172Y-67875212D01*
X120553830Y-68267069D01*
X108707930Y-68267069D01*
X108707930Y-67199510D01*
X108663652Y-66964193D01*
X108524580Y-66748069D01*
X108312380Y-66603079D01*
X108060490Y-66552070D01*
X106061510Y-66552070D01*
X105826193Y-66596348D01*
X105610069Y-66735420D01*
X105465079Y-66947620D01*
X105414070Y-67199510D01*
X100710000Y-67199510D01*
X100710000Y-66362069D01*
X131856830Y-66362069D01*
X132006471Y-66724229D01*
X132283314Y-67001555D01*
X132645212Y-67151828D01*
X133037069Y-67152170D01*
X133399229Y-67002529D01*
X133540393Y-66861611D01*
X133553314Y-66874555D01*
X133915212Y-67024828D01*
X134307069Y-67025170D01*
X134669229Y-66875529D01*
X134946555Y-66598686D01*
X135096828Y-66236788D01*
X135096835Y-66228099D01*
X135793830Y-66228099D01*
X135943471Y-66590259D01*
X136220314Y-66867585D01*
X136582212Y-67017858D01*
X136974069Y-67018200D01*
X137063844Y-66981106D01*
X137063830Y-66997069D01*
X137213471Y-67359229D01*
X137490314Y-67636555D01*
X137852212Y-67786828D01*
X138244069Y-67787170D01*
X138606229Y-67637529D01*
X138883555Y-67360686D01*
X139033828Y-66998788D01*
X139034170Y-66606931D01*
X138884529Y-66244771D01*
X138607686Y-65967445D01*
X138245788Y-65817172D01*
X137853931Y-65816830D01*
X137764156Y-65853924D01*
X137764170Y-65837961D01*
X137614529Y-65475801D01*
X137337686Y-65198475D01*
X136975788Y-65048202D01*
X136583931Y-65047860D01*
X136221771Y-65197501D01*
X135944445Y-65474344D01*
X135794172Y-65836242D01*
X135793830Y-66228099D01*
X135096835Y-66228099D01*
X135097170Y-65844931D01*
X134947529Y-65482771D01*
X134670686Y-65205445D01*
X134308788Y-65055172D01*
X133916931Y-65054830D01*
X133554771Y-65204471D01*
X133413607Y-65345389D01*
X133400686Y-65332445D01*
X133038788Y-65182172D01*
X132646931Y-65181830D01*
X132284771Y-65331471D01*
X132007445Y-65608314D01*
X131857172Y-65970212D01*
X131856830Y-66362069D01*
X100710000Y-66362069D01*
X100710000Y-60468510D01*
X105414070Y-60468510D01*
X105414070Y-62467490D01*
X105458348Y-62702807D01*
X105597420Y-62918931D01*
X105763473Y-63032390D01*
X105550928Y-63350486D01*
X105426510Y-63975978D01*
X105426510Y-64040022D01*
X105550928Y-64665514D01*
X105905241Y-65195781D01*
X106435508Y-65550094D01*
X107061000Y-65674512D01*
X107686492Y-65550094D01*
X108216759Y-65195781D01*
X108455774Y-64838069D01*
X183418830Y-64838069D01*
X183568471Y-65200229D01*
X183845314Y-65477555D01*
X184207212Y-65627828D01*
X184599069Y-65628170D01*
X184961229Y-65478529D01*
X185238555Y-65201686D01*
X185388828Y-64839788D01*
X185389170Y-64447931D01*
X185239529Y-64085771D01*
X184962686Y-63808445D01*
X184600788Y-63658172D01*
X184208931Y-63657830D01*
X183846771Y-63807471D01*
X183569445Y-64084314D01*
X183419172Y-64446212D01*
X183418830Y-64838069D01*
X108455774Y-64838069D01*
X108571072Y-64665514D01*
X108695490Y-64040022D01*
X108695490Y-63975978D01*
X108571072Y-63350486D01*
X108357547Y-63030923D01*
X108511931Y-62931580D01*
X108656921Y-62719380D01*
X108707930Y-62467490D01*
X108707930Y-60468510D01*
X108663652Y-60233193D01*
X108524580Y-60017069D01*
X108312380Y-59872079D01*
X108060490Y-59821070D01*
X106061510Y-59821070D01*
X105826193Y-59865348D01*
X105610069Y-60004420D01*
X105465079Y-60216620D01*
X105414070Y-60468510D01*
X100710000Y-60468510D01*
X100710000Y-57443000D01*
X117374560Y-57443000D01*
X117374560Y-59143000D01*
X117418838Y-59378317D01*
X117557910Y-59594441D01*
X117770110Y-59739431D01*
X117826454Y-59750841D01*
X117821946Y-59753853D01*
X117500039Y-60235622D01*
X117387000Y-60803907D01*
X117387000Y-60862093D01*
X117500039Y-61430378D01*
X117821946Y-61912147D01*
X118303715Y-62234054D01*
X118872000Y-62347093D01*
X119440285Y-62234054D01*
X119922054Y-61912147D01*
X120142000Y-61582974D01*
X120361946Y-61912147D01*
X120843715Y-62234054D01*
X121412000Y-62347093D01*
X121980285Y-62234054D01*
X122462054Y-61912147D01*
X122682000Y-61582974D01*
X122901946Y-61912147D01*
X123383715Y-62234054D01*
X123952000Y-62347093D01*
X124520285Y-62234054D01*
X125002054Y-61912147D01*
X125222000Y-61582974D01*
X125441946Y-61912147D01*
X125923715Y-62234054D01*
X126492000Y-62347093D01*
X127060285Y-62234054D01*
X127542054Y-61912147D01*
X127762000Y-61582974D01*
X127981946Y-61912147D01*
X128463715Y-62234054D01*
X129032000Y-62347093D01*
X129600285Y-62234054D01*
X130082054Y-61912147D01*
X130302000Y-61582974D01*
X130521946Y-61912147D01*
X131003715Y-62234054D01*
X131572000Y-62347093D01*
X132140285Y-62234054D01*
X132622054Y-61912147D01*
X132842000Y-61582974D01*
X133061946Y-61912147D01*
X133543715Y-62234054D01*
X134112000Y-62347093D01*
X134680285Y-62234054D01*
X135162054Y-61912147D01*
X135382000Y-61582974D01*
X135601946Y-61912147D01*
X136083715Y-62234054D01*
X136652000Y-62347093D01*
X137220285Y-62234054D01*
X137702054Y-61912147D01*
X138023961Y-61430378D01*
X138137000Y-60862093D01*
X138137000Y-60803907D01*
X138023961Y-60235622D01*
X137702054Y-59753853D01*
X137416422Y-59563000D01*
X137702054Y-59372147D01*
X138023961Y-58890378D01*
X138137000Y-58322093D01*
X138137000Y-58263907D01*
X138023961Y-57695622D01*
X137855165Y-57443000D01*
X154204560Y-57443000D01*
X154204560Y-59143000D01*
X154248838Y-59378317D01*
X154387910Y-59594441D01*
X154600110Y-59739431D01*
X154656454Y-59750841D01*
X154651946Y-59753853D01*
X154330039Y-60235622D01*
X154217000Y-60803907D01*
X154217000Y-60862093D01*
X154330039Y-61430378D01*
X154651946Y-61912147D01*
X155133715Y-62234054D01*
X155702000Y-62347093D01*
X156270285Y-62234054D01*
X156752054Y-61912147D01*
X156972000Y-61582974D01*
X157191946Y-61912147D01*
X157673715Y-62234054D01*
X158242000Y-62347093D01*
X158810285Y-62234054D01*
X159292054Y-61912147D01*
X159512000Y-61582974D01*
X159731946Y-61912147D01*
X160213715Y-62234054D01*
X160782000Y-62347093D01*
X161350285Y-62234054D01*
X161832054Y-61912147D01*
X162052000Y-61582974D01*
X162271946Y-61912147D01*
X162753715Y-62234054D01*
X163322000Y-62347093D01*
X163890285Y-62234054D01*
X164372054Y-61912147D01*
X164592000Y-61582974D01*
X164811946Y-61912147D01*
X165293715Y-62234054D01*
X165862000Y-62347093D01*
X166430285Y-62234054D01*
X166912054Y-61912147D01*
X167132000Y-61582974D01*
X167351946Y-61912147D01*
X167833715Y-62234054D01*
X168402000Y-62347093D01*
X168970285Y-62234054D01*
X169452054Y-61912147D01*
X169672000Y-61582974D01*
X169891946Y-61912147D01*
X170373715Y-62234054D01*
X170942000Y-62347093D01*
X171510285Y-62234054D01*
X171992054Y-61912147D01*
X172212000Y-61582974D01*
X172431946Y-61912147D01*
X172913715Y-62234054D01*
X173482000Y-62347093D01*
X174050285Y-62234054D01*
X174532054Y-61912147D01*
X174752000Y-61582974D01*
X174971946Y-61912147D01*
X175453715Y-62234054D01*
X176022000Y-62347093D01*
X176590285Y-62234054D01*
X177072054Y-61912147D01*
X177292000Y-61582974D01*
X177511946Y-61912147D01*
X177993715Y-62234054D01*
X178562000Y-62347093D01*
X179130285Y-62234054D01*
X179612054Y-61912147D01*
X179933961Y-61430378D01*
X180047000Y-60862093D01*
X180047000Y-60803907D01*
X179933961Y-60235622D01*
X179612054Y-59753853D01*
X179326422Y-59563000D01*
X179612054Y-59372147D01*
X179933961Y-58890378D01*
X180047000Y-58322093D01*
X180047000Y-58263907D01*
X179933961Y-57695622D01*
X179612054Y-57213853D01*
X179130285Y-56891946D01*
X178562000Y-56778907D01*
X177993715Y-56891946D01*
X177511946Y-57213853D01*
X177292000Y-57543026D01*
X177072054Y-57213853D01*
X176590285Y-56891946D01*
X176022000Y-56778907D01*
X175453715Y-56891946D01*
X174971946Y-57213853D01*
X174752000Y-57543026D01*
X174532054Y-57213853D01*
X174050285Y-56891946D01*
X173482000Y-56778907D01*
X172913715Y-56891946D01*
X172431946Y-57213853D01*
X172212000Y-57543026D01*
X171992054Y-57213853D01*
X171510285Y-56891946D01*
X170942000Y-56778907D01*
X170373715Y-56891946D01*
X169891946Y-57213853D01*
X169672000Y-57543026D01*
X169452054Y-57213853D01*
X168970285Y-56891946D01*
X168402000Y-56778907D01*
X167833715Y-56891946D01*
X167351946Y-57213853D01*
X167132000Y-57543026D01*
X166912054Y-57213853D01*
X166430285Y-56891946D01*
X165862000Y-56778907D01*
X165293715Y-56891946D01*
X164811946Y-57213853D01*
X164592000Y-57543026D01*
X164372054Y-57213853D01*
X163890285Y-56891946D01*
X163322000Y-56778907D01*
X162753715Y-56891946D01*
X162271946Y-57213853D01*
X162052000Y-57543026D01*
X161832054Y-57213853D01*
X161350285Y-56891946D01*
X160782000Y-56778907D01*
X160213715Y-56891946D01*
X159731946Y-57213853D01*
X159504298Y-57554553D01*
X159437183Y-57411642D01*
X159008924Y-57021355D01*
X158598890Y-56851524D01*
X158369000Y-56972845D01*
X158369000Y-58166000D01*
X158389000Y-58166000D01*
X158389000Y-58420000D01*
X158369000Y-58420000D01*
X158369000Y-58440000D01*
X158115000Y-58440000D01*
X158115000Y-58420000D01*
X158095000Y-58420000D01*
X158095000Y-58166000D01*
X158115000Y-58166000D01*
X158115000Y-56972845D01*
X157885110Y-56851524D01*
X157475076Y-57021355D01*
X157172063Y-57297501D01*
X157155162Y-57207683D01*
X157016090Y-56991559D01*
X156803890Y-56846569D01*
X156552000Y-56795560D01*
X154852000Y-56795560D01*
X154616683Y-56839838D01*
X154400559Y-56978910D01*
X154255569Y-57191110D01*
X154204560Y-57443000D01*
X137855165Y-57443000D01*
X137702054Y-57213853D01*
X137220285Y-56891946D01*
X136652000Y-56778907D01*
X136083715Y-56891946D01*
X135601946Y-57213853D01*
X135382000Y-57543026D01*
X135162054Y-57213853D01*
X134680285Y-56891946D01*
X134112000Y-56778907D01*
X133543715Y-56891946D01*
X133061946Y-57213853D01*
X132842000Y-57543026D01*
X132622054Y-57213853D01*
X132140285Y-56891946D01*
X131572000Y-56778907D01*
X131003715Y-56891946D01*
X130521946Y-57213853D01*
X130302000Y-57543026D01*
X130082054Y-57213853D01*
X129600285Y-56891946D01*
X129032000Y-56778907D01*
X128463715Y-56891946D01*
X127981946Y-57213853D01*
X127762000Y-57543026D01*
X127542054Y-57213853D01*
X127060285Y-56891946D01*
X126492000Y-56778907D01*
X125923715Y-56891946D01*
X125441946Y-57213853D01*
X125222000Y-57543026D01*
X125002054Y-57213853D01*
X124520285Y-56891946D01*
X123952000Y-56778907D01*
X123383715Y-56891946D01*
X122901946Y-57213853D01*
X122682000Y-57543026D01*
X122462054Y-57213853D01*
X121980285Y-56891946D01*
X121412000Y-56778907D01*
X120843715Y-56891946D01*
X120361946Y-57213853D01*
X120334150Y-57255452D01*
X120325162Y-57207683D01*
X120186090Y-56991559D01*
X119973890Y-56846569D01*
X119722000Y-56795560D01*
X118022000Y-56795560D01*
X117786683Y-56839838D01*
X117570559Y-56978910D01*
X117425569Y-57191110D01*
X117374560Y-57443000D01*
X100710000Y-57443000D01*
X100710000Y-54821834D01*
X103364543Y-54821834D01*
X103764853Y-55790658D01*
X104505443Y-56532542D01*
X105473567Y-56934542D01*
X106521834Y-56935457D01*
X107490658Y-56535147D01*
X108232542Y-55794557D01*
X108634542Y-54826433D01*
X108634546Y-54821834D01*
X189364543Y-54821834D01*
X189764853Y-55790658D01*
X190505443Y-56532542D01*
X191473567Y-56934542D01*
X192521834Y-56935457D01*
X193490658Y-56535147D01*
X194232542Y-55794557D01*
X194634542Y-54826433D01*
X194635457Y-53778166D01*
X194235147Y-52809342D01*
X193494557Y-52067458D01*
X192526433Y-51665458D01*
X191478166Y-51664543D01*
X190509342Y-52064853D01*
X189767458Y-52805443D01*
X189365458Y-53773567D01*
X189364543Y-54821834D01*
X108634546Y-54821834D01*
X108635457Y-53778166D01*
X108235147Y-52809342D01*
X107494557Y-52067458D01*
X106526433Y-51665458D01*
X105478166Y-51664543D01*
X104509342Y-52064853D01*
X103767458Y-52805443D01*
X103365458Y-53773567D01*
X103364543Y-54821834D01*
X100710000Y-54821834D01*
X100710000Y-50710000D01*
X197290000Y-50710000D01*
X197290000Y-133290000D01*
M02*
