G04 #@! TF.FileFunction,Paste,Top*
%FSLAX46Y46*%
G04 Gerber Fmt 4.6, Leading zero omitted, Abs format (unit mm)*
G04 Created by KiCad (PCBNEW 4.0.6) date Monday, August 21, 2017 'PMt' 07:07:08 PM*
%MOMM*%
%LPD*%
G01*
G04 APERTURE LIST*
%ADD10C,0.100000*%
%ADD11R,0.750000X0.800000*%
%ADD12R,0.797560X0.797560*%
%ADD13R,0.900000X0.500000*%
%ADD14R,0.500000X0.900000*%
%ADD15R,1.750000X0.450000*%
%ADD16R,2.000000X2.600000*%
%ADD17R,0.700000X1.800000*%
G04 APERTURE END LIST*
D10*
D11*
X126873000Y-60007500D03*
X126873000Y-58507500D03*
D12*
X114500000Y-58249300D03*
X114500000Y-56750700D03*
X154499000Y-58249300D03*
X154499000Y-56750700D03*
X141166000Y-59169300D03*
X141166000Y-57670700D03*
X128524000Y-59169300D03*
X128524000Y-57670700D03*
D13*
X114554000Y-61202000D03*
X114554000Y-59702000D03*
X154432000Y-61722000D03*
X154432000Y-60222000D03*
D14*
X139585000Y-60833000D03*
X141085000Y-60833000D03*
X131433000Y-60198000D03*
X129933000Y-60198000D03*
X121019000Y-51562000D03*
X119519000Y-51562000D03*
D13*
X136652000Y-60567000D03*
X136652000Y-59067000D03*
D14*
X114820000Y-51435000D03*
X116320000Y-51435000D03*
X113169000Y-54737000D03*
X114669000Y-54737000D03*
X113169000Y-53086000D03*
X114669000Y-53086000D03*
D15*
X124885000Y-62645000D03*
X124885000Y-61995000D03*
X124885000Y-61345000D03*
X124885000Y-60695000D03*
X124885000Y-60045000D03*
X124885000Y-59395000D03*
X124885000Y-58745000D03*
X124885000Y-58095000D03*
X124885000Y-57445000D03*
X124885000Y-56795000D03*
X124885000Y-56145000D03*
X124885000Y-55495000D03*
X124885000Y-54845000D03*
X124885000Y-54195000D03*
X117685000Y-54195000D03*
X117685000Y-54845000D03*
X117685000Y-55495000D03*
X117685000Y-56145000D03*
X117685000Y-56795000D03*
X117685000Y-57445000D03*
X117685000Y-58095000D03*
X117685000Y-58745000D03*
X117685000Y-59395000D03*
X117685000Y-60045000D03*
X117685000Y-60695000D03*
X117685000Y-61345000D03*
X117685000Y-61995000D03*
X117685000Y-62645000D03*
D16*
X127855000Y-51499000D03*
X141405000Y-51499000D03*
D17*
X130255000Y-56599000D03*
X131505000Y-56599000D03*
X132755000Y-56599000D03*
X134005000Y-56599000D03*
X135255000Y-56599000D03*
X136505000Y-56599000D03*
X137755000Y-56599000D03*
X139005000Y-56599000D03*
M02*
