G04 #@! TF.FileFunction,Copper,L3,Inr,Plane*
%FSLAX46Y46*%
G04 Gerber Fmt 4.6, Leading zero omitted, Abs format (unit mm)*
G04 Created by KiCad (PCBNEW 4.0.6) date Monday, August 21, 2017 'PMt' 07:07:08 PM*
%MOMM*%
%LPD*%
G01*
G04 APERTURE LIST*
%ADD10C,0.100000*%
%ADD11R,1.700000X1.700000*%
%ADD12O,1.700000X1.700000*%
%ADD13C,1.500000*%
%ADD14C,5.000000*%
%ADD15C,0.700000*%
%ADD16C,0.254000*%
G04 APERTURE END LIST*
D10*
D11*
X109982000Y-61341000D03*
D12*
X109982000Y-58801000D03*
D11*
X150558500Y-59055000D03*
D12*
X150558500Y-56515000D03*
D11*
X145351500Y-56769000D03*
D12*
X145351500Y-54229000D03*
D11*
X159575500Y-56832500D03*
D12*
X159575500Y-54292500D03*
D13*
X141605000Y-55499000D03*
X127655000Y-55499000D03*
D14*
X105000000Y-57500000D03*
X165000000Y-57500000D03*
D15*
X113030000Y-57150000D03*
X128397000Y-60579000D03*
X140081000Y-54991000D03*
X123190000Y-56769000D03*
X154432000Y-55372000D03*
X142494000Y-57658000D03*
X112014000Y-54737000D03*
X112014000Y-53086000D03*
X129921000Y-58420000D03*
X127190500Y-57277000D03*
X129159000Y-55753000D03*
X122174000Y-51562000D03*
X138049000Y-59817000D03*
X113665000Y-51435000D03*
X131127500Y-58801000D03*
X129794000Y-54102000D03*
X122682000Y-54737000D03*
X121920000Y-54102000D03*
X130937000Y-54102000D03*
X121793000Y-56134000D03*
X133604000Y-54356000D03*
X119519000Y-55436000D03*
X135001000Y-54356000D03*
X132397500Y-58229500D03*
X122174000Y-57404000D03*
X132785869Y-59576425D03*
D16*
G36*
X169290000Y-64290000D02*
X100710000Y-64290000D01*
X100710000Y-58120854D01*
X101864457Y-58120854D01*
X102340727Y-59273515D01*
X103221847Y-60156174D01*
X104373674Y-60634454D01*
X105620854Y-60635543D01*
X106773515Y-60159273D01*
X107656174Y-59278153D01*
X107854305Y-58801000D01*
X108467907Y-58801000D01*
X108580946Y-59369285D01*
X108902853Y-59851054D01*
X108944452Y-59878850D01*
X108896683Y-59887838D01*
X108680559Y-60026910D01*
X108535569Y-60239110D01*
X108484560Y-60491000D01*
X108484560Y-62191000D01*
X108528838Y-62426317D01*
X108667910Y-62642441D01*
X108880110Y-62787431D01*
X109132000Y-62838440D01*
X110832000Y-62838440D01*
X111067317Y-62794162D01*
X111283441Y-62655090D01*
X111428431Y-62442890D01*
X111479440Y-62191000D01*
X111479440Y-60774069D01*
X127411830Y-60774069D01*
X127561471Y-61136229D01*
X127838314Y-61413555D01*
X128200212Y-61563828D01*
X128592069Y-61564170D01*
X128954229Y-61414529D01*
X129231555Y-61137686D01*
X129381828Y-60775788D01*
X129382170Y-60383931D01*
X129232529Y-60021771D01*
X128955686Y-59744445D01*
X128593788Y-59594172D01*
X128201931Y-59593830D01*
X127839771Y-59743471D01*
X127562445Y-60020314D01*
X127412172Y-60382212D01*
X127411830Y-60774069D01*
X111479440Y-60774069D01*
X111479440Y-60491000D01*
X111435162Y-60255683D01*
X111296090Y-60039559D01*
X111083890Y-59894569D01*
X111016459Y-59880914D01*
X111061147Y-59851054D01*
X111383054Y-59369285D01*
X111496093Y-58801000D01*
X111459109Y-58615069D01*
X128935830Y-58615069D01*
X129085471Y-58977229D01*
X129362314Y-59254555D01*
X129724212Y-59404828D01*
X130116069Y-59405170D01*
X130282886Y-59336243D01*
X130291971Y-59358229D01*
X130568814Y-59635555D01*
X130930712Y-59785828D01*
X131322569Y-59786170D01*
X131684729Y-59636529D01*
X131800918Y-59520542D01*
X131800699Y-59771494D01*
X131950340Y-60133654D01*
X132227183Y-60410980D01*
X132589081Y-60561253D01*
X132980938Y-60561595D01*
X133343098Y-60411954D01*
X133620424Y-60135111D01*
X133770697Y-59773213D01*
X133771039Y-59381356D01*
X133621398Y-59019196D01*
X133344555Y-58741870D01*
X133265003Y-58708837D01*
X133382328Y-58426288D01*
X133382670Y-58034431D01*
X133233029Y-57672271D01*
X132956186Y-57394945D01*
X132594288Y-57244672D01*
X132202431Y-57244330D01*
X131840271Y-57393971D01*
X131562945Y-57670814D01*
X131476366Y-57879320D01*
X131324288Y-57816172D01*
X130932431Y-57815830D01*
X130765614Y-57884757D01*
X130756529Y-57862771D01*
X130479686Y-57585445D01*
X130117788Y-57435172D01*
X129725931Y-57434830D01*
X129363771Y-57584471D01*
X129086445Y-57861314D01*
X128936172Y-58223212D01*
X128935830Y-58615069D01*
X111459109Y-58615069D01*
X111383054Y-58232715D01*
X111061147Y-57750946D01*
X110579378Y-57429039D01*
X110157233Y-57345069D01*
X112044830Y-57345069D01*
X112194471Y-57707229D01*
X112471314Y-57984555D01*
X112833212Y-58134828D01*
X113225069Y-58135170D01*
X113587229Y-57985529D01*
X113864555Y-57708686D01*
X114014828Y-57346788D01*
X114015170Y-56954931D01*
X113865529Y-56592771D01*
X113588686Y-56315445D01*
X113226788Y-56165172D01*
X112834931Y-56164830D01*
X112472771Y-56314471D01*
X112195445Y-56591314D01*
X112045172Y-56953212D01*
X112044830Y-57345069D01*
X110157233Y-57345069D01*
X110011093Y-57316000D01*
X109952907Y-57316000D01*
X109384622Y-57429039D01*
X108902853Y-57750946D01*
X108580946Y-58232715D01*
X108467907Y-58801000D01*
X107854305Y-58801000D01*
X108134454Y-58126326D01*
X108135543Y-56879146D01*
X107659273Y-55726485D01*
X106778153Y-54843826D01*
X105626326Y-54365546D01*
X104379146Y-54364457D01*
X103226485Y-54840727D01*
X102343826Y-55721847D01*
X101865546Y-56873674D01*
X101864457Y-58120854D01*
X100710000Y-58120854D01*
X100710000Y-53281069D01*
X111028830Y-53281069D01*
X111178471Y-53643229D01*
X111446499Y-53911725D01*
X111179445Y-54178314D01*
X111029172Y-54540212D01*
X111028830Y-54932069D01*
X111178471Y-55294229D01*
X111455314Y-55571555D01*
X111817212Y-55721828D01*
X112209069Y-55722170D01*
X112429550Y-55631069D01*
X118533830Y-55631069D01*
X118683471Y-55993229D01*
X118960314Y-56270555D01*
X119322212Y-56420828D01*
X119714069Y-56421170D01*
X119936971Y-56329069D01*
X120807830Y-56329069D01*
X120957471Y-56691229D01*
X121234314Y-56968555D01*
X121280336Y-56987665D01*
X121189172Y-57207212D01*
X121188830Y-57599069D01*
X121338471Y-57961229D01*
X121615314Y-58238555D01*
X121977212Y-58388828D01*
X122369069Y-58389170D01*
X122731229Y-58239529D01*
X123008555Y-57962686D01*
X123095243Y-57753917D01*
X123385069Y-57754170D01*
X123747229Y-57604529D01*
X124024555Y-57327686D01*
X124174828Y-56965788D01*
X124175170Y-56573931D01*
X124025529Y-56211771D01*
X123748686Y-55934445D01*
X123386788Y-55784172D01*
X122994931Y-55783830D01*
X122755040Y-55882951D01*
X122709727Y-55773285D01*
X126269760Y-55773285D01*
X126480169Y-56282515D01*
X126869436Y-56672461D01*
X127378298Y-56883759D01*
X127929285Y-56884240D01*
X128438515Y-56673831D01*
X128828461Y-56284564D01*
X129039759Y-55775702D01*
X129040240Y-55224715D01*
X128829831Y-54715485D01*
X128440564Y-54325539D01*
X128372001Y-54297069D01*
X128808830Y-54297069D01*
X128958471Y-54659229D01*
X129235314Y-54936555D01*
X129597212Y-55086828D01*
X129989069Y-55087170D01*
X130351229Y-54937529D01*
X130365282Y-54923500D01*
X130378314Y-54936555D01*
X130740212Y-55086828D01*
X131132069Y-55087170D01*
X131494229Y-54937529D01*
X131771555Y-54660686D01*
X131817071Y-54551069D01*
X132618830Y-54551069D01*
X132768471Y-54913229D01*
X133045314Y-55190555D01*
X133407212Y-55340828D01*
X133799069Y-55341170D01*
X134161229Y-55191529D01*
X134302503Y-55050501D01*
X134442314Y-55190555D01*
X134804212Y-55340828D01*
X135196069Y-55341170D01*
X135558229Y-55191529D01*
X135563698Y-55186069D01*
X139095830Y-55186069D01*
X139245471Y-55548229D01*
X139522314Y-55825555D01*
X139884212Y-55975828D01*
X140276069Y-55976170D01*
X140299577Y-55966457D01*
X140430169Y-56282515D01*
X140819436Y-56672461D01*
X141328298Y-56883759D01*
X141874898Y-56884236D01*
X141659445Y-57099314D01*
X141509172Y-57461212D01*
X141508830Y-57853069D01*
X141658471Y-58215229D01*
X141935314Y-58492555D01*
X142297212Y-58642828D01*
X142689069Y-58643170D01*
X143051229Y-58493529D01*
X143328555Y-58216686D01*
X143478828Y-57854788D01*
X143479170Y-57462931D01*
X143329529Y-57100771D01*
X143052686Y-56823445D01*
X142690788Y-56673172D01*
X142389439Y-56672909D01*
X142778461Y-56284564D01*
X142989759Y-55775702D01*
X142990240Y-55224715D01*
X142779831Y-54715485D01*
X142390564Y-54325539D01*
X142158073Y-54229000D01*
X143837407Y-54229000D01*
X143950446Y-54797285D01*
X144272353Y-55279054D01*
X144313952Y-55306850D01*
X144266183Y-55315838D01*
X144050059Y-55454910D01*
X143905069Y-55667110D01*
X143854060Y-55919000D01*
X143854060Y-57619000D01*
X143898338Y-57854317D01*
X144037410Y-58070441D01*
X144249610Y-58215431D01*
X144501500Y-58266440D01*
X146201500Y-58266440D01*
X146436817Y-58222162D01*
X146652941Y-58083090D01*
X146797931Y-57870890D01*
X146848940Y-57619000D01*
X146848940Y-56515000D01*
X149044407Y-56515000D01*
X149157446Y-57083285D01*
X149479353Y-57565054D01*
X149520952Y-57592850D01*
X149473183Y-57601838D01*
X149257059Y-57740910D01*
X149112069Y-57953110D01*
X149061060Y-58205000D01*
X149061060Y-59905000D01*
X149105338Y-60140317D01*
X149244410Y-60356441D01*
X149456610Y-60501431D01*
X149708500Y-60552440D01*
X151408500Y-60552440D01*
X151643817Y-60508162D01*
X151859941Y-60369090D01*
X152004931Y-60156890D01*
X152055940Y-59905000D01*
X152055940Y-58205000D01*
X152011662Y-57969683D01*
X151872590Y-57753559D01*
X151660390Y-57608569D01*
X151592959Y-57594914D01*
X151637647Y-57565054D01*
X151959554Y-57083285D01*
X152072593Y-56515000D01*
X151959554Y-55946715D01*
X151705884Y-55567069D01*
X153446830Y-55567069D01*
X153596471Y-55929229D01*
X153873314Y-56206555D01*
X154235212Y-56356828D01*
X154627069Y-56357170D01*
X154989229Y-56207529D01*
X155266555Y-55930686D01*
X155416828Y-55568788D01*
X155417170Y-55176931D01*
X155267529Y-54814771D01*
X154990686Y-54537445D01*
X154628788Y-54387172D01*
X154236931Y-54386830D01*
X153874771Y-54536471D01*
X153597445Y-54813314D01*
X153447172Y-55175212D01*
X153446830Y-55567069D01*
X151705884Y-55567069D01*
X151637647Y-55464946D01*
X151155878Y-55143039D01*
X150587593Y-55030000D01*
X150529407Y-55030000D01*
X149961122Y-55143039D01*
X149479353Y-55464946D01*
X149157446Y-55946715D01*
X149044407Y-56515000D01*
X146848940Y-56515000D01*
X146848940Y-55919000D01*
X146804662Y-55683683D01*
X146665590Y-55467559D01*
X146453390Y-55322569D01*
X146385959Y-55308914D01*
X146430647Y-55279054D01*
X146752554Y-54797285D01*
X146852962Y-54292500D01*
X158061407Y-54292500D01*
X158174446Y-54860785D01*
X158496353Y-55342554D01*
X158537952Y-55370350D01*
X158490183Y-55379338D01*
X158274059Y-55518410D01*
X158129069Y-55730610D01*
X158078060Y-55982500D01*
X158078060Y-57682500D01*
X158122338Y-57917817D01*
X158261410Y-58133941D01*
X158473610Y-58278931D01*
X158725500Y-58329940D01*
X160425500Y-58329940D01*
X160660817Y-58285662D01*
X160876941Y-58146590D01*
X160894525Y-58120854D01*
X161864457Y-58120854D01*
X162340727Y-59273515D01*
X163221847Y-60156174D01*
X164373674Y-60634454D01*
X165620854Y-60635543D01*
X166773515Y-60159273D01*
X167656174Y-59278153D01*
X168134454Y-58126326D01*
X168135543Y-56879146D01*
X167659273Y-55726485D01*
X166778153Y-54843826D01*
X165626326Y-54365546D01*
X164379146Y-54364457D01*
X163226485Y-54840727D01*
X162343826Y-55721847D01*
X161865546Y-56873674D01*
X161864457Y-58120854D01*
X160894525Y-58120854D01*
X161021931Y-57934390D01*
X161072940Y-57682500D01*
X161072940Y-55982500D01*
X161028662Y-55747183D01*
X160889590Y-55531059D01*
X160677390Y-55386069D01*
X160609959Y-55372414D01*
X160654647Y-55342554D01*
X160976554Y-54860785D01*
X161089593Y-54292500D01*
X160976554Y-53724215D01*
X160654647Y-53242446D01*
X160172878Y-52920539D01*
X159604593Y-52807500D01*
X159546407Y-52807500D01*
X158978122Y-52920539D01*
X158496353Y-53242446D01*
X158174446Y-53724215D01*
X158061407Y-54292500D01*
X146852962Y-54292500D01*
X146865593Y-54229000D01*
X146752554Y-53660715D01*
X146430647Y-53178946D01*
X145948878Y-52857039D01*
X145380593Y-52744000D01*
X145322407Y-52744000D01*
X144754122Y-52857039D01*
X144272353Y-53178946D01*
X143950446Y-53660715D01*
X143837407Y-54229000D01*
X142158073Y-54229000D01*
X141881702Y-54114241D01*
X141330715Y-54113760D01*
X140821485Y-54324169D01*
X140814289Y-54331353D01*
X140639686Y-54156445D01*
X140277788Y-54006172D01*
X139885931Y-54005830D01*
X139523771Y-54155471D01*
X139246445Y-54432314D01*
X139096172Y-54794212D01*
X139095830Y-55186069D01*
X135563698Y-55186069D01*
X135835555Y-54914686D01*
X135985828Y-54552788D01*
X135986170Y-54160931D01*
X135836529Y-53798771D01*
X135559686Y-53521445D01*
X135197788Y-53371172D01*
X134805931Y-53370830D01*
X134443771Y-53520471D01*
X134302497Y-53661499D01*
X134162686Y-53521445D01*
X133800788Y-53371172D01*
X133408931Y-53370830D01*
X133046771Y-53520471D01*
X132769445Y-53797314D01*
X132619172Y-54159212D01*
X132618830Y-54551069D01*
X131817071Y-54551069D01*
X131921828Y-54298788D01*
X131922170Y-53906931D01*
X131772529Y-53544771D01*
X131495686Y-53267445D01*
X131133788Y-53117172D01*
X130741931Y-53116830D01*
X130379771Y-53266471D01*
X130365718Y-53280500D01*
X130352686Y-53267445D01*
X129990788Y-53117172D01*
X129598931Y-53116830D01*
X129236771Y-53266471D01*
X128959445Y-53543314D01*
X128809172Y-53905212D01*
X128808830Y-54297069D01*
X128372001Y-54297069D01*
X127931702Y-54114241D01*
X127380715Y-54113760D01*
X126871485Y-54324169D01*
X126481539Y-54713436D01*
X126270241Y-55222298D01*
X126269760Y-55773285D01*
X122709727Y-55773285D01*
X122688538Y-55722005D01*
X122877069Y-55722170D01*
X123239229Y-55572529D01*
X123516555Y-55295686D01*
X123666828Y-54933788D01*
X123667170Y-54541931D01*
X123517529Y-54179771D01*
X123240686Y-53902445D01*
X122878788Y-53752172D01*
X122841212Y-53752139D01*
X122755529Y-53544771D01*
X122478686Y-53267445D01*
X122116788Y-53117172D01*
X121724931Y-53116830D01*
X121362771Y-53266471D01*
X121085445Y-53543314D01*
X120935172Y-53905212D01*
X120934830Y-54297069D01*
X121084471Y-54659229D01*
X121361314Y-54936555D01*
X121723212Y-55086828D01*
X121760788Y-55086861D01*
X121786462Y-55148995D01*
X121597931Y-55148830D01*
X121235771Y-55298471D01*
X120958445Y-55575314D01*
X120808172Y-55937212D01*
X120807830Y-56329069D01*
X119936971Y-56329069D01*
X120076229Y-56271529D01*
X120353555Y-55994686D01*
X120503828Y-55632788D01*
X120504170Y-55240931D01*
X120354529Y-54878771D01*
X120077686Y-54601445D01*
X119715788Y-54451172D01*
X119323931Y-54450830D01*
X118961771Y-54600471D01*
X118684445Y-54877314D01*
X118534172Y-55239212D01*
X118533830Y-55631069D01*
X112429550Y-55631069D01*
X112571229Y-55572529D01*
X112848555Y-55295686D01*
X112998828Y-54933788D01*
X112999170Y-54541931D01*
X112849529Y-54179771D01*
X112581501Y-53911275D01*
X112848555Y-53644686D01*
X112998828Y-53282788D01*
X112999170Y-52890931D01*
X112849529Y-52528771D01*
X112572686Y-52251445D01*
X112210788Y-52101172D01*
X111818931Y-52100830D01*
X111456771Y-52250471D01*
X111179445Y-52527314D01*
X111029172Y-52889212D01*
X111028830Y-53281069D01*
X100710000Y-53281069D01*
X100710000Y-50710000D01*
X169290000Y-50710000D01*
X169290000Y-64290000D01*
X169290000Y-64290000D01*
G37*
X169290000Y-64290000D02*
X100710000Y-64290000D01*
X100710000Y-58120854D01*
X101864457Y-58120854D01*
X102340727Y-59273515D01*
X103221847Y-60156174D01*
X104373674Y-60634454D01*
X105620854Y-60635543D01*
X106773515Y-60159273D01*
X107656174Y-59278153D01*
X107854305Y-58801000D01*
X108467907Y-58801000D01*
X108580946Y-59369285D01*
X108902853Y-59851054D01*
X108944452Y-59878850D01*
X108896683Y-59887838D01*
X108680559Y-60026910D01*
X108535569Y-60239110D01*
X108484560Y-60491000D01*
X108484560Y-62191000D01*
X108528838Y-62426317D01*
X108667910Y-62642441D01*
X108880110Y-62787431D01*
X109132000Y-62838440D01*
X110832000Y-62838440D01*
X111067317Y-62794162D01*
X111283441Y-62655090D01*
X111428431Y-62442890D01*
X111479440Y-62191000D01*
X111479440Y-60774069D01*
X127411830Y-60774069D01*
X127561471Y-61136229D01*
X127838314Y-61413555D01*
X128200212Y-61563828D01*
X128592069Y-61564170D01*
X128954229Y-61414529D01*
X129231555Y-61137686D01*
X129381828Y-60775788D01*
X129382170Y-60383931D01*
X129232529Y-60021771D01*
X128955686Y-59744445D01*
X128593788Y-59594172D01*
X128201931Y-59593830D01*
X127839771Y-59743471D01*
X127562445Y-60020314D01*
X127412172Y-60382212D01*
X127411830Y-60774069D01*
X111479440Y-60774069D01*
X111479440Y-60491000D01*
X111435162Y-60255683D01*
X111296090Y-60039559D01*
X111083890Y-59894569D01*
X111016459Y-59880914D01*
X111061147Y-59851054D01*
X111383054Y-59369285D01*
X111496093Y-58801000D01*
X111459109Y-58615069D01*
X128935830Y-58615069D01*
X129085471Y-58977229D01*
X129362314Y-59254555D01*
X129724212Y-59404828D01*
X130116069Y-59405170D01*
X130282886Y-59336243D01*
X130291971Y-59358229D01*
X130568814Y-59635555D01*
X130930712Y-59785828D01*
X131322569Y-59786170D01*
X131684729Y-59636529D01*
X131800918Y-59520542D01*
X131800699Y-59771494D01*
X131950340Y-60133654D01*
X132227183Y-60410980D01*
X132589081Y-60561253D01*
X132980938Y-60561595D01*
X133343098Y-60411954D01*
X133620424Y-60135111D01*
X133770697Y-59773213D01*
X133771039Y-59381356D01*
X133621398Y-59019196D01*
X133344555Y-58741870D01*
X133265003Y-58708837D01*
X133382328Y-58426288D01*
X133382670Y-58034431D01*
X133233029Y-57672271D01*
X132956186Y-57394945D01*
X132594288Y-57244672D01*
X132202431Y-57244330D01*
X131840271Y-57393971D01*
X131562945Y-57670814D01*
X131476366Y-57879320D01*
X131324288Y-57816172D01*
X130932431Y-57815830D01*
X130765614Y-57884757D01*
X130756529Y-57862771D01*
X130479686Y-57585445D01*
X130117788Y-57435172D01*
X129725931Y-57434830D01*
X129363771Y-57584471D01*
X129086445Y-57861314D01*
X128936172Y-58223212D01*
X128935830Y-58615069D01*
X111459109Y-58615069D01*
X111383054Y-58232715D01*
X111061147Y-57750946D01*
X110579378Y-57429039D01*
X110157233Y-57345069D01*
X112044830Y-57345069D01*
X112194471Y-57707229D01*
X112471314Y-57984555D01*
X112833212Y-58134828D01*
X113225069Y-58135170D01*
X113587229Y-57985529D01*
X113864555Y-57708686D01*
X114014828Y-57346788D01*
X114015170Y-56954931D01*
X113865529Y-56592771D01*
X113588686Y-56315445D01*
X113226788Y-56165172D01*
X112834931Y-56164830D01*
X112472771Y-56314471D01*
X112195445Y-56591314D01*
X112045172Y-56953212D01*
X112044830Y-57345069D01*
X110157233Y-57345069D01*
X110011093Y-57316000D01*
X109952907Y-57316000D01*
X109384622Y-57429039D01*
X108902853Y-57750946D01*
X108580946Y-58232715D01*
X108467907Y-58801000D01*
X107854305Y-58801000D01*
X108134454Y-58126326D01*
X108135543Y-56879146D01*
X107659273Y-55726485D01*
X106778153Y-54843826D01*
X105626326Y-54365546D01*
X104379146Y-54364457D01*
X103226485Y-54840727D01*
X102343826Y-55721847D01*
X101865546Y-56873674D01*
X101864457Y-58120854D01*
X100710000Y-58120854D01*
X100710000Y-53281069D01*
X111028830Y-53281069D01*
X111178471Y-53643229D01*
X111446499Y-53911725D01*
X111179445Y-54178314D01*
X111029172Y-54540212D01*
X111028830Y-54932069D01*
X111178471Y-55294229D01*
X111455314Y-55571555D01*
X111817212Y-55721828D01*
X112209069Y-55722170D01*
X112429550Y-55631069D01*
X118533830Y-55631069D01*
X118683471Y-55993229D01*
X118960314Y-56270555D01*
X119322212Y-56420828D01*
X119714069Y-56421170D01*
X119936971Y-56329069D01*
X120807830Y-56329069D01*
X120957471Y-56691229D01*
X121234314Y-56968555D01*
X121280336Y-56987665D01*
X121189172Y-57207212D01*
X121188830Y-57599069D01*
X121338471Y-57961229D01*
X121615314Y-58238555D01*
X121977212Y-58388828D01*
X122369069Y-58389170D01*
X122731229Y-58239529D01*
X123008555Y-57962686D01*
X123095243Y-57753917D01*
X123385069Y-57754170D01*
X123747229Y-57604529D01*
X124024555Y-57327686D01*
X124174828Y-56965788D01*
X124175170Y-56573931D01*
X124025529Y-56211771D01*
X123748686Y-55934445D01*
X123386788Y-55784172D01*
X122994931Y-55783830D01*
X122755040Y-55882951D01*
X122709727Y-55773285D01*
X126269760Y-55773285D01*
X126480169Y-56282515D01*
X126869436Y-56672461D01*
X127378298Y-56883759D01*
X127929285Y-56884240D01*
X128438515Y-56673831D01*
X128828461Y-56284564D01*
X129039759Y-55775702D01*
X129040240Y-55224715D01*
X128829831Y-54715485D01*
X128440564Y-54325539D01*
X128372001Y-54297069D01*
X128808830Y-54297069D01*
X128958471Y-54659229D01*
X129235314Y-54936555D01*
X129597212Y-55086828D01*
X129989069Y-55087170D01*
X130351229Y-54937529D01*
X130365282Y-54923500D01*
X130378314Y-54936555D01*
X130740212Y-55086828D01*
X131132069Y-55087170D01*
X131494229Y-54937529D01*
X131771555Y-54660686D01*
X131817071Y-54551069D01*
X132618830Y-54551069D01*
X132768471Y-54913229D01*
X133045314Y-55190555D01*
X133407212Y-55340828D01*
X133799069Y-55341170D01*
X134161229Y-55191529D01*
X134302503Y-55050501D01*
X134442314Y-55190555D01*
X134804212Y-55340828D01*
X135196069Y-55341170D01*
X135558229Y-55191529D01*
X135563698Y-55186069D01*
X139095830Y-55186069D01*
X139245471Y-55548229D01*
X139522314Y-55825555D01*
X139884212Y-55975828D01*
X140276069Y-55976170D01*
X140299577Y-55966457D01*
X140430169Y-56282515D01*
X140819436Y-56672461D01*
X141328298Y-56883759D01*
X141874898Y-56884236D01*
X141659445Y-57099314D01*
X141509172Y-57461212D01*
X141508830Y-57853069D01*
X141658471Y-58215229D01*
X141935314Y-58492555D01*
X142297212Y-58642828D01*
X142689069Y-58643170D01*
X143051229Y-58493529D01*
X143328555Y-58216686D01*
X143478828Y-57854788D01*
X143479170Y-57462931D01*
X143329529Y-57100771D01*
X143052686Y-56823445D01*
X142690788Y-56673172D01*
X142389439Y-56672909D01*
X142778461Y-56284564D01*
X142989759Y-55775702D01*
X142990240Y-55224715D01*
X142779831Y-54715485D01*
X142390564Y-54325539D01*
X142158073Y-54229000D01*
X143837407Y-54229000D01*
X143950446Y-54797285D01*
X144272353Y-55279054D01*
X144313952Y-55306850D01*
X144266183Y-55315838D01*
X144050059Y-55454910D01*
X143905069Y-55667110D01*
X143854060Y-55919000D01*
X143854060Y-57619000D01*
X143898338Y-57854317D01*
X144037410Y-58070441D01*
X144249610Y-58215431D01*
X144501500Y-58266440D01*
X146201500Y-58266440D01*
X146436817Y-58222162D01*
X146652941Y-58083090D01*
X146797931Y-57870890D01*
X146848940Y-57619000D01*
X146848940Y-56515000D01*
X149044407Y-56515000D01*
X149157446Y-57083285D01*
X149479353Y-57565054D01*
X149520952Y-57592850D01*
X149473183Y-57601838D01*
X149257059Y-57740910D01*
X149112069Y-57953110D01*
X149061060Y-58205000D01*
X149061060Y-59905000D01*
X149105338Y-60140317D01*
X149244410Y-60356441D01*
X149456610Y-60501431D01*
X149708500Y-60552440D01*
X151408500Y-60552440D01*
X151643817Y-60508162D01*
X151859941Y-60369090D01*
X152004931Y-60156890D01*
X152055940Y-59905000D01*
X152055940Y-58205000D01*
X152011662Y-57969683D01*
X151872590Y-57753559D01*
X151660390Y-57608569D01*
X151592959Y-57594914D01*
X151637647Y-57565054D01*
X151959554Y-57083285D01*
X152072593Y-56515000D01*
X151959554Y-55946715D01*
X151705884Y-55567069D01*
X153446830Y-55567069D01*
X153596471Y-55929229D01*
X153873314Y-56206555D01*
X154235212Y-56356828D01*
X154627069Y-56357170D01*
X154989229Y-56207529D01*
X155266555Y-55930686D01*
X155416828Y-55568788D01*
X155417170Y-55176931D01*
X155267529Y-54814771D01*
X154990686Y-54537445D01*
X154628788Y-54387172D01*
X154236931Y-54386830D01*
X153874771Y-54536471D01*
X153597445Y-54813314D01*
X153447172Y-55175212D01*
X153446830Y-55567069D01*
X151705884Y-55567069D01*
X151637647Y-55464946D01*
X151155878Y-55143039D01*
X150587593Y-55030000D01*
X150529407Y-55030000D01*
X149961122Y-55143039D01*
X149479353Y-55464946D01*
X149157446Y-55946715D01*
X149044407Y-56515000D01*
X146848940Y-56515000D01*
X146848940Y-55919000D01*
X146804662Y-55683683D01*
X146665590Y-55467559D01*
X146453390Y-55322569D01*
X146385959Y-55308914D01*
X146430647Y-55279054D01*
X146752554Y-54797285D01*
X146852962Y-54292500D01*
X158061407Y-54292500D01*
X158174446Y-54860785D01*
X158496353Y-55342554D01*
X158537952Y-55370350D01*
X158490183Y-55379338D01*
X158274059Y-55518410D01*
X158129069Y-55730610D01*
X158078060Y-55982500D01*
X158078060Y-57682500D01*
X158122338Y-57917817D01*
X158261410Y-58133941D01*
X158473610Y-58278931D01*
X158725500Y-58329940D01*
X160425500Y-58329940D01*
X160660817Y-58285662D01*
X160876941Y-58146590D01*
X160894525Y-58120854D01*
X161864457Y-58120854D01*
X162340727Y-59273515D01*
X163221847Y-60156174D01*
X164373674Y-60634454D01*
X165620854Y-60635543D01*
X166773515Y-60159273D01*
X167656174Y-59278153D01*
X168134454Y-58126326D01*
X168135543Y-56879146D01*
X167659273Y-55726485D01*
X166778153Y-54843826D01*
X165626326Y-54365546D01*
X164379146Y-54364457D01*
X163226485Y-54840727D01*
X162343826Y-55721847D01*
X161865546Y-56873674D01*
X161864457Y-58120854D01*
X160894525Y-58120854D01*
X161021931Y-57934390D01*
X161072940Y-57682500D01*
X161072940Y-55982500D01*
X161028662Y-55747183D01*
X160889590Y-55531059D01*
X160677390Y-55386069D01*
X160609959Y-55372414D01*
X160654647Y-55342554D01*
X160976554Y-54860785D01*
X161089593Y-54292500D01*
X160976554Y-53724215D01*
X160654647Y-53242446D01*
X160172878Y-52920539D01*
X159604593Y-52807500D01*
X159546407Y-52807500D01*
X158978122Y-52920539D01*
X158496353Y-53242446D01*
X158174446Y-53724215D01*
X158061407Y-54292500D01*
X146852962Y-54292500D01*
X146865593Y-54229000D01*
X146752554Y-53660715D01*
X146430647Y-53178946D01*
X145948878Y-52857039D01*
X145380593Y-52744000D01*
X145322407Y-52744000D01*
X144754122Y-52857039D01*
X144272353Y-53178946D01*
X143950446Y-53660715D01*
X143837407Y-54229000D01*
X142158073Y-54229000D01*
X141881702Y-54114241D01*
X141330715Y-54113760D01*
X140821485Y-54324169D01*
X140814289Y-54331353D01*
X140639686Y-54156445D01*
X140277788Y-54006172D01*
X139885931Y-54005830D01*
X139523771Y-54155471D01*
X139246445Y-54432314D01*
X139096172Y-54794212D01*
X139095830Y-55186069D01*
X135563698Y-55186069D01*
X135835555Y-54914686D01*
X135985828Y-54552788D01*
X135986170Y-54160931D01*
X135836529Y-53798771D01*
X135559686Y-53521445D01*
X135197788Y-53371172D01*
X134805931Y-53370830D01*
X134443771Y-53520471D01*
X134302497Y-53661499D01*
X134162686Y-53521445D01*
X133800788Y-53371172D01*
X133408931Y-53370830D01*
X133046771Y-53520471D01*
X132769445Y-53797314D01*
X132619172Y-54159212D01*
X132618830Y-54551069D01*
X131817071Y-54551069D01*
X131921828Y-54298788D01*
X131922170Y-53906931D01*
X131772529Y-53544771D01*
X131495686Y-53267445D01*
X131133788Y-53117172D01*
X130741931Y-53116830D01*
X130379771Y-53266471D01*
X130365718Y-53280500D01*
X130352686Y-53267445D01*
X129990788Y-53117172D01*
X129598931Y-53116830D01*
X129236771Y-53266471D01*
X128959445Y-53543314D01*
X128809172Y-53905212D01*
X128808830Y-54297069D01*
X128372001Y-54297069D01*
X127931702Y-54114241D01*
X127380715Y-54113760D01*
X126871485Y-54324169D01*
X126481539Y-54713436D01*
X126270241Y-55222298D01*
X126269760Y-55773285D01*
X122709727Y-55773285D01*
X122688538Y-55722005D01*
X122877069Y-55722170D01*
X123239229Y-55572529D01*
X123516555Y-55295686D01*
X123666828Y-54933788D01*
X123667170Y-54541931D01*
X123517529Y-54179771D01*
X123240686Y-53902445D01*
X122878788Y-53752172D01*
X122841212Y-53752139D01*
X122755529Y-53544771D01*
X122478686Y-53267445D01*
X122116788Y-53117172D01*
X121724931Y-53116830D01*
X121362771Y-53266471D01*
X121085445Y-53543314D01*
X120935172Y-53905212D01*
X120934830Y-54297069D01*
X121084471Y-54659229D01*
X121361314Y-54936555D01*
X121723212Y-55086828D01*
X121760788Y-55086861D01*
X121786462Y-55148995D01*
X121597931Y-55148830D01*
X121235771Y-55298471D01*
X120958445Y-55575314D01*
X120808172Y-55937212D01*
X120807830Y-56329069D01*
X119936971Y-56329069D01*
X120076229Y-56271529D01*
X120353555Y-55994686D01*
X120503828Y-55632788D01*
X120504170Y-55240931D01*
X120354529Y-54878771D01*
X120077686Y-54601445D01*
X119715788Y-54451172D01*
X119323931Y-54450830D01*
X118961771Y-54600471D01*
X118684445Y-54877314D01*
X118534172Y-55239212D01*
X118533830Y-55631069D01*
X112429550Y-55631069D01*
X112571229Y-55572529D01*
X112848555Y-55295686D01*
X112998828Y-54933788D01*
X112999170Y-54541931D01*
X112849529Y-54179771D01*
X112581501Y-53911275D01*
X112848555Y-53644686D01*
X112998828Y-53282788D01*
X112999170Y-52890931D01*
X112849529Y-52528771D01*
X112572686Y-52251445D01*
X112210788Y-52101172D01*
X111818931Y-52100830D01*
X111456771Y-52250471D01*
X111179445Y-52527314D01*
X111029172Y-52889212D01*
X111028830Y-53281069D01*
X100710000Y-53281069D01*
X100710000Y-50710000D01*
X169290000Y-50710000D01*
X169290000Y-64290000D01*
M02*
