G04 #@! TF.FileFunction,Copper,L4,Bot,Signal*
%FSLAX46Y46*%
G04 Gerber Fmt 4.6, Leading zero omitted, Abs format (unit mm)*
G04 Created by KiCad (PCBNEW 4.0.6) date Monday, August 21, 2017 'PMt' 07:07:08 PM*
%MOMM*%
%LPD*%
G01*
G04 APERTURE LIST*
%ADD10C,0.100000*%
%ADD11R,1.700000X1.700000*%
%ADD12O,1.700000X1.700000*%
%ADD13C,1.500000*%
%ADD14C,5.000000*%
%ADD15C,0.700000*%
%ADD16C,0.250000*%
G04 APERTURE END LIST*
D10*
D11*
X109982000Y-61341000D03*
D12*
X109982000Y-58801000D03*
D11*
X150558500Y-59055000D03*
D12*
X150558500Y-56515000D03*
D11*
X145351500Y-56769000D03*
D12*
X145351500Y-54229000D03*
D11*
X159575500Y-56832500D03*
D12*
X159575500Y-54292500D03*
D13*
X141605000Y-55499000D03*
X127655000Y-55499000D03*
D14*
X105000000Y-57500000D03*
X165000000Y-57500000D03*
D15*
X113030000Y-57150000D03*
X128397000Y-60579000D03*
X140081000Y-54991000D03*
X123190000Y-56769000D03*
X154432000Y-55372000D03*
X142494000Y-57658000D03*
X112014000Y-54737000D03*
X112014000Y-53086000D03*
X129921000Y-58420000D03*
X127190500Y-57277000D03*
X129159000Y-55753000D03*
X122174000Y-51562000D03*
X138049000Y-59817000D03*
X113665000Y-51435000D03*
X131127500Y-58801000D03*
X129794000Y-54102000D03*
X122682000Y-54737000D03*
X121920000Y-54102000D03*
X130937000Y-54102000D03*
X121793000Y-56134000D03*
X133604000Y-54356000D03*
X119519000Y-55436000D03*
X135001000Y-54356000D03*
X132397500Y-58229500D03*
X122174000Y-57404000D03*
X132785869Y-59576425D03*
D16*
X131127500Y-58801000D02*
X131477499Y-59150999D01*
X131477499Y-59150999D02*
X132212293Y-59150999D01*
X132212293Y-59150999D02*
X132458791Y-58904501D01*
X132458791Y-58904501D02*
X132721501Y-58904501D01*
X132721501Y-58904501D02*
X138247001Y-53379001D01*
X138247001Y-53379001D02*
X144501501Y-53379001D01*
X144501501Y-53379001D02*
X145351500Y-54229000D01*
X123308001Y-54102000D02*
X123308001Y-54110999D01*
X123308001Y-54110999D02*
X122682000Y-54737000D01*
X124079000Y-54102000D02*
X123308001Y-54102000D01*
X129794000Y-54102000D02*
X124079000Y-54102000D01*
X123611001Y-53426999D02*
X122595001Y-53426999D01*
X122595001Y-53426999D02*
X121920000Y-54102000D01*
X130937000Y-54102000D02*
X130261999Y-53426999D01*
X130261999Y-53426999D02*
X123611001Y-53426999D01*
X121793000Y-56134000D02*
X122287974Y-56134000D01*
X122287974Y-56134000D02*
X122327975Y-56093999D01*
X131381500Y-56578500D02*
X133604000Y-54356000D01*
X122327975Y-56093999D02*
X123514001Y-56093999D01*
X123514001Y-56093999D02*
X123998502Y-56578500D01*
X123998502Y-56578500D02*
X131381500Y-56578500D01*
X122123000Y-52832000D02*
X119519000Y-55436000D01*
X135001000Y-54356000D02*
X133477000Y-52832000D01*
X133477000Y-52832000D02*
X122123000Y-52832000D01*
X132397500Y-58229500D02*
X132047501Y-57879501D01*
X132047501Y-57879501D02*
X130396501Y-57879501D01*
X130396501Y-57879501D02*
X129857500Y-57340500D01*
X129857500Y-57340500D02*
X128524000Y-57340500D01*
X128524000Y-57340500D02*
X127698500Y-58166000D01*
X127698500Y-58166000D02*
X122936000Y-58166000D01*
X122936000Y-58166000D02*
X122523999Y-57753999D01*
X122523999Y-57753999D02*
X122174000Y-57404000D01*
X142453999Y-54315999D02*
X144907000Y-56769000D01*
X144907000Y-56769000D02*
X145351500Y-56769000D01*
X132785869Y-59576425D02*
X138046295Y-54315999D01*
X138046295Y-54315999D02*
X142453999Y-54315999D01*
M02*
