G04 #@! TF.FileFunction,Legend,Top*
%FSLAX46Y46*%
G04 Gerber Fmt 4.6, Leading zero omitted, Abs format (unit mm)*
G04 Created by KiCad (PCBNEW 4.0.6) date Monday, August 21, 2017 'PMt' 07:07:08 PM*
%MOMM*%
%LPD*%
G01*
G04 APERTURE LIST*
%ADD10C,0.100000*%
%ADD11C,0.150000*%
%ADD12C,0.120000*%
G04 APERTURE END LIST*
D10*
D11*
X143146095Y-51824381D02*
X143146095Y-50824381D01*
X143146095Y-51300571D02*
X143717524Y-51300571D01*
X143717524Y-51824381D02*
X143717524Y-50824381D01*
X144574667Y-51776762D02*
X144479429Y-51824381D01*
X144288952Y-51824381D01*
X144193714Y-51776762D01*
X144146095Y-51681524D01*
X144146095Y-51300571D01*
X144193714Y-51205333D01*
X144288952Y-51157714D01*
X144479429Y-51157714D01*
X144574667Y-51205333D01*
X144622286Y-51300571D01*
X144622286Y-51395810D01*
X144146095Y-51491048D01*
X145050857Y-51824381D02*
X145050857Y-51157714D01*
X145050857Y-51348190D02*
X145098476Y-51252952D01*
X145146095Y-51205333D01*
X145241333Y-51157714D01*
X145336572Y-51157714D01*
X145812762Y-51824381D02*
X145717524Y-51776762D01*
X145669905Y-51729143D01*
X145622286Y-51633905D01*
X145622286Y-51348190D01*
X145669905Y-51252952D01*
X145717524Y-51205333D01*
X145812762Y-51157714D01*
X145955620Y-51157714D01*
X146050858Y-51205333D01*
X146098477Y-51252952D01*
X146146096Y-51348190D01*
X146146096Y-51633905D01*
X146098477Y-51729143D01*
X146050858Y-51776762D01*
X145955620Y-51824381D01*
X145812762Y-51824381D01*
X146574667Y-51157714D02*
X146574667Y-51824381D01*
X146574667Y-51252952D02*
X146622286Y-51205333D01*
X146717524Y-51157714D01*
X146860382Y-51157714D01*
X146955620Y-51205333D01*
X147003239Y-51300571D01*
X147003239Y-51824381D01*
X148241334Y-51824381D02*
X148241334Y-50824381D01*
X148574668Y-51538667D01*
X148908001Y-50824381D01*
X148908001Y-51824381D01*
X149384191Y-51824381D02*
X149384191Y-50824381D01*
X149479429Y-51443429D02*
X149765144Y-51824381D01*
X149765144Y-51157714D02*
X149384191Y-51538667D01*
X150193715Y-51729143D02*
X150241334Y-51776762D01*
X150193715Y-51824381D01*
X150146096Y-51776762D01*
X150193715Y-51729143D01*
X150193715Y-51824381D01*
X151431810Y-51824381D02*
X151431810Y-50824381D01*
X151908000Y-51824381D02*
X151908000Y-50824381D01*
X153146095Y-51729143D02*
X153193714Y-51776762D01*
X153146095Y-51824381D01*
X153098476Y-51776762D01*
X153146095Y-51729143D01*
X153146095Y-51824381D01*
X153146095Y-51205333D02*
X153193714Y-51252952D01*
X153146095Y-51300571D01*
X153098476Y-51252952D01*
X153146095Y-51205333D01*
X153146095Y-51300571D01*
X154384190Y-51824381D02*
X154384190Y-50824381D01*
X154765143Y-50824381D01*
X154860381Y-50872000D01*
X154908000Y-50919619D01*
X154955619Y-51014857D01*
X154955619Y-51157714D01*
X154908000Y-51252952D01*
X154860381Y-51300571D01*
X154765143Y-51348190D01*
X154384190Y-51348190D01*
X155336571Y-51538667D02*
X155812762Y-51538667D01*
X155241333Y-51824381D02*
X155574666Y-50824381D01*
X155908000Y-51824381D01*
X156431809Y-51348190D02*
X156431809Y-51824381D01*
X156098476Y-50824381D02*
X156431809Y-51348190D01*
X156765143Y-50824381D01*
X156860381Y-51919619D02*
X157622286Y-51919619D01*
X158336572Y-51824381D02*
X157860381Y-51824381D01*
X157860381Y-50824381D01*
X158669905Y-51300571D02*
X159003239Y-51300571D01*
X159146096Y-51824381D02*
X158669905Y-51824381D01*
X158669905Y-50824381D01*
X159146096Y-50824381D01*
X159574667Y-51824381D02*
X159574667Y-50824381D01*
X159812762Y-50824381D01*
X159955620Y-50872000D01*
X160050858Y-50967238D01*
X160098477Y-51062476D01*
X160146096Y-51252952D01*
X160146096Y-51395810D01*
X160098477Y-51586286D01*
X160050858Y-51681524D01*
X159955620Y-51776762D01*
X159812762Y-51824381D01*
X159574667Y-51824381D01*
X160336572Y-51919619D02*
X161098477Y-51919619D01*
X161193715Y-50824381D02*
X161527048Y-51824381D01*
X161860382Y-50824381D01*
X162717525Y-51824381D02*
X162146096Y-51824381D01*
X162431810Y-51824381D02*
X162431810Y-50824381D01*
X162336572Y-50967238D01*
X162241334Y-51062476D01*
X162146096Y-51110095D01*
X148693713Y-53474381D02*
X148693713Y-52474381D01*
X148931808Y-52474381D01*
X149074666Y-52522000D01*
X149169904Y-52617238D01*
X149217523Y-52712476D01*
X149265142Y-52902952D01*
X149265142Y-53045810D01*
X149217523Y-53236286D01*
X149169904Y-53331524D01*
X149074666Y-53426762D01*
X148931808Y-53474381D01*
X148693713Y-53474381D01*
X149598475Y-52807714D02*
X149836570Y-53474381D01*
X150074666Y-52807714D02*
X149836570Y-53474381D01*
X149741332Y-53712476D01*
X149693713Y-53760095D01*
X149598475Y-53807714D01*
X150598475Y-53474381D02*
X150503237Y-53426762D01*
X150455618Y-53331524D01*
X150455618Y-52474381D01*
X151408000Y-53474381D02*
X151408000Y-52950571D01*
X151360381Y-52855333D01*
X151265143Y-52807714D01*
X151074666Y-52807714D01*
X150979428Y-52855333D01*
X151408000Y-53426762D02*
X151312762Y-53474381D01*
X151074666Y-53474381D01*
X150979428Y-53426762D01*
X150931809Y-53331524D01*
X150931809Y-53236286D01*
X150979428Y-53141048D01*
X151074666Y-53093429D01*
X151312762Y-53093429D01*
X151408000Y-53045810D01*
X151884190Y-52807714D02*
X151884190Y-53474381D01*
X151884190Y-52902952D02*
X151931809Y-52855333D01*
X152027047Y-52807714D01*
X152169905Y-52807714D01*
X152265143Y-52855333D01*
X152312762Y-52950571D01*
X152312762Y-53474381D01*
X153408000Y-52474381D02*
X153741333Y-53474381D01*
X154074667Y-52474381D01*
X154550857Y-53474381D02*
X154455619Y-53426762D01*
X154408000Y-53379143D01*
X154360381Y-53283905D01*
X154360381Y-52998190D01*
X154408000Y-52902952D01*
X154455619Y-52855333D01*
X154550857Y-52807714D01*
X154693715Y-52807714D01*
X154788953Y-52855333D01*
X154836572Y-52902952D01*
X154884191Y-52998190D01*
X154884191Y-53283905D01*
X154836572Y-53379143D01*
X154788953Y-53426762D01*
X154693715Y-53474381D01*
X154550857Y-53474381D01*
X155741334Y-52807714D02*
X155741334Y-53617238D01*
X155693715Y-53712476D01*
X155646096Y-53760095D01*
X155550857Y-53807714D01*
X155408000Y-53807714D01*
X155312762Y-53760095D01*
X155741334Y-53426762D02*
X155646096Y-53474381D01*
X155455619Y-53474381D01*
X155360381Y-53426762D01*
X155312762Y-53379143D01*
X155265143Y-53283905D01*
X155265143Y-52998190D01*
X155312762Y-52902952D01*
X155360381Y-52855333D01*
X155455619Y-52807714D01*
X155646096Y-52807714D01*
X155741334Y-52855333D01*
X156598477Y-53426762D02*
X156503239Y-53474381D01*
X156312762Y-53474381D01*
X156217524Y-53426762D01*
X156169905Y-53331524D01*
X156169905Y-52950571D01*
X156217524Y-52855333D01*
X156312762Y-52807714D01*
X156503239Y-52807714D01*
X156598477Y-52855333D01*
X156646096Y-52950571D01*
X156646096Y-53045810D01*
X156169905Y-53141048D01*
X157217524Y-53474381D02*
X157122286Y-53426762D01*
X157074667Y-53331524D01*
X157074667Y-52474381D01*
X126273000Y-59607500D02*
X126273000Y-58907500D01*
X127473000Y-58907500D02*
X127473000Y-59607500D01*
X113950000Y-56400000D02*
X113950000Y-58300000D01*
X115050000Y-56400000D02*
X115050000Y-58300000D01*
X114500000Y-57300000D02*
X114500000Y-57750000D01*
X114750000Y-57250000D02*
X114250000Y-57250000D01*
X114500000Y-57250000D02*
X114750000Y-57500000D01*
X114750000Y-57500000D02*
X114250000Y-57500000D01*
X114250000Y-57500000D02*
X114500000Y-57250000D01*
X153949000Y-56400000D02*
X153949000Y-58300000D01*
X155049000Y-56400000D02*
X155049000Y-58300000D01*
X154499000Y-57300000D02*
X154499000Y-57750000D01*
X154749000Y-57250000D02*
X154249000Y-57250000D01*
X154499000Y-57250000D02*
X154749000Y-57500000D01*
X154749000Y-57500000D02*
X154249000Y-57500000D01*
X154249000Y-57500000D02*
X154499000Y-57250000D01*
X140616000Y-57320000D02*
X140616000Y-59220000D01*
X141716000Y-57320000D02*
X141716000Y-59220000D01*
X141166000Y-58220000D02*
X141166000Y-58670000D01*
X141416000Y-58170000D02*
X140916000Y-58170000D01*
X141166000Y-58170000D02*
X141416000Y-58420000D01*
X141416000Y-58420000D02*
X140916000Y-58420000D01*
X140916000Y-58420000D02*
X141166000Y-58170000D01*
X127974000Y-57320000D02*
X127974000Y-59220000D01*
X129074000Y-57320000D02*
X129074000Y-59220000D01*
X128524000Y-58220000D02*
X128524000Y-58670000D01*
X128774000Y-58170000D02*
X128274000Y-58170000D01*
X128524000Y-58170000D02*
X128774000Y-58420000D01*
X128774000Y-58420000D02*
X128274000Y-58420000D01*
X128274000Y-58420000D02*
X128524000Y-58170000D01*
D12*
X111312000Y-60071000D02*
X111312000Y-57471000D01*
X111312000Y-57471000D02*
X108652000Y-57471000D01*
X108652000Y-57471000D02*
X108652000Y-60071000D01*
X108652000Y-60071000D02*
X111312000Y-60071000D01*
X111312000Y-61341000D02*
X111312000Y-62671000D01*
X111312000Y-62671000D02*
X109982000Y-62671000D01*
D11*
X115229000Y-59952000D02*
X115229000Y-60952000D01*
X113879000Y-60952000D02*
X113879000Y-59952000D01*
X155107000Y-60472000D02*
X155107000Y-61472000D01*
X153757000Y-61472000D02*
X153757000Y-60472000D01*
X140835000Y-61508000D02*
X139835000Y-61508000D01*
X139835000Y-60158000D02*
X140835000Y-60158000D01*
X130183000Y-59523000D02*
X131183000Y-59523000D01*
X131183000Y-60873000D02*
X130183000Y-60873000D01*
X119769000Y-50887000D02*
X120769000Y-50887000D01*
X120769000Y-52237000D02*
X119769000Y-52237000D01*
X137327000Y-59317000D02*
X137327000Y-60317000D01*
X135977000Y-60317000D02*
X135977000Y-59317000D01*
X116070000Y-52110000D02*
X115070000Y-52110000D01*
X115070000Y-50760000D02*
X116070000Y-50760000D01*
X114419000Y-55412000D02*
X113419000Y-55412000D01*
X113419000Y-54062000D02*
X114419000Y-54062000D01*
X114419000Y-53761000D02*
X113419000Y-53761000D01*
X113419000Y-52411000D02*
X114419000Y-52411000D01*
X124160000Y-63745000D02*
X124160000Y-63170000D01*
X118410000Y-63745000D02*
X118410000Y-63095000D01*
X118410000Y-53095000D02*
X118410000Y-53745000D01*
X124160000Y-53095000D02*
X124160000Y-53745000D01*
X124160000Y-63745000D02*
X118410000Y-63745000D01*
X124160000Y-53095000D02*
X118410000Y-53095000D01*
X124160000Y-63170000D02*
X125760000Y-63170000D01*
D12*
X151888500Y-57785000D02*
X151888500Y-55185000D01*
X151888500Y-55185000D02*
X149228500Y-55185000D01*
X149228500Y-55185000D02*
X149228500Y-57785000D01*
X149228500Y-57785000D02*
X151888500Y-57785000D01*
X151888500Y-59055000D02*
X151888500Y-60385000D01*
X151888500Y-60385000D02*
X150558500Y-60385000D01*
X146681500Y-55499000D02*
X146681500Y-52899000D01*
X146681500Y-52899000D02*
X144021500Y-52899000D01*
X144021500Y-52899000D02*
X144021500Y-55499000D01*
X144021500Y-55499000D02*
X146681500Y-55499000D01*
X146681500Y-56769000D02*
X146681500Y-58099000D01*
X146681500Y-58099000D02*
X145351500Y-58099000D01*
X160905500Y-55562500D02*
X160905500Y-52962500D01*
X160905500Y-52962500D02*
X158245500Y-52962500D01*
X158245500Y-52962500D02*
X158245500Y-55562500D01*
X158245500Y-55562500D02*
X160905500Y-55562500D01*
X160905500Y-56832500D02*
X160905500Y-58162500D01*
X160905500Y-58162500D02*
X159575500Y-58162500D01*
D11*
X129325981Y-57277000D02*
G75*
G03X129325981Y-57277000I-283981J0D01*
G01*
X129042000Y-50165000D02*
X140218000Y-50165000D01*
X139583000Y-56388000D02*
X142504000Y-56388000D01*
X126629000Y-56388000D02*
X129550000Y-56388000D01*
X142504000Y-56388000D02*
X142504000Y-50165000D01*
X126629000Y-56388000D02*
X126629000Y-50165000D01*
X127357143Y-61761666D02*
X127404762Y-61809285D01*
X127452381Y-61952142D01*
X127452381Y-62047380D01*
X127404762Y-62190238D01*
X127309524Y-62285476D01*
X127214286Y-62333095D01*
X127023810Y-62380714D01*
X126880952Y-62380714D01*
X126690476Y-62333095D01*
X126595238Y-62285476D01*
X126500000Y-62190238D01*
X126452381Y-62047380D01*
X126452381Y-61952142D01*
X126500000Y-61809285D01*
X126547619Y-61761666D01*
X127452381Y-60809285D02*
X127452381Y-61380714D01*
X127452381Y-61095000D02*
X126452381Y-61095000D01*
X126595238Y-61190238D01*
X126690476Y-61285476D01*
X126738095Y-61380714D01*
X113482381Y-59158095D02*
X112482381Y-59158095D01*
X112482381Y-58920000D01*
X112530000Y-58777142D01*
X112625238Y-58681904D01*
X112720476Y-58634285D01*
X112910952Y-58586666D01*
X113053810Y-58586666D01*
X113244286Y-58634285D01*
X113339524Y-58681904D01*
X113434762Y-58777142D01*
X113482381Y-58920000D01*
X113482381Y-59158095D01*
X113482381Y-57634285D02*
X113482381Y-58205714D01*
X113482381Y-57920000D02*
X112482381Y-57920000D01*
X112625238Y-58015238D01*
X112720476Y-58110476D01*
X112768095Y-58205714D01*
X156451381Y-58238095D02*
X155451381Y-58238095D01*
X155451381Y-58000000D01*
X155499000Y-57857142D01*
X155594238Y-57761904D01*
X155689476Y-57714285D01*
X155879952Y-57666666D01*
X156022810Y-57666666D01*
X156213286Y-57714285D01*
X156308524Y-57761904D01*
X156403762Y-57857142D01*
X156451381Y-58000000D01*
X156451381Y-58238095D01*
X155546619Y-57285714D02*
X155499000Y-57238095D01*
X155451381Y-57142857D01*
X155451381Y-56904761D01*
X155499000Y-56809523D01*
X155546619Y-56761904D01*
X155641857Y-56714285D01*
X155737095Y-56714285D01*
X155879952Y-56761904D01*
X156451381Y-57333333D01*
X156451381Y-56714285D01*
X143118381Y-59793095D02*
X142118381Y-59793095D01*
X142118381Y-59555000D01*
X142166000Y-59412142D01*
X142261238Y-59316904D01*
X142356476Y-59269285D01*
X142546952Y-59221666D01*
X142689810Y-59221666D01*
X142880286Y-59269285D01*
X142975524Y-59316904D01*
X143070762Y-59412142D01*
X143118381Y-59555000D01*
X143118381Y-59793095D01*
X142118381Y-58888333D02*
X142118381Y-58269285D01*
X142499333Y-58602619D01*
X142499333Y-58459761D01*
X142546952Y-58364523D01*
X142594571Y-58316904D01*
X142689810Y-58269285D01*
X142927905Y-58269285D01*
X143023143Y-58316904D01*
X143070762Y-58364523D01*
X143118381Y-58459761D01*
X143118381Y-58745476D01*
X143070762Y-58840714D01*
X143023143Y-58888333D01*
X129357381Y-62333095D02*
X128357381Y-62333095D01*
X128357381Y-62095000D01*
X128405000Y-61952142D01*
X128500238Y-61856904D01*
X128595476Y-61809285D01*
X128785952Y-61761666D01*
X128928810Y-61761666D01*
X129119286Y-61809285D01*
X129214524Y-61856904D01*
X129309762Y-61952142D01*
X129357381Y-62095000D01*
X129357381Y-62333095D01*
X128690714Y-60904523D02*
X129357381Y-60904523D01*
X128309762Y-61142619D02*
X129024048Y-61380714D01*
X129024048Y-60761666D01*
X109648667Y-63123381D02*
X109648667Y-63837667D01*
X109601047Y-63980524D01*
X109505809Y-64075762D01*
X109362952Y-64123381D01*
X109267714Y-64123381D01*
X110648667Y-64123381D02*
X110077238Y-64123381D01*
X110362952Y-64123381D02*
X110362952Y-63123381D01*
X110267714Y-63266238D01*
X110172476Y-63361476D01*
X110077238Y-63409095D01*
X113482381Y-61126666D02*
X113006190Y-61460000D01*
X113482381Y-61698095D02*
X112482381Y-61698095D01*
X112482381Y-61317142D01*
X112530000Y-61221904D01*
X112577619Y-61174285D01*
X112672857Y-61126666D01*
X112815714Y-61126666D01*
X112910952Y-61174285D01*
X112958571Y-61221904D01*
X113006190Y-61317142D01*
X113006190Y-61698095D01*
X113482381Y-60174285D02*
X113482381Y-60745714D01*
X113482381Y-60460000D02*
X112482381Y-60460000D01*
X112625238Y-60555238D01*
X112720476Y-60650476D01*
X112768095Y-60745714D01*
X156535381Y-61126666D02*
X156059190Y-61460000D01*
X156535381Y-61698095D02*
X155535381Y-61698095D01*
X155535381Y-61317142D01*
X155583000Y-61221904D01*
X155630619Y-61174285D01*
X155725857Y-61126666D01*
X155868714Y-61126666D01*
X155963952Y-61174285D01*
X156011571Y-61221904D01*
X156059190Y-61317142D01*
X156059190Y-61698095D01*
X155630619Y-60745714D02*
X155583000Y-60698095D01*
X155535381Y-60602857D01*
X155535381Y-60364761D01*
X155583000Y-60269523D01*
X155630619Y-60221904D01*
X155725857Y-60174285D01*
X155821095Y-60174285D01*
X155963952Y-60221904D01*
X156535381Y-60793333D01*
X156535381Y-60174285D01*
X140168334Y-63317381D02*
X139835000Y-62841190D01*
X139596905Y-63317381D02*
X139596905Y-62317381D01*
X139977858Y-62317381D01*
X140073096Y-62365000D01*
X140120715Y-62412619D01*
X140168334Y-62507857D01*
X140168334Y-62650714D01*
X140120715Y-62745952D01*
X140073096Y-62793571D01*
X139977858Y-62841190D01*
X139596905Y-62841190D01*
X140501667Y-62317381D02*
X141120715Y-62317381D01*
X140787381Y-62698333D01*
X140930239Y-62698333D01*
X141025477Y-62745952D01*
X141073096Y-62793571D01*
X141120715Y-62888810D01*
X141120715Y-63126905D01*
X141073096Y-63222143D01*
X141025477Y-63269762D01*
X140930239Y-63317381D01*
X140644524Y-63317381D01*
X140549286Y-63269762D01*
X140501667Y-63222143D01*
X131278334Y-62047381D02*
X130945000Y-61571190D01*
X130706905Y-62047381D02*
X130706905Y-61047381D01*
X131087858Y-61047381D01*
X131183096Y-61095000D01*
X131230715Y-61142619D01*
X131278334Y-61237857D01*
X131278334Y-61380714D01*
X131230715Y-61475952D01*
X131183096Y-61523571D01*
X131087858Y-61571190D01*
X130706905Y-61571190D01*
X132135477Y-61380714D02*
X132135477Y-62047381D01*
X131897381Y-60999762D02*
X131659286Y-61714048D01*
X132278334Y-61714048D01*
X122388334Y-51252381D02*
X122055000Y-50776190D01*
X121816905Y-51252381D02*
X121816905Y-50252381D01*
X122197858Y-50252381D01*
X122293096Y-50300000D01*
X122340715Y-50347619D01*
X122388334Y-50442857D01*
X122388334Y-50585714D01*
X122340715Y-50680952D01*
X122293096Y-50728571D01*
X122197858Y-50776190D01*
X121816905Y-50776190D01*
X123293096Y-50252381D02*
X122816905Y-50252381D01*
X122769286Y-50728571D01*
X122816905Y-50680952D01*
X122912143Y-50633333D01*
X123150239Y-50633333D01*
X123245477Y-50680952D01*
X123293096Y-50728571D01*
X123340715Y-50823810D01*
X123340715Y-51061905D01*
X123293096Y-51157143D01*
X123245477Y-51204762D01*
X123150239Y-51252381D01*
X122912143Y-51252381D01*
X122816905Y-51204762D01*
X122769286Y-51157143D01*
X135707381Y-61126666D02*
X135231190Y-61460000D01*
X135707381Y-61698095D02*
X134707381Y-61698095D01*
X134707381Y-61317142D01*
X134755000Y-61221904D01*
X134802619Y-61174285D01*
X134897857Y-61126666D01*
X135040714Y-61126666D01*
X135135952Y-61174285D01*
X135183571Y-61221904D01*
X135231190Y-61317142D01*
X135231190Y-61698095D01*
X134707381Y-60269523D02*
X134707381Y-60460000D01*
X134755000Y-60555238D01*
X134802619Y-60602857D01*
X134945476Y-60698095D01*
X135135952Y-60745714D01*
X135516905Y-60745714D01*
X135612143Y-60698095D01*
X135659762Y-60650476D01*
X135707381Y-60555238D01*
X135707381Y-60364761D01*
X135659762Y-60269523D01*
X135612143Y-60221904D01*
X135516905Y-60174285D01*
X135278810Y-60174285D01*
X135183571Y-60221904D01*
X135135952Y-60269523D01*
X135088333Y-60364761D01*
X135088333Y-60555238D01*
X135135952Y-60650476D01*
X135183571Y-60698095D01*
X135278810Y-60745714D01*
X117308334Y-51252381D02*
X116975000Y-50776190D01*
X116736905Y-51252381D02*
X116736905Y-50252381D01*
X117117858Y-50252381D01*
X117213096Y-50300000D01*
X117260715Y-50347619D01*
X117308334Y-50442857D01*
X117308334Y-50585714D01*
X117260715Y-50680952D01*
X117213096Y-50728571D01*
X117117858Y-50776190D01*
X116736905Y-50776190D01*
X117641667Y-50252381D02*
X118308334Y-50252381D01*
X117879762Y-51252381D01*
X111593334Y-54427381D02*
X111260000Y-53951190D01*
X111021905Y-54427381D02*
X111021905Y-53427381D01*
X111402858Y-53427381D01*
X111498096Y-53475000D01*
X111545715Y-53522619D01*
X111593334Y-53617857D01*
X111593334Y-53760714D01*
X111545715Y-53855952D01*
X111498096Y-53903571D01*
X111402858Y-53951190D01*
X111021905Y-53951190D01*
X112164762Y-53855952D02*
X112069524Y-53808333D01*
X112021905Y-53760714D01*
X111974286Y-53665476D01*
X111974286Y-53617857D01*
X112021905Y-53522619D01*
X112069524Y-53475000D01*
X112164762Y-53427381D01*
X112355239Y-53427381D01*
X112450477Y-53475000D01*
X112498096Y-53522619D01*
X112545715Y-53617857D01*
X112545715Y-53665476D01*
X112498096Y-53760714D01*
X112450477Y-53808333D01*
X112355239Y-53855952D01*
X112164762Y-53855952D01*
X112069524Y-53903571D01*
X112021905Y-53951190D01*
X111974286Y-54046429D01*
X111974286Y-54236905D01*
X112021905Y-54332143D01*
X112069524Y-54379762D01*
X112164762Y-54427381D01*
X112355239Y-54427381D01*
X112450477Y-54379762D01*
X112498096Y-54332143D01*
X112545715Y-54236905D01*
X112545715Y-54046429D01*
X112498096Y-53951190D01*
X112450477Y-53903571D01*
X112355239Y-53855952D01*
X111593334Y-52522381D02*
X111260000Y-52046190D01*
X111021905Y-52522381D02*
X111021905Y-51522381D01*
X111402858Y-51522381D01*
X111498096Y-51570000D01*
X111545715Y-51617619D01*
X111593334Y-51712857D01*
X111593334Y-51855714D01*
X111545715Y-51950952D01*
X111498096Y-51998571D01*
X111402858Y-52046190D01*
X111021905Y-52046190D01*
X112069524Y-52522381D02*
X112260000Y-52522381D01*
X112355239Y-52474762D01*
X112402858Y-52427143D01*
X112498096Y-52284286D01*
X112545715Y-52093810D01*
X112545715Y-51712857D01*
X112498096Y-51617619D01*
X112450477Y-51570000D01*
X112355239Y-51522381D01*
X112164762Y-51522381D01*
X112069524Y-51570000D01*
X112021905Y-51617619D01*
X111974286Y-51712857D01*
X111974286Y-51950952D01*
X112021905Y-52046190D01*
X112069524Y-52093810D01*
X112164762Y-52141429D01*
X112355239Y-52141429D01*
X112450477Y-52093810D01*
X112498096Y-52046190D01*
X112545715Y-51950952D01*
X116713095Y-63587381D02*
X116713095Y-64396905D01*
X116760714Y-64492143D01*
X116808333Y-64539762D01*
X116903571Y-64587381D01*
X117094048Y-64587381D01*
X117189286Y-64539762D01*
X117236905Y-64492143D01*
X117284524Y-64396905D01*
X117284524Y-63587381D01*
X118284524Y-64587381D02*
X117713095Y-64587381D01*
X117998809Y-64587381D02*
X117998809Y-63587381D01*
X117903571Y-63730238D01*
X117808333Y-63825476D01*
X117713095Y-63873095D01*
X150225167Y-60837381D02*
X150225167Y-61551667D01*
X150177547Y-61694524D01*
X150082309Y-61789762D01*
X149939452Y-61837381D01*
X149844214Y-61837381D01*
X150606119Y-60837381D02*
X151225167Y-60837381D01*
X150891833Y-61218333D01*
X151034691Y-61218333D01*
X151129929Y-61265952D01*
X151177548Y-61313571D01*
X151225167Y-61408810D01*
X151225167Y-61646905D01*
X151177548Y-61742143D01*
X151129929Y-61789762D01*
X151034691Y-61837381D01*
X150748976Y-61837381D01*
X150653738Y-61789762D01*
X150606119Y-61742143D01*
X145018167Y-58551381D02*
X145018167Y-59265667D01*
X144970547Y-59408524D01*
X144875309Y-59503762D01*
X144732452Y-59551381D01*
X144637214Y-59551381D01*
X145922929Y-58884714D02*
X145922929Y-59551381D01*
X145684833Y-58503762D02*
X145446738Y-59218048D01*
X146065786Y-59218048D01*
X159242167Y-58614881D02*
X159242167Y-59329167D01*
X159194547Y-59472024D01*
X159099309Y-59567262D01*
X158956452Y-59614881D01*
X158861214Y-59614881D01*
X159670738Y-58710119D02*
X159718357Y-58662500D01*
X159813595Y-58614881D01*
X160051691Y-58614881D01*
X160146929Y-58662500D01*
X160194548Y-58710119D01*
X160242167Y-58805357D01*
X160242167Y-58900595D01*
X160194548Y-59043452D01*
X159623119Y-59614881D01*
X160242167Y-59614881D01*
X133651667Y-58507381D02*
X133651667Y-59221667D01*
X133604047Y-59364524D01*
X133508809Y-59459762D01*
X133365952Y-59507381D01*
X133270714Y-59507381D01*
X134604048Y-58507381D02*
X134127857Y-58507381D01*
X134080238Y-58983571D01*
X134127857Y-58935952D01*
X134223095Y-58888333D01*
X134461191Y-58888333D01*
X134556429Y-58935952D01*
X134604048Y-58983571D01*
X134651667Y-59078810D01*
X134651667Y-59316905D01*
X134604048Y-59412143D01*
X134556429Y-59459762D01*
X134461191Y-59507381D01*
X134223095Y-59507381D01*
X134127857Y-59459762D01*
X134080238Y-59412143D01*
M02*
