M48
;DRILL file {KiCad 4.0.6} date Monday, August 21, 2017 'PMt' 07:07:17 PM
;FORMAT={2:4/ absolute / inch / suppress leading zeros}
FMAT,2
INCH,TZ
T1C0.016
T2C0.039
T3C0.043
T4C0.177
%
G90
G05
M72
T1
X44100Y-20900
X44100Y-21550
X44500Y-22500
X44750Y-20250
X47055Y-21825
X47950Y-22100
X48000Y-21300
X48100Y-20300
X48100Y-22600
X48300Y-21550
X48500Y-22350
X50075Y-22550
X50550Y-23850
X50850Y-21950
X51100Y-21300
X51150Y-23000
X51550Y-21300
X51625Y-23150
X52125Y-22925
X52278Y-23455
X52600Y-21400
X53150Y-21400
X54350Y-23550
X55150Y-21650
X56100Y-22700
X60800Y-21800
T2
X43300Y-23150
X43300Y-24150
X57225Y-21350
X57225Y-22350
X59275Y-22250
X59275Y-23250
X62825Y-21375
X62825Y-22375
T3
X50258Y-21850
X55750Y-21850
T4
X41339Y-22638
X64961Y-22638
T0
M30
