G04 #@! TF.FileFunction,Copper,L1,Top,Signal*
%FSLAX46Y46*%
G04 Gerber Fmt 4.6, Leading zero omitted, Abs format (unit mm)*
G04 Created by KiCad (PCBNEW 4.0.6) date Monday, August 21, 2017 'PMt' 07:07:08 PM*
%MOMM*%
%LPD*%
G01*
G04 APERTURE LIST*
%ADD10C,0.100000*%
%ADD11R,0.750000X0.800000*%
%ADD12R,0.797560X0.797560*%
%ADD13R,1.700000X1.700000*%
%ADD14O,1.700000X1.700000*%
%ADD15R,0.900000X0.500000*%
%ADD16R,0.500000X0.900000*%
%ADD17R,1.750000X0.450000*%
%ADD18C,1.500000*%
%ADD19R,2.000000X2.600000*%
%ADD20R,0.700000X1.800000*%
%ADD21C,5.000000*%
%ADD22C,0.700000*%
%ADD23C,0.250000*%
G04 APERTURE END LIST*
D10*
D11*
X126873000Y-60007500D03*
X126873000Y-58507500D03*
D12*
X114500000Y-58249300D03*
X114500000Y-56750700D03*
X154499000Y-58249300D03*
X154499000Y-56750700D03*
X141166000Y-59169300D03*
X141166000Y-57670700D03*
X128524000Y-59169300D03*
X128524000Y-57670700D03*
D13*
X109982000Y-61341000D03*
D14*
X109982000Y-58801000D03*
D15*
X114554000Y-61202000D03*
X114554000Y-59702000D03*
X154432000Y-61722000D03*
X154432000Y-60222000D03*
D16*
X139585000Y-60833000D03*
X141085000Y-60833000D03*
X131433000Y-60198000D03*
X129933000Y-60198000D03*
X121019000Y-51562000D03*
X119519000Y-51562000D03*
D15*
X136652000Y-60567000D03*
X136652000Y-59067000D03*
D16*
X114820000Y-51435000D03*
X116320000Y-51435000D03*
X113169000Y-54737000D03*
X114669000Y-54737000D03*
X113169000Y-53086000D03*
X114669000Y-53086000D03*
D17*
X124885000Y-62645000D03*
X124885000Y-61995000D03*
X124885000Y-61345000D03*
X124885000Y-60695000D03*
X124885000Y-60045000D03*
X124885000Y-59395000D03*
X124885000Y-58745000D03*
X124885000Y-58095000D03*
X124885000Y-57445000D03*
X124885000Y-56795000D03*
X124885000Y-56145000D03*
X124885000Y-55495000D03*
X124885000Y-54845000D03*
X124885000Y-54195000D03*
X117685000Y-54195000D03*
X117685000Y-54845000D03*
X117685000Y-55495000D03*
X117685000Y-56145000D03*
X117685000Y-56795000D03*
X117685000Y-57445000D03*
X117685000Y-58095000D03*
X117685000Y-58745000D03*
X117685000Y-59395000D03*
X117685000Y-60045000D03*
X117685000Y-60695000D03*
X117685000Y-61345000D03*
X117685000Y-61995000D03*
X117685000Y-62645000D03*
D13*
X150558500Y-59055000D03*
D14*
X150558500Y-56515000D03*
D13*
X145351500Y-56769000D03*
D14*
X145351500Y-54229000D03*
D13*
X159575500Y-56832500D03*
D14*
X159575500Y-54292500D03*
D18*
X141605000Y-55499000D03*
X127655000Y-55499000D03*
D19*
X127855000Y-51499000D03*
X141405000Y-51499000D03*
D20*
X130255000Y-56599000D03*
X131505000Y-56599000D03*
X132755000Y-56599000D03*
X134005000Y-56599000D03*
X135255000Y-56599000D03*
X136505000Y-56599000D03*
X137755000Y-56599000D03*
X139005000Y-56599000D03*
D21*
X105000000Y-57500000D03*
X165000000Y-57500000D03*
D22*
X113030000Y-57150000D03*
X128397000Y-60579000D03*
X140081000Y-54991000D03*
X123190000Y-56769000D03*
X154432000Y-55372000D03*
X142494000Y-57658000D03*
X112014000Y-54737000D03*
X112014000Y-53086000D03*
X129921000Y-58420000D03*
X127190500Y-57277000D03*
X129159000Y-55753000D03*
X122174000Y-51562000D03*
X138049000Y-59817000D03*
X113665000Y-51435000D03*
X131127500Y-58801000D03*
X129794000Y-54102000D03*
X122682000Y-54737000D03*
X121920000Y-54102000D03*
X130937000Y-54102000D03*
X121793000Y-56134000D03*
X133604000Y-54356000D03*
X119519000Y-55436000D03*
X135001000Y-54356000D03*
X132397500Y-58229500D03*
X122174000Y-57404000D03*
X132785869Y-59576425D03*
D23*
X114500000Y-56750700D02*
X113429300Y-56750700D01*
X113429300Y-56750700D02*
X113030000Y-57150000D01*
X126873000Y-60007500D02*
X127825500Y-60007500D01*
X127825500Y-60007500D02*
X128397000Y-60579000D01*
X138995000Y-56345000D02*
X138995000Y-56077000D01*
X138995000Y-56077000D02*
X140081000Y-54991000D01*
X124885000Y-56795000D02*
X123216000Y-56795000D01*
X123216000Y-56795000D02*
X123190000Y-56769000D01*
X154499000Y-56750700D02*
X154499000Y-55439000D01*
X154499000Y-55439000D02*
X154432000Y-55372000D01*
X141166000Y-57670700D02*
X142481300Y-57670700D01*
X142481300Y-57670700D02*
X142494000Y-57658000D01*
X113169000Y-54737000D02*
X112014000Y-54737000D01*
X113169000Y-53086000D02*
X112014000Y-53086000D01*
X128524000Y-57670700D02*
X129171700Y-57670700D01*
X129171700Y-57670700D02*
X129921000Y-58420000D01*
X126873000Y-57507500D02*
X126960000Y-57507500D01*
X126960000Y-57507500D02*
X127190500Y-57277000D01*
X126873000Y-57857500D02*
X126873000Y-57507500D01*
X124885000Y-57445000D02*
X126460500Y-57445000D01*
X126460500Y-57445000D02*
X126873000Y-57857500D01*
X126873000Y-57857500D02*
X126873000Y-58507500D01*
X130255000Y-56599000D02*
X130005000Y-56599000D01*
X130005000Y-56599000D02*
X129159000Y-55753000D01*
X121019000Y-51562000D02*
X122174000Y-51562000D01*
X136652000Y-60567000D02*
X137299000Y-60567000D01*
X137299000Y-60567000D02*
X138049000Y-59817000D01*
X114820000Y-51435000D02*
X113665000Y-51435000D01*
X130245000Y-56345000D02*
X130245000Y-55950000D01*
X109982000Y-58801000D02*
X110883000Y-59702000D01*
X110883000Y-59702000D02*
X114554000Y-59702000D01*
X114554000Y-59702000D02*
X114554000Y-58303300D01*
X114554000Y-58303300D02*
X114500000Y-58249300D01*
X154432000Y-60222000D02*
X154432000Y-59436000D01*
X154432000Y-59436000D02*
X159575500Y-54292500D01*
X154432000Y-60071000D02*
X154432000Y-58316300D01*
X154432000Y-58316300D02*
X154499000Y-58249300D01*
X141085000Y-60833000D02*
X146240500Y-60833000D01*
X146240500Y-60833000D02*
X150558500Y-56515000D01*
X141085000Y-60833000D02*
X141085000Y-59250300D01*
X141085000Y-59250300D02*
X141166000Y-59169300D01*
X129933000Y-60198000D02*
X129933000Y-59995500D01*
X129933000Y-59995500D02*
X131127500Y-58801000D01*
X129933000Y-60198000D02*
X129552700Y-60198000D01*
X129552700Y-60198000D02*
X128524000Y-59169300D01*
X109982000Y-61341000D02*
X114415000Y-61341000D01*
X114415000Y-61341000D02*
X114554000Y-61202000D01*
X114554000Y-61202000D02*
X114554000Y-61702000D01*
X123760000Y-62645000D02*
X124885000Y-62645000D01*
X114554000Y-61702000D02*
X116047001Y-63195001D01*
X116047001Y-63195001D02*
X123209999Y-63195001D01*
X123209999Y-63195001D02*
X123760000Y-62645000D01*
X129794000Y-54102000D02*
X131505000Y-55813000D01*
X131505000Y-55813000D02*
X131505000Y-56599000D01*
X129802000Y-54102000D02*
X129794000Y-54102000D01*
X122682000Y-54737000D02*
X122790000Y-54845000D01*
X122790000Y-54845000D02*
X124885000Y-54845000D01*
X130937000Y-54102000D02*
X132755000Y-55920000D01*
X132755000Y-55920000D02*
X132755000Y-56599000D01*
X121920000Y-54102000D02*
X122269999Y-53752001D01*
X122269999Y-53752001D02*
X123317001Y-53752001D01*
X123317001Y-53752001D02*
X123760000Y-54195000D01*
X123760000Y-54195000D02*
X124885000Y-54195000D01*
X124792000Y-54102000D02*
X124885000Y-54195000D01*
X131052000Y-54102000D02*
X130937000Y-54102000D01*
X133604000Y-54356000D02*
X134005000Y-54757000D01*
X134005000Y-54757000D02*
X134005000Y-56599000D01*
X124885000Y-55495000D02*
X122432000Y-55495000D01*
X122432000Y-55495000D02*
X121793000Y-56134000D01*
X124793001Y-55403001D02*
X124885000Y-55495000D01*
X135001000Y-54356000D02*
X135001000Y-56345000D01*
X135001000Y-56345000D02*
X135255000Y-56599000D01*
X119519000Y-51562000D02*
X119519000Y-55436000D01*
X119519000Y-55436000D02*
X118810000Y-56145000D01*
X118810000Y-56145000D02*
X117685000Y-56145000D01*
X136505000Y-56599000D02*
X136505000Y-57149000D01*
X136505000Y-57149000D02*
X135424500Y-58229500D01*
X135424500Y-58229500D02*
X132397500Y-58229500D01*
X122174000Y-57404000D02*
X122174000Y-56785998D01*
X122174000Y-56785998D02*
X122914997Y-56045001D01*
X122914997Y-56045001D02*
X124785001Y-56045001D01*
X124785001Y-56045001D02*
X124885000Y-56145000D01*
X136495000Y-56345000D02*
X136495000Y-57307000D01*
X136495000Y-56345000D02*
X136495000Y-58910000D01*
X136495000Y-58910000D02*
X136652000Y-59067000D01*
X154432000Y-61722000D02*
X154632000Y-61722000D01*
X154632000Y-61722000D02*
X159521500Y-56832500D01*
X159521500Y-56832500D02*
X159575500Y-56832500D01*
X124885000Y-61995000D02*
X126023590Y-61995000D01*
X126023590Y-61995000D02*
X126309611Y-62281021D01*
X126309611Y-62281021D02*
X153672979Y-62281021D01*
X153672979Y-62281021D02*
X154232000Y-61722000D01*
X154232000Y-61722000D02*
X154432000Y-61722000D01*
X139837500Y-61785500D02*
X146728000Y-61785500D01*
X146728000Y-61785500D02*
X149458500Y-59055000D01*
X149458500Y-59055000D02*
X150558500Y-59055000D01*
X139585000Y-60833000D02*
X139585000Y-61533000D01*
X139585000Y-61533000D02*
X139837500Y-61785500D01*
X124885000Y-61345000D02*
X126010000Y-61345000D01*
X126010000Y-61345000D02*
X126496011Y-61831011D01*
X139085000Y-60833000D02*
X139585000Y-60833000D01*
X126496011Y-61831011D02*
X138086989Y-61831011D01*
X138086989Y-61831011D02*
X139085000Y-60833000D01*
X131433000Y-60198000D02*
X132164294Y-60198000D01*
X132164294Y-60198000D02*
X132785869Y-59576425D01*
X127691999Y-61381001D02*
X127889000Y-61381001D01*
X127889000Y-61381001D02*
X130449999Y-61381001D01*
X126071704Y-60695000D02*
X126757705Y-61381001D01*
X126757705Y-61381001D02*
X127889000Y-61381001D01*
X124885000Y-60695000D02*
X126071704Y-60695000D01*
X130449999Y-61381001D02*
X131433000Y-60398000D01*
X131433000Y-60398000D02*
X131433000Y-60198000D01*
X117685000Y-54195000D02*
X117685000Y-52300000D01*
X117685000Y-52300000D02*
X116820000Y-51435000D01*
X116820000Y-51435000D02*
X116320000Y-51435000D01*
X114669000Y-54737000D02*
X115483590Y-54737000D01*
X115483590Y-54737000D02*
X116241590Y-55495000D01*
X116241590Y-55495000D02*
X117685000Y-55495000D01*
X117685000Y-54845000D02*
X116228000Y-54845000D01*
X116228000Y-54845000D02*
X114669000Y-53286000D01*
X114669000Y-53286000D02*
X114669000Y-53086000D01*
M02*
