G04 #@! TF.FileFunction,Copper,L2,Inr,Plane*
%FSLAX46Y46*%
G04 Gerber Fmt 4.6, Leading zero omitted, Abs format (unit mm)*
G04 Created by KiCad (PCBNEW 4.0.6) date Monday, August 21, 2017 'PMt' 07:07:08 PM*
%MOMM*%
%LPD*%
G01*
G04 APERTURE LIST*
%ADD10C,0.100000*%
%ADD11R,1.700000X1.700000*%
%ADD12O,1.700000X1.700000*%
%ADD13C,1.500000*%
%ADD14C,5.000000*%
%ADD15C,0.700000*%
%ADD16C,0.254000*%
G04 APERTURE END LIST*
D10*
D11*
X109982000Y-61341000D03*
D12*
X109982000Y-58801000D03*
D11*
X150558500Y-59055000D03*
D12*
X150558500Y-56515000D03*
D11*
X145351500Y-56769000D03*
D12*
X145351500Y-54229000D03*
D11*
X159575500Y-56832500D03*
D12*
X159575500Y-54292500D03*
D13*
X141605000Y-55499000D03*
X127655000Y-55499000D03*
D14*
X105000000Y-57500000D03*
X165000000Y-57500000D03*
D15*
X113030000Y-57150000D03*
X128397000Y-60579000D03*
X140081000Y-54991000D03*
X123190000Y-56769000D03*
X154432000Y-55372000D03*
X142494000Y-57658000D03*
X112014000Y-54737000D03*
X112014000Y-53086000D03*
X129921000Y-58420000D03*
X127190500Y-57277000D03*
X129159000Y-55753000D03*
X122174000Y-51562000D03*
X138049000Y-59817000D03*
X113665000Y-51435000D03*
X131127500Y-58801000D03*
X129794000Y-54102000D03*
X122682000Y-54737000D03*
X121920000Y-54102000D03*
X130937000Y-54102000D03*
X121793000Y-56134000D03*
X133604000Y-54356000D03*
X119519000Y-55436000D03*
X135001000Y-54356000D03*
X132397500Y-58229500D03*
X122174000Y-57404000D03*
X132785869Y-59576425D03*
D16*
G36*
X112830445Y-50876314D02*
X112680172Y-51238212D01*
X112679830Y-51630069D01*
X112829471Y-51992229D01*
X113106314Y-52269555D01*
X113468212Y-52419828D01*
X113860069Y-52420170D01*
X114222229Y-52270529D01*
X114499555Y-51993686D01*
X114649828Y-51631788D01*
X114650170Y-51239931D01*
X114500529Y-50877771D01*
X114333050Y-50710000D01*
X121656634Y-50710000D01*
X121616771Y-50726471D01*
X121339445Y-51003314D01*
X121189172Y-51365212D01*
X121188830Y-51757069D01*
X121338471Y-52119229D01*
X121615314Y-52396555D01*
X121977212Y-52546828D01*
X122369069Y-52547170D01*
X122731229Y-52397529D01*
X123008555Y-52120686D01*
X123158828Y-51758788D01*
X123159170Y-51366931D01*
X123009529Y-51004771D01*
X122732686Y-50727445D01*
X122690674Y-50710000D01*
X169290000Y-50710000D01*
X169290000Y-64290000D01*
X100710000Y-64290000D01*
X100710000Y-58120854D01*
X101864457Y-58120854D01*
X102340727Y-59273515D01*
X103221847Y-60156174D01*
X104373674Y-60634454D01*
X105620854Y-60635543D01*
X106773515Y-60159273D01*
X107656174Y-59278153D01*
X107854305Y-58801000D01*
X108467907Y-58801000D01*
X108580946Y-59369285D01*
X108902853Y-59851054D01*
X108944452Y-59878850D01*
X108896683Y-59887838D01*
X108680559Y-60026910D01*
X108535569Y-60239110D01*
X108484560Y-60491000D01*
X108484560Y-62191000D01*
X108528838Y-62426317D01*
X108667910Y-62642441D01*
X108880110Y-62787431D01*
X109132000Y-62838440D01*
X110832000Y-62838440D01*
X111067317Y-62794162D01*
X111283441Y-62655090D01*
X111428431Y-62442890D01*
X111479440Y-62191000D01*
X111479440Y-60491000D01*
X111435162Y-60255683D01*
X111296090Y-60039559D01*
X111083890Y-59894569D01*
X111016459Y-59880914D01*
X111061147Y-59851054D01*
X111383054Y-59369285D01*
X111457291Y-58996069D01*
X130142330Y-58996069D01*
X130291971Y-59358229D01*
X130568814Y-59635555D01*
X130930712Y-59785828D01*
X131322569Y-59786170D01*
X131684729Y-59636529D01*
X131800918Y-59520542D01*
X131800699Y-59771494D01*
X131950340Y-60133654D01*
X132227183Y-60410980D01*
X132589081Y-60561253D01*
X132980938Y-60561595D01*
X133343098Y-60411954D01*
X133620424Y-60135111D01*
X133671515Y-60012069D01*
X137063830Y-60012069D01*
X137213471Y-60374229D01*
X137490314Y-60651555D01*
X137852212Y-60801828D01*
X138244069Y-60802170D01*
X138606229Y-60652529D01*
X138883555Y-60375686D01*
X139033828Y-60013788D01*
X139034170Y-59621931D01*
X138884529Y-59259771D01*
X138607686Y-58982445D01*
X138245788Y-58832172D01*
X137853931Y-58831830D01*
X137491771Y-58981471D01*
X137214445Y-59258314D01*
X137064172Y-59620212D01*
X137063830Y-60012069D01*
X133671515Y-60012069D01*
X133770697Y-59773213D01*
X133771039Y-59381356D01*
X133621398Y-59019196D01*
X133344555Y-58741870D01*
X133265003Y-58708837D01*
X133382328Y-58426288D01*
X133382670Y-58034431D01*
X133233029Y-57672271D01*
X132956186Y-57394945D01*
X132594288Y-57244672D01*
X132202431Y-57244330D01*
X131840271Y-57393971D01*
X131562945Y-57670814D01*
X131476366Y-57879320D01*
X131324288Y-57816172D01*
X130932431Y-57815830D01*
X130570271Y-57965471D01*
X130292945Y-58242314D01*
X130142672Y-58604212D01*
X130142330Y-58996069D01*
X111457291Y-58996069D01*
X111496093Y-58801000D01*
X111383054Y-58232715D01*
X111061147Y-57750946D01*
X110579378Y-57429039D01*
X110011093Y-57316000D01*
X109952907Y-57316000D01*
X109384622Y-57429039D01*
X108902853Y-57750946D01*
X108580946Y-58232715D01*
X108467907Y-58801000D01*
X107854305Y-58801000D01*
X108134454Y-58126326D01*
X108135543Y-56879146D01*
X107659273Y-55726485D01*
X107564024Y-55631069D01*
X118533830Y-55631069D01*
X118683471Y-55993229D01*
X118960314Y-56270555D01*
X119322212Y-56420828D01*
X119714069Y-56421170D01*
X119936971Y-56329069D01*
X120807830Y-56329069D01*
X120957471Y-56691229D01*
X121234314Y-56968555D01*
X121280336Y-56987665D01*
X121189172Y-57207212D01*
X121188830Y-57599069D01*
X121338471Y-57961229D01*
X121615314Y-58238555D01*
X121977212Y-58388828D01*
X122369069Y-58389170D01*
X122731229Y-58239529D01*
X123008555Y-57962686D01*
X123158828Y-57600788D01*
X123158940Y-57472069D01*
X126205330Y-57472069D01*
X126354971Y-57834229D01*
X126631814Y-58111555D01*
X126993712Y-58261828D01*
X127385569Y-58262170D01*
X127747729Y-58112529D01*
X128025055Y-57835686D01*
X128175328Y-57473788D01*
X128175670Y-57081931D01*
X128069968Y-56826111D01*
X128438515Y-56673831D01*
X128562693Y-56549869D01*
X128600314Y-56587555D01*
X128962212Y-56737828D01*
X129354069Y-56738170D01*
X129716229Y-56588529D01*
X129993555Y-56311686D01*
X130143828Y-55949788D01*
X130143982Y-55773285D01*
X140219760Y-55773285D01*
X140430169Y-56282515D01*
X140819436Y-56672461D01*
X141328298Y-56883759D01*
X141879285Y-56884240D01*
X142388515Y-56673831D01*
X142778461Y-56284564D01*
X142989759Y-55775702D01*
X142990240Y-55224715D01*
X142779831Y-54715485D01*
X142390564Y-54325539D01*
X142158073Y-54229000D01*
X143837407Y-54229000D01*
X143950446Y-54797285D01*
X144272353Y-55279054D01*
X144313952Y-55306850D01*
X144266183Y-55315838D01*
X144050059Y-55454910D01*
X143905069Y-55667110D01*
X143854060Y-55919000D01*
X143854060Y-57619000D01*
X143898338Y-57854317D01*
X144037410Y-58070441D01*
X144249610Y-58215431D01*
X144501500Y-58266440D01*
X146201500Y-58266440D01*
X146436817Y-58222162D01*
X146652941Y-58083090D01*
X146797931Y-57870890D01*
X146848940Y-57619000D01*
X146848940Y-56515000D01*
X149044407Y-56515000D01*
X149157446Y-57083285D01*
X149479353Y-57565054D01*
X149520952Y-57592850D01*
X149473183Y-57601838D01*
X149257059Y-57740910D01*
X149112069Y-57953110D01*
X149061060Y-58205000D01*
X149061060Y-59905000D01*
X149105338Y-60140317D01*
X149244410Y-60356441D01*
X149456610Y-60501431D01*
X149708500Y-60552440D01*
X151408500Y-60552440D01*
X151643817Y-60508162D01*
X151859941Y-60369090D01*
X152004931Y-60156890D01*
X152055940Y-59905000D01*
X152055940Y-58205000D01*
X152011662Y-57969683D01*
X151872590Y-57753559D01*
X151660390Y-57608569D01*
X151592959Y-57594914D01*
X151637647Y-57565054D01*
X151959554Y-57083285D01*
X152072593Y-56515000D01*
X151959554Y-55946715D01*
X151637647Y-55464946D01*
X151155878Y-55143039D01*
X150587593Y-55030000D01*
X150529407Y-55030000D01*
X149961122Y-55143039D01*
X149479353Y-55464946D01*
X149157446Y-55946715D01*
X149044407Y-56515000D01*
X146848940Y-56515000D01*
X146848940Y-55919000D01*
X146804662Y-55683683D01*
X146665590Y-55467559D01*
X146453390Y-55322569D01*
X146385959Y-55308914D01*
X146430647Y-55279054D01*
X146752554Y-54797285D01*
X146852962Y-54292500D01*
X158061407Y-54292500D01*
X158174446Y-54860785D01*
X158496353Y-55342554D01*
X158537952Y-55370350D01*
X158490183Y-55379338D01*
X158274059Y-55518410D01*
X158129069Y-55730610D01*
X158078060Y-55982500D01*
X158078060Y-57682500D01*
X158122338Y-57917817D01*
X158261410Y-58133941D01*
X158473610Y-58278931D01*
X158725500Y-58329940D01*
X160425500Y-58329940D01*
X160660817Y-58285662D01*
X160876941Y-58146590D01*
X160894525Y-58120854D01*
X161864457Y-58120854D01*
X162340727Y-59273515D01*
X163221847Y-60156174D01*
X164373674Y-60634454D01*
X165620854Y-60635543D01*
X166773515Y-60159273D01*
X167656174Y-59278153D01*
X168134454Y-58126326D01*
X168135543Y-56879146D01*
X167659273Y-55726485D01*
X166778153Y-54843826D01*
X165626326Y-54365546D01*
X164379146Y-54364457D01*
X163226485Y-54840727D01*
X162343826Y-55721847D01*
X161865546Y-56873674D01*
X161864457Y-58120854D01*
X160894525Y-58120854D01*
X161021931Y-57934390D01*
X161072940Y-57682500D01*
X161072940Y-55982500D01*
X161028662Y-55747183D01*
X160889590Y-55531059D01*
X160677390Y-55386069D01*
X160609959Y-55372414D01*
X160654647Y-55342554D01*
X160976554Y-54860785D01*
X161089593Y-54292500D01*
X160976554Y-53724215D01*
X160654647Y-53242446D01*
X160172878Y-52920539D01*
X159604593Y-52807500D01*
X159546407Y-52807500D01*
X158978122Y-52920539D01*
X158496353Y-53242446D01*
X158174446Y-53724215D01*
X158061407Y-54292500D01*
X146852962Y-54292500D01*
X146865593Y-54229000D01*
X146752554Y-53660715D01*
X146430647Y-53178946D01*
X145948878Y-52857039D01*
X145380593Y-52744000D01*
X145322407Y-52744000D01*
X144754122Y-52857039D01*
X144272353Y-53178946D01*
X143950446Y-53660715D01*
X143837407Y-54229000D01*
X142158073Y-54229000D01*
X141881702Y-54114241D01*
X141330715Y-54113760D01*
X140821485Y-54324169D01*
X140431539Y-54713436D01*
X140220241Y-55222298D01*
X140219760Y-55773285D01*
X130143982Y-55773285D01*
X130144170Y-55557931D01*
X129994529Y-55195771D01*
X129886027Y-55087080D01*
X129989069Y-55087170D01*
X130351229Y-54937529D01*
X130365282Y-54923500D01*
X130378314Y-54936555D01*
X130740212Y-55086828D01*
X131132069Y-55087170D01*
X131494229Y-54937529D01*
X131771555Y-54660686D01*
X131817071Y-54551069D01*
X132618830Y-54551069D01*
X132768471Y-54913229D01*
X133045314Y-55190555D01*
X133407212Y-55340828D01*
X133799069Y-55341170D01*
X134161229Y-55191529D01*
X134302503Y-55050501D01*
X134442314Y-55190555D01*
X134804212Y-55340828D01*
X135196069Y-55341170D01*
X135558229Y-55191529D01*
X135835555Y-54914686D01*
X135985828Y-54552788D01*
X135986170Y-54160931D01*
X135836529Y-53798771D01*
X135559686Y-53521445D01*
X135197788Y-53371172D01*
X134805931Y-53370830D01*
X134443771Y-53520471D01*
X134302497Y-53661499D01*
X134162686Y-53521445D01*
X133800788Y-53371172D01*
X133408931Y-53370830D01*
X133046771Y-53520471D01*
X132769445Y-53797314D01*
X132619172Y-54159212D01*
X132618830Y-54551069D01*
X131817071Y-54551069D01*
X131921828Y-54298788D01*
X131922170Y-53906931D01*
X131772529Y-53544771D01*
X131495686Y-53267445D01*
X131133788Y-53117172D01*
X130741931Y-53116830D01*
X130379771Y-53266471D01*
X130365718Y-53280500D01*
X130352686Y-53267445D01*
X129990788Y-53117172D01*
X129598931Y-53116830D01*
X129236771Y-53266471D01*
X128959445Y-53543314D01*
X128809172Y-53905212D01*
X128808830Y-54297069D01*
X128958471Y-54659229D01*
X129066973Y-54767920D01*
X128963931Y-54767830D01*
X128867861Y-54807525D01*
X128829831Y-54715485D01*
X128440564Y-54325539D01*
X127931702Y-54114241D01*
X127380715Y-54113760D01*
X126871485Y-54324169D01*
X126481539Y-54713436D01*
X126270241Y-55222298D01*
X126269760Y-55773285D01*
X126480169Y-56282515D01*
X126637220Y-56439839D01*
X126633271Y-56441471D01*
X126355945Y-56718314D01*
X126205672Y-57080212D01*
X126205330Y-57472069D01*
X123158940Y-57472069D01*
X123159170Y-57208931D01*
X123009529Y-56846771D01*
X122732686Y-56569445D01*
X122686664Y-56550335D01*
X122777828Y-56330788D01*
X122778170Y-55938931D01*
X122688538Y-55722005D01*
X122877069Y-55722170D01*
X123239229Y-55572529D01*
X123516555Y-55295686D01*
X123666828Y-54933788D01*
X123667170Y-54541931D01*
X123517529Y-54179771D01*
X123240686Y-53902445D01*
X122878788Y-53752172D01*
X122841212Y-53752139D01*
X122755529Y-53544771D01*
X122478686Y-53267445D01*
X122116788Y-53117172D01*
X121724931Y-53116830D01*
X121362771Y-53266471D01*
X121085445Y-53543314D01*
X120935172Y-53905212D01*
X120934830Y-54297069D01*
X121084471Y-54659229D01*
X121361314Y-54936555D01*
X121723212Y-55086828D01*
X121760788Y-55086861D01*
X121786462Y-55148995D01*
X121597931Y-55148830D01*
X121235771Y-55298471D01*
X120958445Y-55575314D01*
X120808172Y-55937212D01*
X120807830Y-56329069D01*
X119936971Y-56329069D01*
X120076229Y-56271529D01*
X120353555Y-55994686D01*
X120503828Y-55632788D01*
X120504170Y-55240931D01*
X120354529Y-54878771D01*
X120077686Y-54601445D01*
X119715788Y-54451172D01*
X119323931Y-54450830D01*
X118961771Y-54600471D01*
X118684445Y-54877314D01*
X118534172Y-55239212D01*
X118533830Y-55631069D01*
X107564024Y-55631069D01*
X106778153Y-54843826D01*
X105626326Y-54365546D01*
X104379146Y-54364457D01*
X103226485Y-54840727D01*
X102343826Y-55721847D01*
X101865546Y-56873674D01*
X101864457Y-58120854D01*
X100710000Y-58120854D01*
X100710000Y-50710000D01*
X112997049Y-50710000D01*
X112830445Y-50876314D01*
X112830445Y-50876314D01*
G37*
X112830445Y-50876314D02*
X112680172Y-51238212D01*
X112679830Y-51630069D01*
X112829471Y-51992229D01*
X113106314Y-52269555D01*
X113468212Y-52419828D01*
X113860069Y-52420170D01*
X114222229Y-52270529D01*
X114499555Y-51993686D01*
X114649828Y-51631788D01*
X114650170Y-51239931D01*
X114500529Y-50877771D01*
X114333050Y-50710000D01*
X121656634Y-50710000D01*
X121616771Y-50726471D01*
X121339445Y-51003314D01*
X121189172Y-51365212D01*
X121188830Y-51757069D01*
X121338471Y-52119229D01*
X121615314Y-52396555D01*
X121977212Y-52546828D01*
X122369069Y-52547170D01*
X122731229Y-52397529D01*
X123008555Y-52120686D01*
X123158828Y-51758788D01*
X123159170Y-51366931D01*
X123009529Y-51004771D01*
X122732686Y-50727445D01*
X122690674Y-50710000D01*
X169290000Y-50710000D01*
X169290000Y-64290000D01*
X100710000Y-64290000D01*
X100710000Y-58120854D01*
X101864457Y-58120854D01*
X102340727Y-59273515D01*
X103221847Y-60156174D01*
X104373674Y-60634454D01*
X105620854Y-60635543D01*
X106773515Y-60159273D01*
X107656174Y-59278153D01*
X107854305Y-58801000D01*
X108467907Y-58801000D01*
X108580946Y-59369285D01*
X108902853Y-59851054D01*
X108944452Y-59878850D01*
X108896683Y-59887838D01*
X108680559Y-60026910D01*
X108535569Y-60239110D01*
X108484560Y-60491000D01*
X108484560Y-62191000D01*
X108528838Y-62426317D01*
X108667910Y-62642441D01*
X108880110Y-62787431D01*
X109132000Y-62838440D01*
X110832000Y-62838440D01*
X111067317Y-62794162D01*
X111283441Y-62655090D01*
X111428431Y-62442890D01*
X111479440Y-62191000D01*
X111479440Y-60491000D01*
X111435162Y-60255683D01*
X111296090Y-60039559D01*
X111083890Y-59894569D01*
X111016459Y-59880914D01*
X111061147Y-59851054D01*
X111383054Y-59369285D01*
X111457291Y-58996069D01*
X130142330Y-58996069D01*
X130291971Y-59358229D01*
X130568814Y-59635555D01*
X130930712Y-59785828D01*
X131322569Y-59786170D01*
X131684729Y-59636529D01*
X131800918Y-59520542D01*
X131800699Y-59771494D01*
X131950340Y-60133654D01*
X132227183Y-60410980D01*
X132589081Y-60561253D01*
X132980938Y-60561595D01*
X133343098Y-60411954D01*
X133620424Y-60135111D01*
X133671515Y-60012069D01*
X137063830Y-60012069D01*
X137213471Y-60374229D01*
X137490314Y-60651555D01*
X137852212Y-60801828D01*
X138244069Y-60802170D01*
X138606229Y-60652529D01*
X138883555Y-60375686D01*
X139033828Y-60013788D01*
X139034170Y-59621931D01*
X138884529Y-59259771D01*
X138607686Y-58982445D01*
X138245788Y-58832172D01*
X137853931Y-58831830D01*
X137491771Y-58981471D01*
X137214445Y-59258314D01*
X137064172Y-59620212D01*
X137063830Y-60012069D01*
X133671515Y-60012069D01*
X133770697Y-59773213D01*
X133771039Y-59381356D01*
X133621398Y-59019196D01*
X133344555Y-58741870D01*
X133265003Y-58708837D01*
X133382328Y-58426288D01*
X133382670Y-58034431D01*
X133233029Y-57672271D01*
X132956186Y-57394945D01*
X132594288Y-57244672D01*
X132202431Y-57244330D01*
X131840271Y-57393971D01*
X131562945Y-57670814D01*
X131476366Y-57879320D01*
X131324288Y-57816172D01*
X130932431Y-57815830D01*
X130570271Y-57965471D01*
X130292945Y-58242314D01*
X130142672Y-58604212D01*
X130142330Y-58996069D01*
X111457291Y-58996069D01*
X111496093Y-58801000D01*
X111383054Y-58232715D01*
X111061147Y-57750946D01*
X110579378Y-57429039D01*
X110011093Y-57316000D01*
X109952907Y-57316000D01*
X109384622Y-57429039D01*
X108902853Y-57750946D01*
X108580946Y-58232715D01*
X108467907Y-58801000D01*
X107854305Y-58801000D01*
X108134454Y-58126326D01*
X108135543Y-56879146D01*
X107659273Y-55726485D01*
X107564024Y-55631069D01*
X118533830Y-55631069D01*
X118683471Y-55993229D01*
X118960314Y-56270555D01*
X119322212Y-56420828D01*
X119714069Y-56421170D01*
X119936971Y-56329069D01*
X120807830Y-56329069D01*
X120957471Y-56691229D01*
X121234314Y-56968555D01*
X121280336Y-56987665D01*
X121189172Y-57207212D01*
X121188830Y-57599069D01*
X121338471Y-57961229D01*
X121615314Y-58238555D01*
X121977212Y-58388828D01*
X122369069Y-58389170D01*
X122731229Y-58239529D01*
X123008555Y-57962686D01*
X123158828Y-57600788D01*
X123158940Y-57472069D01*
X126205330Y-57472069D01*
X126354971Y-57834229D01*
X126631814Y-58111555D01*
X126993712Y-58261828D01*
X127385569Y-58262170D01*
X127747729Y-58112529D01*
X128025055Y-57835686D01*
X128175328Y-57473788D01*
X128175670Y-57081931D01*
X128069968Y-56826111D01*
X128438515Y-56673831D01*
X128562693Y-56549869D01*
X128600314Y-56587555D01*
X128962212Y-56737828D01*
X129354069Y-56738170D01*
X129716229Y-56588529D01*
X129993555Y-56311686D01*
X130143828Y-55949788D01*
X130143982Y-55773285D01*
X140219760Y-55773285D01*
X140430169Y-56282515D01*
X140819436Y-56672461D01*
X141328298Y-56883759D01*
X141879285Y-56884240D01*
X142388515Y-56673831D01*
X142778461Y-56284564D01*
X142989759Y-55775702D01*
X142990240Y-55224715D01*
X142779831Y-54715485D01*
X142390564Y-54325539D01*
X142158073Y-54229000D01*
X143837407Y-54229000D01*
X143950446Y-54797285D01*
X144272353Y-55279054D01*
X144313952Y-55306850D01*
X144266183Y-55315838D01*
X144050059Y-55454910D01*
X143905069Y-55667110D01*
X143854060Y-55919000D01*
X143854060Y-57619000D01*
X143898338Y-57854317D01*
X144037410Y-58070441D01*
X144249610Y-58215431D01*
X144501500Y-58266440D01*
X146201500Y-58266440D01*
X146436817Y-58222162D01*
X146652941Y-58083090D01*
X146797931Y-57870890D01*
X146848940Y-57619000D01*
X146848940Y-56515000D01*
X149044407Y-56515000D01*
X149157446Y-57083285D01*
X149479353Y-57565054D01*
X149520952Y-57592850D01*
X149473183Y-57601838D01*
X149257059Y-57740910D01*
X149112069Y-57953110D01*
X149061060Y-58205000D01*
X149061060Y-59905000D01*
X149105338Y-60140317D01*
X149244410Y-60356441D01*
X149456610Y-60501431D01*
X149708500Y-60552440D01*
X151408500Y-60552440D01*
X151643817Y-60508162D01*
X151859941Y-60369090D01*
X152004931Y-60156890D01*
X152055940Y-59905000D01*
X152055940Y-58205000D01*
X152011662Y-57969683D01*
X151872590Y-57753559D01*
X151660390Y-57608569D01*
X151592959Y-57594914D01*
X151637647Y-57565054D01*
X151959554Y-57083285D01*
X152072593Y-56515000D01*
X151959554Y-55946715D01*
X151637647Y-55464946D01*
X151155878Y-55143039D01*
X150587593Y-55030000D01*
X150529407Y-55030000D01*
X149961122Y-55143039D01*
X149479353Y-55464946D01*
X149157446Y-55946715D01*
X149044407Y-56515000D01*
X146848940Y-56515000D01*
X146848940Y-55919000D01*
X146804662Y-55683683D01*
X146665590Y-55467559D01*
X146453390Y-55322569D01*
X146385959Y-55308914D01*
X146430647Y-55279054D01*
X146752554Y-54797285D01*
X146852962Y-54292500D01*
X158061407Y-54292500D01*
X158174446Y-54860785D01*
X158496353Y-55342554D01*
X158537952Y-55370350D01*
X158490183Y-55379338D01*
X158274059Y-55518410D01*
X158129069Y-55730610D01*
X158078060Y-55982500D01*
X158078060Y-57682500D01*
X158122338Y-57917817D01*
X158261410Y-58133941D01*
X158473610Y-58278931D01*
X158725500Y-58329940D01*
X160425500Y-58329940D01*
X160660817Y-58285662D01*
X160876941Y-58146590D01*
X160894525Y-58120854D01*
X161864457Y-58120854D01*
X162340727Y-59273515D01*
X163221847Y-60156174D01*
X164373674Y-60634454D01*
X165620854Y-60635543D01*
X166773515Y-60159273D01*
X167656174Y-59278153D01*
X168134454Y-58126326D01*
X168135543Y-56879146D01*
X167659273Y-55726485D01*
X166778153Y-54843826D01*
X165626326Y-54365546D01*
X164379146Y-54364457D01*
X163226485Y-54840727D01*
X162343826Y-55721847D01*
X161865546Y-56873674D01*
X161864457Y-58120854D01*
X160894525Y-58120854D01*
X161021931Y-57934390D01*
X161072940Y-57682500D01*
X161072940Y-55982500D01*
X161028662Y-55747183D01*
X160889590Y-55531059D01*
X160677390Y-55386069D01*
X160609959Y-55372414D01*
X160654647Y-55342554D01*
X160976554Y-54860785D01*
X161089593Y-54292500D01*
X160976554Y-53724215D01*
X160654647Y-53242446D01*
X160172878Y-52920539D01*
X159604593Y-52807500D01*
X159546407Y-52807500D01*
X158978122Y-52920539D01*
X158496353Y-53242446D01*
X158174446Y-53724215D01*
X158061407Y-54292500D01*
X146852962Y-54292500D01*
X146865593Y-54229000D01*
X146752554Y-53660715D01*
X146430647Y-53178946D01*
X145948878Y-52857039D01*
X145380593Y-52744000D01*
X145322407Y-52744000D01*
X144754122Y-52857039D01*
X144272353Y-53178946D01*
X143950446Y-53660715D01*
X143837407Y-54229000D01*
X142158073Y-54229000D01*
X141881702Y-54114241D01*
X141330715Y-54113760D01*
X140821485Y-54324169D01*
X140431539Y-54713436D01*
X140220241Y-55222298D01*
X140219760Y-55773285D01*
X130143982Y-55773285D01*
X130144170Y-55557931D01*
X129994529Y-55195771D01*
X129886027Y-55087080D01*
X129989069Y-55087170D01*
X130351229Y-54937529D01*
X130365282Y-54923500D01*
X130378314Y-54936555D01*
X130740212Y-55086828D01*
X131132069Y-55087170D01*
X131494229Y-54937529D01*
X131771555Y-54660686D01*
X131817071Y-54551069D01*
X132618830Y-54551069D01*
X132768471Y-54913229D01*
X133045314Y-55190555D01*
X133407212Y-55340828D01*
X133799069Y-55341170D01*
X134161229Y-55191529D01*
X134302503Y-55050501D01*
X134442314Y-55190555D01*
X134804212Y-55340828D01*
X135196069Y-55341170D01*
X135558229Y-55191529D01*
X135835555Y-54914686D01*
X135985828Y-54552788D01*
X135986170Y-54160931D01*
X135836529Y-53798771D01*
X135559686Y-53521445D01*
X135197788Y-53371172D01*
X134805931Y-53370830D01*
X134443771Y-53520471D01*
X134302497Y-53661499D01*
X134162686Y-53521445D01*
X133800788Y-53371172D01*
X133408931Y-53370830D01*
X133046771Y-53520471D01*
X132769445Y-53797314D01*
X132619172Y-54159212D01*
X132618830Y-54551069D01*
X131817071Y-54551069D01*
X131921828Y-54298788D01*
X131922170Y-53906931D01*
X131772529Y-53544771D01*
X131495686Y-53267445D01*
X131133788Y-53117172D01*
X130741931Y-53116830D01*
X130379771Y-53266471D01*
X130365718Y-53280500D01*
X130352686Y-53267445D01*
X129990788Y-53117172D01*
X129598931Y-53116830D01*
X129236771Y-53266471D01*
X128959445Y-53543314D01*
X128809172Y-53905212D01*
X128808830Y-54297069D01*
X128958471Y-54659229D01*
X129066973Y-54767920D01*
X128963931Y-54767830D01*
X128867861Y-54807525D01*
X128829831Y-54715485D01*
X128440564Y-54325539D01*
X127931702Y-54114241D01*
X127380715Y-54113760D01*
X126871485Y-54324169D01*
X126481539Y-54713436D01*
X126270241Y-55222298D01*
X126269760Y-55773285D01*
X126480169Y-56282515D01*
X126637220Y-56439839D01*
X126633271Y-56441471D01*
X126355945Y-56718314D01*
X126205672Y-57080212D01*
X126205330Y-57472069D01*
X123158940Y-57472069D01*
X123159170Y-57208931D01*
X123009529Y-56846771D01*
X122732686Y-56569445D01*
X122686664Y-56550335D01*
X122777828Y-56330788D01*
X122778170Y-55938931D01*
X122688538Y-55722005D01*
X122877069Y-55722170D01*
X123239229Y-55572529D01*
X123516555Y-55295686D01*
X123666828Y-54933788D01*
X123667170Y-54541931D01*
X123517529Y-54179771D01*
X123240686Y-53902445D01*
X122878788Y-53752172D01*
X122841212Y-53752139D01*
X122755529Y-53544771D01*
X122478686Y-53267445D01*
X122116788Y-53117172D01*
X121724931Y-53116830D01*
X121362771Y-53266471D01*
X121085445Y-53543314D01*
X120935172Y-53905212D01*
X120934830Y-54297069D01*
X121084471Y-54659229D01*
X121361314Y-54936555D01*
X121723212Y-55086828D01*
X121760788Y-55086861D01*
X121786462Y-55148995D01*
X121597931Y-55148830D01*
X121235771Y-55298471D01*
X120958445Y-55575314D01*
X120808172Y-55937212D01*
X120807830Y-56329069D01*
X119936971Y-56329069D01*
X120076229Y-56271529D01*
X120353555Y-55994686D01*
X120503828Y-55632788D01*
X120504170Y-55240931D01*
X120354529Y-54878771D01*
X120077686Y-54601445D01*
X119715788Y-54451172D01*
X119323931Y-54450830D01*
X118961771Y-54600471D01*
X118684445Y-54877314D01*
X118534172Y-55239212D01*
X118533830Y-55631069D01*
X107564024Y-55631069D01*
X106778153Y-54843826D01*
X105626326Y-54365546D01*
X104379146Y-54364457D01*
X103226485Y-54840727D01*
X102343826Y-55721847D01*
X101865546Y-56873674D01*
X101864457Y-58120854D01*
X100710000Y-58120854D01*
X100710000Y-50710000D01*
X112997049Y-50710000D01*
X112830445Y-50876314D01*
M02*
