G04 #@! TF.FileFunction,Copper,L1,Top,Signal*
%FSLAX46Y46*%
G04 Gerber Fmt 4.6, Leading zero omitted, Abs format (unit mm)*
G04 Created by KiCad (PCBNEW 4.0.6) date Friday, August 25, 2017 'AMt' 01:11:23 AM*
%MOMM*%
%LPD*%
G01*
G04 APERTURE LIST*
%ADD10C,0.100000*%
%ADD11R,1.700000X1.700000*%
%ADD12O,1.700000X1.700000*%
%ADD13C,1.500000*%
%ADD14R,2.000000X2.600000*%
%ADD15R,0.700000X1.800000*%
%ADD16R,0.500000X0.900000*%
%ADD17R,1.600000X0.550000*%
%ADD18R,0.550000X1.600000*%
%ADD19R,1.727200X1.727200*%
%ADD20O,1.727200X1.727200*%
%ADD21R,1.300000X1.550000*%
%ADD22R,0.800000X0.750000*%
%ADD23R,0.750000X0.800000*%
%ADD24R,0.797560X0.797560*%
%ADD25R,1.550000X0.600000*%
%ADD26R,1.800000X1.200000*%
%ADD27O,1.998980X1.998980*%
%ADD28R,1.998980X1.998980*%
%ADD29R,0.900000X0.500000*%
%ADD30R,0.600000X1.550000*%
%ADD31R,1.750000X0.450000*%
%ADD32R,1.060000X0.650000*%
%ADD33R,2.250000X0.900000*%
%ADD34R,2.800000X0.900000*%
%ADD35R,0.650000X1.060000*%
%ADD36C,4.000000*%
%ADD37C,0.700000*%
%ADD38C,1.000000*%
%ADD39C,0.250000*%
%ADD40C,0.750000*%
%ADD41C,1.000000*%
%ADD42C,0.254000*%
G04 APERTURE END LIST*
D10*
D11*
X106807000Y-121158000D03*
D12*
X109347000Y-121158000D03*
X106807000Y-118618000D03*
X109347000Y-118618000D03*
X106807000Y-116078000D03*
X109347000Y-116078000D03*
D13*
X133741000Y-123952000D03*
X147691000Y-123952000D03*
D14*
X147491000Y-127952000D03*
X133941000Y-127952000D03*
D15*
X145091000Y-122852000D03*
X143841000Y-122852000D03*
X142591000Y-122852000D03*
X141341000Y-122852000D03*
X140091000Y-122852000D03*
X138841000Y-122852000D03*
X137591000Y-122852000D03*
X136341000Y-122852000D03*
D16*
X151741000Y-77470000D03*
X150241000Y-77470000D03*
D17*
X163517000Y-91682000D03*
X163517000Y-92482000D03*
X163517000Y-93282000D03*
X163517000Y-94082000D03*
X163517000Y-94882000D03*
X163517000Y-95682000D03*
X163517000Y-96482000D03*
X163517000Y-97282000D03*
D18*
X164967000Y-98732000D03*
X165767000Y-98732000D03*
X166567000Y-98732000D03*
X167367000Y-98732000D03*
X168167000Y-98732000D03*
X168967000Y-98732000D03*
X169767000Y-98732000D03*
X170567000Y-98732000D03*
D17*
X172017000Y-97282000D03*
X172017000Y-96482000D03*
X172017000Y-95682000D03*
X172017000Y-94882000D03*
X172017000Y-94082000D03*
X172017000Y-93282000D03*
X172017000Y-92482000D03*
X172017000Y-91682000D03*
D18*
X170567000Y-90232000D03*
X169767000Y-90232000D03*
X168967000Y-90232000D03*
X168167000Y-90232000D03*
X167367000Y-90232000D03*
X166567000Y-90232000D03*
X165767000Y-90232000D03*
X164967000Y-90232000D03*
D16*
X169787000Y-80518000D03*
X168287000Y-80518000D03*
D11*
X155702000Y-123698000D03*
D12*
X155702000Y-126238000D03*
X158242000Y-123698000D03*
X158242000Y-126238000D03*
X160782000Y-123698000D03*
X160782000Y-126238000D03*
X163322000Y-123698000D03*
X163322000Y-126238000D03*
X165862000Y-123698000D03*
X165862000Y-126238000D03*
X168402000Y-123698000D03*
X168402000Y-126238000D03*
X170942000Y-123698000D03*
X170942000Y-126238000D03*
X173482000Y-123698000D03*
X173482000Y-126238000D03*
X176022000Y-123698000D03*
X176022000Y-126238000D03*
X178562000Y-123698000D03*
X178562000Y-126238000D03*
D11*
X155702000Y-58293000D03*
D12*
X155702000Y-60833000D03*
X158242000Y-58293000D03*
X158242000Y-60833000D03*
X160782000Y-58293000D03*
X160782000Y-60833000D03*
X163322000Y-58293000D03*
X163322000Y-60833000D03*
X165862000Y-58293000D03*
X165862000Y-60833000D03*
X168402000Y-58293000D03*
X168402000Y-60833000D03*
X170942000Y-58293000D03*
X170942000Y-60833000D03*
X173482000Y-58293000D03*
X173482000Y-60833000D03*
X176022000Y-58293000D03*
X176022000Y-60833000D03*
X178562000Y-58293000D03*
X178562000Y-60833000D03*
D19*
X189357000Y-96393000D03*
D20*
X186817000Y-96393000D03*
X189357000Y-93853000D03*
X186817000Y-93853000D03*
X189357000Y-91313000D03*
X186817000Y-91313000D03*
D21*
X185837000Y-81318000D03*
X185837000Y-73368000D03*
X190337000Y-81318000D03*
X190337000Y-73368000D03*
D22*
X176137000Y-95758000D03*
X174637000Y-95758000D03*
D23*
X160782000Y-95873000D03*
X160782000Y-94373000D03*
D22*
X176137000Y-93853000D03*
X174637000Y-93853000D03*
D23*
X161417000Y-104545000D03*
X161417000Y-106045000D03*
X170307000Y-106045000D03*
X170307000Y-104545000D03*
X164084000Y-76823000D03*
X164084000Y-75323000D03*
D24*
X189242700Y-67818000D03*
X190741300Y-67818000D03*
D11*
X118872000Y-58293000D03*
D12*
X118872000Y-60833000D03*
X121412000Y-58293000D03*
X121412000Y-60833000D03*
X123952000Y-58293000D03*
X123952000Y-60833000D03*
X126492000Y-58293000D03*
X126492000Y-60833000D03*
X129032000Y-58293000D03*
X129032000Y-60833000D03*
X131572000Y-58293000D03*
X131572000Y-60833000D03*
X134112000Y-58293000D03*
X134112000Y-60833000D03*
X136652000Y-58293000D03*
X136652000Y-60833000D03*
D16*
X161429000Y-89154000D03*
X162929000Y-89154000D03*
X185432000Y-67818000D03*
X186932000Y-67818000D03*
X185432000Y-64389000D03*
X186932000Y-64389000D03*
X170700000Y-72390000D03*
X172200000Y-72390000D03*
D25*
X166337000Y-74168000D03*
X166337000Y-75438000D03*
X166337000Y-76708000D03*
X166337000Y-77978000D03*
X171737000Y-77978000D03*
X171737000Y-76708000D03*
X171737000Y-75438000D03*
X171737000Y-74168000D03*
D26*
X163862000Y-106483000D03*
X167862000Y-106483000D03*
X167862000Y-104083000D03*
X163862000Y-104083000D03*
D23*
X137922000Y-76454000D03*
X137922000Y-74954000D03*
X151892000Y-104382000D03*
X151892000Y-102882000D03*
D22*
X149594000Y-89916000D03*
X148094000Y-89916000D03*
D23*
X151511000Y-110883000D03*
X151511000Y-112383000D03*
X141605000Y-110260000D03*
X141605000Y-111760000D03*
D24*
X189242700Y-64389000D03*
X190741300Y-64389000D03*
X133985000Y-76708000D03*
X133985000Y-78206600D03*
D11*
X186817000Y-117983000D03*
D12*
X189357000Y-117983000D03*
X186817000Y-115443000D03*
X189357000Y-115443000D03*
X186817000Y-112903000D03*
X189357000Y-112903000D03*
X186817000Y-110363000D03*
X189357000Y-110363000D03*
D27*
X107061000Y-70739000D03*
D28*
X107061000Y-68199000D03*
D27*
X107061000Y-64008000D03*
D28*
X107061000Y-61468000D03*
D11*
X130175000Y-101727000D03*
D12*
X132715000Y-101727000D03*
X130175000Y-99187000D03*
X132715000Y-99187000D03*
X130175000Y-96647000D03*
X132715000Y-96647000D03*
X130175000Y-94107000D03*
X132715000Y-94107000D03*
X130175000Y-91567000D03*
X132715000Y-91567000D03*
X130175000Y-89027000D03*
X132715000Y-89027000D03*
D27*
X107696000Y-96520000D03*
D28*
X107696000Y-93980000D03*
D27*
X107696000Y-87376000D03*
D28*
X107696000Y-84836000D03*
D11*
X106807000Y-109474000D03*
D12*
X109347000Y-109474000D03*
X106807000Y-106934000D03*
X109347000Y-106934000D03*
X106807000Y-104394000D03*
X109347000Y-104394000D03*
D29*
X189357000Y-123166000D03*
X189357000Y-121666000D03*
D16*
X116598000Y-72644000D03*
X118098000Y-72644000D03*
X116598000Y-66040000D03*
X118098000Y-66040000D03*
D29*
X137033000Y-81129000D03*
X137033000Y-79629000D03*
X153797000Y-83185000D03*
X153797000Y-81685000D03*
X158115000Y-83173000D03*
X158115000Y-81673000D03*
X155956000Y-81685000D03*
X155956000Y-83185000D03*
X133985000Y-73545000D03*
X133985000Y-75045000D03*
X140716000Y-102882000D03*
X140716000Y-104382000D03*
D16*
X144006000Y-90932000D03*
X142506000Y-90932000D03*
X144006000Y-93472000D03*
X142506000Y-93472000D03*
X138708000Y-113284000D03*
X140208000Y-113284000D03*
D30*
X115379500Y-97315000D03*
X116649500Y-97315000D03*
X117919500Y-97315000D03*
X119189500Y-97315000D03*
X119189500Y-91915000D03*
X117919500Y-91915000D03*
X116649500Y-91915000D03*
X115379500Y-91915000D03*
X115379500Y-89250500D03*
X116649500Y-89250500D03*
X117919500Y-89250500D03*
X119189500Y-89250500D03*
X119189500Y-83850500D03*
X117919500Y-83850500D03*
X116649500Y-83850500D03*
X115379500Y-83850500D03*
D31*
X140078908Y-70440448D03*
X140078908Y-71090448D03*
X140078908Y-71740448D03*
X140078908Y-72390448D03*
X140078908Y-73040448D03*
X140078908Y-73690448D03*
X140078908Y-74340448D03*
X140078908Y-74990448D03*
X140078908Y-75640448D03*
X140078908Y-76290448D03*
X140078908Y-76940448D03*
X140078908Y-77590448D03*
X140078908Y-78240448D03*
X140078908Y-78890448D03*
X147278908Y-78890448D03*
X147278908Y-78240448D03*
X147278908Y-77590448D03*
X147278908Y-76940448D03*
X147278908Y-76290448D03*
X147278908Y-75640448D03*
X147278908Y-74990448D03*
X147278908Y-74340448D03*
X147278908Y-73690448D03*
X147278908Y-73040448D03*
X147278908Y-72390448D03*
X147278908Y-71740448D03*
X147278908Y-71090448D03*
X147278908Y-70440448D03*
D32*
X146644000Y-91572000D03*
X146644000Y-92522000D03*
X146644000Y-93472000D03*
X148844000Y-93472000D03*
X148844000Y-91572000D03*
D33*
X144002000Y-100340000D03*
X144002000Y-101590000D03*
X144002000Y-102890000D03*
X144002000Y-104140000D03*
X149352000Y-104140000D03*
X149352000Y-102890000D03*
D34*
X149077000Y-101590000D03*
D33*
X149352000Y-100340000D03*
D25*
X143731000Y-110617000D03*
X143731000Y-111887000D03*
X143731000Y-113157000D03*
X143731000Y-114427000D03*
X149131000Y-114427000D03*
X149131000Y-113157000D03*
X149131000Y-111887000D03*
X149131000Y-110617000D03*
D13*
X114056000Y-124079000D03*
X128006000Y-124079000D03*
D14*
X127806000Y-128079000D03*
X114256000Y-128079000D03*
D15*
X125406000Y-122979000D03*
X124156000Y-122979000D03*
X122906000Y-122979000D03*
X121656000Y-122979000D03*
X120406000Y-122979000D03*
X119156000Y-122979000D03*
X117906000Y-122979000D03*
X116656000Y-122979000D03*
D11*
X107188000Y-76644500D03*
D12*
X107188000Y-79184500D03*
D35*
X112969000Y-71458000D03*
X113919000Y-71458000D03*
X114869000Y-71458000D03*
X114869000Y-69258000D03*
X112969000Y-69258000D03*
X113919000Y-69258000D03*
X112842000Y-64727000D03*
X113792000Y-64727000D03*
X114742000Y-64727000D03*
X114742000Y-62527000D03*
X112842000Y-62527000D03*
X113792000Y-62527000D03*
D24*
X111125000Y-78740000D03*
X111125000Y-80238600D03*
D29*
X111125000Y-75335000D03*
X111125000Y-76835000D03*
D36*
X192000000Y-53776742D03*
X192000000Y-129176742D03*
X106000000Y-129176742D03*
X106000000Y-53776742D03*
D37*
X111125000Y-81534000D03*
X140208000Y-111760000D03*
X151511000Y-113665000D03*
D38*
X113919000Y-91440000D03*
X113919000Y-83439000D03*
X116205000Y-69850000D03*
X116078000Y-63119000D03*
D37*
X153174000Y-102882000D03*
X115570000Y-122047000D03*
X135128000Y-121793000D03*
X158115000Y-84201000D03*
X155956000Y-84201000D03*
X153797000Y-84201000D03*
X145288000Y-92456000D03*
X146812000Y-89916000D03*
X141732000Y-101600000D03*
X133985000Y-79375000D03*
X136779000Y-76454000D03*
X192532000Y-64389000D03*
X170387001Y-95222463D03*
X159512000Y-95758000D03*
X177292000Y-95758000D03*
X177292000Y-93853000D03*
X192532000Y-67818000D03*
X189992000Y-77343000D03*
X160147000Y-104648000D03*
X171577000Y-106553000D03*
X169672000Y-72263000D03*
X162687000Y-75438000D03*
X151511000Y-109728000D03*
X153162000Y-104394000D03*
X126746000Y-121920000D03*
X137033000Y-82296000D03*
X160274000Y-89154000D03*
X152781000Y-77470000D03*
X150876000Y-89916000D03*
X142748000Y-89408000D03*
X140716000Y-105664000D03*
X137668000Y-113284000D03*
X145288000Y-120904000D03*
X136779000Y-74930000D03*
X162687000Y-76708000D03*
X159512000Y-94488000D03*
X175387000Y-97028000D03*
X175387000Y-92583000D03*
X183642000Y-67818000D03*
X174117000Y-92583000D03*
X171577000Y-100203000D03*
X174382003Y-89408000D03*
X168148000Y-97028000D03*
X170307000Y-97028000D03*
X168529000Y-91948000D03*
X191770000Y-116332000D03*
X168529000Y-92964000D03*
X168550198Y-94020400D03*
X184912000Y-110363000D03*
X170942000Y-102743000D03*
X165186999Y-79248000D03*
X165227000Y-95123000D03*
X146685000Y-94742000D03*
X147066000Y-100340000D03*
X141889702Y-79598298D03*
X143764000Y-92329000D03*
X167132000Y-95758000D03*
X165862000Y-72898000D03*
X165862000Y-93853000D03*
X146685000Y-115951000D03*
X141605000Y-78359000D03*
X146812000Y-101473000D03*
X166497000Y-97028000D03*
X142621000Y-78232000D03*
X147720923Y-93088883D03*
X168910000Y-88265000D03*
X176023397Y-73534397D03*
X175387000Y-72898000D03*
X171577000Y-98933000D03*
X173482000Y-72898000D03*
X173482000Y-89408000D03*
X120523000Y-125897000D03*
X140081000Y-126111000D03*
X136779000Y-66033030D03*
X164211000Y-87630000D03*
X132842000Y-66167000D03*
X148082000Y-85598000D03*
X139446000Y-120904000D03*
X120015000Y-120904000D03*
X146431000Y-80645000D03*
X143256000Y-77470000D03*
X118491000Y-124714000D03*
X138049000Y-66802000D03*
X161925000Y-93091000D03*
D38*
X117856000Y-94742000D03*
X117856000Y-86487000D03*
D37*
X134112000Y-66040000D03*
X145542000Y-75819000D03*
X137033000Y-70739000D03*
X140335000Y-101727000D03*
X120269000Y-96139000D03*
X123444000Y-89662000D03*
X122682000Y-83439000D03*
X125222000Y-87884000D03*
X138303000Y-71374000D03*
X141478000Y-93218000D03*
X120523000Y-88392000D03*
X121920000Y-82169000D03*
X142748000Y-88138000D03*
X144272000Y-108331000D03*
X141605000Y-73025000D03*
X119761000Y-72644000D03*
X128016000Y-74422000D03*
X121539000Y-68072000D03*
X129921000Y-71374000D03*
X184404000Y-64643000D03*
X175387000Y-88265000D03*
D39*
X111125000Y-80238600D02*
X111125000Y-81534000D01*
X141605000Y-111760000D02*
X140208000Y-111760000D01*
X151511000Y-112383000D02*
X151511000Y-113665000D01*
D40*
X115379500Y-91915000D02*
X114394000Y-91915000D01*
X114394000Y-91915000D02*
X113919000Y-91440000D01*
X115379500Y-83850500D02*
X114330500Y-83850500D01*
X114330500Y-83850500D02*
X113919000Y-83439000D01*
X114869000Y-69258000D02*
X115613000Y-69258000D01*
X115613000Y-69258000D02*
X116205000Y-69850000D01*
X114742000Y-62527000D02*
X115486000Y-62527000D01*
X115486000Y-62527000D02*
X116078000Y-63119000D01*
D39*
X116656000Y-122979000D02*
X116502000Y-122979000D01*
X116502000Y-122979000D02*
X115570000Y-122047000D01*
X136341000Y-122852000D02*
X136187000Y-122852000D01*
X136187000Y-122852000D02*
X135128000Y-121793000D01*
X158115000Y-83173000D02*
X158115000Y-84201000D01*
X155956000Y-83185000D02*
X155956000Y-84201000D01*
X153797000Y-83185000D02*
X153797000Y-84201000D01*
X146644000Y-92522000D02*
X145354000Y-92522000D01*
X145354000Y-92522000D02*
X145288000Y-92456000D01*
X148094000Y-89916000D02*
X146812000Y-89916000D01*
X151892000Y-102882000D02*
X153174000Y-102882000D01*
X149352000Y-102890000D02*
X151884000Y-102890000D01*
X151884000Y-102890000D02*
X151892000Y-102882000D01*
X144002000Y-101590000D02*
X141742000Y-101590000D01*
X141742000Y-101590000D02*
X141732000Y-101600000D01*
X133985000Y-78206600D02*
X133985000Y-79375000D01*
X137922000Y-76454000D02*
X136779000Y-76454000D01*
X140078908Y-76290448D02*
X138085552Y-76290448D01*
X138085552Y-76290448D02*
X137922000Y-76454000D01*
X141605000Y-111760000D02*
X143604000Y-111760000D01*
X143604000Y-111760000D02*
X143731000Y-111887000D01*
X191390080Y-64389000D02*
X192532000Y-64389000D01*
X190741300Y-64389000D02*
X191390080Y-64389000D01*
X172017000Y-94888000D02*
X170721464Y-94888000D01*
X170721464Y-94888000D02*
X170387001Y-95222463D01*
X160782000Y-95873000D02*
X159627000Y-95873000D01*
X159627000Y-95873000D02*
X159512000Y-95758000D01*
X161742000Y-94888000D02*
X160782000Y-95848000D01*
X160782000Y-95848000D02*
X160782000Y-95873000D01*
X176137000Y-95758000D02*
X177292000Y-95758000D01*
X176137000Y-93853000D02*
X177292000Y-93853000D01*
X190741300Y-67818000D02*
X192532000Y-67818000D01*
X190337000Y-81318000D02*
X190337000Y-77688000D01*
X190337000Y-77688000D02*
X189992000Y-77343000D01*
X190337000Y-73368000D02*
X190337000Y-76998000D01*
X190337000Y-76998000D02*
X189992000Y-77343000D01*
X161417000Y-104533000D02*
X160262000Y-104533000D01*
X160262000Y-104533000D02*
X160147000Y-104648000D01*
X163862000Y-104083000D02*
X161867000Y-104083000D01*
X161867000Y-104083000D02*
X161417000Y-104533000D01*
X167862000Y-106483000D02*
X169857000Y-106483000D01*
X163517000Y-94888000D02*
X161742000Y-94888000D01*
X170307000Y-106033000D02*
X171057000Y-106033000D01*
X171057000Y-106033000D02*
X171577000Y-106553000D01*
X169857000Y-106483000D02*
X170307000Y-106033000D01*
X170700000Y-72390000D02*
X169799000Y-72390000D01*
X169799000Y-72390000D02*
X169672000Y-72263000D01*
X163957000Y-75323000D02*
X162802000Y-75323000D01*
X162802000Y-75323000D02*
X162687000Y-75438000D01*
X166337000Y-75438000D02*
X164072000Y-75438000D01*
X164072000Y-75438000D02*
X163957000Y-75323000D01*
X151511000Y-110883000D02*
X151511000Y-109728000D01*
X149131000Y-110617000D02*
X151245000Y-110617000D01*
X151245000Y-110617000D02*
X151511000Y-110883000D01*
X151892000Y-104382000D02*
X153150000Y-104382000D01*
X153150000Y-104382000D02*
X153162000Y-104394000D01*
X149352000Y-104140000D02*
X151650000Y-104140000D01*
X151650000Y-104140000D02*
X151892000Y-104382000D01*
X125406000Y-122979000D02*
X125687000Y-122979000D01*
X125687000Y-122979000D02*
X126746000Y-121920000D01*
X125406000Y-122979000D02*
X125406000Y-122411000D01*
X137033000Y-81129000D02*
X137033000Y-82296000D01*
X161429000Y-89154000D02*
X160274000Y-89154000D01*
X151741000Y-77470000D02*
X152781000Y-77470000D01*
X149594000Y-89916000D02*
X150876000Y-89916000D01*
X142506000Y-90932000D02*
X142506000Y-89650000D01*
X142506000Y-89650000D02*
X142748000Y-89408000D01*
X148844000Y-91572000D02*
X148844000Y-90666000D01*
X148844000Y-90666000D02*
X149594000Y-89916000D01*
X140716000Y-104382000D02*
X140716000Y-105664000D01*
X138708000Y-113284000D02*
X137668000Y-113284000D01*
X145091000Y-122852000D02*
X145091000Y-121101000D01*
X145091000Y-121101000D02*
X145288000Y-120904000D01*
X137922000Y-74954000D02*
X136803000Y-74954000D01*
X136803000Y-74954000D02*
X136779000Y-74930000D01*
X137922000Y-74954000D02*
X138608448Y-75640448D01*
X138608448Y-75640448D02*
X140078908Y-75640448D01*
X163957000Y-76823000D02*
X162802000Y-76823000D01*
X162802000Y-76823000D02*
X162687000Y-76708000D01*
X166337000Y-76708000D02*
X164072000Y-76708000D01*
X164072000Y-76708000D02*
X163957000Y-76823000D01*
X160782000Y-94373000D02*
X159627000Y-94373000D01*
X159627000Y-94373000D02*
X159512000Y-94488000D01*
X163517000Y-94088000D02*
X161067000Y-94088000D01*
X161067000Y-94088000D02*
X160782000Y-94373000D01*
X174637000Y-95758000D02*
X174637000Y-96278000D01*
X174637000Y-96278000D02*
X175387000Y-97028000D01*
X174637000Y-93853000D02*
X174637000Y-93333000D01*
X174637000Y-93333000D02*
X175387000Y-92583000D01*
X172017000Y-95688000D02*
X174567000Y-95688000D01*
X174567000Y-95688000D02*
X174637000Y-95758000D01*
X172017000Y-94088000D02*
X174402000Y-94088000D01*
X174402000Y-94088000D02*
X174637000Y-93853000D01*
X185432000Y-67818000D02*
X183642000Y-67818000D01*
X151650000Y-77524000D02*
X151650000Y-77724000D01*
X169857000Y-104083000D02*
X170307000Y-104533000D01*
X167862000Y-104083000D02*
X169857000Y-104083000D01*
X166567000Y-98738000D02*
X166567000Y-103088000D01*
X166567000Y-103088000D02*
X167562000Y-104083000D01*
X167562000Y-104083000D02*
X167862000Y-104083000D01*
X186932000Y-67818000D02*
X189242700Y-67818000D01*
X170567000Y-98738000D02*
X170567000Y-99193000D01*
X170567000Y-99193000D02*
X171577000Y-100203000D01*
X174117000Y-92583000D02*
X174466999Y-92233001D01*
X174466999Y-92233001D02*
X174466999Y-89492996D01*
X174466999Y-89492996D02*
X174382003Y-89408000D01*
X168497999Y-96678001D02*
X168148000Y-97028000D01*
X169487009Y-95688991D02*
X168497999Y-96678001D01*
X169487009Y-94801401D02*
X169487009Y-95688991D01*
X169712001Y-94542999D02*
X169712001Y-94576409D01*
X169712001Y-94576409D02*
X169487009Y-94801401D01*
X170967000Y-93288000D02*
X169712001Y-94542999D01*
X170967000Y-93288000D02*
X170891999Y-93363001D01*
X172017000Y-93288000D02*
X170967000Y-93288000D01*
X162306000Y-130302000D02*
X181521000Y-130302000D01*
X181521000Y-130302000D02*
X188657000Y-123166000D01*
X188657000Y-123166000D02*
X189357000Y-123166000D01*
X160782000Y-128778000D02*
X162306000Y-130302000D01*
X160782000Y-126238000D02*
X160782000Y-128778000D01*
X170847000Y-96488000D02*
X170307000Y-97028000D01*
X172017000Y-96488000D02*
X170847000Y-96488000D01*
X165767000Y-90232000D02*
X165767000Y-89371998D01*
X165767000Y-89371998D02*
X164849002Y-88454000D01*
X162929000Y-88954000D02*
X162929000Y-89154000D01*
X164849002Y-88454000D02*
X163429000Y-88454000D01*
X163429000Y-88454000D02*
X162929000Y-88954000D01*
X165767000Y-90238000D02*
X165767000Y-91288000D01*
X165767000Y-91288000D02*
X166427000Y-91948000D01*
X166427000Y-91948000D02*
X168529000Y-91948000D01*
X186987000Y-116713000D02*
X191389000Y-116713000D01*
X186817000Y-117983000D02*
X186817000Y-116883000D01*
X186817000Y-116883000D02*
X186987000Y-116713000D01*
X191389000Y-116713000D02*
X191770000Y-116332000D01*
X185837000Y-81318000D02*
X185837000Y-73368000D01*
X189357000Y-91313000D02*
X189357000Y-83938000D01*
X189357000Y-83938000D02*
X186737000Y-81318000D01*
X186737000Y-81318000D02*
X185837000Y-81318000D01*
X185166000Y-125603000D02*
X185166000Y-117094000D01*
X185166000Y-117094000D02*
X186817000Y-115443000D01*
X180917010Y-129851990D02*
X185166000Y-125603000D01*
X180905990Y-129851990D02*
X180917010Y-129851990D01*
X163068000Y-129794000D02*
X180848000Y-129794000D01*
X180848000Y-129794000D02*
X180905990Y-129851990D01*
X162146999Y-128872999D02*
X163068000Y-129794000D01*
X163322000Y-123698000D02*
X162146999Y-124873001D01*
X162146999Y-124873001D02*
X162146999Y-128872999D01*
X168188001Y-92623001D02*
X168529000Y-92964000D01*
X166465591Y-92623001D02*
X168188001Y-92623001D01*
X163517000Y-91688000D02*
X165530590Y-91688000D01*
X165530590Y-91688000D02*
X166465591Y-92623001D01*
X160782000Y-123698000D02*
X161957001Y-122522999D01*
X164686999Y-123133999D02*
X164686999Y-128364999D01*
X161957001Y-122522999D02*
X164075999Y-122522999D01*
X164686999Y-128364999D02*
X165665990Y-129343990D01*
X164075999Y-122522999D02*
X164686999Y-123133999D01*
X184715990Y-125416600D02*
X184715990Y-115004010D01*
X184715990Y-115004010D02*
X185967001Y-113752999D01*
X185967001Y-113752999D02*
X186817000Y-112903000D01*
X165665990Y-129343990D02*
X180788600Y-129343990D01*
X180788600Y-129343990D02*
X184715990Y-125416600D01*
X166279191Y-93073011D02*
X167602809Y-93073011D01*
X167602809Y-93073011D02*
X168550198Y-94020400D01*
X165694180Y-92488000D02*
X166279191Y-93073011D01*
X163517000Y-92488000D02*
X165694180Y-92488000D01*
X167367000Y-98738000D02*
X167367000Y-102343000D01*
X167367000Y-102343000D02*
X167767000Y-102743000D01*
X167767000Y-102743000D02*
X170322000Y-102743000D01*
X170322000Y-102743000D02*
X170942000Y-102743000D01*
X184912000Y-110363000D02*
X186817000Y-110363000D01*
X165186999Y-79248000D02*
X165186999Y-79128001D01*
X165186999Y-79128001D02*
X166337000Y-77978000D01*
X164662000Y-95688000D02*
X165227000Y-95123000D01*
X166497000Y-78138000D02*
X166337000Y-77978000D01*
X163517000Y-95688000D02*
X164662000Y-95688000D01*
X109347000Y-118618000D02*
X112980999Y-122251999D01*
X112980999Y-122251999D02*
X112980999Y-124595001D01*
X112980999Y-124595001D02*
X114282999Y-125897001D01*
X122906000Y-124617000D02*
X122906000Y-124129000D01*
X114282999Y-125897001D02*
X119420001Y-125897001D01*
X119420001Y-125897001D02*
X120269000Y-126746000D01*
X120269000Y-126746000D02*
X120777000Y-126746000D01*
X120777000Y-126746000D02*
X122906000Y-124617000D01*
X122906000Y-124129000D02*
X122906000Y-122979000D01*
X124212000Y-120523000D02*
X132176998Y-120523000D01*
X132176998Y-120523000D02*
X138439999Y-126786001D01*
X138439999Y-126786001D02*
X140405001Y-126786001D01*
X140405001Y-126786001D02*
X142591000Y-124600002D01*
X142591000Y-124600002D02*
X142591000Y-124002000D01*
X142591000Y-124002000D02*
X142591000Y-122852000D01*
X122906000Y-122979000D02*
X122906000Y-121829000D01*
X122906000Y-121829000D02*
X124212000Y-120523000D01*
X122906000Y-123529000D02*
X122906000Y-122979000D01*
X146685000Y-94742000D02*
X146685000Y-93513000D01*
X146685000Y-93513000D02*
X146644000Y-93472000D01*
X147066000Y-100340000D02*
X146421000Y-100340000D01*
X149352000Y-100340000D02*
X147066000Y-100340000D01*
X142591000Y-122852000D02*
X142591000Y-119029000D01*
X142591000Y-119029000D02*
X147193000Y-114427000D01*
X141889702Y-79598298D02*
X140786758Y-79598298D01*
X140786758Y-79598298D02*
X140078908Y-78890448D01*
X144006000Y-93472000D02*
X144006000Y-92571000D01*
X144006000Y-92571000D02*
X143764000Y-92329000D01*
X145923000Y-113157000D02*
X147193000Y-114427000D01*
X147193000Y-114427000D02*
X149131000Y-114427000D01*
X145923000Y-100838000D02*
X145923000Y-113157000D01*
X146421000Y-100340000D02*
X145923000Y-100838000D01*
X163517000Y-97282000D02*
X163517000Y-97807000D01*
X163517000Y-97807000D02*
X160984000Y-100340000D01*
X150727000Y-100340000D02*
X149352000Y-100340000D01*
X160984000Y-100340000D02*
X150727000Y-100340000D01*
X148677000Y-100340000D02*
X149352000Y-100340000D01*
X144006000Y-93472000D02*
X146644000Y-93472000D01*
X166260590Y-95758000D02*
X167132000Y-95758000D01*
X164730590Y-97288000D02*
X166260590Y-95758000D01*
X163517000Y-97288000D02*
X164730590Y-97288000D01*
X165862000Y-72898000D02*
X165862000Y-73693000D01*
X165862000Y-73693000D02*
X166337000Y-74168000D01*
X165902001Y-95447001D02*
X165902001Y-93893001D01*
X165902001Y-93893001D02*
X165862000Y-93853000D01*
X164861002Y-96488000D02*
X165902001Y-95447001D01*
X163517000Y-96488000D02*
X164861002Y-96488000D01*
X113351919Y-126365000D02*
X119251590Y-126365000D01*
X120082599Y-127196009D02*
X121088991Y-127196009D01*
X121088991Y-127196009D02*
X124156000Y-124129000D01*
X119251590Y-126365000D02*
X120082599Y-127196009D01*
X124156000Y-124129000D02*
X124156000Y-122979000D01*
X124156000Y-122979000D02*
X124156000Y-122429000D01*
X124156000Y-122429000D02*
X125340001Y-121244999D01*
X125340001Y-121244999D02*
X129442997Y-121244999D01*
X129442997Y-121244999D02*
X134524997Y-126326999D01*
X134524997Y-126326999D02*
X137344587Y-126326999D01*
X137344587Y-126326999D02*
X138253598Y-127236010D01*
X138253598Y-127236010D02*
X140606990Y-127236010D01*
X140606990Y-127236010D02*
X143841000Y-124002000D01*
X143841000Y-124002000D02*
X143841000Y-122852000D01*
X109347000Y-121158000D02*
X109347000Y-122360081D01*
X109347000Y-122360081D02*
X113351919Y-126365000D01*
X143841000Y-122852000D02*
X143841000Y-118795000D01*
X143841000Y-118795000D02*
X146685000Y-115951000D01*
X141605000Y-78359000D02*
X141486448Y-78240448D01*
X141486448Y-78240448D02*
X140078908Y-78240448D01*
X149077000Y-101590000D02*
X146929000Y-101590000D01*
X146929000Y-101590000D02*
X146812000Y-101473000D01*
X164967000Y-98732000D02*
X164442000Y-98732000D01*
X164442000Y-98732000D02*
X161584000Y-101590000D01*
X161584000Y-101590000D02*
X150727000Y-101590000D01*
X150727000Y-101590000D02*
X149077000Y-101590000D01*
X164967000Y-98738000D02*
X164967000Y-97688000D01*
X164967000Y-97688000D02*
X165627000Y-97028000D01*
X165627000Y-97028000D02*
X166497000Y-97028000D01*
X121656000Y-122979000D02*
X121656000Y-122429000D01*
X121656000Y-122429000D02*
X124012010Y-120072990D01*
X141341000Y-121702000D02*
X141341000Y-122852000D01*
X124012010Y-120072990D02*
X139711990Y-120072990D01*
X139711990Y-120072990D02*
X141341000Y-121702000D01*
X121656000Y-122979000D02*
X121656000Y-121545998D01*
X121656000Y-121545998D02*
X116188002Y-116078000D01*
X116188002Y-116078000D02*
X110549081Y-116078000D01*
X110549081Y-116078000D02*
X109347000Y-116078000D01*
X108171999Y-105569001D02*
X108171999Y-114902999D01*
X108171999Y-114902999D02*
X109347000Y-116078000D01*
X109347000Y-104394000D02*
X108171999Y-105569001D01*
X143731000Y-114427000D02*
X143731000Y-114977000D01*
X143731000Y-114977000D02*
X141341000Y-117367000D01*
X141341000Y-117367000D02*
X141341000Y-121702000D01*
X142621000Y-78232000D02*
X141979448Y-77590448D01*
X141979448Y-77590448D02*
X140078908Y-77590448D01*
X148844000Y-93472000D02*
X148104040Y-93472000D01*
X148104040Y-93472000D02*
X147720923Y-93088883D01*
X144002000Y-100340000D02*
X145377000Y-100340000D01*
X145452001Y-113180999D02*
X144206000Y-114427000D01*
X145377000Y-100340000D02*
X145452001Y-100415001D01*
X145452001Y-100415001D02*
X145452001Y-113180999D01*
X144206000Y-114427000D02*
X143731000Y-114427000D01*
X144002000Y-100340000D02*
X144677000Y-100340000D01*
X144677000Y-100340000D02*
X148844000Y-96173000D01*
X148844000Y-96173000D02*
X148844000Y-94047000D01*
X148844000Y-94047000D02*
X148844000Y-93472000D01*
X165853000Y-86868000D02*
X155653000Y-86868000D01*
X155653000Y-86868000D02*
X149049000Y-93472000D01*
X149049000Y-93472000D02*
X148844000Y-93472000D01*
X168167000Y-90232000D02*
X168167000Y-89182000D01*
X168167000Y-89182000D02*
X165853000Y-86868000D01*
X168167000Y-89088001D02*
X168167000Y-89008000D01*
X168167000Y-89008000D02*
X168910000Y-88265000D01*
X168167000Y-90238000D02*
X168167000Y-89088001D01*
X169787000Y-79818000D02*
X169787000Y-80518000D01*
X169787000Y-78183000D02*
X169787000Y-79818000D01*
X174645254Y-74824746D02*
X174733048Y-74824746D01*
X174733048Y-74824746D02*
X176023397Y-73534397D01*
X171737000Y-76708000D02*
X172762000Y-76708000D01*
X172762000Y-76708000D02*
X174645254Y-74824746D01*
X171737000Y-76708000D02*
X172212000Y-76708000D01*
X171737000Y-76708000D02*
X171262000Y-76708000D01*
X171262000Y-76708000D02*
X169787000Y-78183000D01*
X175387000Y-72898000D02*
X174157000Y-74128000D01*
X174157000Y-74128000D02*
X174157000Y-74168000D01*
X168287000Y-79818000D02*
X168287000Y-80518000D01*
X168287000Y-78413000D02*
X168287000Y-79818000D01*
X173482000Y-74803000D02*
X173522000Y-74803000D01*
X173522000Y-74803000D02*
X174157000Y-74168000D01*
X171737000Y-75438000D02*
X172847000Y-75438000D01*
X172847000Y-75438000D02*
X173482000Y-74803000D01*
X171737000Y-75438000D02*
X172212000Y-75438000D01*
X171737000Y-75438000D02*
X171262000Y-75438000D01*
X171262000Y-75438000D02*
X168287000Y-78413000D01*
X172017000Y-97288000D02*
X172017000Y-98493000D01*
X172017000Y-98493000D02*
X171577000Y-98933000D01*
X172708000Y-72898000D02*
X172200000Y-72390000D01*
X172708000Y-72898000D02*
X172457000Y-72898000D01*
X173482000Y-72898000D02*
X172708000Y-72898000D01*
X172457000Y-72898000D02*
X171737000Y-73618000D01*
X173482000Y-92073000D02*
X173482000Y-89408000D01*
X173067000Y-92488000D02*
X173482000Y-92073000D01*
X171737000Y-73618000D02*
X171737000Y-74168000D01*
X172017000Y-92488000D02*
X173067000Y-92488000D01*
X161867000Y-106483000D02*
X161417000Y-106033000D01*
X163862000Y-106483000D02*
X161867000Y-106483000D01*
X165767000Y-98738000D02*
X165767000Y-104878000D01*
X165767000Y-104878000D02*
X164162000Y-106483000D01*
X164162000Y-106483000D02*
X163862000Y-106483000D01*
X143731000Y-110617000D02*
X141962000Y-110617000D01*
X141962000Y-110617000D02*
X141605000Y-110260000D01*
X186932000Y-64389000D02*
X189242700Y-64389000D01*
X133985000Y-75045000D02*
X133985000Y-76708000D01*
X120523000Y-125897000D02*
X120523000Y-125402026D01*
X120523000Y-125402026D02*
X120406000Y-125285026D01*
X120406000Y-125285026D02*
X120406000Y-124256000D01*
X140081000Y-126111000D02*
X140081000Y-124266000D01*
X140081000Y-124266000D02*
X140091000Y-124256000D01*
X136779000Y-66033030D02*
X135287001Y-64541031D01*
X135287001Y-64541031D02*
X135287001Y-59468001D01*
X135287001Y-59468001D02*
X134961999Y-59142999D01*
X134961999Y-59142999D02*
X134112000Y-58293000D01*
X120406000Y-122979000D02*
X120406000Y-124256000D01*
X140091000Y-122852000D02*
X140091000Y-124256000D01*
X166567000Y-90232000D02*
X166567000Y-89182000D01*
X166567000Y-89182000D02*
X165015000Y-87630000D01*
X165015000Y-87630000D02*
X164211000Y-87630000D01*
X132842000Y-66167000D02*
X131572000Y-64897000D01*
X131572000Y-64897000D02*
X131572000Y-60833000D01*
X146431000Y-80645000D02*
X146431000Y-83947000D01*
X146431000Y-83947000D02*
X148082000Y-85598000D01*
X167965412Y-85685000D02*
X148169000Y-85685000D01*
X148169000Y-85685000D02*
X148082000Y-85598000D01*
X167965412Y-85685000D02*
X170053000Y-87772588D01*
X170053000Y-87772588D02*
X170053000Y-88896000D01*
X170053000Y-88896000D02*
X169767000Y-89182000D01*
X169767000Y-89182000D02*
X169767000Y-90232000D01*
X139446000Y-120904000D02*
X138841000Y-121509000D01*
X138841000Y-121509000D02*
X138841000Y-122852000D01*
X120015000Y-120904000D02*
X119156000Y-121763000D01*
X119156000Y-121763000D02*
X119156000Y-122979000D01*
X140078908Y-76940448D02*
X138953908Y-76940448D01*
X138953908Y-76940448D02*
X137033000Y-78861356D01*
X137033000Y-78861356D02*
X137033000Y-79129000D01*
X137033000Y-79129000D02*
X137033000Y-79629000D01*
X140078908Y-76940448D02*
X142726448Y-76940448D01*
X142726448Y-76940448D02*
X143256000Y-77470000D01*
X117906000Y-122979000D02*
X117906000Y-124129000D01*
X117906000Y-124129000D02*
X118491000Y-124714000D01*
X134112000Y-60833000D02*
X134112000Y-64365032D01*
X134112000Y-64365032D02*
X136548968Y-66802000D01*
X136548968Y-66802000D02*
X138049000Y-66802000D01*
X117906000Y-122979000D02*
X117906000Y-123529000D01*
X163517000Y-93282000D02*
X162116000Y-93282000D01*
X162116000Y-93282000D02*
X161925000Y-93091000D01*
D40*
X107188000Y-76644500D02*
X108497500Y-75335000D01*
X108497500Y-75335000D02*
X111125000Y-75335000D01*
X117856000Y-94742000D02*
X117856000Y-97251500D01*
X117856000Y-97251500D02*
X117919500Y-97315000D01*
X117919500Y-91915000D02*
X117919500Y-94678500D01*
X117919500Y-94678500D02*
X117856000Y-94742000D01*
X117856000Y-86487000D02*
X117856000Y-89187000D01*
X117856000Y-89187000D02*
X117919500Y-89250500D01*
X117919500Y-83850500D02*
X117919500Y-86423500D01*
X117919500Y-86423500D02*
X117856000Y-86487000D01*
D39*
X134112000Y-66040000D02*
X132936999Y-64864999D01*
X132936999Y-64864999D02*
X132936999Y-59657999D01*
X132936999Y-59657999D02*
X132421999Y-59142999D01*
X132421999Y-59142999D02*
X131572000Y-58293000D01*
X146153908Y-76940448D02*
X145542000Y-76328540D01*
X145542000Y-76328540D02*
X145542000Y-75819000D01*
X147278908Y-76940448D02*
X149711448Y-76940448D01*
X149711448Y-76940448D02*
X150241000Y-77470000D01*
X168967000Y-90232000D02*
X168967000Y-89182000D01*
X169585001Y-87940999D02*
X168004002Y-86360000D01*
X168967000Y-89182000D02*
X169585001Y-88563999D01*
X169585001Y-88563999D02*
X169585001Y-87940999D01*
X168004002Y-86360000D02*
X147574000Y-86360000D01*
X147574000Y-86360000D02*
X145738009Y-84524009D01*
X145738009Y-77356347D02*
X146153908Y-76940448D01*
X145738009Y-84524009D02*
X145738009Y-77356347D01*
X146153908Y-76940448D02*
X147278908Y-76940448D01*
X189357000Y-121158000D02*
X189357000Y-121678000D01*
X189357000Y-121043000D02*
X189357000Y-117983000D01*
D41*
X112969000Y-71458000D02*
X113200000Y-71458000D01*
D40*
X113200000Y-71458000D02*
X113843999Y-70814001D01*
X113843999Y-70814001D02*
X113843999Y-70348001D01*
X113843999Y-70348001D02*
X113843999Y-69258000D01*
D41*
X112969000Y-71458000D02*
X112969000Y-71436502D01*
D40*
X112969000Y-71436502D02*
X109731498Y-68199000D01*
X109731498Y-68199000D02*
X107061000Y-68199000D01*
X112946000Y-64727000D02*
X113792000Y-63881000D01*
X113792000Y-63881000D02*
X113792000Y-62527000D01*
X112842000Y-64727000D02*
X112946000Y-64727000D01*
X107061000Y-61468000D02*
X109788000Y-61468000D01*
X109788000Y-61468000D02*
X112842000Y-64522000D01*
X112842000Y-64522000D02*
X112842000Y-64727000D01*
D39*
X130175000Y-101727000D02*
X129075000Y-101727000D01*
X129075000Y-101727000D02*
X122538002Y-95190002D01*
X122538002Y-91567000D02*
X122538002Y-95190002D01*
X147278908Y-74990448D02*
X146313910Y-74990448D01*
X146313910Y-74990448D02*
X141213909Y-69890447D01*
X141213909Y-69890447D02*
X130007553Y-69890447D01*
X122538002Y-91567000D02*
X121144974Y-91567000D01*
X130007553Y-69890447D02*
X124333000Y-75565000D01*
X124333000Y-75565000D02*
X124333000Y-89772002D01*
X124333000Y-89772002D02*
X122538002Y-91567000D01*
X121144974Y-91567000D02*
X120650000Y-91567000D01*
X120650000Y-91567000D02*
X119537500Y-91567000D01*
X119537500Y-91567000D02*
X119189500Y-91915000D01*
X132715000Y-101727000D02*
X133917081Y-101727000D01*
X133917081Y-101727000D02*
X140335000Y-101727000D01*
X137033000Y-70612000D02*
X137033000Y-70739000D01*
X137665999Y-70440448D02*
X137204552Y-70440448D01*
X137204552Y-70440448D02*
X137033000Y-70612000D01*
X140716000Y-102882000D02*
X140516000Y-102882000D01*
X140335000Y-101727000D02*
X140335000Y-102501000D01*
X140335000Y-102501000D02*
X140716000Y-102882000D01*
X140078908Y-70440448D02*
X137665999Y-70440448D01*
X144002000Y-102890000D02*
X140724000Y-102890000D01*
X140724000Y-102890000D02*
X140716000Y-102882000D01*
X120269000Y-96139000D02*
X120269000Y-96235500D01*
X120269000Y-96235500D02*
X119189500Y-97315000D01*
X123454410Y-76570590D02*
X123454410Y-89651590D01*
X123454410Y-89651590D02*
X123444000Y-89662000D01*
X119189500Y-97315000D02*
X119189500Y-97790000D01*
X123454410Y-75554590D02*
X123454410Y-76570590D01*
X123454410Y-76570590D02*
X123444000Y-76581000D01*
X141159040Y-69277040D02*
X129731960Y-69277040D01*
X129731960Y-69277040D02*
X123454410Y-75554590D01*
X141400309Y-69440437D02*
X141322437Y-69440437D01*
X141322437Y-69440437D02*
X141159040Y-69277040D01*
X147278908Y-74340448D02*
X146300320Y-74340448D01*
X146300320Y-74340448D02*
X141400309Y-69440437D01*
X132715000Y-99187000D02*
X134804978Y-97097022D01*
X140165980Y-97097022D02*
X143088999Y-94174003D01*
X134804978Y-97097022D02*
X140165980Y-97097022D01*
X143088999Y-94174003D02*
X143088999Y-92049001D01*
X143088999Y-92049001D02*
X144006000Y-91132000D01*
X144006000Y-91132000D02*
X144006000Y-90932000D01*
X140078908Y-71090448D02*
X141203908Y-71090448D01*
X141203908Y-71090448D02*
X144006000Y-73892540D01*
X144006000Y-90932000D02*
X144006000Y-73892540D01*
X145420000Y-91572000D02*
X144780000Y-90932000D01*
X144780000Y-90932000D02*
X144006000Y-90932000D01*
X146644000Y-91572000D02*
X145420000Y-91572000D01*
X122682000Y-82406002D02*
X122682000Y-82296000D01*
X122682000Y-82296000D02*
X122682000Y-75566410D01*
X122682000Y-83439000D02*
X122682000Y-82296000D01*
X130175000Y-96647000D02*
X125222000Y-91694000D01*
X125222000Y-91694000D02*
X125222000Y-87884000D01*
X121000500Y-83850500D02*
X121237502Y-83850500D01*
X121237502Y-83850500D02*
X122682000Y-82406002D01*
X122682000Y-75566410D02*
X129421380Y-68827030D01*
X129421380Y-68827030D02*
X141097000Y-68827030D01*
X121000500Y-83850500D02*
X121031000Y-83820000D01*
X119189500Y-83850500D02*
X121000500Y-83850500D01*
X141331260Y-68827030D02*
X141097000Y-68827030D01*
X146286730Y-73690448D02*
X141423312Y-68827030D01*
X147278908Y-73690448D02*
X146286730Y-73690448D01*
X141423312Y-68827030D02*
X141097000Y-68827030D01*
X132715000Y-96647000D02*
X138049000Y-96647000D01*
X138049000Y-96647000D02*
X141478000Y-93218000D01*
X140078908Y-71740448D02*
X138669448Y-71740448D01*
X138669448Y-71740448D02*
X138303000Y-71374000D01*
X141478000Y-93218000D02*
X142252000Y-93218000D01*
X142252000Y-93218000D02*
X142506000Y-93472000D01*
X140078908Y-71740448D02*
X138698552Y-71740448D01*
X120523000Y-88392000D02*
X120048000Y-88392000D01*
X120048000Y-88392000D02*
X119189500Y-89250500D01*
X121979401Y-75632599D02*
X121979401Y-82109599D01*
X121979401Y-82109599D02*
X121920000Y-82169000D01*
X141351000Y-68377020D02*
X129234980Y-68377020D01*
X129234980Y-68377020D02*
X121979401Y-75632599D01*
X141517660Y-68377020D02*
X141351000Y-68377020D01*
X146273140Y-73040448D02*
X141609712Y-68377020D01*
X147278908Y-73040448D02*
X146273140Y-73040448D01*
X141609712Y-68377020D02*
X141351000Y-68377020D01*
X141224000Y-92472998D02*
X141224000Y-89662000D01*
X141224000Y-89662000D02*
X142748000Y-88138000D01*
X135822081Y-96012000D02*
X137684998Y-96012000D01*
X137684998Y-96012000D02*
X141224000Y-92472998D01*
X132715000Y-94107000D02*
X133917081Y-94107000D01*
X133917081Y-94107000D02*
X135822081Y-96012000D01*
X144272000Y-108331000D02*
X144831001Y-108890001D01*
X144831001Y-108890001D02*
X144831001Y-112531999D01*
X144831001Y-112531999D02*
X144206000Y-113157000D01*
X144206000Y-113157000D02*
X143731000Y-113157000D01*
X141605000Y-73025000D02*
X141605000Y-72530026D01*
X141605000Y-72530026D02*
X141465422Y-72390448D01*
X141465422Y-72390448D02*
X141203908Y-72390448D01*
X141203908Y-72390448D02*
X140078908Y-72390448D01*
X143731000Y-113157000D02*
X140335000Y-113157000D01*
X140335000Y-113157000D02*
X140208000Y-113284000D01*
X123314990Y-67927010D02*
X119253000Y-71989000D01*
X119253000Y-71989000D02*
X118598000Y-72644000D01*
X119761000Y-72644000D02*
X119253000Y-72136000D01*
X119253000Y-72136000D02*
X119253000Y-71989000D01*
X130175000Y-91567000D02*
X128016000Y-89408000D01*
X128016000Y-89408000D02*
X128016000Y-74422000D01*
X147278908Y-72390448D02*
X146304448Y-72390448D01*
X146304448Y-72390448D02*
X141841010Y-67927010D01*
X141841010Y-67927010D02*
X123314990Y-67927010D01*
X118598000Y-72644000D02*
X118098000Y-72644000D01*
X132715000Y-91567000D02*
X131539999Y-92742001D01*
X131539999Y-92742001D02*
X131539999Y-102647003D01*
X131539999Y-102647003D02*
X130968003Y-103218999D01*
X130968003Y-103218999D02*
X106242999Y-103218999D01*
X106242999Y-103218999D02*
X105631999Y-103829999D01*
X105631999Y-103829999D02*
X105631999Y-105758999D01*
X105631999Y-105758999D02*
X105957001Y-106084001D01*
X105957001Y-106084001D02*
X106807000Y-106934000D01*
X137240363Y-71685990D02*
X133922597Y-71685991D01*
X133922597Y-71685991D02*
X131539999Y-74068589D01*
X131539999Y-74068589D02*
X131539999Y-90391999D01*
X131539999Y-90391999D02*
X131865001Y-90717001D01*
X131865001Y-90717001D02*
X132715000Y-91567000D01*
X140078908Y-73040448D02*
X138594821Y-73040448D01*
X138594821Y-73040448D02*
X137240363Y-71685990D01*
X119335001Y-67477001D02*
X121539000Y-67477001D01*
X121539000Y-67477001D02*
X142027411Y-67477001D01*
X121539000Y-68072000D02*
X121539000Y-67577026D01*
X121539000Y-67577026D02*
X121539000Y-67477001D01*
X130175000Y-89027000D02*
X130175000Y-71628000D01*
X130175000Y-71628000D02*
X129921000Y-71374000D01*
X118098000Y-66040000D02*
X118098000Y-66240000D01*
X118098000Y-66240000D02*
X119335001Y-67477001D01*
X142027411Y-67477001D02*
X146290858Y-71740448D01*
X146290858Y-71740448D02*
X147278908Y-71740448D01*
X137053963Y-72136000D02*
X134108998Y-72136000D01*
X134108998Y-72136000D02*
X132715000Y-73529998D01*
X132715000Y-73529998D02*
X132715000Y-87824919D01*
X132715000Y-87824919D02*
X132715000Y-89027000D01*
X138608411Y-73690448D02*
X137053963Y-72136000D01*
X140078908Y-73690448D02*
X138608411Y-73690448D01*
D40*
X107696000Y-96520000D02*
X114584500Y-96520000D01*
X114584500Y-96520000D02*
X115379500Y-97315000D01*
X107696000Y-93980000D02*
X116109500Y-93980000D01*
X116109500Y-93980000D02*
X116649500Y-93440000D01*
X116649500Y-93440000D02*
X116649500Y-91915000D01*
X107696000Y-87376000D02*
X113980000Y-87376000D01*
X113980000Y-87376000D02*
X115379500Y-88775500D01*
X115379500Y-88775500D02*
X115379500Y-89250500D01*
X107696000Y-84836000D02*
X109445490Y-84836000D01*
X116139501Y-85200501D02*
X116649500Y-84690502D01*
X109445490Y-84836000D02*
X109809991Y-85200501D01*
X109809991Y-85200501D02*
X116139501Y-85200501D01*
X116649500Y-84690502D02*
X116649500Y-83850500D01*
D39*
X116598000Y-72644000D02*
X115991500Y-72644000D01*
X115991500Y-72644000D02*
X114869000Y-71521500D01*
X116598000Y-66040000D02*
X116078000Y-66040000D01*
X116078000Y-66040000D02*
X114808000Y-64770000D01*
X184404000Y-64643000D02*
X185178000Y-64643000D01*
X185178000Y-64643000D02*
X185432000Y-64389000D01*
X172017000Y-91682000D02*
X172017000Y-89873998D01*
X172017000Y-89873998D02*
X173625998Y-88265000D01*
X173625998Y-88265000D02*
X175387000Y-88265000D01*
X147278908Y-78890448D02*
X148403908Y-78890448D01*
X148403908Y-78890448D02*
X150296480Y-80783020D01*
X150296480Y-80783020D02*
X152695020Y-80783020D01*
X152695020Y-80783020D02*
X153597000Y-81685000D01*
X153597000Y-81685000D02*
X153797000Y-81685000D01*
X153997000Y-81685000D02*
X153797000Y-81685000D01*
X155625000Y-79883000D02*
X157415000Y-81673000D01*
X157415000Y-81673000D02*
X158115000Y-81673000D01*
X151368998Y-79883000D02*
X155625000Y-79883000D01*
X147278908Y-77590448D02*
X149076446Y-77590448D01*
X149076446Y-77590448D02*
X151368998Y-79883000D01*
X151182598Y-80333010D02*
X153904010Y-80333010D01*
X153904010Y-80333010D02*
X155256000Y-81685000D01*
X155256000Y-81685000D02*
X155956000Y-81685000D01*
X147278908Y-78240448D02*
X149090036Y-78240448D01*
X149090036Y-78240448D02*
X151182598Y-80333010D01*
X140078908Y-74340448D02*
X138622001Y-74340448D01*
X138622001Y-74340448D02*
X137826553Y-73545000D01*
X137826553Y-73545000D02*
X134685000Y-73545000D01*
X134685000Y-73545000D02*
X133985000Y-73545000D01*
X111125000Y-76835000D02*
X111125000Y-78740000D01*
D42*
G36*
X113467000Y-69099250D02*
X113498750Y-69131000D01*
X113792000Y-69131000D01*
X113792000Y-69111000D01*
X114046000Y-69111000D01*
X114046000Y-71882000D01*
X113421000Y-71882000D01*
X113421000Y-71616750D01*
X113389250Y-71585000D01*
X113096000Y-71585000D01*
X113096000Y-71605000D01*
X112842000Y-71605000D01*
X112842000Y-71585000D01*
X112822000Y-71585000D01*
X112822000Y-71331000D01*
X112842000Y-71331000D01*
X112842000Y-70832750D01*
X113096000Y-70832750D01*
X113096000Y-71331000D01*
X113389250Y-71331000D01*
X113421000Y-71299250D01*
X113421000Y-70902738D01*
X113401665Y-70856060D01*
X113365940Y-70820335D01*
X113319262Y-70801000D01*
X113127750Y-70801000D01*
X113096000Y-70832750D01*
X112842000Y-70832750D01*
X112810250Y-70801000D01*
X112649000Y-70801000D01*
X112649000Y-69915000D01*
X112810250Y-69915000D01*
X112842000Y-69883250D01*
X112842000Y-69385000D01*
X113096000Y-69385000D01*
X113096000Y-69883250D01*
X113127750Y-69915000D01*
X113319262Y-69915000D01*
X113365940Y-69895665D01*
X113401665Y-69859940D01*
X113421000Y-69813262D01*
X113421000Y-69416750D01*
X113467000Y-69416750D01*
X113467000Y-69813262D01*
X113486335Y-69859940D01*
X113522060Y-69895665D01*
X113568738Y-69915000D01*
X113760250Y-69915000D01*
X113792000Y-69883250D01*
X113792000Y-69385000D01*
X113498750Y-69385000D01*
X113467000Y-69416750D01*
X113421000Y-69416750D01*
X113389250Y-69385000D01*
X113096000Y-69385000D01*
X112842000Y-69385000D01*
X112822000Y-69385000D01*
X112822000Y-69131000D01*
X112842000Y-69131000D01*
X112842000Y-69111000D01*
X113096000Y-69111000D01*
X113096000Y-69131000D01*
X113389250Y-69131000D01*
X113421000Y-69099250D01*
X113421000Y-68834000D01*
X113467000Y-68834000D01*
X113467000Y-69099250D01*
X113467000Y-69099250D01*
G37*
X113467000Y-69099250D02*
X113498750Y-69131000D01*
X113792000Y-69131000D01*
X113792000Y-69111000D01*
X114046000Y-69111000D01*
X114046000Y-71882000D01*
X113421000Y-71882000D01*
X113421000Y-71616750D01*
X113389250Y-71585000D01*
X113096000Y-71585000D01*
X113096000Y-71605000D01*
X112842000Y-71605000D01*
X112842000Y-71585000D01*
X112822000Y-71585000D01*
X112822000Y-71331000D01*
X112842000Y-71331000D01*
X112842000Y-70832750D01*
X113096000Y-70832750D01*
X113096000Y-71331000D01*
X113389250Y-71331000D01*
X113421000Y-71299250D01*
X113421000Y-70902738D01*
X113401665Y-70856060D01*
X113365940Y-70820335D01*
X113319262Y-70801000D01*
X113127750Y-70801000D01*
X113096000Y-70832750D01*
X112842000Y-70832750D01*
X112810250Y-70801000D01*
X112649000Y-70801000D01*
X112649000Y-69915000D01*
X112810250Y-69915000D01*
X112842000Y-69883250D01*
X112842000Y-69385000D01*
X113096000Y-69385000D01*
X113096000Y-69883250D01*
X113127750Y-69915000D01*
X113319262Y-69915000D01*
X113365940Y-69895665D01*
X113401665Y-69859940D01*
X113421000Y-69813262D01*
X113421000Y-69416750D01*
X113467000Y-69416750D01*
X113467000Y-69813262D01*
X113486335Y-69859940D01*
X113522060Y-69895665D01*
X113568738Y-69915000D01*
X113760250Y-69915000D01*
X113792000Y-69883250D01*
X113792000Y-69385000D01*
X113498750Y-69385000D01*
X113467000Y-69416750D01*
X113421000Y-69416750D01*
X113389250Y-69385000D01*
X113096000Y-69385000D01*
X112842000Y-69385000D01*
X112822000Y-69385000D01*
X112822000Y-69131000D01*
X112842000Y-69131000D01*
X112842000Y-69111000D01*
X113096000Y-69111000D01*
X113096000Y-69131000D01*
X113389250Y-69131000D01*
X113421000Y-69099250D01*
X113421000Y-68834000D01*
X113467000Y-68834000D01*
X113467000Y-69099250D01*
G36*
X113340000Y-62368250D02*
X113371750Y-62400000D01*
X113665000Y-62400000D01*
X113665000Y-62380000D01*
X113919000Y-62380000D01*
X113919000Y-64874000D01*
X113665000Y-64874000D01*
X113665000Y-64854000D01*
X113371750Y-64854000D01*
X113340000Y-64885750D01*
X113340000Y-65151000D01*
X113294000Y-65151000D01*
X113294000Y-64885750D01*
X113262250Y-64854000D01*
X112969000Y-64854000D01*
X112969000Y-64874000D01*
X112715000Y-64874000D01*
X112715000Y-64854000D01*
X112695000Y-64854000D01*
X112695000Y-64600000D01*
X112715000Y-64600000D01*
X112715000Y-64101750D01*
X112969000Y-64101750D01*
X112969000Y-64600000D01*
X113262250Y-64600000D01*
X113294000Y-64568250D01*
X113294000Y-64171738D01*
X113340000Y-64171738D01*
X113340000Y-64568250D01*
X113371750Y-64600000D01*
X113665000Y-64600000D01*
X113665000Y-64101750D01*
X113633250Y-64070000D01*
X113441738Y-64070000D01*
X113395060Y-64089335D01*
X113359335Y-64125060D01*
X113340000Y-64171738D01*
X113294000Y-64171738D01*
X113274665Y-64125060D01*
X113238940Y-64089335D01*
X113192262Y-64070000D01*
X113000750Y-64070000D01*
X112969000Y-64101750D01*
X112715000Y-64101750D01*
X112683250Y-64070000D01*
X112491738Y-64070000D01*
X112445060Y-64089335D01*
X112409335Y-64125060D01*
X112395000Y-64159667D01*
X112395000Y-63094333D01*
X112409335Y-63128940D01*
X112445060Y-63164665D01*
X112491738Y-63184000D01*
X112683250Y-63184000D01*
X112715000Y-63152250D01*
X112715000Y-62654000D01*
X112969000Y-62654000D01*
X112969000Y-63152250D01*
X113000750Y-63184000D01*
X113192262Y-63184000D01*
X113238940Y-63164665D01*
X113274665Y-63128940D01*
X113294000Y-63082262D01*
X113294000Y-62685750D01*
X113340000Y-62685750D01*
X113340000Y-63082262D01*
X113359335Y-63128940D01*
X113395060Y-63164665D01*
X113441738Y-63184000D01*
X113633250Y-63184000D01*
X113665000Y-63152250D01*
X113665000Y-62654000D01*
X113371750Y-62654000D01*
X113340000Y-62685750D01*
X113294000Y-62685750D01*
X113262250Y-62654000D01*
X112969000Y-62654000D01*
X112715000Y-62654000D01*
X112695000Y-62654000D01*
X112695000Y-62400000D01*
X112715000Y-62400000D01*
X112715000Y-62380000D01*
X112969000Y-62380000D01*
X112969000Y-62400000D01*
X113262250Y-62400000D01*
X113294000Y-62368250D01*
X113294000Y-62103000D01*
X113340000Y-62103000D01*
X113340000Y-62368250D01*
X113340000Y-62368250D01*
G37*
X113340000Y-62368250D02*
X113371750Y-62400000D01*
X113665000Y-62400000D01*
X113665000Y-62380000D01*
X113919000Y-62380000D01*
X113919000Y-64874000D01*
X113665000Y-64874000D01*
X113665000Y-64854000D01*
X113371750Y-64854000D01*
X113340000Y-64885750D01*
X113340000Y-65151000D01*
X113294000Y-65151000D01*
X113294000Y-64885750D01*
X113262250Y-64854000D01*
X112969000Y-64854000D01*
X112969000Y-64874000D01*
X112715000Y-64874000D01*
X112715000Y-64854000D01*
X112695000Y-64854000D01*
X112695000Y-64600000D01*
X112715000Y-64600000D01*
X112715000Y-64101750D01*
X112969000Y-64101750D01*
X112969000Y-64600000D01*
X113262250Y-64600000D01*
X113294000Y-64568250D01*
X113294000Y-64171738D01*
X113340000Y-64171738D01*
X113340000Y-64568250D01*
X113371750Y-64600000D01*
X113665000Y-64600000D01*
X113665000Y-64101750D01*
X113633250Y-64070000D01*
X113441738Y-64070000D01*
X113395060Y-64089335D01*
X113359335Y-64125060D01*
X113340000Y-64171738D01*
X113294000Y-64171738D01*
X113274665Y-64125060D01*
X113238940Y-64089335D01*
X113192262Y-64070000D01*
X113000750Y-64070000D01*
X112969000Y-64101750D01*
X112715000Y-64101750D01*
X112683250Y-64070000D01*
X112491738Y-64070000D01*
X112445060Y-64089335D01*
X112409335Y-64125060D01*
X112395000Y-64159667D01*
X112395000Y-63094333D01*
X112409335Y-63128940D01*
X112445060Y-63164665D01*
X112491738Y-63184000D01*
X112683250Y-63184000D01*
X112715000Y-63152250D01*
X112715000Y-62654000D01*
X112969000Y-62654000D01*
X112969000Y-63152250D01*
X113000750Y-63184000D01*
X113192262Y-63184000D01*
X113238940Y-63164665D01*
X113274665Y-63128940D01*
X113294000Y-63082262D01*
X113294000Y-62685750D01*
X113340000Y-62685750D01*
X113340000Y-63082262D01*
X113359335Y-63128940D01*
X113395060Y-63164665D01*
X113441738Y-63184000D01*
X113633250Y-63184000D01*
X113665000Y-63152250D01*
X113665000Y-62654000D01*
X113371750Y-62654000D01*
X113340000Y-62685750D01*
X113294000Y-62685750D01*
X113262250Y-62654000D01*
X112969000Y-62654000D01*
X112715000Y-62654000D01*
X112695000Y-62654000D01*
X112695000Y-62400000D01*
X112715000Y-62400000D01*
X112715000Y-62380000D01*
X112969000Y-62380000D01*
X112969000Y-62400000D01*
X113262250Y-62400000D01*
X113294000Y-62368250D01*
X113294000Y-62103000D01*
X113340000Y-62103000D01*
X113340000Y-62368250D01*
G36*
X118046500Y-83723500D02*
X118066500Y-83723500D01*
X118066500Y-83977500D01*
X118046500Y-83977500D01*
X118046500Y-84720750D01*
X118078250Y-84752500D01*
X118110000Y-84752500D01*
X118110000Y-88348500D01*
X118078250Y-88348500D01*
X118046500Y-88380250D01*
X118046500Y-89123500D01*
X118066500Y-89123500D01*
X118066500Y-89377500D01*
X118046500Y-89377500D01*
X118046500Y-90120750D01*
X118078250Y-90152500D01*
X118110000Y-90152500D01*
X118110000Y-91013000D01*
X118078250Y-91013000D01*
X118046500Y-91044750D01*
X118046500Y-91788000D01*
X118066500Y-91788000D01*
X118066500Y-92042000D01*
X118046500Y-92042000D01*
X118046500Y-92785250D01*
X118078250Y-92817000D01*
X118110000Y-92817000D01*
X118110000Y-96413000D01*
X118078250Y-96413000D01*
X118046500Y-96444750D01*
X118046500Y-97188000D01*
X118066500Y-97188000D01*
X118066500Y-97442000D01*
X118046500Y-97442000D01*
X118046500Y-97462000D01*
X117792500Y-97462000D01*
X117792500Y-97442000D01*
X117524250Y-97442000D01*
X117492500Y-97473750D01*
X117492500Y-98044000D01*
X117076500Y-98044000D01*
X117076500Y-97473750D01*
X117044750Y-97442000D01*
X116776500Y-97442000D01*
X116776500Y-97462000D01*
X116522500Y-97462000D01*
X116522500Y-97442000D01*
X116502500Y-97442000D01*
X116502500Y-97188000D01*
X116522500Y-97188000D01*
X116522500Y-96444750D01*
X116776500Y-96444750D01*
X116776500Y-97188000D01*
X117044750Y-97188000D01*
X117076500Y-97156250D01*
X117076500Y-96514738D01*
X117492500Y-96514738D01*
X117492500Y-97156250D01*
X117524250Y-97188000D01*
X117792500Y-97188000D01*
X117792500Y-96444750D01*
X117760750Y-96413000D01*
X117594238Y-96413000D01*
X117547560Y-96432335D01*
X117511835Y-96468060D01*
X117492500Y-96514738D01*
X117076500Y-96514738D01*
X117057165Y-96468060D01*
X117021440Y-96432335D01*
X116974762Y-96413000D01*
X116808250Y-96413000D01*
X116776500Y-96444750D01*
X116522500Y-96444750D01*
X116490750Y-96413000D01*
X116459000Y-96413000D01*
X116459000Y-95293195D01*
X117702663Y-93676433D01*
X117724858Y-93631169D01*
X117729000Y-93599000D01*
X117729000Y-92817000D01*
X117760750Y-92817000D01*
X117792500Y-92785250D01*
X117792500Y-92042000D01*
X117772500Y-92042000D01*
X117772500Y-91788000D01*
X117792500Y-91788000D01*
X117792500Y-91044750D01*
X117760750Y-91013000D01*
X117729000Y-91013000D01*
X117729000Y-90170000D01*
X117725456Y-90152500D01*
X117760750Y-90152500D01*
X117792500Y-90120750D01*
X117792500Y-89377500D01*
X117524250Y-89377500D01*
X117492500Y-89409250D01*
X117492500Y-90043000D01*
X117076500Y-90043000D01*
X117076500Y-89409250D01*
X117044750Y-89377500D01*
X116776500Y-89377500D01*
X116776500Y-89397500D01*
X116522500Y-89397500D01*
X116522500Y-89377500D01*
X116502500Y-89377500D01*
X116502500Y-89123500D01*
X116522500Y-89123500D01*
X116522500Y-88380250D01*
X116776500Y-88380250D01*
X116776500Y-89123500D01*
X117044750Y-89123500D01*
X117076500Y-89091750D01*
X117076500Y-88450238D01*
X117492500Y-88450238D01*
X117492500Y-89091750D01*
X117524250Y-89123500D01*
X117792500Y-89123500D01*
X117792500Y-88380250D01*
X117760750Y-88348500D01*
X117594238Y-88348500D01*
X117547560Y-88367835D01*
X117511835Y-88403560D01*
X117492500Y-88450238D01*
X117076500Y-88450238D01*
X117057165Y-88403560D01*
X117021440Y-88367835D01*
X116974762Y-88348500D01*
X116808250Y-88348500D01*
X116776500Y-88380250D01*
X116522500Y-88380250D01*
X116490750Y-88348500D01*
X116459000Y-88348500D01*
X116459000Y-86654699D01*
X117705344Y-84909817D01*
X117725921Y-84863795D01*
X117729000Y-84836000D01*
X117729000Y-84752500D01*
X117760750Y-84752500D01*
X117792500Y-84720750D01*
X117792500Y-83977500D01*
X117772500Y-83977500D01*
X117772500Y-83723500D01*
X117792500Y-83723500D01*
X117792500Y-83703500D01*
X118046500Y-83703500D01*
X118046500Y-83723500D01*
X118046500Y-83723500D01*
G37*
X118046500Y-83723500D02*
X118066500Y-83723500D01*
X118066500Y-83977500D01*
X118046500Y-83977500D01*
X118046500Y-84720750D01*
X118078250Y-84752500D01*
X118110000Y-84752500D01*
X118110000Y-88348500D01*
X118078250Y-88348500D01*
X118046500Y-88380250D01*
X118046500Y-89123500D01*
X118066500Y-89123500D01*
X118066500Y-89377500D01*
X118046500Y-89377500D01*
X118046500Y-90120750D01*
X118078250Y-90152500D01*
X118110000Y-90152500D01*
X118110000Y-91013000D01*
X118078250Y-91013000D01*
X118046500Y-91044750D01*
X118046500Y-91788000D01*
X118066500Y-91788000D01*
X118066500Y-92042000D01*
X118046500Y-92042000D01*
X118046500Y-92785250D01*
X118078250Y-92817000D01*
X118110000Y-92817000D01*
X118110000Y-96413000D01*
X118078250Y-96413000D01*
X118046500Y-96444750D01*
X118046500Y-97188000D01*
X118066500Y-97188000D01*
X118066500Y-97442000D01*
X118046500Y-97442000D01*
X118046500Y-97462000D01*
X117792500Y-97462000D01*
X117792500Y-97442000D01*
X117524250Y-97442000D01*
X117492500Y-97473750D01*
X117492500Y-98044000D01*
X117076500Y-98044000D01*
X117076500Y-97473750D01*
X117044750Y-97442000D01*
X116776500Y-97442000D01*
X116776500Y-97462000D01*
X116522500Y-97462000D01*
X116522500Y-97442000D01*
X116502500Y-97442000D01*
X116502500Y-97188000D01*
X116522500Y-97188000D01*
X116522500Y-96444750D01*
X116776500Y-96444750D01*
X116776500Y-97188000D01*
X117044750Y-97188000D01*
X117076500Y-97156250D01*
X117076500Y-96514738D01*
X117492500Y-96514738D01*
X117492500Y-97156250D01*
X117524250Y-97188000D01*
X117792500Y-97188000D01*
X117792500Y-96444750D01*
X117760750Y-96413000D01*
X117594238Y-96413000D01*
X117547560Y-96432335D01*
X117511835Y-96468060D01*
X117492500Y-96514738D01*
X117076500Y-96514738D01*
X117057165Y-96468060D01*
X117021440Y-96432335D01*
X116974762Y-96413000D01*
X116808250Y-96413000D01*
X116776500Y-96444750D01*
X116522500Y-96444750D01*
X116490750Y-96413000D01*
X116459000Y-96413000D01*
X116459000Y-95293195D01*
X117702663Y-93676433D01*
X117724858Y-93631169D01*
X117729000Y-93599000D01*
X117729000Y-92817000D01*
X117760750Y-92817000D01*
X117792500Y-92785250D01*
X117792500Y-92042000D01*
X117772500Y-92042000D01*
X117772500Y-91788000D01*
X117792500Y-91788000D01*
X117792500Y-91044750D01*
X117760750Y-91013000D01*
X117729000Y-91013000D01*
X117729000Y-90170000D01*
X117725456Y-90152500D01*
X117760750Y-90152500D01*
X117792500Y-90120750D01*
X117792500Y-89377500D01*
X117524250Y-89377500D01*
X117492500Y-89409250D01*
X117492500Y-90043000D01*
X117076500Y-90043000D01*
X117076500Y-89409250D01*
X117044750Y-89377500D01*
X116776500Y-89377500D01*
X116776500Y-89397500D01*
X116522500Y-89397500D01*
X116522500Y-89377500D01*
X116502500Y-89377500D01*
X116502500Y-89123500D01*
X116522500Y-89123500D01*
X116522500Y-88380250D01*
X116776500Y-88380250D01*
X116776500Y-89123500D01*
X117044750Y-89123500D01*
X117076500Y-89091750D01*
X117076500Y-88450238D01*
X117492500Y-88450238D01*
X117492500Y-89091750D01*
X117524250Y-89123500D01*
X117792500Y-89123500D01*
X117792500Y-88380250D01*
X117760750Y-88348500D01*
X117594238Y-88348500D01*
X117547560Y-88367835D01*
X117511835Y-88403560D01*
X117492500Y-88450238D01*
X117076500Y-88450238D01*
X117057165Y-88403560D01*
X117021440Y-88367835D01*
X116974762Y-88348500D01*
X116808250Y-88348500D01*
X116776500Y-88380250D01*
X116522500Y-88380250D01*
X116490750Y-88348500D01*
X116459000Y-88348500D01*
X116459000Y-86654699D01*
X117705344Y-84909817D01*
X117725921Y-84863795D01*
X117729000Y-84836000D01*
X117729000Y-84752500D01*
X117760750Y-84752500D01*
X117792500Y-84720750D01*
X117792500Y-83977500D01*
X117772500Y-83977500D01*
X117772500Y-83723500D01*
X117792500Y-83723500D01*
X117792500Y-83703500D01*
X118046500Y-83703500D01*
X118046500Y-83723500D01*
M02*
